G04 #@! TF.GenerationSoftware,KiCad,Pcbnew,no-vcs-found*
G04 #@! TF.CreationDate,2016-12-05T11:41:50+01:00*
G04 #@! TF.ProjectId,x-mas tree-pan,782D6D617320747265652D70616E2E6B,rev?*
G04 #@! TF.FileFunction,Copper,L2,Bot,Signal*
G04 #@! TF.FilePolarity,Positive*
%FSLAX46Y46*%
G04 Gerber Fmt 4.6, Leading zero omitted, Abs format (unit mm)*
G04 Created by KiCad (PCBNEW no-vcs-found) date Mon Dec  5 11:41:50 2016*
%MOMM*%
%LPD*%
G01*
G04 APERTURE LIST*
%ADD10C,0.100000*%
%ADD11C,0.600000*%
%ADD12C,2.999740*%
%ADD13C,8.000000*%
%ADD14R,6.000000X3.000000*%
%ADD15R,1.000760X0.899160*%
%ADD16R,1.998980X0.599440*%
%ADD17R,0.899160X1.000760*%
%ADD18R,0.797560X0.797560*%
%ADD19R,1.500000X0.550000*%
%ADD20C,0.800000*%
%ADD21C,0.250000*%
%ADD22C,0.254000*%
G04 APERTURE END LIST*
D10*
D11*
X106695000Y-149522000D03*
D12*
X112156000Y-135171000D03*
D11*
X105933000Y-144823000D03*
X107076000Y-140124000D03*
X109616000Y-137584000D03*
X109489000Y-134790000D03*
X114823000Y-134663000D03*
X119649000Y-149903000D03*
X123586000Y-169588000D03*
X102377000Y-167302000D03*
X103266000Y-173398000D03*
X101869000Y-160317000D03*
X101742000Y-157015000D03*
X122697000Y-157015000D03*
X120919000Y-154983000D03*
X120538000Y-146855000D03*
X103647000Y-147109000D03*
X99837000Y-167556000D03*
X124348000Y-167302000D03*
X114188000Y-142156000D03*
D13*
X112156000Y-159936000D03*
D14*
X112156000Y-172936000D03*
X111956000Y-146936000D03*
X111956000Y-97406000D03*
X112156000Y-123406000D03*
D13*
X112156000Y-110406000D03*
D11*
X114188000Y-92626000D03*
X124348000Y-117772000D03*
X99837000Y-118026000D03*
X103647000Y-97579000D03*
X120538000Y-97325000D03*
X120919000Y-105453000D03*
X122697000Y-107485000D03*
X101742000Y-107485000D03*
X101869000Y-110787000D03*
X103266000Y-123868000D03*
X102377000Y-117772000D03*
X123586000Y-120058000D03*
X119649000Y-100373000D03*
X114823000Y-85133000D03*
X109489000Y-85260000D03*
X109616000Y-88054000D03*
X107076000Y-90594000D03*
X105933000Y-95293000D03*
D12*
X112156000Y-85641000D03*
D11*
X106695000Y-99992000D03*
D15*
X87772000Y-87914660D03*
X87772000Y-89418340D03*
D11*
X74945000Y-112098000D03*
D16*
X76774000Y-92667000D03*
X76774000Y-91397000D03*
X76774000Y-90127000D03*
X76774000Y-88857000D03*
X82362000Y-88857000D03*
X82362000Y-90127000D03*
X82362000Y-91397000D03*
X82362000Y-92667000D03*
D17*
X88534000Y-98890000D03*
X87030320Y-98890000D03*
D15*
X87518000Y-92921000D03*
X87518000Y-91417320D03*
X85232000Y-92900680D03*
X85232000Y-91397000D03*
D18*
X68595000Y-88730000D03*
X67096400Y-88730000D03*
X69001400Y-98636000D03*
X70500000Y-98636000D03*
X72278000Y-108796000D03*
X70779400Y-108796000D03*
X72684400Y-118829000D03*
X74183000Y-118829000D03*
X75453000Y-124417000D03*
X73954400Y-124417000D03*
X86756000Y-124417000D03*
X85257400Y-124417000D03*
X88026000Y-118829000D03*
X86527400Y-118829000D03*
X88432400Y-108796000D03*
X89931000Y-108796000D03*
X91836000Y-98890000D03*
X90337400Y-98890000D03*
X92369400Y-88730000D03*
X93868000Y-88730000D03*
D15*
X75326000Y-102562840D03*
X75326000Y-101059160D03*
X85232000Y-89365000D03*
X85232000Y-87861320D03*
X74056000Y-90137160D03*
X74056000Y-91640840D03*
D12*
X80406000Y-126449000D03*
D11*
X74183000Y-116797000D03*
X75326000Y-121496000D03*
X77866000Y-124036000D03*
X77739000Y-126830000D03*
X83073000Y-126957000D03*
X87899000Y-111717000D03*
X91836000Y-92032000D03*
X70627000Y-94318000D03*
X71516000Y-88222000D03*
X70119000Y-101303000D03*
X69992000Y-104605000D03*
X90947000Y-104605000D03*
X89169000Y-106637000D03*
X88788000Y-114765000D03*
X71897000Y-114511000D03*
X68087000Y-94064000D03*
X92598000Y-94318000D03*
X82438000Y-119464000D03*
D19*
X83454000Y-100922000D03*
X83454000Y-102192000D03*
X83454000Y-103462000D03*
X83454000Y-104732000D03*
X83454000Y-106002000D03*
X83454000Y-107272000D03*
X83454000Y-108542000D03*
X78054000Y-109812000D03*
X78054000Y-108542000D03*
X78054000Y-107272000D03*
X78054000Y-106002000D03*
X78054000Y-104732000D03*
X78054000Y-103462000D03*
X83454000Y-109812000D03*
X78054000Y-102192000D03*
X78054000Y-100922000D03*
X78054000Y-150452000D03*
X78054000Y-151722000D03*
X83454000Y-159342000D03*
X78054000Y-152992000D03*
X78054000Y-154262000D03*
X78054000Y-155532000D03*
X78054000Y-156802000D03*
X78054000Y-158072000D03*
X78054000Y-159342000D03*
X83454000Y-158072000D03*
X83454000Y-156802000D03*
X83454000Y-155532000D03*
X83454000Y-154262000D03*
X83454000Y-152992000D03*
X83454000Y-151722000D03*
X83454000Y-150452000D03*
D11*
X82438000Y-168994000D03*
X92598000Y-143848000D03*
X68087000Y-143594000D03*
X71897000Y-164041000D03*
X88788000Y-164295000D03*
X89169000Y-156167000D03*
X90947000Y-154135000D03*
X69992000Y-154135000D03*
X70119000Y-150833000D03*
X71516000Y-137752000D03*
X70627000Y-143848000D03*
X91836000Y-141562000D03*
X87899000Y-161247000D03*
X83073000Y-176487000D03*
X77739000Y-176360000D03*
X77866000Y-173566000D03*
X75326000Y-171026000D03*
X74183000Y-166327000D03*
D12*
X80406000Y-175979000D03*
D15*
X74056000Y-141170840D03*
X74056000Y-139667160D03*
X85232000Y-137391320D03*
X85232000Y-138895000D03*
X75326000Y-150589160D03*
X75326000Y-152092840D03*
D18*
X93868000Y-138260000D03*
X92369400Y-138260000D03*
X90337400Y-148420000D03*
X91836000Y-148420000D03*
X89931000Y-158326000D03*
X88432400Y-158326000D03*
X86527400Y-168359000D03*
X88026000Y-168359000D03*
X85257400Y-173947000D03*
X86756000Y-173947000D03*
X73954400Y-173947000D03*
X75453000Y-173947000D03*
X74183000Y-168359000D03*
X72684400Y-168359000D03*
X70779400Y-158326000D03*
X72278000Y-158326000D03*
X70500000Y-148166000D03*
X69001400Y-148166000D03*
X67096400Y-138260000D03*
X68595000Y-138260000D03*
D15*
X85232000Y-140927000D03*
X85232000Y-142430680D03*
X87518000Y-140947320D03*
X87518000Y-142451000D03*
D17*
X87030320Y-148420000D03*
X88534000Y-148420000D03*
D16*
X82362000Y-142197000D03*
X82362000Y-140927000D03*
X82362000Y-139657000D03*
X82362000Y-138387000D03*
X76774000Y-138387000D03*
X76774000Y-139657000D03*
X76774000Y-140927000D03*
X76774000Y-142197000D03*
D11*
X74945000Y-161628000D03*
D15*
X87772000Y-138948340D03*
X87772000Y-137444660D03*
D11*
X41925000Y-99992000D03*
D12*
X47386000Y-85641000D03*
D11*
X41163000Y-95293000D03*
X42306000Y-90594000D03*
X44846000Y-88054000D03*
X44719000Y-85260000D03*
X50053000Y-85133000D03*
X54879000Y-100373000D03*
X58816000Y-120058000D03*
X37607000Y-117772000D03*
X38496000Y-123868000D03*
X37099000Y-110787000D03*
X36972000Y-107485000D03*
X57927000Y-107485000D03*
X56149000Y-105453000D03*
X55768000Y-97325000D03*
X38877000Y-97579000D03*
X35067000Y-118026000D03*
X59578000Y-117772000D03*
X49418000Y-92626000D03*
D13*
X47386000Y-110406000D03*
D14*
X47386000Y-123406000D03*
X47186000Y-97406000D03*
X47186000Y-146936000D03*
X47386000Y-172936000D03*
D13*
X47386000Y-159936000D03*
D11*
X49418000Y-142156000D03*
X59578000Y-167302000D03*
X35067000Y-167556000D03*
X38877000Y-147109000D03*
X55768000Y-146855000D03*
X56149000Y-154983000D03*
X57927000Y-157015000D03*
X36972000Y-157015000D03*
X37099000Y-160317000D03*
X38496000Y-173398000D03*
X37607000Y-167302000D03*
X58816000Y-169588000D03*
X54879000Y-149903000D03*
X50053000Y-134663000D03*
X44719000Y-134790000D03*
X44846000Y-137584000D03*
X42306000Y-140124000D03*
X41163000Y-144823000D03*
D12*
X47386000Y-135171000D03*
D11*
X41925000Y-149522000D03*
D20*
X116220000Y-150030000D03*
X105933000Y-167810000D03*
X120284000Y-165905000D03*
X120284000Y-116375000D03*
X105933000Y-118280000D03*
X116220000Y-100500000D03*
X84470000Y-111590000D03*
X74183000Y-93810000D03*
X88534000Y-95715000D03*
X88534000Y-145245000D03*
X74183000Y-143340000D03*
X84470000Y-161120000D03*
X51450000Y-100500000D03*
X41163000Y-118280000D03*
X55514000Y-116375000D03*
X55514000Y-165905000D03*
X41163000Y-167810000D03*
X51450000Y-150030000D03*
X106060000Y-173271000D03*
X106060000Y-123741000D03*
X74310000Y-88349000D03*
X74310000Y-137879000D03*
X41290000Y-123741000D03*
X41290000Y-173271000D03*
X112169010Y-170035954D03*
X110105978Y-170165328D03*
X110105978Y-120635328D03*
X112169010Y-120505954D03*
X80419010Y-91584046D03*
X78355978Y-91454672D03*
X78355978Y-140984672D03*
X80419010Y-141114046D03*
X47399010Y-120505954D03*
X45335978Y-120635328D03*
X45335978Y-170165328D03*
X47399010Y-170035954D03*
X122189000Y-165524000D03*
X121450485Y-160674515D03*
X121450485Y-111144515D03*
X122189000Y-115994000D03*
X90439000Y-96096000D03*
X89700485Y-100945485D03*
X89700485Y-150475485D03*
X90439000Y-145626000D03*
X57419000Y-115994000D03*
X56680485Y-111144515D03*
X56680485Y-160674515D03*
X57419000Y-165524000D03*
X110378000Y-143299000D03*
X112419000Y-143680000D03*
X112419000Y-94150000D03*
X110378000Y-93769000D03*
X78628000Y-118321000D03*
X80669000Y-117940000D03*
X80669000Y-167470000D03*
X78628000Y-167851000D03*
X45608000Y-93769000D03*
X47649000Y-94150000D03*
X47649000Y-143680000D03*
X45608000Y-143299000D03*
X113790222Y-139694991D03*
X109362000Y-140505000D03*
X109362000Y-90975000D03*
X113790222Y-90164991D03*
X82040222Y-121925009D03*
X77612000Y-121115000D03*
X77612000Y-170645000D03*
X82040222Y-171455009D03*
X49020222Y-90164991D03*
X44592000Y-90975000D03*
X44592000Y-140505000D03*
X49020222Y-139694991D03*
X109202102Y-142165588D03*
X115204000Y-139997000D03*
X115204000Y-90467000D03*
X109202102Y-92635588D03*
X77452102Y-119454412D03*
X83454000Y-121623000D03*
X83454000Y-171153000D03*
X77452102Y-168984412D03*
X44432102Y-92635588D03*
X50434000Y-90467000D03*
X50434000Y-139997000D03*
X44432102Y-142165588D03*
D21*
X114315000Y-159936000D02*
X120284000Y-165905000D01*
X112156000Y-159936000D02*
X114315000Y-159936000D01*
X105933000Y-166159000D02*
X105933000Y-167810000D01*
X112156000Y-159936000D02*
X105933000Y-166159000D01*
X116220000Y-155872000D02*
X116220000Y-150030000D01*
X112156000Y-159936000D02*
X116220000Y-155872000D01*
X112156000Y-110406000D02*
X116220000Y-106342000D01*
X116220000Y-106342000D02*
X116220000Y-100500000D01*
X112156000Y-110406000D02*
X105933000Y-116629000D01*
X105933000Y-116629000D02*
X105933000Y-118280000D01*
X112156000Y-110406000D02*
X114315000Y-110406000D01*
X114315000Y-110406000D02*
X120284000Y-116375000D01*
X74183000Y-91767840D02*
X74056000Y-91640840D01*
X74183000Y-93810000D02*
X74183000Y-91767840D01*
X88933999Y-95315001D02*
X88933999Y-94426001D01*
X88534000Y-95715000D02*
X88933999Y-95315001D01*
X88933999Y-94426001D02*
X89804000Y-93556000D01*
X89804000Y-93556000D02*
X89804000Y-88222000D01*
X89296000Y-87714000D02*
X87772000Y-87714000D01*
X89804000Y-88222000D02*
X89296000Y-87714000D01*
X75326000Y-92667000D02*
X74183000Y-93810000D01*
X76774000Y-92667000D02*
X75326000Y-92667000D01*
X85379320Y-87714000D02*
X85232000Y-87861320D01*
X87772000Y-87714000D02*
X85379320Y-87714000D01*
X75696840Y-102192000D02*
X75326000Y-102562840D01*
X77054000Y-104732000D02*
X76342000Y-104020000D01*
X78054000Y-104732000D02*
X77054000Y-104732000D01*
X76342000Y-103429000D02*
X76342000Y-102192000D01*
X76342000Y-102192000D02*
X75696840Y-102192000D01*
X76342000Y-104020000D02*
X76342000Y-103429000D01*
X78054000Y-102192000D02*
X76342000Y-102192000D01*
X78054000Y-151722000D02*
X76342000Y-151722000D01*
X76342000Y-153550000D02*
X76342000Y-152959000D01*
X76342000Y-151722000D02*
X75696840Y-151722000D01*
X76342000Y-152959000D02*
X76342000Y-151722000D01*
X78054000Y-154262000D02*
X77054000Y-154262000D01*
X77054000Y-154262000D02*
X76342000Y-153550000D01*
X75696840Y-151722000D02*
X75326000Y-152092840D01*
X87772000Y-137244000D02*
X85379320Y-137244000D01*
X85379320Y-137244000D02*
X85232000Y-137391320D01*
X76774000Y-142197000D02*
X75326000Y-142197000D01*
X75326000Y-142197000D02*
X74183000Y-143340000D01*
X89804000Y-137752000D02*
X89296000Y-137244000D01*
X89296000Y-137244000D02*
X87772000Y-137244000D01*
X89804000Y-143086000D02*
X89804000Y-137752000D01*
X88933999Y-143956001D02*
X89804000Y-143086000D01*
X88534000Y-145245000D02*
X88933999Y-144845001D01*
X88933999Y-144845001D02*
X88933999Y-143956001D01*
X74183000Y-143340000D02*
X74183000Y-141297840D01*
X74183000Y-141297840D02*
X74056000Y-141170840D01*
X49545000Y-110406000D02*
X55514000Y-116375000D01*
X47386000Y-110406000D02*
X49545000Y-110406000D01*
X41163000Y-116629000D02*
X41163000Y-118280000D01*
X47386000Y-110406000D02*
X41163000Y-116629000D01*
X51450000Y-106342000D02*
X51450000Y-100500000D01*
X47386000Y-110406000D02*
X51450000Y-106342000D01*
X47386000Y-159936000D02*
X51450000Y-155872000D01*
X51450000Y-155872000D02*
X51450000Y-150030000D01*
X47386000Y-159936000D02*
X41163000Y-166159000D01*
X41163000Y-166159000D02*
X41163000Y-167810000D01*
X47386000Y-159936000D02*
X49545000Y-159936000D01*
X49545000Y-159936000D02*
X55514000Y-165905000D01*
X112202000Y-172890000D02*
X112156000Y-172936000D01*
X119776000Y-172890000D02*
X112202000Y-172890000D01*
X121059001Y-171606999D02*
X119776000Y-172890000D01*
X117744000Y-149474000D02*
X117744000Y-162217998D01*
X115206000Y-146936000D02*
X117744000Y-149474000D01*
X121059001Y-165532999D02*
X121059001Y-171606999D01*
X117744000Y-162217998D02*
X121059001Y-165532999D01*
X111956000Y-146936000D02*
X115206000Y-146936000D01*
X106395000Y-172936000D02*
X106060000Y-173271000D01*
X112156000Y-172936000D02*
X106395000Y-172936000D01*
X112156000Y-123406000D02*
X106395000Y-123406000D01*
X106395000Y-123406000D02*
X106060000Y-123741000D01*
X111956000Y-97406000D02*
X115206000Y-97406000D01*
X117744000Y-112687998D02*
X121059001Y-116002999D01*
X121059001Y-116002999D02*
X121059001Y-122076999D01*
X115206000Y-97406000D02*
X117744000Y-99944000D01*
X117744000Y-99944000D02*
X117744000Y-112687998D01*
X121059001Y-122076999D02*
X119776000Y-123360000D01*
X119776000Y-123360000D02*
X112202000Y-123360000D01*
X112202000Y-123360000D02*
X112156000Y-123406000D01*
X74056000Y-89437580D02*
X74056000Y-90137160D01*
X74636580Y-88857000D02*
X74056000Y-89437580D01*
X76774000Y-88857000D02*
X74636580Y-88857000D01*
X74056000Y-90137160D02*
X73305620Y-90137160D01*
X87518000Y-92921000D02*
X87518000Y-93620580D01*
X82362000Y-93607000D02*
X82362000Y-92667000D01*
X82362000Y-92667000D02*
X80279000Y-92667000D01*
X79644000Y-92032000D02*
X79644000Y-91969048D01*
X80279000Y-92667000D02*
X79644000Y-92032000D01*
X79644000Y-90254000D02*
X79644000Y-91969048D01*
X79263000Y-89746000D02*
X79263000Y-89873000D01*
X78374000Y-88857000D02*
X79263000Y-89746000D01*
X79263000Y-89873000D02*
X79644000Y-90254000D01*
X76774000Y-88857000D02*
X78374000Y-88857000D01*
X79644000Y-91969048D02*
X79644000Y-91143000D01*
X73305620Y-90137160D02*
X72913000Y-90529780D01*
X72913000Y-90529780D02*
X72913000Y-98763000D01*
X87518000Y-93620580D02*
X86693580Y-94445000D01*
X86693580Y-94445000D02*
X83200000Y-94445000D01*
X83200000Y-94445000D02*
X82362000Y-93607000D01*
X72913000Y-99271000D02*
X74701160Y-101059160D01*
X74701160Y-101059160D02*
X75326000Y-101059160D01*
X72913000Y-98763000D02*
X72913000Y-99271000D01*
X77916840Y-101059160D02*
X78054000Y-100922000D01*
X75326000Y-101059160D02*
X77916840Y-101059160D01*
X76774000Y-88857000D02*
X74818000Y-88857000D01*
X74818000Y-88857000D02*
X74709999Y-88748999D01*
X74709999Y-88748999D02*
X74310000Y-88349000D01*
X74709999Y-138278999D02*
X74310000Y-137879000D01*
X74818000Y-138387000D02*
X74709999Y-138278999D01*
X76774000Y-138387000D02*
X74818000Y-138387000D01*
X75326000Y-150589160D02*
X77916840Y-150589160D01*
X77916840Y-150589160D02*
X78054000Y-150452000D01*
X72913000Y-148293000D02*
X72913000Y-148801000D01*
X74701160Y-150589160D02*
X75326000Y-150589160D01*
X72913000Y-148801000D02*
X74701160Y-150589160D01*
X83200000Y-143975000D02*
X82362000Y-143137000D01*
X86693580Y-143975000D02*
X83200000Y-143975000D01*
X87518000Y-143150580D02*
X86693580Y-143975000D01*
X72913000Y-140059780D02*
X72913000Y-148293000D01*
X73305620Y-139667160D02*
X72913000Y-140059780D01*
X79644000Y-141499048D02*
X79644000Y-140673000D01*
X76774000Y-138387000D02*
X78374000Y-138387000D01*
X79263000Y-139403000D02*
X79644000Y-139784000D01*
X78374000Y-138387000D02*
X79263000Y-139276000D01*
X79263000Y-139276000D02*
X79263000Y-139403000D01*
X79644000Y-139784000D02*
X79644000Y-141499048D01*
X80279000Y-142197000D02*
X79644000Y-141562000D01*
X79644000Y-141562000D02*
X79644000Y-141499048D01*
X82362000Y-142197000D02*
X80279000Y-142197000D01*
X82362000Y-143137000D02*
X82362000Y-142197000D01*
X87518000Y-142451000D02*
X87518000Y-143150580D01*
X74056000Y-139667160D02*
X73305620Y-139667160D01*
X76774000Y-138387000D02*
X74636580Y-138387000D01*
X74636580Y-138387000D02*
X74056000Y-138967580D01*
X74056000Y-138967580D02*
X74056000Y-139667160D01*
X47432000Y-123360000D02*
X47386000Y-123406000D01*
X55006000Y-123360000D02*
X47432000Y-123360000D01*
X56289001Y-122076999D02*
X55006000Y-123360000D01*
X52974000Y-99944000D02*
X52974000Y-112687998D01*
X50436000Y-97406000D02*
X52974000Y-99944000D01*
X56289001Y-116002999D02*
X56289001Y-122076999D01*
X52974000Y-112687998D02*
X56289001Y-116002999D01*
X47186000Y-97406000D02*
X50436000Y-97406000D01*
X41625000Y-123406000D02*
X41290000Y-123741000D01*
X47386000Y-123406000D02*
X41625000Y-123406000D01*
X47386000Y-172936000D02*
X41625000Y-172936000D01*
X41625000Y-172936000D02*
X41290000Y-173271000D01*
X47186000Y-146936000D02*
X50436000Y-146936000D01*
X52974000Y-162217998D02*
X56289001Y-165532999D01*
X56289001Y-165532999D02*
X56289001Y-171606999D01*
X50436000Y-146936000D02*
X52974000Y-149474000D01*
X52974000Y-149474000D02*
X52974000Y-162217998D01*
X56289001Y-171606999D02*
X55006000Y-172890000D01*
X55006000Y-172890000D02*
X47432000Y-172890000D01*
X47432000Y-172890000D02*
X47386000Y-172936000D01*
X84343000Y-89365000D02*
X85232000Y-89365000D01*
X82362000Y-88857000D02*
X83835000Y-88857000D01*
X83835000Y-88857000D02*
X84343000Y-89365000D01*
X83835000Y-138387000D02*
X84343000Y-138895000D01*
X82362000Y-138387000D02*
X83835000Y-138387000D01*
X84343000Y-138895000D02*
X85232000Y-138895000D01*
X110105978Y-170165328D02*
X112039636Y-170165328D01*
X112039636Y-170165328D02*
X112169010Y-170035954D01*
X112039636Y-120635328D02*
X112169010Y-120505954D01*
X110105978Y-120635328D02*
X112039636Y-120635328D01*
X85181200Y-91397000D02*
X85232000Y-91397000D01*
X84481620Y-90697420D02*
X85181200Y-91397000D01*
X87060800Y-89619000D02*
X85282800Y-91397000D01*
X85282800Y-91397000D02*
X85232000Y-91397000D01*
X87772000Y-89619000D02*
X87060800Y-89619000D01*
X76774000Y-91397000D02*
X78298306Y-91397000D01*
X78298306Y-91397000D02*
X78355978Y-91454672D01*
X84481620Y-90646620D02*
X84481620Y-90697420D01*
X83962000Y-90127000D02*
X84481620Y-90646620D01*
X82362000Y-90127000D02*
X83962000Y-90127000D01*
X80419010Y-91370220D02*
X80419010Y-91584046D01*
X82362000Y-90127000D02*
X81662230Y-90127000D01*
X81662230Y-90127000D02*
X80419010Y-91370220D01*
X81662230Y-139657000D02*
X80419010Y-140900220D01*
X82362000Y-139657000D02*
X81662230Y-139657000D01*
X80419010Y-140900220D02*
X80419010Y-141114046D01*
X82362000Y-139657000D02*
X83962000Y-139657000D01*
X83962000Y-139657000D02*
X84481620Y-140176620D01*
X84481620Y-140176620D02*
X84481620Y-140227420D01*
X78298306Y-140927000D02*
X78355978Y-140984672D01*
X76774000Y-140927000D02*
X78298306Y-140927000D01*
X87772000Y-139149000D02*
X87060800Y-139149000D01*
X85282800Y-140927000D02*
X85232000Y-140927000D01*
X87060800Y-139149000D02*
X85282800Y-140927000D01*
X84481620Y-140227420D02*
X85181200Y-140927000D01*
X85181200Y-140927000D02*
X85232000Y-140927000D01*
X45335978Y-120635328D02*
X47269636Y-120635328D01*
X47269636Y-120635328D02*
X47399010Y-120505954D01*
X47269636Y-170165328D02*
X47399010Y-170035954D01*
X45335978Y-170165328D02*
X47269636Y-170165328D01*
X88534000Y-98139620D02*
X89434620Y-97239000D01*
X88534000Y-98890000D02*
X88534000Y-98139620D01*
X91722780Y-98128000D02*
X91836000Y-98128000D01*
X90833780Y-97239000D02*
X91722780Y-98128000D01*
X89434620Y-97239000D02*
X90833780Y-97239000D01*
X91836000Y-98128000D02*
X91836000Y-98890000D01*
X91836000Y-99906000D02*
X91836000Y-98890000D01*
X89931000Y-101811000D02*
X91836000Y-99906000D01*
X89931000Y-108796000D02*
X89931000Y-101811000D01*
X86756000Y-120861000D02*
X86756000Y-124417000D01*
X88026000Y-119591000D02*
X86756000Y-120861000D01*
X88026000Y-118829000D02*
X88026000Y-119591000D01*
X74564000Y-125687000D02*
X73954400Y-125077400D01*
X79263000Y-124163000D02*
X77739000Y-125687000D01*
X73954400Y-125077400D02*
X73954400Y-124417000D01*
X77739000Y-125687000D02*
X74564000Y-125687000D01*
X81549000Y-124163000D02*
X79263000Y-124163000D01*
X82946000Y-125560000D02*
X81549000Y-124163000D01*
X86261780Y-125560000D02*
X82946000Y-125560000D01*
X86756000Y-125065780D02*
X86261780Y-125560000D01*
X86756000Y-124417000D02*
X86756000Y-125065780D01*
X72684400Y-119565600D02*
X72684400Y-118829000D01*
X72659000Y-119591000D02*
X72684400Y-119565600D01*
X73954400Y-120886400D02*
X72659000Y-119591000D01*
X73954400Y-124417000D02*
X73954400Y-120886400D01*
X67096400Y-89644400D02*
X67096400Y-88730000D01*
X68976000Y-91524000D02*
X67096400Y-89644400D01*
X68976000Y-97961820D02*
X68976000Y-91524000D01*
X69001400Y-97987220D02*
X68976000Y-97961820D01*
X69001400Y-98636000D02*
X69001400Y-97987220D01*
X91836000Y-93683000D02*
X91836000Y-98128000D01*
X92725000Y-92794000D02*
X91836000Y-93683000D01*
X92725000Y-89873000D02*
X92725000Y-92794000D01*
X93868000Y-88730000D02*
X92725000Y-89873000D01*
X69484000Y-99118600D02*
X69001400Y-98636000D01*
X69443999Y-100978999D02*
X69484000Y-100938998D01*
X69484000Y-101667002D02*
X69443999Y-101627001D01*
X69484000Y-101938000D02*
X69484000Y-101667002D01*
X69484000Y-100938998D02*
X69484000Y-99118600D01*
X69443999Y-101627001D02*
X69443999Y-100978999D01*
X70754000Y-103208000D02*
X69484000Y-101938000D01*
X70754000Y-108121820D02*
X70754000Y-103208000D01*
X70779400Y-108147220D02*
X70754000Y-108121820D01*
X70779400Y-108796000D02*
X70779400Y-108147220D01*
X88026000Y-113876000D02*
X88026000Y-118829000D01*
X89296000Y-112606000D02*
X88026000Y-113876000D01*
X89296000Y-109431000D02*
X89296000Y-112606000D01*
X89931000Y-108796000D02*
X89296000Y-109431000D01*
X71389000Y-109405600D02*
X70779400Y-108796000D01*
X72659000Y-113368000D02*
X71389000Y-112098000D01*
X72684400Y-118180220D02*
X72659000Y-118154820D01*
X71389000Y-112098000D02*
X71389000Y-109405600D01*
X72659000Y-118154820D02*
X72659000Y-113368000D01*
X72684400Y-118829000D02*
X72684400Y-118180220D01*
X72684400Y-168359000D02*
X72684400Y-167710220D01*
X72659000Y-167684820D02*
X72659000Y-162898000D01*
X71389000Y-161628000D02*
X71389000Y-158935600D01*
X72684400Y-167710220D02*
X72659000Y-167684820D01*
X72659000Y-162898000D02*
X71389000Y-161628000D01*
X71389000Y-158935600D02*
X70779400Y-158326000D01*
X89931000Y-158326000D02*
X89296000Y-158961000D01*
X89296000Y-158961000D02*
X89296000Y-162136000D01*
X89296000Y-162136000D02*
X88026000Y-163406000D01*
X88026000Y-163406000D02*
X88026000Y-168359000D01*
X70779400Y-158326000D02*
X70779400Y-157677220D01*
X70779400Y-157677220D02*
X70754000Y-157651820D01*
X70754000Y-157651820D02*
X70754000Y-152738000D01*
X70754000Y-152738000D02*
X69484000Y-151468000D01*
X69443999Y-151157001D02*
X69443999Y-150508999D01*
X69484000Y-150468998D02*
X69484000Y-148648600D01*
X69484000Y-151468000D02*
X69484000Y-151197002D01*
X69484000Y-151197002D02*
X69443999Y-151157001D01*
X69443999Y-150508999D02*
X69484000Y-150468998D01*
X69484000Y-148648600D02*
X69001400Y-148166000D01*
X93868000Y-138260000D02*
X92725000Y-139403000D01*
X92725000Y-139403000D02*
X92725000Y-142324000D01*
X92725000Y-142324000D02*
X91836000Y-143213000D01*
X91836000Y-143213000D02*
X91836000Y-147658000D01*
X69001400Y-148166000D02*
X69001400Y-147517220D01*
X69001400Y-147517220D02*
X68976000Y-147491820D01*
X68976000Y-147491820D02*
X68976000Y-141054000D01*
X68976000Y-141054000D02*
X67096400Y-139174400D01*
X67096400Y-139174400D02*
X67096400Y-138260000D01*
X73954400Y-173947000D02*
X73954400Y-170416400D01*
X73954400Y-170416400D02*
X72659000Y-169121000D01*
X72659000Y-169121000D02*
X72684400Y-169095600D01*
X72684400Y-169095600D02*
X72684400Y-168359000D01*
X86756000Y-173947000D02*
X86756000Y-174595780D01*
X86756000Y-174595780D02*
X86261780Y-175090000D01*
X86261780Y-175090000D02*
X82946000Y-175090000D01*
X82946000Y-175090000D02*
X81549000Y-173693000D01*
X81549000Y-173693000D02*
X79263000Y-173693000D01*
X77739000Y-175217000D02*
X74564000Y-175217000D01*
X73954400Y-174607400D02*
X73954400Y-173947000D01*
X79263000Y-173693000D02*
X77739000Y-175217000D01*
X74564000Y-175217000D02*
X73954400Y-174607400D01*
X88026000Y-168359000D02*
X88026000Y-169121000D01*
X88026000Y-169121000D02*
X86756000Y-170391000D01*
X86756000Y-170391000D02*
X86756000Y-173947000D01*
X89931000Y-158326000D02*
X89931000Y-151341000D01*
X89931000Y-151341000D02*
X91836000Y-149436000D01*
X91836000Y-149436000D02*
X91836000Y-148420000D01*
X91836000Y-147658000D02*
X91836000Y-148420000D01*
X89434620Y-146769000D02*
X90833780Y-146769000D01*
X90833780Y-146769000D02*
X91722780Y-147658000D01*
X91722780Y-147658000D02*
X91836000Y-147658000D01*
X88534000Y-148420000D02*
X88534000Y-147669620D01*
X88534000Y-147669620D02*
X89434620Y-146769000D01*
X121850484Y-161074514D02*
X121450485Y-160674515D01*
X122189000Y-165524000D02*
X122189000Y-161413030D01*
X122189000Y-161413030D02*
X121850484Y-161074514D01*
X122189000Y-111883030D02*
X121850484Y-111544514D01*
X122189000Y-115994000D02*
X122189000Y-111883030D01*
X121850484Y-111544514D02*
X121450485Y-111144515D01*
X92369400Y-88730000D02*
X92369400Y-89378780D01*
X92369400Y-89378780D02*
X90439000Y-91309180D01*
X90439000Y-91309180D02*
X90439000Y-96096000D01*
X83454000Y-103462000D02*
X87183970Y-103462000D01*
X89300486Y-101345484D02*
X89700485Y-100945485D01*
X87183970Y-103462000D02*
X89300486Y-101345484D01*
X87183970Y-152992000D02*
X89300486Y-150875484D01*
X89300486Y-150875484D02*
X89700485Y-150475485D01*
X83454000Y-152992000D02*
X87183970Y-152992000D01*
X90439000Y-140839180D02*
X90439000Y-145626000D01*
X92369400Y-138908780D02*
X90439000Y-140839180D01*
X92369400Y-138260000D02*
X92369400Y-138908780D01*
X57080484Y-111544514D02*
X56680485Y-111144515D01*
X57419000Y-115994000D02*
X57419000Y-111883030D01*
X57419000Y-111883030D02*
X57080484Y-111544514D01*
X57419000Y-161413030D02*
X57080484Y-161074514D01*
X57419000Y-165524000D02*
X57419000Y-161413030D01*
X57080484Y-161074514D02*
X56680485Y-160674515D01*
X87035400Y-102192000D02*
X90337400Y-98890000D01*
X83454000Y-102192000D02*
X87035400Y-102192000D01*
X83454000Y-151722000D02*
X87035400Y-151722000D01*
X87035400Y-151722000D02*
X90337400Y-148420000D01*
X88432400Y-108796000D02*
X88432400Y-108147220D01*
X88432400Y-108147220D02*
X87518000Y-107232820D01*
X86502000Y-104732000D02*
X87518000Y-105748000D01*
X83454000Y-104732000D02*
X86502000Y-104732000D01*
X87518000Y-107232820D02*
X87518000Y-105748000D01*
X87518000Y-156762820D02*
X87518000Y-155278000D01*
X83454000Y-154262000D02*
X86502000Y-154262000D01*
X86502000Y-154262000D02*
X87518000Y-155278000D01*
X88432400Y-157677220D02*
X87518000Y-156762820D01*
X88432400Y-158326000D02*
X88432400Y-157677220D01*
X86527400Y-118829000D02*
X86527400Y-118180220D01*
X86527400Y-118180220D02*
X86681047Y-118026573D01*
X86681047Y-118026573D02*
X86681047Y-112968798D01*
X86681047Y-112968798D02*
X85740000Y-112027751D01*
X83454000Y-108542000D02*
X84724000Y-108542000D01*
X85740000Y-109558000D02*
X85740000Y-112027751D01*
X84724000Y-108542000D02*
X85740000Y-109558000D01*
X84724000Y-158072000D02*
X85740000Y-159088000D01*
X85740000Y-159088000D02*
X85740000Y-161557751D01*
X83454000Y-158072000D02*
X84724000Y-158072000D01*
X86681047Y-162498798D02*
X85740000Y-161557751D01*
X86681047Y-167556573D02*
X86681047Y-162498798D01*
X86527400Y-167710220D02*
X86681047Y-167556573D01*
X86527400Y-168359000D02*
X86527400Y-167710220D01*
X78529000Y-108542000D02*
X78054000Y-108542000D01*
X79898000Y-116231996D02*
X79898000Y-109911000D01*
X79644000Y-116485996D02*
X79898000Y-116231996D01*
X79644000Y-121115000D02*
X79644000Y-116485996D01*
X82946000Y-124417000D02*
X79644000Y-121115000D01*
X79898000Y-109911000D02*
X78529000Y-108542000D01*
X85257400Y-124417000D02*
X82946000Y-124417000D01*
X85257400Y-173947000D02*
X82946000Y-173947000D01*
X79898000Y-159441000D02*
X78529000Y-158072000D01*
X82946000Y-173947000D02*
X79644000Y-170645000D01*
X79644000Y-170645000D02*
X79644000Y-166015996D01*
X79644000Y-166015996D02*
X79898000Y-165761996D01*
X79898000Y-165761996D02*
X79898000Y-159441000D01*
X78529000Y-158072000D02*
X78054000Y-158072000D01*
X112038000Y-143299000D02*
X112419000Y-143680000D01*
X110378000Y-143299000D02*
X112038000Y-143299000D01*
X110378000Y-93769000D02*
X112038000Y-93769000D01*
X112038000Y-93769000D02*
X112419000Y-94150000D01*
X82979000Y-100922000D02*
X83454000Y-100922000D01*
X80669000Y-103232000D02*
X82979000Y-100922000D01*
X80669000Y-117940000D02*
X80669000Y-103232000D01*
X79027999Y-121490781D02*
X79027999Y-118720999D01*
X75453000Y-124417000D02*
X76101780Y-124417000D01*
X76101780Y-124417000D02*
X79027999Y-121490781D01*
X79027999Y-118720999D02*
X78628000Y-118321000D01*
X79027999Y-168250999D02*
X78628000Y-167851000D01*
X76101780Y-173947000D02*
X79027999Y-171020781D01*
X75453000Y-173947000D02*
X76101780Y-173947000D01*
X79027999Y-171020781D02*
X79027999Y-168250999D01*
X80669000Y-167470000D02*
X80669000Y-152762000D01*
X80669000Y-152762000D02*
X82979000Y-150452000D01*
X82979000Y-150452000D02*
X83454000Y-150452000D01*
X47268000Y-93769000D02*
X47649000Y-94150000D01*
X45608000Y-93769000D02*
X47268000Y-93769000D01*
X45608000Y-143299000D02*
X47268000Y-143299000D01*
X47268000Y-143299000D02*
X47649000Y-143680000D01*
X113790222Y-139694991D02*
X112980213Y-140505000D01*
X112980213Y-140505000D02*
X109927685Y-140505000D01*
X109927685Y-140505000D02*
X109362000Y-140505000D01*
X109927685Y-90975000D02*
X109362000Y-90975000D01*
X112980213Y-90975000D02*
X109927685Y-90975000D01*
X113790222Y-90164991D02*
X112980213Y-90975000D01*
X82040222Y-121698193D02*
X82040222Y-121925009D01*
X83486013Y-119183598D02*
X83486013Y-120252402D01*
X81803000Y-117500585D02*
X83486013Y-119183598D01*
X83486013Y-120252402D02*
X82040222Y-121698193D01*
X81803000Y-117500585D02*
X81744585Y-117500585D01*
X81744585Y-117500585D02*
X81422000Y-117178000D01*
X81422000Y-117178000D02*
X81422000Y-106510000D01*
X81930000Y-106002000D02*
X83454000Y-106002000D01*
X81422000Y-106510000D02*
X81930000Y-106002000D01*
X74183000Y-118829000D02*
X75326000Y-118829000D01*
X75326000Y-118829000D02*
X77212001Y-120715001D01*
X77212001Y-120715001D02*
X77612000Y-121115000D01*
X77212001Y-170245001D02*
X77612000Y-170645000D01*
X75326000Y-168359000D02*
X77212001Y-170245001D01*
X74183000Y-168359000D02*
X75326000Y-168359000D01*
X81422000Y-156040000D02*
X81930000Y-155532000D01*
X81930000Y-155532000D02*
X83454000Y-155532000D01*
X81422000Y-166708000D02*
X81422000Y-156040000D01*
X81744585Y-167030585D02*
X81422000Y-166708000D01*
X81803000Y-167030585D02*
X81744585Y-167030585D01*
X83486013Y-169782402D02*
X82040222Y-171228193D01*
X81803000Y-167030585D02*
X83486013Y-168713598D01*
X83486013Y-168713598D02*
X83486013Y-169782402D01*
X82040222Y-171228193D02*
X82040222Y-171455009D01*
X49020222Y-90164991D02*
X48210213Y-90975000D01*
X48210213Y-90975000D02*
X45157685Y-90975000D01*
X45157685Y-90975000D02*
X44592000Y-90975000D01*
X45157685Y-140505000D02*
X44592000Y-140505000D01*
X48210213Y-140505000D02*
X45157685Y-140505000D01*
X49020222Y-139694991D02*
X48210213Y-140505000D01*
X109202102Y-142165588D02*
X113035412Y-142165588D01*
X113035412Y-142165588D02*
X114804001Y-140396999D01*
X114804001Y-140396999D02*
X115204000Y-139997000D01*
X114804001Y-90866999D02*
X115204000Y-90467000D01*
X113035412Y-92635588D02*
X114804001Y-90866999D01*
X109202102Y-92635588D02*
X113035412Y-92635588D01*
X83853999Y-121223001D02*
X83454000Y-121623000D01*
X84343000Y-120734000D02*
X83853999Y-121223001D01*
X84343000Y-118829000D02*
X84343000Y-120734000D01*
X81930000Y-116416000D02*
X84343000Y-118829000D01*
X81930000Y-107796000D02*
X81930000Y-116416000D01*
X82454000Y-107272000D02*
X81930000Y-107796000D01*
X83454000Y-107272000D02*
X82454000Y-107272000D01*
X77452102Y-118888727D02*
X77452102Y-119454412D01*
X77452102Y-117018102D02*
X77452102Y-118888727D01*
X72913000Y-112479000D02*
X77452102Y-117018102D01*
X72913000Y-109431000D02*
X72913000Y-112479000D01*
X72278000Y-108796000D02*
X72913000Y-109431000D01*
X72278000Y-158326000D02*
X72913000Y-158961000D01*
X72913000Y-158961000D02*
X72913000Y-162009000D01*
X72913000Y-162009000D02*
X77452102Y-166548102D01*
X77452102Y-166548102D02*
X77452102Y-168418727D01*
X77452102Y-168418727D02*
X77452102Y-168984412D01*
X83454000Y-156802000D02*
X82454000Y-156802000D01*
X82454000Y-156802000D02*
X81930000Y-157326000D01*
X81930000Y-157326000D02*
X81930000Y-165946000D01*
X81930000Y-165946000D02*
X84343000Y-168359000D01*
X84343000Y-168359000D02*
X84343000Y-170264000D01*
X84343000Y-170264000D02*
X83853999Y-170753001D01*
X83853999Y-170753001D02*
X83454000Y-171153000D01*
X44432102Y-92635588D02*
X48265412Y-92635588D01*
X48265412Y-92635588D02*
X50034001Y-90866999D01*
X50034001Y-90866999D02*
X50434000Y-90467000D01*
X50034001Y-140396999D02*
X50434000Y-139997000D01*
X48265412Y-142165588D02*
X50034001Y-140396999D01*
X44432102Y-142165588D02*
X48265412Y-142165588D01*
X76596000Y-109812000D02*
X78054000Y-109812000D01*
X71897000Y-105113000D02*
X76596000Y-109812000D01*
X71897000Y-100681780D02*
X71897000Y-105113000D01*
X70500000Y-99284780D02*
X71897000Y-100681780D01*
X70500000Y-98636000D02*
X70500000Y-99284780D01*
X70500000Y-148166000D02*
X70500000Y-148814780D01*
X70500000Y-148814780D02*
X71897000Y-150211780D01*
X71897000Y-150211780D02*
X71897000Y-154643000D01*
X71897000Y-154643000D02*
X76596000Y-159342000D01*
X76596000Y-159342000D02*
X78054000Y-159342000D01*
X72397010Y-102819010D02*
X76850000Y-107272000D01*
X72397010Y-91883230D02*
X72397010Y-102819010D01*
X76850000Y-107272000D02*
X78054000Y-107272000D01*
X69243780Y-88730000D02*
X72397010Y-91883230D01*
X68595000Y-88730000D02*
X69243780Y-88730000D01*
X68595000Y-138260000D02*
X69243780Y-138260000D01*
X69243780Y-138260000D02*
X72397010Y-141413230D01*
X76850000Y-156802000D02*
X78054000Y-156802000D01*
X72397010Y-141413230D02*
X72397010Y-152349010D01*
X72397010Y-152349010D02*
X76850000Y-156802000D01*
X83611490Y-91397000D02*
X84089000Y-91874510D01*
X82362000Y-91397000D02*
X83611490Y-91397000D01*
X84089000Y-91874510D02*
X84089000Y-92540000D01*
X84449680Y-92900680D02*
X85232000Y-92900680D01*
X84089000Y-92540000D02*
X84449680Y-92900680D01*
X85982380Y-92900680D02*
X86375000Y-92508060D01*
X85232000Y-92900680D02*
X85982380Y-92900680D01*
X86375000Y-92508060D02*
X86375000Y-91778000D01*
X86735680Y-91417320D02*
X87518000Y-91417320D01*
X86375000Y-91778000D02*
X86735680Y-91417320D01*
X86375000Y-141308000D02*
X86735680Y-140947320D01*
X86735680Y-140947320D02*
X87518000Y-140947320D01*
X86375000Y-142038060D02*
X86375000Y-141308000D01*
X85232000Y-142430680D02*
X85982380Y-142430680D01*
X85982380Y-142430680D02*
X86375000Y-142038060D01*
X84089000Y-142070000D02*
X84449680Y-142430680D01*
X84449680Y-142430680D02*
X85232000Y-142430680D01*
X84089000Y-141404510D02*
X84089000Y-142070000D01*
X82362000Y-140927000D02*
X83611490Y-140927000D01*
X83611490Y-140927000D02*
X84089000Y-141404510D01*
X78253054Y-90127000D02*
X76774000Y-90127000D01*
X79130988Y-91004934D02*
X78253054Y-90127000D01*
X80152000Y-95461000D02*
X79130988Y-94439988D01*
X80152000Y-102446000D02*
X80152000Y-95461000D01*
X79130988Y-94439988D02*
X79130988Y-91004934D01*
X79136000Y-103462000D02*
X80152000Y-102446000D01*
X78054000Y-103462000D02*
X79136000Y-103462000D01*
X78054000Y-152992000D02*
X79136000Y-152992000D01*
X79136000Y-152992000D02*
X80152000Y-151976000D01*
X79130988Y-143969988D02*
X79130988Y-140534934D01*
X80152000Y-151976000D02*
X80152000Y-144991000D01*
X80152000Y-144991000D02*
X79130988Y-143969988D01*
X79130988Y-140534934D02*
X78253054Y-139657000D01*
X78253054Y-139657000D02*
X76774000Y-139657000D01*
D22*
G36*
X45251501Y-134744485D02*
X45250760Y-135593789D01*
X45575090Y-136378727D01*
X46175114Y-136979800D01*
X46959485Y-137305499D01*
X47808789Y-137306240D01*
X48593727Y-136981910D01*
X49194800Y-136381886D01*
X49520499Y-135597515D01*
X49521240Y-134748211D01*
X49250433Y-134092807D01*
X54085774Y-136878384D01*
X61302031Y-174672000D01*
X52466000Y-174672000D01*
X52127325Y-174739367D01*
X51840210Y-174931210D01*
X51648367Y-175218325D01*
X51581000Y-175557000D01*
X51648367Y-175895675D01*
X51756000Y-176056760D01*
X51756000Y-176577000D01*
X49164000Y-176577000D01*
X48825325Y-176644367D01*
X48686808Y-176736921D01*
X48542831Y-176677137D01*
X48230539Y-176676864D01*
X48136124Y-176715875D01*
X48042831Y-176677137D01*
X47730539Y-176676864D01*
X47636124Y-176715875D01*
X47542831Y-176677137D01*
X47230539Y-176676864D01*
X47136124Y-176715875D01*
X47042831Y-176677137D01*
X46730539Y-176676864D01*
X46636124Y-176715875D01*
X46542831Y-176677137D01*
X46230539Y-176676864D01*
X46163665Y-176704496D01*
X46073675Y-176644367D01*
X45735000Y-176577000D01*
X43318000Y-176577000D01*
X43318000Y-175557000D01*
X43250633Y-175218325D01*
X43058790Y-174931210D01*
X42771675Y-174739367D01*
X42433000Y-174672000D01*
X33591876Y-174672000D01*
X33814438Y-173475971D01*
X40254821Y-173475971D01*
X40412058Y-173856515D01*
X40702954Y-174147919D01*
X41083223Y-174305820D01*
X41494971Y-174306179D01*
X41875515Y-174148942D01*
X42166919Y-173858046D01*
X42234206Y-173696000D01*
X43236921Y-173696000D01*
X43236921Y-174436000D01*
X43324389Y-174875733D01*
X43573478Y-175248522D01*
X43946267Y-175497611D01*
X44386000Y-175585079D01*
X50386000Y-175585079D01*
X50825733Y-175497611D01*
X51198522Y-175248522D01*
X51447611Y-174875733D01*
X51535079Y-174436000D01*
X51535079Y-173650000D01*
X55006000Y-173650000D01*
X55296839Y-173592148D01*
X55543401Y-173427401D01*
X56826402Y-172144400D01*
X56991149Y-171897839D01*
X57000747Y-171849585D01*
X57049001Y-171606999D01*
X57049001Y-166491045D01*
X57212223Y-166558820D01*
X57623971Y-166559179D01*
X58004515Y-166401942D01*
X58295919Y-166111046D01*
X58453820Y-165730777D01*
X58454179Y-165319029D01*
X58296942Y-164938485D01*
X58179000Y-164820337D01*
X58179000Y-161413030D01*
X58121148Y-161122191D01*
X57956401Y-160875629D01*
X57715520Y-160634748D01*
X57715664Y-160469544D01*
X57558427Y-160089000D01*
X57267531Y-159797596D01*
X56887262Y-159639695D01*
X56475514Y-159639336D01*
X56094970Y-159796573D01*
X55803566Y-160087469D01*
X55645665Y-160467738D01*
X55645306Y-160879486D01*
X55802543Y-161260030D01*
X56093439Y-161551434D01*
X56473708Y-161709335D01*
X56640649Y-161709481D01*
X56659000Y-161727832D01*
X56659000Y-164820239D01*
X56655018Y-164824214D01*
X53734000Y-161903196D01*
X53734000Y-149474000D01*
X53676148Y-149183161D01*
X53511401Y-148936599D01*
X51335079Y-146760277D01*
X51335079Y-145436000D01*
X51247611Y-144996267D01*
X50998522Y-144623478D01*
X50625733Y-144374389D01*
X50186000Y-144286921D01*
X48506009Y-144286921D01*
X48525919Y-144267046D01*
X48683820Y-143886777D01*
X48684179Y-143475029D01*
X48526942Y-143094485D01*
X48342944Y-142910166D01*
X48556251Y-142867736D01*
X48802813Y-142702989D01*
X50473767Y-141032035D01*
X50638971Y-141032179D01*
X51019515Y-140874942D01*
X51310919Y-140584046D01*
X51468820Y-140203777D01*
X51469179Y-139792029D01*
X51311942Y-139411485D01*
X51021046Y-139120081D01*
X50640777Y-138962180D01*
X50229029Y-138961821D01*
X49890429Y-139101727D01*
X49607268Y-138818072D01*
X49226999Y-138660171D01*
X48815251Y-138659812D01*
X48434707Y-138817049D01*
X48143303Y-139107945D01*
X47985402Y-139488214D01*
X47985256Y-139655155D01*
X47895411Y-139745000D01*
X45295761Y-139745000D01*
X45179046Y-139628081D01*
X44798777Y-139470180D01*
X44387029Y-139469821D01*
X44006485Y-139627058D01*
X43715081Y-139917954D01*
X43557180Y-140298223D01*
X43556821Y-140709971D01*
X43714058Y-141090515D01*
X43892081Y-141268848D01*
X43846587Y-141287646D01*
X43555183Y-141578542D01*
X43397282Y-141958811D01*
X43396923Y-142370559D01*
X43554160Y-142751103D01*
X43845056Y-143042507D01*
X44225325Y-143200408D01*
X44573085Y-143200711D01*
X44572821Y-143503971D01*
X44730058Y-143884515D01*
X45020954Y-144175919D01*
X45288277Y-144286921D01*
X44186000Y-144286921D01*
X43746267Y-144374389D01*
X43373478Y-144623478D01*
X43124389Y-144996267D01*
X43036921Y-145436000D01*
X43036921Y-148436000D01*
X43124389Y-148875733D01*
X43373478Y-149248522D01*
X43746267Y-149497611D01*
X44186000Y-149585079D01*
X50186000Y-149585079D01*
X50625733Y-149497611D01*
X50998522Y-149248522D01*
X51247611Y-148875733D01*
X51256457Y-148831259D01*
X52214000Y-149788802D01*
X52214000Y-162217998D01*
X52271852Y-162508837D01*
X52436599Y-162755399D01*
X55529001Y-165847801D01*
X55529001Y-171292197D01*
X54691198Y-172130000D01*
X51535079Y-172130000D01*
X51535079Y-171436000D01*
X51447611Y-170996267D01*
X51198522Y-170623478D01*
X50825733Y-170374389D01*
X50386000Y-170286921D01*
X48415481Y-170286921D01*
X48433830Y-170242731D01*
X48434189Y-169830983D01*
X48276952Y-169450439D01*
X47986056Y-169159035D01*
X47605787Y-169001134D01*
X47194039Y-169000775D01*
X46813495Y-169158012D01*
X46565747Y-169405328D01*
X46039739Y-169405328D01*
X45923024Y-169288409D01*
X45542755Y-169130508D01*
X45131007Y-169130149D01*
X44750463Y-169287386D01*
X44459059Y-169578282D01*
X44301158Y-169958551D01*
X44300857Y-170303857D01*
X43946267Y-170374389D01*
X43573478Y-170623478D01*
X43324389Y-170996267D01*
X43236921Y-171436000D01*
X43236921Y-172176000D01*
X41625000Y-172176000D01*
X41334161Y-172233852D01*
X41330893Y-172236035D01*
X41085029Y-172235821D01*
X40704485Y-172393058D01*
X40413081Y-172683954D01*
X40255180Y-173064223D01*
X40254821Y-173475971D01*
X33814438Y-173475971D01*
X35716594Y-163253949D01*
X44247656Y-163253949D01*
X44711990Y-163832524D01*
X46406672Y-164559218D01*
X48250447Y-164582068D01*
X49962619Y-163897598D01*
X50060010Y-163832524D01*
X50524344Y-163253949D01*
X47386000Y-160115605D01*
X44247656Y-163253949D01*
X35716594Y-163253949D01*
X36173152Y-160800447D01*
X42739932Y-160800447D01*
X43424402Y-162512619D01*
X43489476Y-162610010D01*
X44068051Y-163074344D01*
X47206395Y-159936000D01*
X47565605Y-159936000D01*
X50703949Y-163074344D01*
X51282524Y-162610010D01*
X52009218Y-160915328D01*
X52032068Y-159071553D01*
X51347598Y-157359381D01*
X51282524Y-157261990D01*
X50703949Y-156797656D01*
X47565605Y-159936000D01*
X47206395Y-159936000D01*
X44068051Y-156797656D01*
X43489476Y-157261990D01*
X42762782Y-158956672D01*
X42739932Y-160800447D01*
X36173152Y-160800447D01*
X36951429Y-156618051D01*
X44247656Y-156618051D01*
X47386000Y-159756395D01*
X50524344Y-156618051D01*
X50060010Y-156039476D01*
X48365328Y-155312782D01*
X46521553Y-155289932D01*
X44809381Y-155974402D01*
X44711990Y-156039476D01*
X44247656Y-156618051D01*
X36951429Y-156618051D01*
X40624444Y-136879593D01*
X45524469Y-134087106D01*
X45251501Y-134744485D01*
X45251501Y-134744485D01*
G37*
X45251501Y-134744485D02*
X45250760Y-135593789D01*
X45575090Y-136378727D01*
X46175114Y-136979800D01*
X46959485Y-137305499D01*
X47808789Y-137306240D01*
X48593727Y-136981910D01*
X49194800Y-136381886D01*
X49520499Y-135597515D01*
X49521240Y-134748211D01*
X49250433Y-134092807D01*
X54085774Y-136878384D01*
X61302031Y-174672000D01*
X52466000Y-174672000D01*
X52127325Y-174739367D01*
X51840210Y-174931210D01*
X51648367Y-175218325D01*
X51581000Y-175557000D01*
X51648367Y-175895675D01*
X51756000Y-176056760D01*
X51756000Y-176577000D01*
X49164000Y-176577000D01*
X48825325Y-176644367D01*
X48686808Y-176736921D01*
X48542831Y-176677137D01*
X48230539Y-176676864D01*
X48136124Y-176715875D01*
X48042831Y-176677137D01*
X47730539Y-176676864D01*
X47636124Y-176715875D01*
X47542831Y-176677137D01*
X47230539Y-176676864D01*
X47136124Y-176715875D01*
X47042831Y-176677137D01*
X46730539Y-176676864D01*
X46636124Y-176715875D01*
X46542831Y-176677137D01*
X46230539Y-176676864D01*
X46163665Y-176704496D01*
X46073675Y-176644367D01*
X45735000Y-176577000D01*
X43318000Y-176577000D01*
X43318000Y-175557000D01*
X43250633Y-175218325D01*
X43058790Y-174931210D01*
X42771675Y-174739367D01*
X42433000Y-174672000D01*
X33591876Y-174672000D01*
X33814438Y-173475971D01*
X40254821Y-173475971D01*
X40412058Y-173856515D01*
X40702954Y-174147919D01*
X41083223Y-174305820D01*
X41494971Y-174306179D01*
X41875515Y-174148942D01*
X42166919Y-173858046D01*
X42234206Y-173696000D01*
X43236921Y-173696000D01*
X43236921Y-174436000D01*
X43324389Y-174875733D01*
X43573478Y-175248522D01*
X43946267Y-175497611D01*
X44386000Y-175585079D01*
X50386000Y-175585079D01*
X50825733Y-175497611D01*
X51198522Y-175248522D01*
X51447611Y-174875733D01*
X51535079Y-174436000D01*
X51535079Y-173650000D01*
X55006000Y-173650000D01*
X55296839Y-173592148D01*
X55543401Y-173427401D01*
X56826402Y-172144400D01*
X56991149Y-171897839D01*
X57000747Y-171849585D01*
X57049001Y-171606999D01*
X57049001Y-166491045D01*
X57212223Y-166558820D01*
X57623971Y-166559179D01*
X58004515Y-166401942D01*
X58295919Y-166111046D01*
X58453820Y-165730777D01*
X58454179Y-165319029D01*
X58296942Y-164938485D01*
X58179000Y-164820337D01*
X58179000Y-161413030D01*
X58121148Y-161122191D01*
X57956401Y-160875629D01*
X57715520Y-160634748D01*
X57715664Y-160469544D01*
X57558427Y-160089000D01*
X57267531Y-159797596D01*
X56887262Y-159639695D01*
X56475514Y-159639336D01*
X56094970Y-159796573D01*
X55803566Y-160087469D01*
X55645665Y-160467738D01*
X55645306Y-160879486D01*
X55802543Y-161260030D01*
X56093439Y-161551434D01*
X56473708Y-161709335D01*
X56640649Y-161709481D01*
X56659000Y-161727832D01*
X56659000Y-164820239D01*
X56655018Y-164824214D01*
X53734000Y-161903196D01*
X53734000Y-149474000D01*
X53676148Y-149183161D01*
X53511401Y-148936599D01*
X51335079Y-146760277D01*
X51335079Y-145436000D01*
X51247611Y-144996267D01*
X50998522Y-144623478D01*
X50625733Y-144374389D01*
X50186000Y-144286921D01*
X48506009Y-144286921D01*
X48525919Y-144267046D01*
X48683820Y-143886777D01*
X48684179Y-143475029D01*
X48526942Y-143094485D01*
X48342944Y-142910166D01*
X48556251Y-142867736D01*
X48802813Y-142702989D01*
X50473767Y-141032035D01*
X50638971Y-141032179D01*
X51019515Y-140874942D01*
X51310919Y-140584046D01*
X51468820Y-140203777D01*
X51469179Y-139792029D01*
X51311942Y-139411485D01*
X51021046Y-139120081D01*
X50640777Y-138962180D01*
X50229029Y-138961821D01*
X49890429Y-139101727D01*
X49607268Y-138818072D01*
X49226999Y-138660171D01*
X48815251Y-138659812D01*
X48434707Y-138817049D01*
X48143303Y-139107945D01*
X47985402Y-139488214D01*
X47985256Y-139655155D01*
X47895411Y-139745000D01*
X45295761Y-139745000D01*
X45179046Y-139628081D01*
X44798777Y-139470180D01*
X44387029Y-139469821D01*
X44006485Y-139627058D01*
X43715081Y-139917954D01*
X43557180Y-140298223D01*
X43556821Y-140709971D01*
X43714058Y-141090515D01*
X43892081Y-141268848D01*
X43846587Y-141287646D01*
X43555183Y-141578542D01*
X43397282Y-141958811D01*
X43396923Y-142370559D01*
X43554160Y-142751103D01*
X43845056Y-143042507D01*
X44225325Y-143200408D01*
X44573085Y-143200711D01*
X44572821Y-143503971D01*
X44730058Y-143884515D01*
X45020954Y-144175919D01*
X45288277Y-144286921D01*
X44186000Y-144286921D01*
X43746267Y-144374389D01*
X43373478Y-144623478D01*
X43124389Y-144996267D01*
X43036921Y-145436000D01*
X43036921Y-148436000D01*
X43124389Y-148875733D01*
X43373478Y-149248522D01*
X43746267Y-149497611D01*
X44186000Y-149585079D01*
X50186000Y-149585079D01*
X50625733Y-149497611D01*
X50998522Y-149248522D01*
X51247611Y-148875733D01*
X51256457Y-148831259D01*
X52214000Y-149788802D01*
X52214000Y-162217998D01*
X52271852Y-162508837D01*
X52436599Y-162755399D01*
X55529001Y-165847801D01*
X55529001Y-171292197D01*
X54691198Y-172130000D01*
X51535079Y-172130000D01*
X51535079Y-171436000D01*
X51447611Y-170996267D01*
X51198522Y-170623478D01*
X50825733Y-170374389D01*
X50386000Y-170286921D01*
X48415481Y-170286921D01*
X48433830Y-170242731D01*
X48434189Y-169830983D01*
X48276952Y-169450439D01*
X47986056Y-169159035D01*
X47605787Y-169001134D01*
X47194039Y-169000775D01*
X46813495Y-169158012D01*
X46565747Y-169405328D01*
X46039739Y-169405328D01*
X45923024Y-169288409D01*
X45542755Y-169130508D01*
X45131007Y-169130149D01*
X44750463Y-169287386D01*
X44459059Y-169578282D01*
X44301158Y-169958551D01*
X44300857Y-170303857D01*
X43946267Y-170374389D01*
X43573478Y-170623478D01*
X43324389Y-170996267D01*
X43236921Y-171436000D01*
X43236921Y-172176000D01*
X41625000Y-172176000D01*
X41334161Y-172233852D01*
X41330893Y-172236035D01*
X41085029Y-172235821D01*
X40704485Y-172393058D01*
X40413081Y-172683954D01*
X40255180Y-173064223D01*
X40254821Y-173475971D01*
X33814438Y-173475971D01*
X35716594Y-163253949D01*
X44247656Y-163253949D01*
X44711990Y-163832524D01*
X46406672Y-164559218D01*
X48250447Y-164582068D01*
X49962619Y-163897598D01*
X50060010Y-163832524D01*
X50524344Y-163253949D01*
X47386000Y-160115605D01*
X44247656Y-163253949D01*
X35716594Y-163253949D01*
X36173152Y-160800447D01*
X42739932Y-160800447D01*
X43424402Y-162512619D01*
X43489476Y-162610010D01*
X44068051Y-163074344D01*
X47206395Y-159936000D01*
X47565605Y-159936000D01*
X50703949Y-163074344D01*
X51282524Y-162610010D01*
X52009218Y-160915328D01*
X52032068Y-159071553D01*
X51347598Y-157359381D01*
X51282524Y-157261990D01*
X50703949Y-156797656D01*
X47565605Y-159936000D01*
X47206395Y-159936000D01*
X44068051Y-156797656D01*
X43489476Y-157261990D01*
X42762782Y-158956672D01*
X42739932Y-160800447D01*
X36173152Y-160800447D01*
X36951429Y-156618051D01*
X44247656Y-156618051D01*
X47386000Y-159756395D01*
X50524344Y-156618051D01*
X50060010Y-156039476D01*
X48365328Y-155312782D01*
X46521553Y-155289932D01*
X44809381Y-155974402D01*
X44711990Y-156039476D01*
X44247656Y-156618051D01*
X36951429Y-156618051D01*
X40624444Y-136879593D01*
X45524469Y-134087106D01*
X45251501Y-134744485D01*
G36*
X45251501Y-85214485D02*
X45250760Y-86063789D01*
X45575090Y-86848727D01*
X46175114Y-87449800D01*
X46959485Y-87775499D01*
X47808789Y-87776240D01*
X48593727Y-87451910D01*
X49194800Y-86851886D01*
X49520499Y-86067515D01*
X49521240Y-85218211D01*
X49250433Y-84562807D01*
X54085774Y-87348384D01*
X61302031Y-125142000D01*
X52466000Y-125142000D01*
X52127325Y-125209367D01*
X51840210Y-125401210D01*
X51648367Y-125688325D01*
X51581000Y-126027000D01*
X51648367Y-126365675D01*
X51756000Y-126526760D01*
X51756000Y-127047000D01*
X49164000Y-127047000D01*
X48825325Y-127114367D01*
X48686808Y-127206921D01*
X48542831Y-127147137D01*
X48230539Y-127146864D01*
X48136124Y-127185875D01*
X48042831Y-127147137D01*
X47730539Y-127146864D01*
X47636124Y-127185875D01*
X47542831Y-127147137D01*
X47230539Y-127146864D01*
X47136124Y-127185875D01*
X47042831Y-127147137D01*
X46730539Y-127146864D01*
X46636124Y-127185875D01*
X46542831Y-127147137D01*
X46230539Y-127146864D01*
X46163665Y-127174496D01*
X46073675Y-127114367D01*
X45735000Y-127047000D01*
X43318000Y-127047000D01*
X43318000Y-126027000D01*
X43250633Y-125688325D01*
X43058790Y-125401210D01*
X42771675Y-125209367D01*
X42433000Y-125142000D01*
X33591876Y-125142000D01*
X33814438Y-123945971D01*
X40254821Y-123945971D01*
X40412058Y-124326515D01*
X40702954Y-124617919D01*
X41083223Y-124775820D01*
X41494971Y-124776179D01*
X41875515Y-124618942D01*
X42166919Y-124328046D01*
X42234206Y-124166000D01*
X43236921Y-124166000D01*
X43236921Y-124906000D01*
X43324389Y-125345733D01*
X43573478Y-125718522D01*
X43946267Y-125967611D01*
X44386000Y-126055079D01*
X50386000Y-126055079D01*
X50825733Y-125967611D01*
X51198522Y-125718522D01*
X51447611Y-125345733D01*
X51535079Y-124906000D01*
X51535079Y-124120000D01*
X55006000Y-124120000D01*
X55296839Y-124062148D01*
X55543401Y-123897401D01*
X56826402Y-122614400D01*
X56991149Y-122367839D01*
X57000747Y-122319585D01*
X57049001Y-122076999D01*
X57049001Y-116961045D01*
X57212223Y-117028820D01*
X57623971Y-117029179D01*
X58004515Y-116871942D01*
X58295919Y-116581046D01*
X58453820Y-116200777D01*
X58454179Y-115789029D01*
X58296942Y-115408485D01*
X58179000Y-115290337D01*
X58179000Y-111883030D01*
X58121148Y-111592191D01*
X57956401Y-111345629D01*
X57715520Y-111104748D01*
X57715664Y-110939544D01*
X57558427Y-110559000D01*
X57267531Y-110267596D01*
X56887262Y-110109695D01*
X56475514Y-110109336D01*
X56094970Y-110266573D01*
X55803566Y-110557469D01*
X55645665Y-110937738D01*
X55645306Y-111349486D01*
X55802543Y-111730030D01*
X56093439Y-112021434D01*
X56473708Y-112179335D01*
X56640649Y-112179481D01*
X56659000Y-112197832D01*
X56659000Y-115290239D01*
X56655018Y-115294214D01*
X53734000Y-112373196D01*
X53734000Y-99944000D01*
X53676148Y-99653161D01*
X53511401Y-99406599D01*
X51335079Y-97230277D01*
X51335079Y-95906000D01*
X51247611Y-95466267D01*
X50998522Y-95093478D01*
X50625733Y-94844389D01*
X50186000Y-94756921D01*
X48506009Y-94756921D01*
X48525919Y-94737046D01*
X48683820Y-94356777D01*
X48684179Y-93945029D01*
X48526942Y-93564485D01*
X48342944Y-93380166D01*
X48556251Y-93337736D01*
X48802813Y-93172989D01*
X50473767Y-91502035D01*
X50638971Y-91502179D01*
X51019515Y-91344942D01*
X51310919Y-91054046D01*
X51468820Y-90673777D01*
X51469179Y-90262029D01*
X51311942Y-89881485D01*
X51021046Y-89590081D01*
X50640777Y-89432180D01*
X50229029Y-89431821D01*
X49890429Y-89571727D01*
X49607268Y-89288072D01*
X49226999Y-89130171D01*
X48815251Y-89129812D01*
X48434707Y-89287049D01*
X48143303Y-89577945D01*
X47985402Y-89958214D01*
X47985256Y-90125155D01*
X47895411Y-90215000D01*
X45295761Y-90215000D01*
X45179046Y-90098081D01*
X44798777Y-89940180D01*
X44387029Y-89939821D01*
X44006485Y-90097058D01*
X43715081Y-90387954D01*
X43557180Y-90768223D01*
X43556821Y-91179971D01*
X43714058Y-91560515D01*
X43892081Y-91738848D01*
X43846587Y-91757646D01*
X43555183Y-92048542D01*
X43397282Y-92428811D01*
X43396923Y-92840559D01*
X43554160Y-93221103D01*
X43845056Y-93512507D01*
X44225325Y-93670408D01*
X44573085Y-93670711D01*
X44572821Y-93973971D01*
X44730058Y-94354515D01*
X45020954Y-94645919D01*
X45288277Y-94756921D01*
X44186000Y-94756921D01*
X43746267Y-94844389D01*
X43373478Y-95093478D01*
X43124389Y-95466267D01*
X43036921Y-95906000D01*
X43036921Y-98906000D01*
X43124389Y-99345733D01*
X43373478Y-99718522D01*
X43746267Y-99967611D01*
X44186000Y-100055079D01*
X50186000Y-100055079D01*
X50625733Y-99967611D01*
X50998522Y-99718522D01*
X51247611Y-99345733D01*
X51256457Y-99301259D01*
X52214000Y-100258802D01*
X52214000Y-112687998D01*
X52271852Y-112978837D01*
X52436599Y-113225399D01*
X55529001Y-116317801D01*
X55529001Y-121762197D01*
X54691198Y-122600000D01*
X51535079Y-122600000D01*
X51535079Y-121906000D01*
X51447611Y-121466267D01*
X51198522Y-121093478D01*
X50825733Y-120844389D01*
X50386000Y-120756921D01*
X48415481Y-120756921D01*
X48433830Y-120712731D01*
X48434189Y-120300983D01*
X48276952Y-119920439D01*
X47986056Y-119629035D01*
X47605787Y-119471134D01*
X47194039Y-119470775D01*
X46813495Y-119628012D01*
X46565747Y-119875328D01*
X46039739Y-119875328D01*
X45923024Y-119758409D01*
X45542755Y-119600508D01*
X45131007Y-119600149D01*
X44750463Y-119757386D01*
X44459059Y-120048282D01*
X44301158Y-120428551D01*
X44300857Y-120773857D01*
X43946267Y-120844389D01*
X43573478Y-121093478D01*
X43324389Y-121466267D01*
X43236921Y-121906000D01*
X43236921Y-122646000D01*
X41625000Y-122646000D01*
X41334161Y-122703852D01*
X41330893Y-122706035D01*
X41085029Y-122705821D01*
X40704485Y-122863058D01*
X40413081Y-123153954D01*
X40255180Y-123534223D01*
X40254821Y-123945971D01*
X33814438Y-123945971D01*
X35716594Y-113723949D01*
X44247656Y-113723949D01*
X44711990Y-114302524D01*
X46406672Y-115029218D01*
X48250447Y-115052068D01*
X49962619Y-114367598D01*
X50060010Y-114302524D01*
X50524344Y-113723949D01*
X47386000Y-110585605D01*
X44247656Y-113723949D01*
X35716594Y-113723949D01*
X36173152Y-111270447D01*
X42739932Y-111270447D01*
X43424402Y-112982619D01*
X43489476Y-113080010D01*
X44068051Y-113544344D01*
X47206395Y-110406000D01*
X47565605Y-110406000D01*
X50703949Y-113544344D01*
X51282524Y-113080010D01*
X52009218Y-111385328D01*
X52032068Y-109541553D01*
X51347598Y-107829381D01*
X51282524Y-107731990D01*
X50703949Y-107267656D01*
X47565605Y-110406000D01*
X47206395Y-110406000D01*
X44068051Y-107267656D01*
X43489476Y-107731990D01*
X42762782Y-109426672D01*
X42739932Y-111270447D01*
X36173152Y-111270447D01*
X36951429Y-107088051D01*
X44247656Y-107088051D01*
X47386000Y-110226395D01*
X50524344Y-107088051D01*
X50060010Y-106509476D01*
X48365328Y-105782782D01*
X46521553Y-105759932D01*
X44809381Y-106444402D01*
X44711990Y-106509476D01*
X44247656Y-107088051D01*
X36951429Y-107088051D01*
X40624444Y-87349593D01*
X45524469Y-84557106D01*
X45251501Y-85214485D01*
X45251501Y-85214485D01*
G37*
X45251501Y-85214485D02*
X45250760Y-86063789D01*
X45575090Y-86848727D01*
X46175114Y-87449800D01*
X46959485Y-87775499D01*
X47808789Y-87776240D01*
X48593727Y-87451910D01*
X49194800Y-86851886D01*
X49520499Y-86067515D01*
X49521240Y-85218211D01*
X49250433Y-84562807D01*
X54085774Y-87348384D01*
X61302031Y-125142000D01*
X52466000Y-125142000D01*
X52127325Y-125209367D01*
X51840210Y-125401210D01*
X51648367Y-125688325D01*
X51581000Y-126027000D01*
X51648367Y-126365675D01*
X51756000Y-126526760D01*
X51756000Y-127047000D01*
X49164000Y-127047000D01*
X48825325Y-127114367D01*
X48686808Y-127206921D01*
X48542831Y-127147137D01*
X48230539Y-127146864D01*
X48136124Y-127185875D01*
X48042831Y-127147137D01*
X47730539Y-127146864D01*
X47636124Y-127185875D01*
X47542831Y-127147137D01*
X47230539Y-127146864D01*
X47136124Y-127185875D01*
X47042831Y-127147137D01*
X46730539Y-127146864D01*
X46636124Y-127185875D01*
X46542831Y-127147137D01*
X46230539Y-127146864D01*
X46163665Y-127174496D01*
X46073675Y-127114367D01*
X45735000Y-127047000D01*
X43318000Y-127047000D01*
X43318000Y-126027000D01*
X43250633Y-125688325D01*
X43058790Y-125401210D01*
X42771675Y-125209367D01*
X42433000Y-125142000D01*
X33591876Y-125142000D01*
X33814438Y-123945971D01*
X40254821Y-123945971D01*
X40412058Y-124326515D01*
X40702954Y-124617919D01*
X41083223Y-124775820D01*
X41494971Y-124776179D01*
X41875515Y-124618942D01*
X42166919Y-124328046D01*
X42234206Y-124166000D01*
X43236921Y-124166000D01*
X43236921Y-124906000D01*
X43324389Y-125345733D01*
X43573478Y-125718522D01*
X43946267Y-125967611D01*
X44386000Y-126055079D01*
X50386000Y-126055079D01*
X50825733Y-125967611D01*
X51198522Y-125718522D01*
X51447611Y-125345733D01*
X51535079Y-124906000D01*
X51535079Y-124120000D01*
X55006000Y-124120000D01*
X55296839Y-124062148D01*
X55543401Y-123897401D01*
X56826402Y-122614400D01*
X56991149Y-122367839D01*
X57000747Y-122319585D01*
X57049001Y-122076999D01*
X57049001Y-116961045D01*
X57212223Y-117028820D01*
X57623971Y-117029179D01*
X58004515Y-116871942D01*
X58295919Y-116581046D01*
X58453820Y-116200777D01*
X58454179Y-115789029D01*
X58296942Y-115408485D01*
X58179000Y-115290337D01*
X58179000Y-111883030D01*
X58121148Y-111592191D01*
X57956401Y-111345629D01*
X57715520Y-111104748D01*
X57715664Y-110939544D01*
X57558427Y-110559000D01*
X57267531Y-110267596D01*
X56887262Y-110109695D01*
X56475514Y-110109336D01*
X56094970Y-110266573D01*
X55803566Y-110557469D01*
X55645665Y-110937738D01*
X55645306Y-111349486D01*
X55802543Y-111730030D01*
X56093439Y-112021434D01*
X56473708Y-112179335D01*
X56640649Y-112179481D01*
X56659000Y-112197832D01*
X56659000Y-115290239D01*
X56655018Y-115294214D01*
X53734000Y-112373196D01*
X53734000Y-99944000D01*
X53676148Y-99653161D01*
X53511401Y-99406599D01*
X51335079Y-97230277D01*
X51335079Y-95906000D01*
X51247611Y-95466267D01*
X50998522Y-95093478D01*
X50625733Y-94844389D01*
X50186000Y-94756921D01*
X48506009Y-94756921D01*
X48525919Y-94737046D01*
X48683820Y-94356777D01*
X48684179Y-93945029D01*
X48526942Y-93564485D01*
X48342944Y-93380166D01*
X48556251Y-93337736D01*
X48802813Y-93172989D01*
X50473767Y-91502035D01*
X50638971Y-91502179D01*
X51019515Y-91344942D01*
X51310919Y-91054046D01*
X51468820Y-90673777D01*
X51469179Y-90262029D01*
X51311942Y-89881485D01*
X51021046Y-89590081D01*
X50640777Y-89432180D01*
X50229029Y-89431821D01*
X49890429Y-89571727D01*
X49607268Y-89288072D01*
X49226999Y-89130171D01*
X48815251Y-89129812D01*
X48434707Y-89287049D01*
X48143303Y-89577945D01*
X47985402Y-89958214D01*
X47985256Y-90125155D01*
X47895411Y-90215000D01*
X45295761Y-90215000D01*
X45179046Y-90098081D01*
X44798777Y-89940180D01*
X44387029Y-89939821D01*
X44006485Y-90097058D01*
X43715081Y-90387954D01*
X43557180Y-90768223D01*
X43556821Y-91179971D01*
X43714058Y-91560515D01*
X43892081Y-91738848D01*
X43846587Y-91757646D01*
X43555183Y-92048542D01*
X43397282Y-92428811D01*
X43396923Y-92840559D01*
X43554160Y-93221103D01*
X43845056Y-93512507D01*
X44225325Y-93670408D01*
X44573085Y-93670711D01*
X44572821Y-93973971D01*
X44730058Y-94354515D01*
X45020954Y-94645919D01*
X45288277Y-94756921D01*
X44186000Y-94756921D01*
X43746267Y-94844389D01*
X43373478Y-95093478D01*
X43124389Y-95466267D01*
X43036921Y-95906000D01*
X43036921Y-98906000D01*
X43124389Y-99345733D01*
X43373478Y-99718522D01*
X43746267Y-99967611D01*
X44186000Y-100055079D01*
X50186000Y-100055079D01*
X50625733Y-99967611D01*
X50998522Y-99718522D01*
X51247611Y-99345733D01*
X51256457Y-99301259D01*
X52214000Y-100258802D01*
X52214000Y-112687998D01*
X52271852Y-112978837D01*
X52436599Y-113225399D01*
X55529001Y-116317801D01*
X55529001Y-121762197D01*
X54691198Y-122600000D01*
X51535079Y-122600000D01*
X51535079Y-121906000D01*
X51447611Y-121466267D01*
X51198522Y-121093478D01*
X50825733Y-120844389D01*
X50386000Y-120756921D01*
X48415481Y-120756921D01*
X48433830Y-120712731D01*
X48434189Y-120300983D01*
X48276952Y-119920439D01*
X47986056Y-119629035D01*
X47605787Y-119471134D01*
X47194039Y-119470775D01*
X46813495Y-119628012D01*
X46565747Y-119875328D01*
X46039739Y-119875328D01*
X45923024Y-119758409D01*
X45542755Y-119600508D01*
X45131007Y-119600149D01*
X44750463Y-119757386D01*
X44459059Y-120048282D01*
X44301158Y-120428551D01*
X44300857Y-120773857D01*
X43946267Y-120844389D01*
X43573478Y-121093478D01*
X43324389Y-121466267D01*
X43236921Y-121906000D01*
X43236921Y-122646000D01*
X41625000Y-122646000D01*
X41334161Y-122703852D01*
X41330893Y-122706035D01*
X41085029Y-122705821D01*
X40704485Y-122863058D01*
X40413081Y-123153954D01*
X40255180Y-123534223D01*
X40254821Y-123945971D01*
X33814438Y-123945971D01*
X35716594Y-113723949D01*
X44247656Y-113723949D01*
X44711990Y-114302524D01*
X46406672Y-115029218D01*
X48250447Y-115052068D01*
X49962619Y-114367598D01*
X50060010Y-114302524D01*
X50524344Y-113723949D01*
X47386000Y-110585605D01*
X44247656Y-113723949D01*
X35716594Y-113723949D01*
X36173152Y-111270447D01*
X42739932Y-111270447D01*
X43424402Y-112982619D01*
X43489476Y-113080010D01*
X44068051Y-113544344D01*
X47206395Y-110406000D01*
X47565605Y-110406000D01*
X50703949Y-113544344D01*
X51282524Y-113080010D01*
X52009218Y-111385328D01*
X52032068Y-109541553D01*
X51347598Y-107829381D01*
X51282524Y-107731990D01*
X50703949Y-107267656D01*
X47565605Y-110406000D01*
X47206395Y-110406000D01*
X44068051Y-107267656D01*
X43489476Y-107731990D01*
X42762782Y-109426672D01*
X42739932Y-111270447D01*
X36173152Y-111270447D01*
X36951429Y-107088051D01*
X44247656Y-107088051D01*
X47386000Y-110226395D01*
X50524344Y-107088051D01*
X50060010Y-106509476D01*
X48365328Y-105782782D01*
X46521553Y-105759932D01*
X44809381Y-106444402D01*
X44711990Y-106509476D01*
X44247656Y-107088051D01*
X36951429Y-107088051D01*
X40624444Y-87349593D01*
X45524469Y-84557106D01*
X45251501Y-85214485D01*
G36*
X82056560Y-100769638D02*
X82056560Y-100647000D01*
X82105843Y-100399235D01*
X82246191Y-100189191D01*
X82456235Y-100048843D01*
X82704000Y-99999560D01*
X84204000Y-99999560D01*
X84451765Y-100048843D01*
X84661809Y-100189191D01*
X84802157Y-100399235D01*
X84851440Y-100647000D01*
X84851440Y-101197000D01*
X84804696Y-101432000D01*
X86720598Y-101432000D01*
X88114778Y-100037820D01*
X88084420Y-100037820D01*
X87836655Y-99988537D01*
X87782506Y-99952355D01*
X87606209Y-100025380D01*
X87316070Y-100025380D01*
X87157320Y-99866630D01*
X87157320Y-99017000D01*
X87177320Y-99017000D01*
X87177320Y-98763000D01*
X87157320Y-98763000D01*
X87157320Y-97913370D01*
X87316070Y-97754620D01*
X87606209Y-97754620D01*
X87782506Y-97827645D01*
X87836655Y-97791463D01*
X87875285Y-97783779D01*
X87996599Y-97602219D01*
X88897219Y-96701599D01*
X89143781Y-96536852D01*
X89434620Y-96479000D01*
X89477354Y-96479000D01*
X89404180Y-96302777D01*
X89403821Y-95891029D01*
X89561058Y-95510485D01*
X89679000Y-95392337D01*
X89679000Y-91309180D01*
X89736852Y-91018341D01*
X89901599Y-90771779D01*
X91359915Y-89313463D01*
X91323180Y-89128780D01*
X91323180Y-88331220D01*
X91372463Y-88083455D01*
X91512811Y-87873411D01*
X91722855Y-87733063D01*
X91970620Y-87683780D01*
X92768180Y-87683780D01*
X93015945Y-87733063D01*
X93118700Y-87801722D01*
X93221455Y-87733063D01*
X93469220Y-87683780D01*
X94181542Y-87683780D01*
X94322031Y-86948000D01*
X88653326Y-86948000D01*
X88810707Y-87105382D01*
X88907380Y-87338771D01*
X88907380Y-87628910D01*
X88748630Y-87787660D01*
X87899000Y-87787660D01*
X87899000Y-87767660D01*
X87645000Y-87767660D01*
X87645000Y-87787660D01*
X86795370Y-87787660D01*
X86636620Y-87628910D01*
X86636620Y-87338771D01*
X86733293Y-87105382D01*
X86890674Y-86948000D01*
X86166666Y-86948000D01*
X86270707Y-87052042D01*
X86367380Y-87285431D01*
X86367380Y-87575570D01*
X86208630Y-87734320D01*
X85359000Y-87734320D01*
X85359000Y-87714320D01*
X85105000Y-87714320D01*
X85105000Y-87734320D01*
X84255370Y-87734320D01*
X84096620Y-87575570D01*
X84096620Y-87285431D01*
X84193293Y-87052042D01*
X84371921Y-86873413D01*
X84605310Y-86776740D01*
X84946250Y-86776740D01*
X85104998Y-86935488D01*
X85104998Y-86852351D01*
X84860210Y-86688790D01*
X84668367Y-86401675D01*
X84601000Y-86063000D01*
X84668367Y-85724325D01*
X84776000Y-85563240D01*
X84776000Y-85043000D01*
X82184000Y-85043000D01*
X81845325Y-84975633D01*
X81706808Y-84883079D01*
X81562831Y-84942863D01*
X81250539Y-84943136D01*
X81156124Y-84904125D01*
X81062831Y-84942863D01*
X80750539Y-84943136D01*
X80656124Y-84904125D01*
X80562831Y-84942863D01*
X80250539Y-84943136D01*
X80156124Y-84904125D01*
X80062831Y-84942863D01*
X79750539Y-84943136D01*
X79656124Y-84904125D01*
X79562831Y-84942863D01*
X79250539Y-84943136D01*
X79183665Y-84915504D01*
X79093675Y-84975633D01*
X78755000Y-85043000D01*
X76338000Y-85043000D01*
X76338000Y-86063000D01*
X76270633Y-86401675D01*
X76078790Y-86688790D01*
X75791675Y-86880633D01*
X75453000Y-86948000D01*
X66611876Y-86948000D01*
X66748793Y-87683780D01*
X67495180Y-87683780D01*
X67742945Y-87733063D01*
X67845700Y-87801722D01*
X67948455Y-87733063D01*
X68196220Y-87683780D01*
X68993780Y-87683780D01*
X69241545Y-87733063D01*
X69451589Y-87873411D01*
X69571048Y-88052193D01*
X69781181Y-88192599D01*
X72153000Y-90564418D01*
X72153000Y-90529780D01*
X72210852Y-90238941D01*
X72375599Y-89992379D01*
X72768219Y-89599759D01*
X72949779Y-89478445D01*
X72957463Y-89439815D01*
X73097811Y-89229771D01*
X73307855Y-89089423D01*
X73405071Y-89070086D01*
X73470005Y-88972905D01*
X73433081Y-88936046D01*
X73275180Y-88555777D01*
X73274821Y-88144029D01*
X73432058Y-87763485D01*
X73722954Y-87472081D01*
X74103223Y-87314180D01*
X74514971Y-87313821D01*
X74895515Y-87471058D01*
X75186919Y-87761954D01*
X75324816Y-88094049D01*
X75526745Y-87959123D01*
X75774510Y-87909840D01*
X77773490Y-87909840D01*
X78021255Y-87959123D01*
X78227601Y-88097000D01*
X78374000Y-88097000D01*
X78664839Y-88154852D01*
X78911401Y-88319599D01*
X79800401Y-89208599D01*
X79965148Y-89455161D01*
X79976368Y-89511566D01*
X80181401Y-89716599D01*
X80346148Y-89963160D01*
X80404000Y-90254000D01*
X80404000Y-90310428D01*
X80715070Y-89999358D01*
X80715070Y-89827280D01*
X80764353Y-89579515D01*
X80822829Y-89492000D01*
X80764353Y-89404485D01*
X80715070Y-89156720D01*
X80715070Y-88557280D01*
X80764353Y-88309515D01*
X80904701Y-88099471D01*
X81114745Y-87959123D01*
X81362510Y-87909840D01*
X83361490Y-87909840D01*
X83609255Y-87959123D01*
X83815601Y-88097000D01*
X83835000Y-88097000D01*
X84096620Y-88149040D01*
X84096620Y-88147070D01*
X84255370Y-87988320D01*
X85105000Y-87988320D01*
X85105000Y-88008320D01*
X85359000Y-88008320D01*
X85359000Y-87988320D01*
X86208630Y-87988320D01*
X86367380Y-88147070D01*
X86367380Y-88437209D01*
X86294355Y-88613506D01*
X86330537Y-88667655D01*
X86379820Y-88915420D01*
X86379820Y-89225178D01*
X86523399Y-89081599D01*
X86624180Y-89014259D01*
X86624180Y-88968760D01*
X86673463Y-88720995D01*
X86709645Y-88666846D01*
X86636620Y-88490549D01*
X86636620Y-88200410D01*
X86795370Y-88041660D01*
X87645000Y-88041660D01*
X87645000Y-88061660D01*
X87899000Y-88061660D01*
X87899000Y-88041660D01*
X88748630Y-88041660D01*
X88907380Y-88200410D01*
X88907380Y-88490549D01*
X88834355Y-88666846D01*
X88870537Y-88720995D01*
X88919820Y-88968760D01*
X88919820Y-89867920D01*
X88870537Y-90115685D01*
X88730189Y-90325729D01*
X88520145Y-90466077D01*
X88435697Y-90482875D01*
X88476189Y-90509931D01*
X88616537Y-90719975D01*
X88665820Y-90967740D01*
X88665820Y-91866900D01*
X88616537Y-92114665D01*
X88580124Y-92169160D01*
X88616537Y-92223655D01*
X88665820Y-92471420D01*
X88665820Y-93370580D01*
X88616537Y-93618345D01*
X88476189Y-93828389D01*
X88266145Y-93968737D01*
X88168929Y-93988074D01*
X88055401Y-94157981D01*
X87230981Y-94982401D01*
X86984419Y-95147148D01*
X86693580Y-95205000D01*
X83200000Y-95205000D01*
X82909161Y-95147148D01*
X82662599Y-94982401D01*
X81824599Y-94144401D01*
X81659852Y-93897839D01*
X81603424Y-93614160D01*
X81362510Y-93614160D01*
X81114745Y-93564877D01*
X80908399Y-93427000D01*
X80279000Y-93427000D01*
X79988161Y-93369148D01*
X79890988Y-93304219D01*
X79890988Y-94125186D01*
X80689401Y-94923599D01*
X80854148Y-95170161D01*
X80912000Y-95461000D01*
X80912000Y-98604250D01*
X85945740Y-98604250D01*
X85945740Y-98263310D01*
X86042413Y-98029921D01*
X86221042Y-97851293D01*
X86454431Y-97754620D01*
X86744570Y-97754620D01*
X86903320Y-97913370D01*
X86903320Y-98763000D01*
X86104490Y-98763000D01*
X85945740Y-98604250D01*
X80912000Y-98604250D01*
X80912000Y-99516690D01*
X85945740Y-99516690D01*
X85945740Y-99175750D01*
X86104490Y-99017000D01*
X86903320Y-99017000D01*
X86903320Y-99866630D01*
X86744570Y-100025380D01*
X86454431Y-100025380D01*
X86221042Y-99928707D01*
X86042413Y-99750079D01*
X85945740Y-99516690D01*
X80912000Y-99516690D01*
X80912000Y-101914198D01*
X82056560Y-100769638D01*
X82056560Y-100769638D01*
G37*
X82056560Y-100769638D02*
X82056560Y-100647000D01*
X82105843Y-100399235D01*
X82246191Y-100189191D01*
X82456235Y-100048843D01*
X82704000Y-99999560D01*
X84204000Y-99999560D01*
X84451765Y-100048843D01*
X84661809Y-100189191D01*
X84802157Y-100399235D01*
X84851440Y-100647000D01*
X84851440Y-101197000D01*
X84804696Y-101432000D01*
X86720598Y-101432000D01*
X88114778Y-100037820D01*
X88084420Y-100037820D01*
X87836655Y-99988537D01*
X87782506Y-99952355D01*
X87606209Y-100025380D01*
X87316070Y-100025380D01*
X87157320Y-99866630D01*
X87157320Y-99017000D01*
X87177320Y-99017000D01*
X87177320Y-98763000D01*
X87157320Y-98763000D01*
X87157320Y-97913370D01*
X87316070Y-97754620D01*
X87606209Y-97754620D01*
X87782506Y-97827645D01*
X87836655Y-97791463D01*
X87875285Y-97783779D01*
X87996599Y-97602219D01*
X88897219Y-96701599D01*
X89143781Y-96536852D01*
X89434620Y-96479000D01*
X89477354Y-96479000D01*
X89404180Y-96302777D01*
X89403821Y-95891029D01*
X89561058Y-95510485D01*
X89679000Y-95392337D01*
X89679000Y-91309180D01*
X89736852Y-91018341D01*
X89901599Y-90771779D01*
X91359915Y-89313463D01*
X91323180Y-89128780D01*
X91323180Y-88331220D01*
X91372463Y-88083455D01*
X91512811Y-87873411D01*
X91722855Y-87733063D01*
X91970620Y-87683780D01*
X92768180Y-87683780D01*
X93015945Y-87733063D01*
X93118700Y-87801722D01*
X93221455Y-87733063D01*
X93469220Y-87683780D01*
X94181542Y-87683780D01*
X94322031Y-86948000D01*
X88653326Y-86948000D01*
X88810707Y-87105382D01*
X88907380Y-87338771D01*
X88907380Y-87628910D01*
X88748630Y-87787660D01*
X87899000Y-87787660D01*
X87899000Y-87767660D01*
X87645000Y-87767660D01*
X87645000Y-87787660D01*
X86795370Y-87787660D01*
X86636620Y-87628910D01*
X86636620Y-87338771D01*
X86733293Y-87105382D01*
X86890674Y-86948000D01*
X86166666Y-86948000D01*
X86270707Y-87052042D01*
X86367380Y-87285431D01*
X86367380Y-87575570D01*
X86208630Y-87734320D01*
X85359000Y-87734320D01*
X85359000Y-87714320D01*
X85105000Y-87714320D01*
X85105000Y-87734320D01*
X84255370Y-87734320D01*
X84096620Y-87575570D01*
X84096620Y-87285431D01*
X84193293Y-87052042D01*
X84371921Y-86873413D01*
X84605310Y-86776740D01*
X84946250Y-86776740D01*
X85104998Y-86935488D01*
X85104998Y-86852351D01*
X84860210Y-86688790D01*
X84668367Y-86401675D01*
X84601000Y-86063000D01*
X84668367Y-85724325D01*
X84776000Y-85563240D01*
X84776000Y-85043000D01*
X82184000Y-85043000D01*
X81845325Y-84975633D01*
X81706808Y-84883079D01*
X81562831Y-84942863D01*
X81250539Y-84943136D01*
X81156124Y-84904125D01*
X81062831Y-84942863D01*
X80750539Y-84943136D01*
X80656124Y-84904125D01*
X80562831Y-84942863D01*
X80250539Y-84943136D01*
X80156124Y-84904125D01*
X80062831Y-84942863D01*
X79750539Y-84943136D01*
X79656124Y-84904125D01*
X79562831Y-84942863D01*
X79250539Y-84943136D01*
X79183665Y-84915504D01*
X79093675Y-84975633D01*
X78755000Y-85043000D01*
X76338000Y-85043000D01*
X76338000Y-86063000D01*
X76270633Y-86401675D01*
X76078790Y-86688790D01*
X75791675Y-86880633D01*
X75453000Y-86948000D01*
X66611876Y-86948000D01*
X66748793Y-87683780D01*
X67495180Y-87683780D01*
X67742945Y-87733063D01*
X67845700Y-87801722D01*
X67948455Y-87733063D01*
X68196220Y-87683780D01*
X68993780Y-87683780D01*
X69241545Y-87733063D01*
X69451589Y-87873411D01*
X69571048Y-88052193D01*
X69781181Y-88192599D01*
X72153000Y-90564418D01*
X72153000Y-90529780D01*
X72210852Y-90238941D01*
X72375599Y-89992379D01*
X72768219Y-89599759D01*
X72949779Y-89478445D01*
X72957463Y-89439815D01*
X73097811Y-89229771D01*
X73307855Y-89089423D01*
X73405071Y-89070086D01*
X73470005Y-88972905D01*
X73433081Y-88936046D01*
X73275180Y-88555777D01*
X73274821Y-88144029D01*
X73432058Y-87763485D01*
X73722954Y-87472081D01*
X74103223Y-87314180D01*
X74514971Y-87313821D01*
X74895515Y-87471058D01*
X75186919Y-87761954D01*
X75324816Y-88094049D01*
X75526745Y-87959123D01*
X75774510Y-87909840D01*
X77773490Y-87909840D01*
X78021255Y-87959123D01*
X78227601Y-88097000D01*
X78374000Y-88097000D01*
X78664839Y-88154852D01*
X78911401Y-88319599D01*
X79800401Y-89208599D01*
X79965148Y-89455161D01*
X79976368Y-89511566D01*
X80181401Y-89716599D01*
X80346148Y-89963160D01*
X80404000Y-90254000D01*
X80404000Y-90310428D01*
X80715070Y-89999358D01*
X80715070Y-89827280D01*
X80764353Y-89579515D01*
X80822829Y-89492000D01*
X80764353Y-89404485D01*
X80715070Y-89156720D01*
X80715070Y-88557280D01*
X80764353Y-88309515D01*
X80904701Y-88099471D01*
X81114745Y-87959123D01*
X81362510Y-87909840D01*
X83361490Y-87909840D01*
X83609255Y-87959123D01*
X83815601Y-88097000D01*
X83835000Y-88097000D01*
X84096620Y-88149040D01*
X84096620Y-88147070D01*
X84255370Y-87988320D01*
X85105000Y-87988320D01*
X85105000Y-88008320D01*
X85359000Y-88008320D01*
X85359000Y-87988320D01*
X86208630Y-87988320D01*
X86367380Y-88147070D01*
X86367380Y-88437209D01*
X86294355Y-88613506D01*
X86330537Y-88667655D01*
X86379820Y-88915420D01*
X86379820Y-89225178D01*
X86523399Y-89081599D01*
X86624180Y-89014259D01*
X86624180Y-88968760D01*
X86673463Y-88720995D01*
X86709645Y-88666846D01*
X86636620Y-88490549D01*
X86636620Y-88200410D01*
X86795370Y-88041660D01*
X87645000Y-88041660D01*
X87645000Y-88061660D01*
X87899000Y-88061660D01*
X87899000Y-88041660D01*
X88748630Y-88041660D01*
X88907380Y-88200410D01*
X88907380Y-88490549D01*
X88834355Y-88666846D01*
X88870537Y-88720995D01*
X88919820Y-88968760D01*
X88919820Y-89867920D01*
X88870537Y-90115685D01*
X88730189Y-90325729D01*
X88520145Y-90466077D01*
X88435697Y-90482875D01*
X88476189Y-90509931D01*
X88616537Y-90719975D01*
X88665820Y-90967740D01*
X88665820Y-91866900D01*
X88616537Y-92114665D01*
X88580124Y-92169160D01*
X88616537Y-92223655D01*
X88665820Y-92471420D01*
X88665820Y-93370580D01*
X88616537Y-93618345D01*
X88476189Y-93828389D01*
X88266145Y-93968737D01*
X88168929Y-93988074D01*
X88055401Y-94157981D01*
X87230981Y-94982401D01*
X86984419Y-95147148D01*
X86693580Y-95205000D01*
X83200000Y-95205000D01*
X82909161Y-95147148D01*
X82662599Y-94982401D01*
X81824599Y-94144401D01*
X81659852Y-93897839D01*
X81603424Y-93614160D01*
X81362510Y-93614160D01*
X81114745Y-93564877D01*
X80908399Y-93427000D01*
X80279000Y-93427000D01*
X79988161Y-93369148D01*
X79890988Y-93304219D01*
X79890988Y-94125186D01*
X80689401Y-94923599D01*
X80854148Y-95170161D01*
X80912000Y-95461000D01*
X80912000Y-98604250D01*
X85945740Y-98604250D01*
X85945740Y-98263310D01*
X86042413Y-98029921D01*
X86221042Y-97851293D01*
X86454431Y-97754620D01*
X86744570Y-97754620D01*
X86903320Y-97913370D01*
X86903320Y-98763000D01*
X86104490Y-98763000D01*
X85945740Y-98604250D01*
X80912000Y-98604250D01*
X80912000Y-99516690D01*
X85945740Y-99516690D01*
X85945740Y-99175750D01*
X86104490Y-99017000D01*
X86903320Y-99017000D01*
X86903320Y-99866630D01*
X86744570Y-100025380D01*
X86454431Y-100025380D01*
X86221042Y-99928707D01*
X86042413Y-99750079D01*
X85945740Y-99516690D01*
X80912000Y-99516690D01*
X80912000Y-101914198D01*
X82056560Y-100769638D01*
G36*
X71637010Y-92198032D02*
X69178463Y-89739485D01*
X68993780Y-89776220D01*
X68303022Y-89776220D01*
X69513401Y-90986599D01*
X69678148Y-91233161D01*
X69736000Y-91524000D01*
X69736000Y-97697900D01*
X69750700Y-97707722D01*
X69853455Y-97639063D01*
X70101220Y-97589780D01*
X70898780Y-97589780D01*
X71146545Y-97639063D01*
X71356589Y-97779411D01*
X71496937Y-97989455D01*
X71546220Y-98237220D01*
X71546220Y-99034780D01*
X71509485Y-99219463D01*
X71637010Y-99346988D01*
X71637010Y-92198032D01*
X71637010Y-92198032D01*
G37*
X71637010Y-92198032D02*
X69178463Y-89739485D01*
X68993780Y-89776220D01*
X68303022Y-89776220D01*
X69513401Y-90986599D01*
X69678148Y-91233161D01*
X69736000Y-91524000D01*
X69736000Y-97697900D01*
X69750700Y-97707722D01*
X69853455Y-97639063D01*
X70101220Y-97589780D01*
X70898780Y-97589780D01*
X71146545Y-97639063D01*
X71356589Y-97779411D01*
X71496937Y-97989455D01*
X71546220Y-98237220D01*
X71546220Y-99034780D01*
X71509485Y-99219463D01*
X71637010Y-99346988D01*
X71637010Y-92198032D01*
G36*
X91298599Y-93145599D02*
X91965000Y-92479198D01*
X91965000Y-90857982D01*
X91199000Y-91623982D01*
X91199000Y-93294660D01*
X91298599Y-93145599D01*
X91298599Y-93145599D01*
G37*
X91298599Y-93145599D02*
X91965000Y-92479198D01*
X91965000Y-90857982D01*
X91199000Y-91623982D01*
X91199000Y-93294660D01*
X91298599Y-93145599D01*
G36*
X68216000Y-91838802D02*
X67363304Y-90986106D01*
X68216000Y-95568421D01*
X68216000Y-91838802D01*
X68216000Y-91838802D01*
G37*
X68216000Y-91838802D02*
X67363304Y-90986106D01*
X68216000Y-95568421D01*
X68216000Y-91838802D01*
G36*
X79392000Y-95775802D02*
X78593587Y-94977389D01*
X78428840Y-94730827D01*
X78370988Y-94439988D01*
X78370988Y-93183567D01*
X78311817Y-93326418D01*
X78133189Y-93505047D01*
X77899800Y-93601720D01*
X77059750Y-93601720D01*
X76901000Y-93442970D01*
X76901000Y-92794000D01*
X76921000Y-92794000D01*
X76921000Y-92540000D01*
X76901000Y-92540000D01*
X76901000Y-92520000D01*
X76647000Y-92520000D01*
X76647000Y-92540000D01*
X75298260Y-92540000D01*
X75139510Y-92381250D01*
X75139510Y-92341954D01*
X75094707Y-92450118D01*
X74916079Y-92628747D01*
X74682690Y-92725420D01*
X74341750Y-92725420D01*
X74183000Y-92566670D01*
X74183000Y-91767840D01*
X74203000Y-91767840D01*
X74203000Y-91513840D01*
X74183000Y-91513840D01*
X74183000Y-91493840D01*
X73929000Y-91493840D01*
X73929000Y-91513840D01*
X73909000Y-91513840D01*
X73909000Y-91767840D01*
X73929000Y-91767840D01*
X73929000Y-92566670D01*
X73770250Y-92725420D01*
X73673000Y-92725420D01*
X73673000Y-93093029D01*
X75139510Y-93093029D01*
X75139510Y-92952750D01*
X75298260Y-92794000D01*
X76647000Y-92794000D01*
X76647000Y-93442970D01*
X76488250Y-93601720D01*
X75648200Y-93601720D01*
X75414811Y-93505047D01*
X75236183Y-93326418D01*
X75139510Y-93093029D01*
X73673000Y-93093029D01*
X73673000Y-98956198D01*
X74703277Y-99986475D01*
X74825620Y-99962140D01*
X75826380Y-99962140D01*
X76074145Y-100011423D01*
X76284189Y-100151771D01*
X76382672Y-100299160D01*
X76772711Y-100299160D01*
X76846191Y-100189191D01*
X77056235Y-100048843D01*
X77304000Y-99999560D01*
X78804000Y-99999560D01*
X79051765Y-100048843D01*
X79261809Y-100189191D01*
X79392000Y-100384034D01*
X79392000Y-95775802D01*
X79392000Y-95775802D01*
G37*
X79392000Y-95775802D02*
X78593587Y-94977389D01*
X78428840Y-94730827D01*
X78370988Y-94439988D01*
X78370988Y-93183567D01*
X78311817Y-93326418D01*
X78133189Y-93505047D01*
X77899800Y-93601720D01*
X77059750Y-93601720D01*
X76901000Y-93442970D01*
X76901000Y-92794000D01*
X76921000Y-92794000D01*
X76921000Y-92540000D01*
X76901000Y-92540000D01*
X76901000Y-92520000D01*
X76647000Y-92520000D01*
X76647000Y-92540000D01*
X75298260Y-92540000D01*
X75139510Y-92381250D01*
X75139510Y-92341954D01*
X75094707Y-92450118D01*
X74916079Y-92628747D01*
X74682690Y-92725420D01*
X74341750Y-92725420D01*
X74183000Y-92566670D01*
X74183000Y-91767840D01*
X74203000Y-91767840D01*
X74203000Y-91513840D01*
X74183000Y-91513840D01*
X74183000Y-91493840D01*
X73929000Y-91493840D01*
X73929000Y-91513840D01*
X73909000Y-91513840D01*
X73909000Y-91767840D01*
X73929000Y-91767840D01*
X73929000Y-92566670D01*
X73770250Y-92725420D01*
X73673000Y-92725420D01*
X73673000Y-93093029D01*
X75139510Y-93093029D01*
X75139510Y-92952750D01*
X75298260Y-92794000D01*
X76647000Y-92794000D01*
X76647000Y-93442970D01*
X76488250Y-93601720D01*
X75648200Y-93601720D01*
X75414811Y-93505047D01*
X75236183Y-93326418D01*
X75139510Y-93093029D01*
X73673000Y-93093029D01*
X73673000Y-98956198D01*
X74703277Y-99986475D01*
X74825620Y-99962140D01*
X75826380Y-99962140D01*
X76074145Y-100011423D01*
X76284189Y-100151771D01*
X76382672Y-100299160D01*
X76772711Y-100299160D01*
X76846191Y-100189191D01*
X77056235Y-100048843D01*
X77304000Y-99999560D01*
X78804000Y-99999560D01*
X79051765Y-100048843D01*
X79261809Y-100189191D01*
X79392000Y-100384034D01*
X79392000Y-95775802D01*
G36*
X93065621Y-93528181D02*
X92596000Y-93997802D01*
X92596000Y-95987722D01*
X93065621Y-93528181D01*
X93065621Y-93528181D01*
G37*
X93065621Y-93528181D02*
X92596000Y-93997802D01*
X92596000Y-95987722D01*
X93065621Y-93528181D01*
G36*
X79909000Y-103763802D02*
X79673401Y-103999401D01*
X79426839Y-104164148D01*
X79374341Y-104174591D01*
X79439000Y-104330691D01*
X79439000Y-104446250D01*
X79280250Y-104605000D01*
X78181000Y-104605000D01*
X78181000Y-104585000D01*
X77927000Y-104585000D01*
X77927000Y-104605000D01*
X76827750Y-104605000D01*
X76669000Y-104446250D01*
X76669000Y-104330691D01*
X76765673Y-104097302D01*
X76774884Y-104088091D01*
X76705843Y-103984765D01*
X76656560Y-103737000D01*
X76656560Y-103187000D01*
X76705843Y-102939235D01*
X76774884Y-102835909D01*
X76765673Y-102826698D01*
X76669000Y-102593309D01*
X76669000Y-102477750D01*
X76827750Y-102319000D01*
X77927000Y-102319000D01*
X77927000Y-102339000D01*
X78181000Y-102339000D01*
X78181000Y-102319000D01*
X78201000Y-102319000D01*
X78201000Y-102065000D01*
X78181000Y-102065000D01*
X78181000Y-102045000D01*
X77927000Y-102045000D01*
X77927000Y-102065000D01*
X76827750Y-102065000D01*
X76669000Y-101906250D01*
X76669000Y-101819160D01*
X76391879Y-101819160D01*
X76461380Y-101986951D01*
X76461380Y-102277090D01*
X76302630Y-102435840D01*
X75453000Y-102435840D01*
X75453000Y-102415840D01*
X75199000Y-102415840D01*
X75199000Y-102435840D01*
X74349370Y-102435840D01*
X74190620Y-102277090D01*
X74190620Y-101986951D01*
X74263645Y-101810654D01*
X74227463Y-101756505D01*
X74200536Y-101621135D01*
X74163759Y-101596561D01*
X73157010Y-100589812D01*
X73157010Y-102504208D01*
X73791531Y-103138729D01*
X74190620Y-103138729D01*
X74190620Y-102848590D01*
X74349370Y-102689840D01*
X75199000Y-102689840D01*
X75199000Y-103488670D01*
X75453000Y-103488670D01*
X75453000Y-102689840D01*
X76302630Y-102689840D01*
X76461380Y-102848590D01*
X76461380Y-103138729D01*
X76364707Y-103372118D01*
X76186079Y-103550747D01*
X75952690Y-103647420D01*
X75611750Y-103647420D01*
X75453000Y-103488670D01*
X75199000Y-103488670D01*
X75040250Y-103647420D01*
X74699310Y-103647420D01*
X74465921Y-103550747D01*
X74287293Y-103372118D01*
X74190620Y-103138729D01*
X73791531Y-103138729D01*
X76656560Y-106003758D01*
X76656560Y-105727000D01*
X76705843Y-105479235D01*
X76774884Y-105375909D01*
X76765673Y-105366698D01*
X76669000Y-105133309D01*
X76669000Y-105017750D01*
X76827750Y-104859000D01*
X77927000Y-104859000D01*
X77927000Y-104879000D01*
X78181000Y-104879000D01*
X78181000Y-104859000D01*
X79280250Y-104859000D01*
X79439000Y-105017750D01*
X79439000Y-105133309D01*
X79342327Y-105366698D01*
X79333116Y-105375909D01*
X79402157Y-105479235D01*
X79451440Y-105727000D01*
X79451440Y-106277000D01*
X79402157Y-106524765D01*
X79327163Y-106637000D01*
X79402157Y-106749235D01*
X79451440Y-106997000D01*
X79451440Y-107547000D01*
X79402157Y-107794765D01*
X79327163Y-107907000D01*
X79402157Y-108019235D01*
X79451440Y-108267000D01*
X79451440Y-108389638D01*
X79909000Y-108847198D01*
X79909000Y-103763802D01*
X79909000Y-103763802D01*
G37*
X79909000Y-103763802D02*
X79673401Y-103999401D01*
X79426839Y-104164148D01*
X79374341Y-104174591D01*
X79439000Y-104330691D01*
X79439000Y-104446250D01*
X79280250Y-104605000D01*
X78181000Y-104605000D01*
X78181000Y-104585000D01*
X77927000Y-104585000D01*
X77927000Y-104605000D01*
X76827750Y-104605000D01*
X76669000Y-104446250D01*
X76669000Y-104330691D01*
X76765673Y-104097302D01*
X76774884Y-104088091D01*
X76705843Y-103984765D01*
X76656560Y-103737000D01*
X76656560Y-103187000D01*
X76705843Y-102939235D01*
X76774884Y-102835909D01*
X76765673Y-102826698D01*
X76669000Y-102593309D01*
X76669000Y-102477750D01*
X76827750Y-102319000D01*
X77927000Y-102319000D01*
X77927000Y-102339000D01*
X78181000Y-102339000D01*
X78181000Y-102319000D01*
X78201000Y-102319000D01*
X78201000Y-102065000D01*
X78181000Y-102065000D01*
X78181000Y-102045000D01*
X77927000Y-102045000D01*
X77927000Y-102065000D01*
X76827750Y-102065000D01*
X76669000Y-101906250D01*
X76669000Y-101819160D01*
X76391879Y-101819160D01*
X76461380Y-101986951D01*
X76461380Y-102277090D01*
X76302630Y-102435840D01*
X75453000Y-102435840D01*
X75453000Y-102415840D01*
X75199000Y-102415840D01*
X75199000Y-102435840D01*
X74349370Y-102435840D01*
X74190620Y-102277090D01*
X74190620Y-101986951D01*
X74263645Y-101810654D01*
X74227463Y-101756505D01*
X74200536Y-101621135D01*
X74163759Y-101596561D01*
X73157010Y-100589812D01*
X73157010Y-102504208D01*
X73791531Y-103138729D01*
X74190620Y-103138729D01*
X74190620Y-102848590D01*
X74349370Y-102689840D01*
X75199000Y-102689840D01*
X75199000Y-103488670D01*
X75453000Y-103488670D01*
X75453000Y-102689840D01*
X76302630Y-102689840D01*
X76461380Y-102848590D01*
X76461380Y-103138729D01*
X76364707Y-103372118D01*
X76186079Y-103550747D01*
X75952690Y-103647420D01*
X75611750Y-103647420D01*
X75453000Y-103488670D01*
X75199000Y-103488670D01*
X75040250Y-103647420D01*
X74699310Y-103647420D01*
X74465921Y-103550747D01*
X74287293Y-103372118D01*
X74190620Y-103138729D01*
X73791531Y-103138729D01*
X76656560Y-106003758D01*
X76656560Y-105727000D01*
X76705843Y-105479235D01*
X76774884Y-105375909D01*
X76765673Y-105366698D01*
X76669000Y-105133309D01*
X76669000Y-105017750D01*
X76827750Y-104859000D01*
X77927000Y-104859000D01*
X77927000Y-104879000D01*
X78181000Y-104879000D01*
X78181000Y-104859000D01*
X79280250Y-104859000D01*
X79439000Y-105017750D01*
X79439000Y-105133309D01*
X79342327Y-105366698D01*
X79333116Y-105375909D01*
X79402157Y-105479235D01*
X79451440Y-105727000D01*
X79451440Y-106277000D01*
X79402157Y-106524765D01*
X79327163Y-106637000D01*
X79402157Y-106749235D01*
X79451440Y-106997000D01*
X79451440Y-107547000D01*
X79402157Y-107794765D01*
X79327163Y-107907000D01*
X79402157Y-108019235D01*
X79451440Y-108267000D01*
X79451440Y-108389638D01*
X79909000Y-108847198D01*
X79909000Y-103763802D01*
G36*
X91596993Y-101219809D02*
X90691000Y-102125802D01*
X90691000Y-105964756D01*
X91596993Y-101219809D01*
X91596993Y-101219809D01*
G37*
X91596993Y-101219809D02*
X90691000Y-102125802D01*
X90691000Y-105964756D01*
X91596993Y-101219809D01*
G36*
X89171000Y-102549772D02*
X87721371Y-103999401D01*
X87474809Y-104164148D01*
X87183970Y-104222000D01*
X87066802Y-104222000D01*
X88055401Y-105210599D01*
X88220148Y-105457161D01*
X88278000Y-105748000D01*
X88278000Y-106918018D01*
X88969801Y-107609819D01*
X89110207Y-107819952D01*
X89171000Y-107860573D01*
X89171000Y-102549772D01*
X89171000Y-102549772D01*
G37*
X89171000Y-102549772D02*
X87721371Y-103999401D01*
X87474809Y-104164148D01*
X87183970Y-104222000D01*
X87066802Y-104222000D01*
X88055401Y-105210599D01*
X88220148Y-105457161D01*
X88278000Y-105748000D01*
X88278000Y-106918018D01*
X88969801Y-107609819D01*
X89110207Y-107819952D01*
X89171000Y-107860573D01*
X89171000Y-102549772D01*
G36*
X69994000Y-103522802D02*
X69628095Y-103156897D01*
X69994000Y-105123238D01*
X69994000Y-103522802D01*
X69994000Y-103522802D01*
G37*
X69994000Y-103522802D02*
X69628095Y-103156897D01*
X69994000Y-105123238D01*
X69994000Y-103522802D01*
G36*
X87488599Y-113338599D02*
X88536000Y-112291198D01*
X88536000Y-109842220D01*
X88033620Y-109842220D01*
X87785855Y-109792937D01*
X87575811Y-109652589D01*
X87435463Y-109442545D01*
X87386180Y-109194780D01*
X87386180Y-108397220D01*
X87422915Y-108212537D01*
X86980599Y-107770221D01*
X86815852Y-107523659D01*
X86758000Y-107232820D01*
X86758000Y-106062802D01*
X86187198Y-105492000D01*
X84804696Y-105492000D01*
X84851440Y-105727000D01*
X84851440Y-106277000D01*
X84802157Y-106524765D01*
X84727163Y-106637000D01*
X84802157Y-106749235D01*
X84851440Y-106997000D01*
X84851440Y-107547000D01*
X84802157Y-107794765D01*
X84800516Y-107797220D01*
X85014839Y-107839852D01*
X85261401Y-108004599D01*
X86277401Y-109020599D01*
X86442148Y-109267161D01*
X86500000Y-109558000D01*
X86500000Y-111712949D01*
X87218448Y-112431397D01*
X87383195Y-112677958D01*
X87413557Y-112830599D01*
X87441047Y-112968798D01*
X87441047Y-113409766D01*
X87488599Y-113338599D01*
X87488599Y-113338599D01*
G37*
X87488599Y-113338599D02*
X88536000Y-112291198D01*
X88536000Y-109842220D01*
X88033620Y-109842220D01*
X87785855Y-109792937D01*
X87575811Y-109652589D01*
X87435463Y-109442545D01*
X87386180Y-109194780D01*
X87386180Y-108397220D01*
X87422915Y-108212537D01*
X86980599Y-107770221D01*
X86815852Y-107523659D01*
X86758000Y-107232820D01*
X86758000Y-106062802D01*
X86187198Y-105492000D01*
X84804696Y-105492000D01*
X84851440Y-105727000D01*
X84851440Y-106277000D01*
X84802157Y-106524765D01*
X84727163Y-106637000D01*
X84802157Y-106749235D01*
X84851440Y-106997000D01*
X84851440Y-107547000D01*
X84802157Y-107794765D01*
X84800516Y-107797220D01*
X85014839Y-107839852D01*
X85261401Y-108004599D01*
X86277401Y-109020599D01*
X86442148Y-109267161D01*
X86500000Y-109558000D01*
X86500000Y-111712949D01*
X87218448Y-112431397D01*
X87383195Y-112677958D01*
X87413557Y-112830599D01*
X87441047Y-112968798D01*
X87441047Y-113409766D01*
X87488599Y-113338599D01*
G36*
X78421223Y-117286180D02*
X78832971Y-117285821D01*
X78884000Y-117306906D01*
X78884000Y-116485996D01*
X78941852Y-116195157D01*
X79106599Y-115948595D01*
X79138000Y-115917194D01*
X79138000Y-110627536D01*
X79051765Y-110685157D01*
X78804000Y-110734440D01*
X77304000Y-110734440D01*
X77056235Y-110685157D01*
X76886885Y-110572000D01*
X76596000Y-110572000D01*
X76305161Y-110514148D01*
X76058599Y-110349401D01*
X71514000Y-105804802D01*
X71514000Y-107857900D01*
X71528700Y-107867722D01*
X71631455Y-107799063D01*
X71879220Y-107749780D01*
X72676780Y-107749780D01*
X72924545Y-107799063D01*
X73134589Y-107939411D01*
X73274937Y-108149455D01*
X73324220Y-108397220D01*
X73324220Y-108767418D01*
X73450401Y-108893599D01*
X73615148Y-109140161D01*
X73673000Y-109431000D01*
X73673000Y-112164198D01*
X77989503Y-116480701D01*
X78154250Y-116727263D01*
X78212102Y-117018102D01*
X78212102Y-117373014D01*
X78421223Y-117286180D01*
X78421223Y-117286180D01*
G37*
X78421223Y-117286180D02*
X78832971Y-117285821D01*
X78884000Y-117306906D01*
X78884000Y-116485996D01*
X78941852Y-116195157D01*
X79106599Y-115948595D01*
X79138000Y-115917194D01*
X79138000Y-110627536D01*
X79051765Y-110685157D01*
X78804000Y-110734440D01*
X77304000Y-110734440D01*
X77056235Y-110685157D01*
X76886885Y-110572000D01*
X76596000Y-110572000D01*
X76305161Y-110514148D01*
X76058599Y-110349401D01*
X71514000Y-105804802D01*
X71514000Y-107857900D01*
X71528700Y-107867722D01*
X71631455Y-107799063D01*
X71879220Y-107749780D01*
X72676780Y-107749780D01*
X72924545Y-107799063D01*
X73134589Y-107939411D01*
X73274937Y-108149455D01*
X73324220Y-108397220D01*
X73324220Y-108767418D01*
X73450401Y-108893599D01*
X73615148Y-109140161D01*
X73673000Y-109431000D01*
X73673000Y-112164198D01*
X77989503Y-116480701D01*
X78154250Y-116727263D01*
X78212102Y-117018102D01*
X78212102Y-117373014D01*
X78421223Y-117286180D01*
G36*
X84400811Y-123560411D02*
X84610855Y-123420063D01*
X84858620Y-123370780D01*
X85656180Y-123370780D01*
X85903945Y-123420063D01*
X85996000Y-123481573D01*
X85996000Y-120861000D01*
X86053852Y-120570161D01*
X86218599Y-120323599D01*
X86666978Y-119875220D01*
X86128620Y-119875220D01*
X85880855Y-119825937D01*
X85670811Y-119685589D01*
X85530463Y-119475545D01*
X85481180Y-119227780D01*
X85481180Y-118430220D01*
X85530463Y-118182455D01*
X85670811Y-117972411D01*
X85849593Y-117852952D01*
X85921047Y-117746013D01*
X85921047Y-113283600D01*
X85202599Y-112565152D01*
X85037852Y-112318590D01*
X84980000Y-112027751D01*
X84980000Y-109872802D01*
X84736224Y-109629026D01*
X84680250Y-109685000D01*
X83581000Y-109685000D01*
X83581000Y-109665000D01*
X83327000Y-109665000D01*
X83327000Y-109685000D01*
X83307000Y-109685000D01*
X83307000Y-109939000D01*
X83327000Y-109939000D01*
X83327000Y-110563250D01*
X83581000Y-110563250D01*
X83581000Y-109939000D01*
X84680250Y-109939000D01*
X84839000Y-110097750D01*
X84839000Y-110213309D01*
X84742327Y-110446698D01*
X84563699Y-110625327D01*
X84330310Y-110722000D01*
X83739750Y-110722000D01*
X83581000Y-110563250D01*
X83327000Y-110563250D01*
X83168250Y-110722000D01*
X82690000Y-110722000D01*
X82690000Y-116101198D01*
X84880401Y-118291599D01*
X85045148Y-118538160D01*
X85103000Y-118829000D01*
X85103000Y-120734000D01*
X85045148Y-121024839D01*
X84880401Y-121271401D01*
X84489035Y-121662767D01*
X84489179Y-121827971D01*
X84331942Y-122208515D01*
X84041046Y-122499919D01*
X83660777Y-122657820D01*
X83249029Y-122658179D01*
X82910429Y-122518273D01*
X82627268Y-122801928D01*
X82470730Y-122866928D01*
X83260802Y-123657000D01*
X84336272Y-123657000D01*
X84400811Y-123560411D01*
X84400811Y-123560411D01*
G37*
X84400811Y-123560411D02*
X84610855Y-123420063D01*
X84858620Y-123370780D01*
X85656180Y-123370780D01*
X85903945Y-123420063D01*
X85996000Y-123481573D01*
X85996000Y-120861000D01*
X86053852Y-120570161D01*
X86218599Y-120323599D01*
X86666978Y-119875220D01*
X86128620Y-119875220D01*
X85880855Y-119825937D01*
X85670811Y-119685589D01*
X85530463Y-119475545D01*
X85481180Y-119227780D01*
X85481180Y-118430220D01*
X85530463Y-118182455D01*
X85670811Y-117972411D01*
X85849593Y-117852952D01*
X85921047Y-117746013D01*
X85921047Y-113283600D01*
X85202599Y-112565152D01*
X85037852Y-112318590D01*
X84980000Y-112027751D01*
X84980000Y-109872802D01*
X84736224Y-109629026D01*
X84680250Y-109685000D01*
X83581000Y-109685000D01*
X83581000Y-109665000D01*
X83327000Y-109665000D01*
X83327000Y-109685000D01*
X83307000Y-109685000D01*
X83307000Y-109939000D01*
X83327000Y-109939000D01*
X83327000Y-110563250D01*
X83581000Y-110563250D01*
X83581000Y-109939000D01*
X84680250Y-109939000D01*
X84839000Y-110097750D01*
X84839000Y-110213309D01*
X84742327Y-110446698D01*
X84563699Y-110625327D01*
X84330310Y-110722000D01*
X83739750Y-110722000D01*
X83581000Y-110563250D01*
X83327000Y-110563250D01*
X83168250Y-110722000D01*
X82690000Y-110722000D01*
X82690000Y-116101198D01*
X84880401Y-118291599D01*
X85045148Y-118538160D01*
X85103000Y-118829000D01*
X85103000Y-120734000D01*
X85045148Y-121024839D01*
X84880401Y-121271401D01*
X84489035Y-121662767D01*
X84489179Y-121827971D01*
X84331942Y-122208515D01*
X84041046Y-122499919D01*
X83660777Y-122657820D01*
X83249029Y-122658179D01*
X82910429Y-122518273D01*
X82627268Y-122801928D01*
X82470730Y-122866928D01*
X83260802Y-123657000D01*
X84336272Y-123657000D01*
X84400811Y-123560411D01*
G36*
X71899000Y-113682802D02*
X71515421Y-113299223D01*
X71899000Y-115360542D01*
X71899000Y-113682802D01*
X71899000Y-113682802D01*
G37*
X71899000Y-113682802D02*
X71515421Y-113299223D01*
X71899000Y-115360542D01*
X71899000Y-113682802D01*
G36*
X89199233Y-113777569D02*
X88786000Y-114190802D01*
X88786000Y-115941790D01*
X89199233Y-113777569D01*
X89199233Y-113777569D01*
G37*
X89199233Y-113777569D02*
X88786000Y-114190802D01*
X88786000Y-115941790D01*
X89199233Y-113777569D01*
G36*
X76574160Y-118868897D02*
X76692102Y-118750749D01*
X76692102Y-117332904D01*
X73419000Y-114059802D01*
X73419000Y-117890900D01*
X73433700Y-117900722D01*
X73536455Y-117832063D01*
X73784220Y-117782780D01*
X74581780Y-117782780D01*
X74829545Y-117832063D01*
X75039589Y-117972411D01*
X75104128Y-118069000D01*
X75326000Y-118069000D01*
X75616839Y-118126852D01*
X75863401Y-118291599D01*
X76535139Y-118963337D01*
X76574160Y-118868897D01*
X76574160Y-118868897D01*
G37*
X76574160Y-118868897D02*
X76692102Y-118750749D01*
X76692102Y-117332904D01*
X73419000Y-114059802D01*
X73419000Y-117890900D01*
X73433700Y-117900722D01*
X73536455Y-117832063D01*
X73784220Y-117782780D01*
X74581780Y-117782780D01*
X74829545Y-117832063D01*
X75039589Y-117972411D01*
X75104128Y-118069000D01*
X75326000Y-118069000D01*
X75616839Y-118126852D01*
X75863401Y-118291599D01*
X76535139Y-118963337D01*
X76574160Y-118868897D01*
G36*
X81162280Y-121339494D02*
X81453176Y-121048090D01*
X81730804Y-120932809D01*
X82726013Y-119937600D01*
X82726013Y-119498400D01*
X81607227Y-118379614D01*
X81546942Y-118525515D01*
X81256046Y-118816919D01*
X80875777Y-118974820D01*
X80464029Y-118975179D01*
X80404000Y-118950376D01*
X80404000Y-120800198D01*
X81098253Y-121494451D01*
X81162280Y-121339494D01*
X81162280Y-121339494D01*
G37*
X81162280Y-121339494D02*
X81453176Y-121048090D01*
X81730804Y-120932809D01*
X82726013Y-119937600D01*
X82726013Y-119498400D01*
X81607227Y-118379614D01*
X81546942Y-118525515D01*
X81256046Y-118816919D01*
X80875777Y-118974820D01*
X80464029Y-118975179D01*
X80404000Y-118950376D01*
X80404000Y-120800198D01*
X81098253Y-121494451D01*
X81162280Y-121339494D01*
G36*
X74806455Y-123420063D02*
X75054220Y-123370780D01*
X75851780Y-123370780D01*
X76036463Y-123407515D01*
X77326905Y-122117073D01*
X77026485Y-121992942D01*
X76735081Y-121702046D01*
X76577180Y-121321777D01*
X76577034Y-121154836D01*
X75066905Y-119644707D01*
X75039589Y-119685589D01*
X74829545Y-119825937D01*
X74581780Y-119875220D01*
X74018022Y-119875220D01*
X74491801Y-120348999D01*
X74656548Y-120595560D01*
X74714400Y-120886400D01*
X74714400Y-123481573D01*
X74806455Y-123420063D01*
X74806455Y-123420063D01*
G37*
X74806455Y-123420063D02*
X75054220Y-123370780D01*
X75851780Y-123370780D01*
X76036463Y-123407515D01*
X77326905Y-122117073D01*
X77026485Y-121992942D01*
X76735081Y-121702046D01*
X76577180Y-121321777D01*
X76577034Y-121154836D01*
X75066905Y-119644707D01*
X75039589Y-119685589D01*
X74829545Y-119825937D01*
X74581780Y-119875220D01*
X74018022Y-119875220D01*
X74491801Y-120348999D01*
X74656548Y-120595560D01*
X74714400Y-120886400D01*
X74714400Y-123481573D01*
X74806455Y-123420063D01*
G36*
X78725599Y-123625599D02*
X78972160Y-123460852D01*
X79020414Y-123451254D01*
X79263000Y-123403000D01*
X80857198Y-123403000D01*
X79523890Y-122069692D01*
X76666582Y-124927000D01*
X77424198Y-124927000D01*
X78725599Y-123625599D01*
X78725599Y-123625599D01*
G37*
X78725599Y-123625599D02*
X78972160Y-123460852D01*
X79020414Y-123451254D01*
X79263000Y-123403000D01*
X80857198Y-123403000D01*
X79523890Y-122069692D01*
X76666582Y-124927000D01*
X77424198Y-124927000D01*
X78725599Y-123625599D01*
G36*
X84365937Y-126320000D02*
X82946000Y-126320000D01*
X82655160Y-126262148D01*
X82540641Y-126185629D01*
X82541240Y-126871789D01*
X82270433Y-127527193D01*
X84365937Y-126320000D01*
X84365937Y-126320000D01*
G37*
X84365937Y-126320000D02*
X82946000Y-126320000D01*
X82655160Y-126262148D01*
X82540641Y-126185629D01*
X82541240Y-126871789D01*
X82270433Y-127527193D01*
X84365937Y-126320000D01*
G36*
X78271501Y-126875515D02*
X78270936Y-126228053D01*
X78029839Y-126389148D01*
X77739000Y-126447000D01*
X76639031Y-126447000D01*
X78544469Y-127532894D01*
X78271501Y-126875515D01*
X78271501Y-126875515D01*
G37*
X78271501Y-126875515D02*
X78270936Y-126228053D01*
X78029839Y-126389148D01*
X77739000Y-126447000D01*
X76639031Y-126447000D01*
X78544469Y-127532894D01*
X78271501Y-126875515D01*
G36*
X82056560Y-150299638D02*
X82056560Y-150177000D01*
X82105843Y-149929235D01*
X82246191Y-149719191D01*
X82456235Y-149578843D01*
X82704000Y-149529560D01*
X84204000Y-149529560D01*
X84451765Y-149578843D01*
X84661809Y-149719191D01*
X84802157Y-149929235D01*
X84851440Y-150177000D01*
X84851440Y-150727000D01*
X84804696Y-150962000D01*
X86720598Y-150962000D01*
X88114778Y-149567820D01*
X88084420Y-149567820D01*
X87836655Y-149518537D01*
X87782506Y-149482355D01*
X87606209Y-149555380D01*
X87316070Y-149555380D01*
X87157320Y-149396630D01*
X87157320Y-148547000D01*
X87177320Y-148547000D01*
X87177320Y-148293000D01*
X87157320Y-148293000D01*
X87157320Y-147443370D01*
X87316070Y-147284620D01*
X87606209Y-147284620D01*
X87782506Y-147357645D01*
X87836655Y-147321463D01*
X87875285Y-147313779D01*
X87996599Y-147132219D01*
X88897219Y-146231599D01*
X89143781Y-146066852D01*
X89434620Y-146009000D01*
X89477354Y-146009000D01*
X89404180Y-145832777D01*
X89403821Y-145421029D01*
X89561058Y-145040485D01*
X89679000Y-144922337D01*
X89679000Y-140839180D01*
X89736852Y-140548341D01*
X89901599Y-140301779D01*
X91359915Y-138843463D01*
X91323180Y-138658780D01*
X91323180Y-137861220D01*
X91372463Y-137613455D01*
X91512811Y-137403411D01*
X91722855Y-137263063D01*
X91970620Y-137213780D01*
X92768180Y-137213780D01*
X93015945Y-137263063D01*
X93118700Y-137331722D01*
X93221455Y-137263063D01*
X93469220Y-137213780D01*
X94181542Y-137213780D01*
X94322031Y-136478000D01*
X88653326Y-136478000D01*
X88810707Y-136635382D01*
X88907380Y-136868771D01*
X88907380Y-137158910D01*
X88748630Y-137317660D01*
X87899000Y-137317660D01*
X87899000Y-137297660D01*
X87645000Y-137297660D01*
X87645000Y-137317660D01*
X86795370Y-137317660D01*
X86636620Y-137158910D01*
X86636620Y-136868771D01*
X86733293Y-136635382D01*
X86890674Y-136478000D01*
X86166666Y-136478000D01*
X86270707Y-136582042D01*
X86367380Y-136815431D01*
X86367380Y-137105570D01*
X86208630Y-137264320D01*
X85359000Y-137264320D01*
X85359000Y-137244320D01*
X85105000Y-137244320D01*
X85105000Y-137264320D01*
X84255370Y-137264320D01*
X84096620Y-137105570D01*
X84096620Y-136815431D01*
X84193293Y-136582042D01*
X84371921Y-136403413D01*
X84605310Y-136306740D01*
X84946250Y-136306740D01*
X85104998Y-136465488D01*
X85104998Y-136382351D01*
X84860210Y-136218790D01*
X84668367Y-135931675D01*
X84601000Y-135593000D01*
X84668367Y-135254325D01*
X84776000Y-135093240D01*
X84776000Y-134573000D01*
X82184000Y-134573000D01*
X81845325Y-134505633D01*
X81706808Y-134413079D01*
X81562831Y-134472863D01*
X81250539Y-134473136D01*
X81156124Y-134434125D01*
X81062831Y-134472863D01*
X80750539Y-134473136D01*
X80656124Y-134434125D01*
X80562831Y-134472863D01*
X80250539Y-134473136D01*
X80156124Y-134434125D01*
X80062831Y-134472863D01*
X79750539Y-134473136D01*
X79656124Y-134434125D01*
X79562831Y-134472863D01*
X79250539Y-134473136D01*
X79183665Y-134445504D01*
X79093675Y-134505633D01*
X78755000Y-134573000D01*
X76338000Y-134573000D01*
X76338000Y-135593000D01*
X76270633Y-135931675D01*
X76078790Y-136218790D01*
X75791675Y-136410633D01*
X75453000Y-136478000D01*
X66611876Y-136478000D01*
X66748793Y-137213780D01*
X67495180Y-137213780D01*
X67742945Y-137263063D01*
X67845700Y-137331722D01*
X67948455Y-137263063D01*
X68196220Y-137213780D01*
X68993780Y-137213780D01*
X69241545Y-137263063D01*
X69451589Y-137403411D01*
X69571048Y-137582193D01*
X69781181Y-137722599D01*
X72153000Y-140094418D01*
X72153000Y-140059780D01*
X72210852Y-139768941D01*
X72375599Y-139522379D01*
X72768219Y-139129759D01*
X72949779Y-139008445D01*
X72957463Y-138969815D01*
X73097811Y-138759771D01*
X73307855Y-138619423D01*
X73405071Y-138600086D01*
X73470005Y-138502905D01*
X73433081Y-138466046D01*
X73275180Y-138085777D01*
X73274821Y-137674029D01*
X73432058Y-137293485D01*
X73722954Y-137002081D01*
X74103223Y-136844180D01*
X74514971Y-136843821D01*
X74895515Y-137001058D01*
X75186919Y-137291954D01*
X75324816Y-137624049D01*
X75526745Y-137489123D01*
X75774510Y-137439840D01*
X77773490Y-137439840D01*
X78021255Y-137489123D01*
X78227601Y-137627000D01*
X78374000Y-137627000D01*
X78664839Y-137684852D01*
X78911401Y-137849599D01*
X79800401Y-138738599D01*
X79965148Y-138985161D01*
X79976368Y-139041566D01*
X80181401Y-139246599D01*
X80346148Y-139493160D01*
X80404000Y-139784000D01*
X80404000Y-139840428D01*
X80715070Y-139529358D01*
X80715070Y-139357280D01*
X80764353Y-139109515D01*
X80822829Y-139022000D01*
X80764353Y-138934485D01*
X80715070Y-138686720D01*
X80715070Y-138087280D01*
X80764353Y-137839515D01*
X80904701Y-137629471D01*
X81114745Y-137489123D01*
X81362510Y-137439840D01*
X83361490Y-137439840D01*
X83609255Y-137489123D01*
X83815601Y-137627000D01*
X83835000Y-137627000D01*
X84096620Y-137679040D01*
X84096620Y-137677070D01*
X84255370Y-137518320D01*
X85105000Y-137518320D01*
X85105000Y-137538320D01*
X85359000Y-137538320D01*
X85359000Y-137518320D01*
X86208630Y-137518320D01*
X86367380Y-137677070D01*
X86367380Y-137967209D01*
X86294355Y-138143506D01*
X86330537Y-138197655D01*
X86379820Y-138445420D01*
X86379820Y-138755178D01*
X86523399Y-138611599D01*
X86624180Y-138544259D01*
X86624180Y-138498760D01*
X86673463Y-138250995D01*
X86709645Y-138196846D01*
X86636620Y-138020549D01*
X86636620Y-137730410D01*
X86795370Y-137571660D01*
X87645000Y-137571660D01*
X87645000Y-137591660D01*
X87899000Y-137591660D01*
X87899000Y-137571660D01*
X88748630Y-137571660D01*
X88907380Y-137730410D01*
X88907380Y-138020549D01*
X88834355Y-138196846D01*
X88870537Y-138250995D01*
X88919820Y-138498760D01*
X88919820Y-139397920D01*
X88870537Y-139645685D01*
X88730189Y-139855729D01*
X88520145Y-139996077D01*
X88435697Y-140012875D01*
X88476189Y-140039931D01*
X88616537Y-140249975D01*
X88665820Y-140497740D01*
X88665820Y-141396900D01*
X88616537Y-141644665D01*
X88580124Y-141699160D01*
X88616537Y-141753655D01*
X88665820Y-142001420D01*
X88665820Y-142900580D01*
X88616537Y-143148345D01*
X88476189Y-143358389D01*
X88266145Y-143498737D01*
X88168929Y-143518074D01*
X88055401Y-143687981D01*
X87230981Y-144512401D01*
X86984419Y-144677148D01*
X86693580Y-144735000D01*
X83200000Y-144735000D01*
X82909161Y-144677148D01*
X82662599Y-144512401D01*
X81824599Y-143674401D01*
X81659852Y-143427839D01*
X81603424Y-143144160D01*
X81362510Y-143144160D01*
X81114745Y-143094877D01*
X80908399Y-142957000D01*
X80279000Y-142957000D01*
X79988161Y-142899148D01*
X79890988Y-142834219D01*
X79890988Y-143655186D01*
X80689401Y-144453599D01*
X80854148Y-144700161D01*
X80912000Y-144991000D01*
X80912000Y-148134250D01*
X85945740Y-148134250D01*
X85945740Y-147793310D01*
X86042413Y-147559921D01*
X86221042Y-147381293D01*
X86454431Y-147284620D01*
X86744570Y-147284620D01*
X86903320Y-147443370D01*
X86903320Y-148293000D01*
X86104490Y-148293000D01*
X85945740Y-148134250D01*
X80912000Y-148134250D01*
X80912000Y-149046690D01*
X85945740Y-149046690D01*
X85945740Y-148705750D01*
X86104490Y-148547000D01*
X86903320Y-148547000D01*
X86903320Y-149396630D01*
X86744570Y-149555380D01*
X86454431Y-149555380D01*
X86221042Y-149458707D01*
X86042413Y-149280079D01*
X85945740Y-149046690D01*
X80912000Y-149046690D01*
X80912000Y-151444198D01*
X82056560Y-150299638D01*
X82056560Y-150299638D01*
G37*
X82056560Y-150299638D02*
X82056560Y-150177000D01*
X82105843Y-149929235D01*
X82246191Y-149719191D01*
X82456235Y-149578843D01*
X82704000Y-149529560D01*
X84204000Y-149529560D01*
X84451765Y-149578843D01*
X84661809Y-149719191D01*
X84802157Y-149929235D01*
X84851440Y-150177000D01*
X84851440Y-150727000D01*
X84804696Y-150962000D01*
X86720598Y-150962000D01*
X88114778Y-149567820D01*
X88084420Y-149567820D01*
X87836655Y-149518537D01*
X87782506Y-149482355D01*
X87606209Y-149555380D01*
X87316070Y-149555380D01*
X87157320Y-149396630D01*
X87157320Y-148547000D01*
X87177320Y-148547000D01*
X87177320Y-148293000D01*
X87157320Y-148293000D01*
X87157320Y-147443370D01*
X87316070Y-147284620D01*
X87606209Y-147284620D01*
X87782506Y-147357645D01*
X87836655Y-147321463D01*
X87875285Y-147313779D01*
X87996599Y-147132219D01*
X88897219Y-146231599D01*
X89143781Y-146066852D01*
X89434620Y-146009000D01*
X89477354Y-146009000D01*
X89404180Y-145832777D01*
X89403821Y-145421029D01*
X89561058Y-145040485D01*
X89679000Y-144922337D01*
X89679000Y-140839180D01*
X89736852Y-140548341D01*
X89901599Y-140301779D01*
X91359915Y-138843463D01*
X91323180Y-138658780D01*
X91323180Y-137861220D01*
X91372463Y-137613455D01*
X91512811Y-137403411D01*
X91722855Y-137263063D01*
X91970620Y-137213780D01*
X92768180Y-137213780D01*
X93015945Y-137263063D01*
X93118700Y-137331722D01*
X93221455Y-137263063D01*
X93469220Y-137213780D01*
X94181542Y-137213780D01*
X94322031Y-136478000D01*
X88653326Y-136478000D01*
X88810707Y-136635382D01*
X88907380Y-136868771D01*
X88907380Y-137158910D01*
X88748630Y-137317660D01*
X87899000Y-137317660D01*
X87899000Y-137297660D01*
X87645000Y-137297660D01*
X87645000Y-137317660D01*
X86795370Y-137317660D01*
X86636620Y-137158910D01*
X86636620Y-136868771D01*
X86733293Y-136635382D01*
X86890674Y-136478000D01*
X86166666Y-136478000D01*
X86270707Y-136582042D01*
X86367380Y-136815431D01*
X86367380Y-137105570D01*
X86208630Y-137264320D01*
X85359000Y-137264320D01*
X85359000Y-137244320D01*
X85105000Y-137244320D01*
X85105000Y-137264320D01*
X84255370Y-137264320D01*
X84096620Y-137105570D01*
X84096620Y-136815431D01*
X84193293Y-136582042D01*
X84371921Y-136403413D01*
X84605310Y-136306740D01*
X84946250Y-136306740D01*
X85104998Y-136465488D01*
X85104998Y-136382351D01*
X84860210Y-136218790D01*
X84668367Y-135931675D01*
X84601000Y-135593000D01*
X84668367Y-135254325D01*
X84776000Y-135093240D01*
X84776000Y-134573000D01*
X82184000Y-134573000D01*
X81845325Y-134505633D01*
X81706808Y-134413079D01*
X81562831Y-134472863D01*
X81250539Y-134473136D01*
X81156124Y-134434125D01*
X81062831Y-134472863D01*
X80750539Y-134473136D01*
X80656124Y-134434125D01*
X80562831Y-134472863D01*
X80250539Y-134473136D01*
X80156124Y-134434125D01*
X80062831Y-134472863D01*
X79750539Y-134473136D01*
X79656124Y-134434125D01*
X79562831Y-134472863D01*
X79250539Y-134473136D01*
X79183665Y-134445504D01*
X79093675Y-134505633D01*
X78755000Y-134573000D01*
X76338000Y-134573000D01*
X76338000Y-135593000D01*
X76270633Y-135931675D01*
X76078790Y-136218790D01*
X75791675Y-136410633D01*
X75453000Y-136478000D01*
X66611876Y-136478000D01*
X66748793Y-137213780D01*
X67495180Y-137213780D01*
X67742945Y-137263063D01*
X67845700Y-137331722D01*
X67948455Y-137263063D01*
X68196220Y-137213780D01*
X68993780Y-137213780D01*
X69241545Y-137263063D01*
X69451589Y-137403411D01*
X69571048Y-137582193D01*
X69781181Y-137722599D01*
X72153000Y-140094418D01*
X72153000Y-140059780D01*
X72210852Y-139768941D01*
X72375599Y-139522379D01*
X72768219Y-139129759D01*
X72949779Y-139008445D01*
X72957463Y-138969815D01*
X73097811Y-138759771D01*
X73307855Y-138619423D01*
X73405071Y-138600086D01*
X73470005Y-138502905D01*
X73433081Y-138466046D01*
X73275180Y-138085777D01*
X73274821Y-137674029D01*
X73432058Y-137293485D01*
X73722954Y-137002081D01*
X74103223Y-136844180D01*
X74514971Y-136843821D01*
X74895515Y-137001058D01*
X75186919Y-137291954D01*
X75324816Y-137624049D01*
X75526745Y-137489123D01*
X75774510Y-137439840D01*
X77773490Y-137439840D01*
X78021255Y-137489123D01*
X78227601Y-137627000D01*
X78374000Y-137627000D01*
X78664839Y-137684852D01*
X78911401Y-137849599D01*
X79800401Y-138738599D01*
X79965148Y-138985161D01*
X79976368Y-139041566D01*
X80181401Y-139246599D01*
X80346148Y-139493160D01*
X80404000Y-139784000D01*
X80404000Y-139840428D01*
X80715070Y-139529358D01*
X80715070Y-139357280D01*
X80764353Y-139109515D01*
X80822829Y-139022000D01*
X80764353Y-138934485D01*
X80715070Y-138686720D01*
X80715070Y-138087280D01*
X80764353Y-137839515D01*
X80904701Y-137629471D01*
X81114745Y-137489123D01*
X81362510Y-137439840D01*
X83361490Y-137439840D01*
X83609255Y-137489123D01*
X83815601Y-137627000D01*
X83835000Y-137627000D01*
X84096620Y-137679040D01*
X84096620Y-137677070D01*
X84255370Y-137518320D01*
X85105000Y-137518320D01*
X85105000Y-137538320D01*
X85359000Y-137538320D01*
X85359000Y-137518320D01*
X86208630Y-137518320D01*
X86367380Y-137677070D01*
X86367380Y-137967209D01*
X86294355Y-138143506D01*
X86330537Y-138197655D01*
X86379820Y-138445420D01*
X86379820Y-138755178D01*
X86523399Y-138611599D01*
X86624180Y-138544259D01*
X86624180Y-138498760D01*
X86673463Y-138250995D01*
X86709645Y-138196846D01*
X86636620Y-138020549D01*
X86636620Y-137730410D01*
X86795370Y-137571660D01*
X87645000Y-137571660D01*
X87645000Y-137591660D01*
X87899000Y-137591660D01*
X87899000Y-137571660D01*
X88748630Y-137571660D01*
X88907380Y-137730410D01*
X88907380Y-138020549D01*
X88834355Y-138196846D01*
X88870537Y-138250995D01*
X88919820Y-138498760D01*
X88919820Y-139397920D01*
X88870537Y-139645685D01*
X88730189Y-139855729D01*
X88520145Y-139996077D01*
X88435697Y-140012875D01*
X88476189Y-140039931D01*
X88616537Y-140249975D01*
X88665820Y-140497740D01*
X88665820Y-141396900D01*
X88616537Y-141644665D01*
X88580124Y-141699160D01*
X88616537Y-141753655D01*
X88665820Y-142001420D01*
X88665820Y-142900580D01*
X88616537Y-143148345D01*
X88476189Y-143358389D01*
X88266145Y-143498737D01*
X88168929Y-143518074D01*
X88055401Y-143687981D01*
X87230981Y-144512401D01*
X86984419Y-144677148D01*
X86693580Y-144735000D01*
X83200000Y-144735000D01*
X82909161Y-144677148D01*
X82662599Y-144512401D01*
X81824599Y-143674401D01*
X81659852Y-143427839D01*
X81603424Y-143144160D01*
X81362510Y-143144160D01*
X81114745Y-143094877D01*
X80908399Y-142957000D01*
X80279000Y-142957000D01*
X79988161Y-142899148D01*
X79890988Y-142834219D01*
X79890988Y-143655186D01*
X80689401Y-144453599D01*
X80854148Y-144700161D01*
X80912000Y-144991000D01*
X80912000Y-148134250D01*
X85945740Y-148134250D01*
X85945740Y-147793310D01*
X86042413Y-147559921D01*
X86221042Y-147381293D01*
X86454431Y-147284620D01*
X86744570Y-147284620D01*
X86903320Y-147443370D01*
X86903320Y-148293000D01*
X86104490Y-148293000D01*
X85945740Y-148134250D01*
X80912000Y-148134250D01*
X80912000Y-149046690D01*
X85945740Y-149046690D01*
X85945740Y-148705750D01*
X86104490Y-148547000D01*
X86903320Y-148547000D01*
X86903320Y-149396630D01*
X86744570Y-149555380D01*
X86454431Y-149555380D01*
X86221042Y-149458707D01*
X86042413Y-149280079D01*
X85945740Y-149046690D01*
X80912000Y-149046690D01*
X80912000Y-151444198D01*
X82056560Y-150299638D01*
G36*
X71637010Y-141728032D02*
X69178463Y-139269485D01*
X68993780Y-139306220D01*
X68303022Y-139306220D01*
X69513401Y-140516599D01*
X69678148Y-140763161D01*
X69736000Y-141054000D01*
X69736000Y-147227900D01*
X69750700Y-147237722D01*
X69853455Y-147169063D01*
X70101220Y-147119780D01*
X70898780Y-147119780D01*
X71146545Y-147169063D01*
X71356589Y-147309411D01*
X71496937Y-147519455D01*
X71546220Y-147767220D01*
X71546220Y-148564780D01*
X71509485Y-148749463D01*
X71637010Y-148876988D01*
X71637010Y-141728032D01*
X71637010Y-141728032D01*
G37*
X71637010Y-141728032D02*
X69178463Y-139269485D01*
X68993780Y-139306220D01*
X68303022Y-139306220D01*
X69513401Y-140516599D01*
X69678148Y-140763161D01*
X69736000Y-141054000D01*
X69736000Y-147227900D01*
X69750700Y-147237722D01*
X69853455Y-147169063D01*
X70101220Y-147119780D01*
X70898780Y-147119780D01*
X71146545Y-147169063D01*
X71356589Y-147309411D01*
X71496937Y-147519455D01*
X71546220Y-147767220D01*
X71546220Y-148564780D01*
X71509485Y-148749463D01*
X71637010Y-148876988D01*
X71637010Y-141728032D01*
G36*
X91298599Y-142675599D02*
X91965000Y-142009198D01*
X91965000Y-140387982D01*
X91199000Y-141153982D01*
X91199000Y-142824660D01*
X91298599Y-142675599D01*
X91298599Y-142675599D01*
G37*
X91298599Y-142675599D02*
X91965000Y-142009198D01*
X91965000Y-140387982D01*
X91199000Y-141153982D01*
X91199000Y-142824660D01*
X91298599Y-142675599D01*
G36*
X68216000Y-141368802D02*
X67363304Y-140516106D01*
X68216000Y-145098421D01*
X68216000Y-141368802D01*
X68216000Y-141368802D01*
G37*
X68216000Y-141368802D02*
X67363304Y-140516106D01*
X68216000Y-145098421D01*
X68216000Y-141368802D01*
G36*
X79392000Y-145305802D02*
X78593587Y-144507389D01*
X78428840Y-144260827D01*
X78370988Y-143969988D01*
X78370988Y-142713567D01*
X78311817Y-142856418D01*
X78133189Y-143035047D01*
X77899800Y-143131720D01*
X77059750Y-143131720D01*
X76901000Y-142972970D01*
X76901000Y-142324000D01*
X76921000Y-142324000D01*
X76921000Y-142070000D01*
X76901000Y-142070000D01*
X76901000Y-142050000D01*
X76647000Y-142050000D01*
X76647000Y-142070000D01*
X75298260Y-142070000D01*
X75139510Y-141911250D01*
X75139510Y-141871954D01*
X75094707Y-141980118D01*
X74916079Y-142158747D01*
X74682690Y-142255420D01*
X74341750Y-142255420D01*
X74183000Y-142096670D01*
X74183000Y-141297840D01*
X74203000Y-141297840D01*
X74203000Y-141043840D01*
X74183000Y-141043840D01*
X74183000Y-141023840D01*
X73929000Y-141023840D01*
X73929000Y-141043840D01*
X73909000Y-141043840D01*
X73909000Y-141297840D01*
X73929000Y-141297840D01*
X73929000Y-142096670D01*
X73770250Y-142255420D01*
X73673000Y-142255420D01*
X73673000Y-142623029D01*
X75139510Y-142623029D01*
X75139510Y-142482750D01*
X75298260Y-142324000D01*
X76647000Y-142324000D01*
X76647000Y-142972970D01*
X76488250Y-143131720D01*
X75648200Y-143131720D01*
X75414811Y-143035047D01*
X75236183Y-142856418D01*
X75139510Y-142623029D01*
X73673000Y-142623029D01*
X73673000Y-148486198D01*
X74703277Y-149516475D01*
X74825620Y-149492140D01*
X75826380Y-149492140D01*
X76074145Y-149541423D01*
X76284189Y-149681771D01*
X76382672Y-149829160D01*
X76772711Y-149829160D01*
X76846191Y-149719191D01*
X77056235Y-149578843D01*
X77304000Y-149529560D01*
X78804000Y-149529560D01*
X79051765Y-149578843D01*
X79261809Y-149719191D01*
X79392000Y-149914034D01*
X79392000Y-145305802D01*
X79392000Y-145305802D01*
G37*
X79392000Y-145305802D02*
X78593587Y-144507389D01*
X78428840Y-144260827D01*
X78370988Y-143969988D01*
X78370988Y-142713567D01*
X78311817Y-142856418D01*
X78133189Y-143035047D01*
X77899800Y-143131720D01*
X77059750Y-143131720D01*
X76901000Y-142972970D01*
X76901000Y-142324000D01*
X76921000Y-142324000D01*
X76921000Y-142070000D01*
X76901000Y-142070000D01*
X76901000Y-142050000D01*
X76647000Y-142050000D01*
X76647000Y-142070000D01*
X75298260Y-142070000D01*
X75139510Y-141911250D01*
X75139510Y-141871954D01*
X75094707Y-141980118D01*
X74916079Y-142158747D01*
X74682690Y-142255420D01*
X74341750Y-142255420D01*
X74183000Y-142096670D01*
X74183000Y-141297840D01*
X74203000Y-141297840D01*
X74203000Y-141043840D01*
X74183000Y-141043840D01*
X74183000Y-141023840D01*
X73929000Y-141023840D01*
X73929000Y-141043840D01*
X73909000Y-141043840D01*
X73909000Y-141297840D01*
X73929000Y-141297840D01*
X73929000Y-142096670D01*
X73770250Y-142255420D01*
X73673000Y-142255420D01*
X73673000Y-142623029D01*
X75139510Y-142623029D01*
X75139510Y-142482750D01*
X75298260Y-142324000D01*
X76647000Y-142324000D01*
X76647000Y-142972970D01*
X76488250Y-143131720D01*
X75648200Y-143131720D01*
X75414811Y-143035047D01*
X75236183Y-142856418D01*
X75139510Y-142623029D01*
X73673000Y-142623029D01*
X73673000Y-148486198D01*
X74703277Y-149516475D01*
X74825620Y-149492140D01*
X75826380Y-149492140D01*
X76074145Y-149541423D01*
X76284189Y-149681771D01*
X76382672Y-149829160D01*
X76772711Y-149829160D01*
X76846191Y-149719191D01*
X77056235Y-149578843D01*
X77304000Y-149529560D01*
X78804000Y-149529560D01*
X79051765Y-149578843D01*
X79261809Y-149719191D01*
X79392000Y-149914034D01*
X79392000Y-145305802D01*
G36*
X93065621Y-143058181D02*
X92596000Y-143527802D01*
X92596000Y-145517722D01*
X93065621Y-143058181D01*
X93065621Y-143058181D01*
G37*
X93065621Y-143058181D02*
X92596000Y-143527802D01*
X92596000Y-145517722D01*
X93065621Y-143058181D01*
G36*
X79909000Y-153293802D02*
X79673401Y-153529401D01*
X79426839Y-153694148D01*
X79374341Y-153704591D01*
X79439000Y-153860691D01*
X79439000Y-153976250D01*
X79280250Y-154135000D01*
X78181000Y-154135000D01*
X78181000Y-154115000D01*
X77927000Y-154115000D01*
X77927000Y-154135000D01*
X76827750Y-154135000D01*
X76669000Y-153976250D01*
X76669000Y-153860691D01*
X76765673Y-153627302D01*
X76774884Y-153618091D01*
X76705843Y-153514765D01*
X76656560Y-153267000D01*
X76656560Y-152717000D01*
X76705843Y-152469235D01*
X76774884Y-152365909D01*
X76765673Y-152356698D01*
X76669000Y-152123309D01*
X76669000Y-152007750D01*
X76827750Y-151849000D01*
X77927000Y-151849000D01*
X77927000Y-151869000D01*
X78181000Y-151869000D01*
X78181000Y-151849000D01*
X78201000Y-151849000D01*
X78201000Y-151595000D01*
X78181000Y-151595000D01*
X78181000Y-151575000D01*
X77927000Y-151575000D01*
X77927000Y-151595000D01*
X76827750Y-151595000D01*
X76669000Y-151436250D01*
X76669000Y-151349160D01*
X76391879Y-151349160D01*
X76461380Y-151516951D01*
X76461380Y-151807090D01*
X76302630Y-151965840D01*
X75453000Y-151965840D01*
X75453000Y-151945840D01*
X75199000Y-151945840D01*
X75199000Y-151965840D01*
X74349370Y-151965840D01*
X74190620Y-151807090D01*
X74190620Y-151516951D01*
X74263645Y-151340654D01*
X74227463Y-151286505D01*
X74200536Y-151151135D01*
X74163759Y-151126561D01*
X73157010Y-150119812D01*
X73157010Y-152034208D01*
X73791531Y-152668729D01*
X74190620Y-152668729D01*
X74190620Y-152378590D01*
X74349370Y-152219840D01*
X75199000Y-152219840D01*
X75199000Y-153018670D01*
X75453000Y-153018670D01*
X75453000Y-152219840D01*
X76302630Y-152219840D01*
X76461380Y-152378590D01*
X76461380Y-152668729D01*
X76364707Y-152902118D01*
X76186079Y-153080747D01*
X75952690Y-153177420D01*
X75611750Y-153177420D01*
X75453000Y-153018670D01*
X75199000Y-153018670D01*
X75040250Y-153177420D01*
X74699310Y-153177420D01*
X74465921Y-153080747D01*
X74287293Y-152902118D01*
X74190620Y-152668729D01*
X73791531Y-152668729D01*
X76656560Y-155533758D01*
X76656560Y-155257000D01*
X76705843Y-155009235D01*
X76774884Y-154905909D01*
X76765673Y-154896698D01*
X76669000Y-154663309D01*
X76669000Y-154547750D01*
X76827750Y-154389000D01*
X77927000Y-154389000D01*
X77927000Y-154409000D01*
X78181000Y-154409000D01*
X78181000Y-154389000D01*
X79280250Y-154389000D01*
X79439000Y-154547750D01*
X79439000Y-154663309D01*
X79342327Y-154896698D01*
X79333116Y-154905909D01*
X79402157Y-155009235D01*
X79451440Y-155257000D01*
X79451440Y-155807000D01*
X79402157Y-156054765D01*
X79327163Y-156167000D01*
X79402157Y-156279235D01*
X79451440Y-156527000D01*
X79451440Y-157077000D01*
X79402157Y-157324765D01*
X79327163Y-157437000D01*
X79402157Y-157549235D01*
X79451440Y-157797000D01*
X79451440Y-157919638D01*
X79909000Y-158377198D01*
X79909000Y-153293802D01*
X79909000Y-153293802D01*
G37*
X79909000Y-153293802D02*
X79673401Y-153529401D01*
X79426839Y-153694148D01*
X79374341Y-153704591D01*
X79439000Y-153860691D01*
X79439000Y-153976250D01*
X79280250Y-154135000D01*
X78181000Y-154135000D01*
X78181000Y-154115000D01*
X77927000Y-154115000D01*
X77927000Y-154135000D01*
X76827750Y-154135000D01*
X76669000Y-153976250D01*
X76669000Y-153860691D01*
X76765673Y-153627302D01*
X76774884Y-153618091D01*
X76705843Y-153514765D01*
X76656560Y-153267000D01*
X76656560Y-152717000D01*
X76705843Y-152469235D01*
X76774884Y-152365909D01*
X76765673Y-152356698D01*
X76669000Y-152123309D01*
X76669000Y-152007750D01*
X76827750Y-151849000D01*
X77927000Y-151849000D01*
X77927000Y-151869000D01*
X78181000Y-151869000D01*
X78181000Y-151849000D01*
X78201000Y-151849000D01*
X78201000Y-151595000D01*
X78181000Y-151595000D01*
X78181000Y-151575000D01*
X77927000Y-151575000D01*
X77927000Y-151595000D01*
X76827750Y-151595000D01*
X76669000Y-151436250D01*
X76669000Y-151349160D01*
X76391879Y-151349160D01*
X76461380Y-151516951D01*
X76461380Y-151807090D01*
X76302630Y-151965840D01*
X75453000Y-151965840D01*
X75453000Y-151945840D01*
X75199000Y-151945840D01*
X75199000Y-151965840D01*
X74349370Y-151965840D01*
X74190620Y-151807090D01*
X74190620Y-151516951D01*
X74263645Y-151340654D01*
X74227463Y-151286505D01*
X74200536Y-151151135D01*
X74163759Y-151126561D01*
X73157010Y-150119812D01*
X73157010Y-152034208D01*
X73791531Y-152668729D01*
X74190620Y-152668729D01*
X74190620Y-152378590D01*
X74349370Y-152219840D01*
X75199000Y-152219840D01*
X75199000Y-153018670D01*
X75453000Y-153018670D01*
X75453000Y-152219840D01*
X76302630Y-152219840D01*
X76461380Y-152378590D01*
X76461380Y-152668729D01*
X76364707Y-152902118D01*
X76186079Y-153080747D01*
X75952690Y-153177420D01*
X75611750Y-153177420D01*
X75453000Y-153018670D01*
X75199000Y-153018670D01*
X75040250Y-153177420D01*
X74699310Y-153177420D01*
X74465921Y-153080747D01*
X74287293Y-152902118D01*
X74190620Y-152668729D01*
X73791531Y-152668729D01*
X76656560Y-155533758D01*
X76656560Y-155257000D01*
X76705843Y-155009235D01*
X76774884Y-154905909D01*
X76765673Y-154896698D01*
X76669000Y-154663309D01*
X76669000Y-154547750D01*
X76827750Y-154389000D01*
X77927000Y-154389000D01*
X77927000Y-154409000D01*
X78181000Y-154409000D01*
X78181000Y-154389000D01*
X79280250Y-154389000D01*
X79439000Y-154547750D01*
X79439000Y-154663309D01*
X79342327Y-154896698D01*
X79333116Y-154905909D01*
X79402157Y-155009235D01*
X79451440Y-155257000D01*
X79451440Y-155807000D01*
X79402157Y-156054765D01*
X79327163Y-156167000D01*
X79402157Y-156279235D01*
X79451440Y-156527000D01*
X79451440Y-157077000D01*
X79402157Y-157324765D01*
X79327163Y-157437000D01*
X79402157Y-157549235D01*
X79451440Y-157797000D01*
X79451440Y-157919638D01*
X79909000Y-158377198D01*
X79909000Y-153293802D01*
G36*
X91596993Y-150749809D02*
X90691000Y-151655802D01*
X90691000Y-155494756D01*
X91596993Y-150749809D01*
X91596993Y-150749809D01*
G37*
X91596993Y-150749809D02*
X90691000Y-151655802D01*
X90691000Y-155494756D01*
X91596993Y-150749809D01*
G36*
X89171000Y-152079772D02*
X87721371Y-153529401D01*
X87474809Y-153694148D01*
X87183970Y-153752000D01*
X87066802Y-153752000D01*
X88055401Y-154740599D01*
X88220148Y-154987161D01*
X88278000Y-155278000D01*
X88278000Y-156448018D01*
X88969801Y-157139819D01*
X89110207Y-157349952D01*
X89171000Y-157390573D01*
X89171000Y-152079772D01*
X89171000Y-152079772D01*
G37*
X89171000Y-152079772D02*
X87721371Y-153529401D01*
X87474809Y-153694148D01*
X87183970Y-153752000D01*
X87066802Y-153752000D01*
X88055401Y-154740599D01*
X88220148Y-154987161D01*
X88278000Y-155278000D01*
X88278000Y-156448018D01*
X88969801Y-157139819D01*
X89110207Y-157349952D01*
X89171000Y-157390573D01*
X89171000Y-152079772D01*
G36*
X69994000Y-153052802D02*
X69628095Y-152686897D01*
X69994000Y-154653238D01*
X69994000Y-153052802D01*
X69994000Y-153052802D01*
G37*
X69994000Y-153052802D02*
X69628095Y-152686897D01*
X69994000Y-154653238D01*
X69994000Y-153052802D01*
G36*
X87488599Y-162868599D02*
X88536000Y-161821198D01*
X88536000Y-159372220D01*
X88033620Y-159372220D01*
X87785855Y-159322937D01*
X87575811Y-159182589D01*
X87435463Y-158972545D01*
X87386180Y-158724780D01*
X87386180Y-157927220D01*
X87422915Y-157742537D01*
X86980599Y-157300221D01*
X86815852Y-157053659D01*
X86758000Y-156762820D01*
X86758000Y-155592802D01*
X86187198Y-155022000D01*
X84804696Y-155022000D01*
X84851440Y-155257000D01*
X84851440Y-155807000D01*
X84802157Y-156054765D01*
X84727163Y-156167000D01*
X84802157Y-156279235D01*
X84851440Y-156527000D01*
X84851440Y-157077000D01*
X84802157Y-157324765D01*
X84800516Y-157327220D01*
X85014839Y-157369852D01*
X85261401Y-157534599D01*
X86277401Y-158550599D01*
X86442148Y-158797161D01*
X86500000Y-159088000D01*
X86500000Y-161242949D01*
X87218448Y-161961397D01*
X87383195Y-162207958D01*
X87413557Y-162360599D01*
X87441047Y-162498798D01*
X87441047Y-162939766D01*
X87488599Y-162868599D01*
X87488599Y-162868599D01*
G37*
X87488599Y-162868599D02*
X88536000Y-161821198D01*
X88536000Y-159372220D01*
X88033620Y-159372220D01*
X87785855Y-159322937D01*
X87575811Y-159182589D01*
X87435463Y-158972545D01*
X87386180Y-158724780D01*
X87386180Y-157927220D01*
X87422915Y-157742537D01*
X86980599Y-157300221D01*
X86815852Y-157053659D01*
X86758000Y-156762820D01*
X86758000Y-155592802D01*
X86187198Y-155022000D01*
X84804696Y-155022000D01*
X84851440Y-155257000D01*
X84851440Y-155807000D01*
X84802157Y-156054765D01*
X84727163Y-156167000D01*
X84802157Y-156279235D01*
X84851440Y-156527000D01*
X84851440Y-157077000D01*
X84802157Y-157324765D01*
X84800516Y-157327220D01*
X85014839Y-157369852D01*
X85261401Y-157534599D01*
X86277401Y-158550599D01*
X86442148Y-158797161D01*
X86500000Y-159088000D01*
X86500000Y-161242949D01*
X87218448Y-161961397D01*
X87383195Y-162207958D01*
X87413557Y-162360599D01*
X87441047Y-162498798D01*
X87441047Y-162939766D01*
X87488599Y-162868599D01*
G36*
X78421223Y-166816180D02*
X78832971Y-166815821D01*
X78884000Y-166836906D01*
X78884000Y-166015996D01*
X78941852Y-165725157D01*
X79106599Y-165478595D01*
X79138000Y-165447194D01*
X79138000Y-160157536D01*
X79051765Y-160215157D01*
X78804000Y-160264440D01*
X77304000Y-160264440D01*
X77056235Y-160215157D01*
X76886885Y-160102000D01*
X76596000Y-160102000D01*
X76305161Y-160044148D01*
X76058599Y-159879401D01*
X71514000Y-155334802D01*
X71514000Y-157387900D01*
X71528700Y-157397722D01*
X71631455Y-157329063D01*
X71879220Y-157279780D01*
X72676780Y-157279780D01*
X72924545Y-157329063D01*
X73134589Y-157469411D01*
X73274937Y-157679455D01*
X73324220Y-157927220D01*
X73324220Y-158297418D01*
X73450401Y-158423599D01*
X73615148Y-158670161D01*
X73673000Y-158961000D01*
X73673000Y-161694198D01*
X77989503Y-166010701D01*
X78154250Y-166257263D01*
X78212102Y-166548102D01*
X78212102Y-166903014D01*
X78421223Y-166816180D01*
X78421223Y-166816180D01*
G37*
X78421223Y-166816180D02*
X78832971Y-166815821D01*
X78884000Y-166836906D01*
X78884000Y-166015996D01*
X78941852Y-165725157D01*
X79106599Y-165478595D01*
X79138000Y-165447194D01*
X79138000Y-160157536D01*
X79051765Y-160215157D01*
X78804000Y-160264440D01*
X77304000Y-160264440D01*
X77056235Y-160215157D01*
X76886885Y-160102000D01*
X76596000Y-160102000D01*
X76305161Y-160044148D01*
X76058599Y-159879401D01*
X71514000Y-155334802D01*
X71514000Y-157387900D01*
X71528700Y-157397722D01*
X71631455Y-157329063D01*
X71879220Y-157279780D01*
X72676780Y-157279780D01*
X72924545Y-157329063D01*
X73134589Y-157469411D01*
X73274937Y-157679455D01*
X73324220Y-157927220D01*
X73324220Y-158297418D01*
X73450401Y-158423599D01*
X73615148Y-158670161D01*
X73673000Y-158961000D01*
X73673000Y-161694198D01*
X77989503Y-166010701D01*
X78154250Y-166257263D01*
X78212102Y-166548102D01*
X78212102Y-166903014D01*
X78421223Y-166816180D01*
G36*
X84400811Y-173090411D02*
X84610855Y-172950063D01*
X84858620Y-172900780D01*
X85656180Y-172900780D01*
X85903945Y-172950063D01*
X85996000Y-173011573D01*
X85996000Y-170391000D01*
X86053852Y-170100161D01*
X86218599Y-169853599D01*
X86666978Y-169405220D01*
X86128620Y-169405220D01*
X85880855Y-169355937D01*
X85670811Y-169215589D01*
X85530463Y-169005545D01*
X85481180Y-168757780D01*
X85481180Y-167960220D01*
X85530463Y-167712455D01*
X85670811Y-167502411D01*
X85849593Y-167382952D01*
X85921047Y-167276013D01*
X85921047Y-162813600D01*
X85202599Y-162095152D01*
X85037852Y-161848590D01*
X84980000Y-161557751D01*
X84980000Y-159402802D01*
X84736224Y-159159026D01*
X84680250Y-159215000D01*
X83581000Y-159215000D01*
X83581000Y-159195000D01*
X83327000Y-159195000D01*
X83327000Y-159215000D01*
X83307000Y-159215000D01*
X83307000Y-159469000D01*
X83327000Y-159469000D01*
X83327000Y-160093250D01*
X83581000Y-160093250D01*
X83581000Y-159469000D01*
X84680250Y-159469000D01*
X84839000Y-159627750D01*
X84839000Y-159743309D01*
X84742327Y-159976698D01*
X84563699Y-160155327D01*
X84330310Y-160252000D01*
X83739750Y-160252000D01*
X83581000Y-160093250D01*
X83327000Y-160093250D01*
X83168250Y-160252000D01*
X82690000Y-160252000D01*
X82690000Y-165631198D01*
X84880401Y-167821599D01*
X85045148Y-168068160D01*
X85103000Y-168359000D01*
X85103000Y-170264000D01*
X85045148Y-170554839D01*
X84880401Y-170801401D01*
X84489035Y-171192767D01*
X84489179Y-171357971D01*
X84331942Y-171738515D01*
X84041046Y-172029919D01*
X83660777Y-172187820D01*
X83249029Y-172188179D01*
X82910429Y-172048273D01*
X82627268Y-172331928D01*
X82470730Y-172396928D01*
X83260802Y-173187000D01*
X84336272Y-173187000D01*
X84400811Y-173090411D01*
X84400811Y-173090411D01*
G37*
X84400811Y-173090411D02*
X84610855Y-172950063D01*
X84858620Y-172900780D01*
X85656180Y-172900780D01*
X85903945Y-172950063D01*
X85996000Y-173011573D01*
X85996000Y-170391000D01*
X86053852Y-170100161D01*
X86218599Y-169853599D01*
X86666978Y-169405220D01*
X86128620Y-169405220D01*
X85880855Y-169355937D01*
X85670811Y-169215589D01*
X85530463Y-169005545D01*
X85481180Y-168757780D01*
X85481180Y-167960220D01*
X85530463Y-167712455D01*
X85670811Y-167502411D01*
X85849593Y-167382952D01*
X85921047Y-167276013D01*
X85921047Y-162813600D01*
X85202599Y-162095152D01*
X85037852Y-161848590D01*
X84980000Y-161557751D01*
X84980000Y-159402802D01*
X84736224Y-159159026D01*
X84680250Y-159215000D01*
X83581000Y-159215000D01*
X83581000Y-159195000D01*
X83327000Y-159195000D01*
X83327000Y-159215000D01*
X83307000Y-159215000D01*
X83307000Y-159469000D01*
X83327000Y-159469000D01*
X83327000Y-160093250D01*
X83581000Y-160093250D01*
X83581000Y-159469000D01*
X84680250Y-159469000D01*
X84839000Y-159627750D01*
X84839000Y-159743309D01*
X84742327Y-159976698D01*
X84563699Y-160155327D01*
X84330310Y-160252000D01*
X83739750Y-160252000D01*
X83581000Y-160093250D01*
X83327000Y-160093250D01*
X83168250Y-160252000D01*
X82690000Y-160252000D01*
X82690000Y-165631198D01*
X84880401Y-167821599D01*
X85045148Y-168068160D01*
X85103000Y-168359000D01*
X85103000Y-170264000D01*
X85045148Y-170554839D01*
X84880401Y-170801401D01*
X84489035Y-171192767D01*
X84489179Y-171357971D01*
X84331942Y-171738515D01*
X84041046Y-172029919D01*
X83660777Y-172187820D01*
X83249029Y-172188179D01*
X82910429Y-172048273D01*
X82627268Y-172331928D01*
X82470730Y-172396928D01*
X83260802Y-173187000D01*
X84336272Y-173187000D01*
X84400811Y-173090411D01*
G36*
X71899000Y-163212802D02*
X71515421Y-162829223D01*
X71899000Y-164890542D01*
X71899000Y-163212802D01*
X71899000Y-163212802D01*
G37*
X71899000Y-163212802D02*
X71515421Y-162829223D01*
X71899000Y-164890542D01*
X71899000Y-163212802D01*
G36*
X89199233Y-163307569D02*
X88786000Y-163720802D01*
X88786000Y-165471790D01*
X89199233Y-163307569D01*
X89199233Y-163307569D01*
G37*
X89199233Y-163307569D02*
X88786000Y-163720802D01*
X88786000Y-165471790D01*
X89199233Y-163307569D01*
G36*
X76574160Y-168398897D02*
X76692102Y-168280749D01*
X76692102Y-166862904D01*
X73419000Y-163589802D01*
X73419000Y-167420900D01*
X73433700Y-167430722D01*
X73536455Y-167362063D01*
X73784220Y-167312780D01*
X74581780Y-167312780D01*
X74829545Y-167362063D01*
X75039589Y-167502411D01*
X75104128Y-167599000D01*
X75326000Y-167599000D01*
X75616839Y-167656852D01*
X75863401Y-167821599D01*
X76535139Y-168493337D01*
X76574160Y-168398897D01*
X76574160Y-168398897D01*
G37*
X76574160Y-168398897D02*
X76692102Y-168280749D01*
X76692102Y-166862904D01*
X73419000Y-163589802D01*
X73419000Y-167420900D01*
X73433700Y-167430722D01*
X73536455Y-167362063D01*
X73784220Y-167312780D01*
X74581780Y-167312780D01*
X74829545Y-167362063D01*
X75039589Y-167502411D01*
X75104128Y-167599000D01*
X75326000Y-167599000D01*
X75616839Y-167656852D01*
X75863401Y-167821599D01*
X76535139Y-168493337D01*
X76574160Y-168398897D01*
G36*
X81162280Y-170869494D02*
X81453176Y-170578090D01*
X81730804Y-170462809D01*
X82726013Y-169467600D01*
X82726013Y-169028400D01*
X81607227Y-167909614D01*
X81546942Y-168055515D01*
X81256046Y-168346919D01*
X80875777Y-168504820D01*
X80464029Y-168505179D01*
X80404000Y-168480376D01*
X80404000Y-170330198D01*
X81098253Y-171024451D01*
X81162280Y-170869494D01*
X81162280Y-170869494D01*
G37*
X81162280Y-170869494D02*
X81453176Y-170578090D01*
X81730804Y-170462809D01*
X82726013Y-169467600D01*
X82726013Y-169028400D01*
X81607227Y-167909614D01*
X81546942Y-168055515D01*
X81256046Y-168346919D01*
X80875777Y-168504820D01*
X80464029Y-168505179D01*
X80404000Y-168480376D01*
X80404000Y-170330198D01*
X81098253Y-171024451D01*
X81162280Y-170869494D01*
G36*
X74806455Y-172950063D02*
X75054220Y-172900780D01*
X75851780Y-172900780D01*
X76036463Y-172937515D01*
X77326905Y-171647073D01*
X77026485Y-171522942D01*
X76735081Y-171232046D01*
X76577180Y-170851777D01*
X76577034Y-170684836D01*
X75066905Y-169174707D01*
X75039589Y-169215589D01*
X74829545Y-169355937D01*
X74581780Y-169405220D01*
X74018022Y-169405220D01*
X74491801Y-169878999D01*
X74656548Y-170125560D01*
X74714400Y-170416400D01*
X74714400Y-173011573D01*
X74806455Y-172950063D01*
X74806455Y-172950063D01*
G37*
X74806455Y-172950063D02*
X75054220Y-172900780D01*
X75851780Y-172900780D01*
X76036463Y-172937515D01*
X77326905Y-171647073D01*
X77026485Y-171522942D01*
X76735081Y-171232046D01*
X76577180Y-170851777D01*
X76577034Y-170684836D01*
X75066905Y-169174707D01*
X75039589Y-169215589D01*
X74829545Y-169355937D01*
X74581780Y-169405220D01*
X74018022Y-169405220D01*
X74491801Y-169878999D01*
X74656548Y-170125560D01*
X74714400Y-170416400D01*
X74714400Y-173011573D01*
X74806455Y-172950063D01*
G36*
X78725599Y-173155599D02*
X78972160Y-172990852D01*
X79020414Y-172981254D01*
X79263000Y-172933000D01*
X80857198Y-172933000D01*
X79523890Y-171599692D01*
X76666582Y-174457000D01*
X77424198Y-174457000D01*
X78725599Y-173155599D01*
X78725599Y-173155599D01*
G37*
X78725599Y-173155599D02*
X78972160Y-172990852D01*
X79020414Y-172981254D01*
X79263000Y-172933000D01*
X80857198Y-172933000D01*
X79523890Y-171599692D01*
X76666582Y-174457000D01*
X77424198Y-174457000D01*
X78725599Y-173155599D01*
G36*
X84365937Y-175850000D02*
X82946000Y-175850000D01*
X82655160Y-175792148D01*
X82540641Y-175715629D01*
X82541240Y-176401789D01*
X82270433Y-177057193D01*
X84365937Y-175850000D01*
X84365937Y-175850000D01*
G37*
X84365937Y-175850000D02*
X82946000Y-175850000D01*
X82655160Y-175792148D01*
X82540641Y-175715629D01*
X82541240Y-176401789D01*
X82270433Y-177057193D01*
X84365937Y-175850000D01*
G36*
X78271501Y-176405515D02*
X78270936Y-175758053D01*
X78029839Y-175919148D01*
X77739000Y-175977000D01*
X76639031Y-175977000D01*
X78544469Y-177062894D01*
X78271501Y-176405515D01*
X78271501Y-176405515D01*
G37*
X78271501Y-176405515D02*
X78270936Y-175758053D01*
X78029839Y-175919148D01*
X77739000Y-175977000D01*
X76639031Y-175977000D01*
X78544469Y-177062894D01*
X78271501Y-176405515D01*
G36*
X110021501Y-134744485D02*
X110020760Y-135593789D01*
X110345090Y-136378727D01*
X110945114Y-136979800D01*
X111729485Y-137305499D01*
X112578789Y-137306240D01*
X113363727Y-136981910D01*
X113964800Y-136381886D01*
X114290499Y-135597515D01*
X114291240Y-134748211D01*
X114020433Y-134092807D01*
X118855774Y-136878384D01*
X126072031Y-174672000D01*
X117236000Y-174672000D01*
X116897325Y-174739367D01*
X116610210Y-174931210D01*
X116418367Y-175218325D01*
X116351000Y-175557000D01*
X116418367Y-175895675D01*
X116526000Y-176056760D01*
X116526000Y-176577000D01*
X113934000Y-176577000D01*
X113595325Y-176644367D01*
X113456808Y-176736921D01*
X113312831Y-176677137D01*
X113000539Y-176676864D01*
X112906124Y-176715875D01*
X112812831Y-176677137D01*
X112500539Y-176676864D01*
X112406124Y-176715875D01*
X112312831Y-176677137D01*
X112000539Y-176676864D01*
X111906124Y-176715875D01*
X111812831Y-176677137D01*
X111500539Y-176676864D01*
X111406124Y-176715875D01*
X111312831Y-176677137D01*
X111000539Y-176676864D01*
X110933665Y-176704496D01*
X110843675Y-176644367D01*
X110505000Y-176577000D01*
X108088000Y-176577000D01*
X108088000Y-175557000D01*
X108020633Y-175218325D01*
X107828790Y-174931210D01*
X107541675Y-174739367D01*
X107203000Y-174672000D01*
X98361876Y-174672000D01*
X98584438Y-173475971D01*
X105024821Y-173475971D01*
X105182058Y-173856515D01*
X105472954Y-174147919D01*
X105853223Y-174305820D01*
X106264971Y-174306179D01*
X106645515Y-174148942D01*
X106936919Y-173858046D01*
X107004206Y-173696000D01*
X108006921Y-173696000D01*
X108006921Y-174436000D01*
X108094389Y-174875733D01*
X108343478Y-175248522D01*
X108716267Y-175497611D01*
X109156000Y-175585079D01*
X115156000Y-175585079D01*
X115595733Y-175497611D01*
X115968522Y-175248522D01*
X116217611Y-174875733D01*
X116305079Y-174436000D01*
X116305079Y-173650000D01*
X119776000Y-173650000D01*
X120066839Y-173592148D01*
X120313401Y-173427401D01*
X121596402Y-172144400D01*
X121761149Y-171897839D01*
X121770747Y-171849585D01*
X121819001Y-171606999D01*
X121819001Y-166491045D01*
X121982223Y-166558820D01*
X122393971Y-166559179D01*
X122774515Y-166401942D01*
X123065919Y-166111046D01*
X123223820Y-165730777D01*
X123224179Y-165319029D01*
X123066942Y-164938485D01*
X122949000Y-164820337D01*
X122949000Y-161413030D01*
X122891148Y-161122191D01*
X122726401Y-160875629D01*
X122485520Y-160634748D01*
X122485664Y-160469544D01*
X122328427Y-160089000D01*
X122037531Y-159797596D01*
X121657262Y-159639695D01*
X121245514Y-159639336D01*
X120864970Y-159796573D01*
X120573566Y-160087469D01*
X120415665Y-160467738D01*
X120415306Y-160879486D01*
X120572543Y-161260030D01*
X120863439Y-161551434D01*
X121243708Y-161709335D01*
X121410649Y-161709481D01*
X121429000Y-161727832D01*
X121429000Y-164820239D01*
X121425018Y-164824214D01*
X118504000Y-161903196D01*
X118504000Y-149474000D01*
X118446148Y-149183161D01*
X118281401Y-148936599D01*
X116105079Y-146760277D01*
X116105079Y-145436000D01*
X116017611Y-144996267D01*
X115768522Y-144623478D01*
X115395733Y-144374389D01*
X114956000Y-144286921D01*
X113276009Y-144286921D01*
X113295919Y-144267046D01*
X113453820Y-143886777D01*
X113454179Y-143475029D01*
X113296942Y-143094485D01*
X113112944Y-142910166D01*
X113326251Y-142867736D01*
X113572813Y-142702989D01*
X115243767Y-141032035D01*
X115408971Y-141032179D01*
X115789515Y-140874942D01*
X116080919Y-140584046D01*
X116238820Y-140203777D01*
X116239179Y-139792029D01*
X116081942Y-139411485D01*
X115791046Y-139120081D01*
X115410777Y-138962180D01*
X114999029Y-138961821D01*
X114660429Y-139101727D01*
X114377268Y-138818072D01*
X113996999Y-138660171D01*
X113585251Y-138659812D01*
X113204707Y-138817049D01*
X112913303Y-139107945D01*
X112755402Y-139488214D01*
X112755256Y-139655155D01*
X112665411Y-139745000D01*
X110065761Y-139745000D01*
X109949046Y-139628081D01*
X109568777Y-139470180D01*
X109157029Y-139469821D01*
X108776485Y-139627058D01*
X108485081Y-139917954D01*
X108327180Y-140298223D01*
X108326821Y-140709971D01*
X108484058Y-141090515D01*
X108662081Y-141268848D01*
X108616587Y-141287646D01*
X108325183Y-141578542D01*
X108167282Y-141958811D01*
X108166923Y-142370559D01*
X108324160Y-142751103D01*
X108615056Y-143042507D01*
X108995325Y-143200408D01*
X109343085Y-143200711D01*
X109342821Y-143503971D01*
X109500058Y-143884515D01*
X109790954Y-144175919D01*
X110058277Y-144286921D01*
X108956000Y-144286921D01*
X108516267Y-144374389D01*
X108143478Y-144623478D01*
X107894389Y-144996267D01*
X107806921Y-145436000D01*
X107806921Y-148436000D01*
X107894389Y-148875733D01*
X108143478Y-149248522D01*
X108516267Y-149497611D01*
X108956000Y-149585079D01*
X114956000Y-149585079D01*
X115395733Y-149497611D01*
X115768522Y-149248522D01*
X116017611Y-148875733D01*
X116026457Y-148831259D01*
X116984000Y-149788802D01*
X116984000Y-162217998D01*
X117041852Y-162508837D01*
X117206599Y-162755399D01*
X120299001Y-165847801D01*
X120299001Y-171292197D01*
X119461198Y-172130000D01*
X116305079Y-172130000D01*
X116305079Y-171436000D01*
X116217611Y-170996267D01*
X115968522Y-170623478D01*
X115595733Y-170374389D01*
X115156000Y-170286921D01*
X113185481Y-170286921D01*
X113203830Y-170242731D01*
X113204189Y-169830983D01*
X113046952Y-169450439D01*
X112756056Y-169159035D01*
X112375787Y-169001134D01*
X111964039Y-169000775D01*
X111583495Y-169158012D01*
X111335747Y-169405328D01*
X110809739Y-169405328D01*
X110693024Y-169288409D01*
X110312755Y-169130508D01*
X109901007Y-169130149D01*
X109520463Y-169287386D01*
X109229059Y-169578282D01*
X109071158Y-169958551D01*
X109070857Y-170303857D01*
X108716267Y-170374389D01*
X108343478Y-170623478D01*
X108094389Y-170996267D01*
X108006921Y-171436000D01*
X108006921Y-172176000D01*
X106395000Y-172176000D01*
X106104161Y-172233852D01*
X106100893Y-172236035D01*
X105855029Y-172235821D01*
X105474485Y-172393058D01*
X105183081Y-172683954D01*
X105025180Y-173064223D01*
X105024821Y-173475971D01*
X98584438Y-173475971D01*
X100486594Y-163253949D01*
X109017656Y-163253949D01*
X109481990Y-163832524D01*
X111176672Y-164559218D01*
X113020447Y-164582068D01*
X114732619Y-163897598D01*
X114830010Y-163832524D01*
X115294344Y-163253949D01*
X112156000Y-160115605D01*
X109017656Y-163253949D01*
X100486594Y-163253949D01*
X100943152Y-160800447D01*
X107509932Y-160800447D01*
X108194402Y-162512619D01*
X108259476Y-162610010D01*
X108838051Y-163074344D01*
X111976395Y-159936000D01*
X112335605Y-159936000D01*
X115473949Y-163074344D01*
X116052524Y-162610010D01*
X116779218Y-160915328D01*
X116802068Y-159071553D01*
X116117598Y-157359381D01*
X116052524Y-157261990D01*
X115473949Y-156797656D01*
X112335605Y-159936000D01*
X111976395Y-159936000D01*
X108838051Y-156797656D01*
X108259476Y-157261990D01*
X107532782Y-158956672D01*
X107509932Y-160800447D01*
X100943152Y-160800447D01*
X101721429Y-156618051D01*
X109017656Y-156618051D01*
X112156000Y-159756395D01*
X115294344Y-156618051D01*
X114830010Y-156039476D01*
X113135328Y-155312782D01*
X111291553Y-155289932D01*
X109579381Y-155974402D01*
X109481990Y-156039476D01*
X109017656Y-156618051D01*
X101721429Y-156618051D01*
X105394444Y-136879593D01*
X110294469Y-134087106D01*
X110021501Y-134744485D01*
X110021501Y-134744485D01*
G37*
X110021501Y-134744485D02*
X110020760Y-135593789D01*
X110345090Y-136378727D01*
X110945114Y-136979800D01*
X111729485Y-137305499D01*
X112578789Y-137306240D01*
X113363727Y-136981910D01*
X113964800Y-136381886D01*
X114290499Y-135597515D01*
X114291240Y-134748211D01*
X114020433Y-134092807D01*
X118855774Y-136878384D01*
X126072031Y-174672000D01*
X117236000Y-174672000D01*
X116897325Y-174739367D01*
X116610210Y-174931210D01*
X116418367Y-175218325D01*
X116351000Y-175557000D01*
X116418367Y-175895675D01*
X116526000Y-176056760D01*
X116526000Y-176577000D01*
X113934000Y-176577000D01*
X113595325Y-176644367D01*
X113456808Y-176736921D01*
X113312831Y-176677137D01*
X113000539Y-176676864D01*
X112906124Y-176715875D01*
X112812831Y-176677137D01*
X112500539Y-176676864D01*
X112406124Y-176715875D01*
X112312831Y-176677137D01*
X112000539Y-176676864D01*
X111906124Y-176715875D01*
X111812831Y-176677137D01*
X111500539Y-176676864D01*
X111406124Y-176715875D01*
X111312831Y-176677137D01*
X111000539Y-176676864D01*
X110933665Y-176704496D01*
X110843675Y-176644367D01*
X110505000Y-176577000D01*
X108088000Y-176577000D01*
X108088000Y-175557000D01*
X108020633Y-175218325D01*
X107828790Y-174931210D01*
X107541675Y-174739367D01*
X107203000Y-174672000D01*
X98361876Y-174672000D01*
X98584438Y-173475971D01*
X105024821Y-173475971D01*
X105182058Y-173856515D01*
X105472954Y-174147919D01*
X105853223Y-174305820D01*
X106264971Y-174306179D01*
X106645515Y-174148942D01*
X106936919Y-173858046D01*
X107004206Y-173696000D01*
X108006921Y-173696000D01*
X108006921Y-174436000D01*
X108094389Y-174875733D01*
X108343478Y-175248522D01*
X108716267Y-175497611D01*
X109156000Y-175585079D01*
X115156000Y-175585079D01*
X115595733Y-175497611D01*
X115968522Y-175248522D01*
X116217611Y-174875733D01*
X116305079Y-174436000D01*
X116305079Y-173650000D01*
X119776000Y-173650000D01*
X120066839Y-173592148D01*
X120313401Y-173427401D01*
X121596402Y-172144400D01*
X121761149Y-171897839D01*
X121770747Y-171849585D01*
X121819001Y-171606999D01*
X121819001Y-166491045D01*
X121982223Y-166558820D01*
X122393971Y-166559179D01*
X122774515Y-166401942D01*
X123065919Y-166111046D01*
X123223820Y-165730777D01*
X123224179Y-165319029D01*
X123066942Y-164938485D01*
X122949000Y-164820337D01*
X122949000Y-161413030D01*
X122891148Y-161122191D01*
X122726401Y-160875629D01*
X122485520Y-160634748D01*
X122485664Y-160469544D01*
X122328427Y-160089000D01*
X122037531Y-159797596D01*
X121657262Y-159639695D01*
X121245514Y-159639336D01*
X120864970Y-159796573D01*
X120573566Y-160087469D01*
X120415665Y-160467738D01*
X120415306Y-160879486D01*
X120572543Y-161260030D01*
X120863439Y-161551434D01*
X121243708Y-161709335D01*
X121410649Y-161709481D01*
X121429000Y-161727832D01*
X121429000Y-164820239D01*
X121425018Y-164824214D01*
X118504000Y-161903196D01*
X118504000Y-149474000D01*
X118446148Y-149183161D01*
X118281401Y-148936599D01*
X116105079Y-146760277D01*
X116105079Y-145436000D01*
X116017611Y-144996267D01*
X115768522Y-144623478D01*
X115395733Y-144374389D01*
X114956000Y-144286921D01*
X113276009Y-144286921D01*
X113295919Y-144267046D01*
X113453820Y-143886777D01*
X113454179Y-143475029D01*
X113296942Y-143094485D01*
X113112944Y-142910166D01*
X113326251Y-142867736D01*
X113572813Y-142702989D01*
X115243767Y-141032035D01*
X115408971Y-141032179D01*
X115789515Y-140874942D01*
X116080919Y-140584046D01*
X116238820Y-140203777D01*
X116239179Y-139792029D01*
X116081942Y-139411485D01*
X115791046Y-139120081D01*
X115410777Y-138962180D01*
X114999029Y-138961821D01*
X114660429Y-139101727D01*
X114377268Y-138818072D01*
X113996999Y-138660171D01*
X113585251Y-138659812D01*
X113204707Y-138817049D01*
X112913303Y-139107945D01*
X112755402Y-139488214D01*
X112755256Y-139655155D01*
X112665411Y-139745000D01*
X110065761Y-139745000D01*
X109949046Y-139628081D01*
X109568777Y-139470180D01*
X109157029Y-139469821D01*
X108776485Y-139627058D01*
X108485081Y-139917954D01*
X108327180Y-140298223D01*
X108326821Y-140709971D01*
X108484058Y-141090515D01*
X108662081Y-141268848D01*
X108616587Y-141287646D01*
X108325183Y-141578542D01*
X108167282Y-141958811D01*
X108166923Y-142370559D01*
X108324160Y-142751103D01*
X108615056Y-143042507D01*
X108995325Y-143200408D01*
X109343085Y-143200711D01*
X109342821Y-143503971D01*
X109500058Y-143884515D01*
X109790954Y-144175919D01*
X110058277Y-144286921D01*
X108956000Y-144286921D01*
X108516267Y-144374389D01*
X108143478Y-144623478D01*
X107894389Y-144996267D01*
X107806921Y-145436000D01*
X107806921Y-148436000D01*
X107894389Y-148875733D01*
X108143478Y-149248522D01*
X108516267Y-149497611D01*
X108956000Y-149585079D01*
X114956000Y-149585079D01*
X115395733Y-149497611D01*
X115768522Y-149248522D01*
X116017611Y-148875733D01*
X116026457Y-148831259D01*
X116984000Y-149788802D01*
X116984000Y-162217998D01*
X117041852Y-162508837D01*
X117206599Y-162755399D01*
X120299001Y-165847801D01*
X120299001Y-171292197D01*
X119461198Y-172130000D01*
X116305079Y-172130000D01*
X116305079Y-171436000D01*
X116217611Y-170996267D01*
X115968522Y-170623478D01*
X115595733Y-170374389D01*
X115156000Y-170286921D01*
X113185481Y-170286921D01*
X113203830Y-170242731D01*
X113204189Y-169830983D01*
X113046952Y-169450439D01*
X112756056Y-169159035D01*
X112375787Y-169001134D01*
X111964039Y-169000775D01*
X111583495Y-169158012D01*
X111335747Y-169405328D01*
X110809739Y-169405328D01*
X110693024Y-169288409D01*
X110312755Y-169130508D01*
X109901007Y-169130149D01*
X109520463Y-169287386D01*
X109229059Y-169578282D01*
X109071158Y-169958551D01*
X109070857Y-170303857D01*
X108716267Y-170374389D01*
X108343478Y-170623478D01*
X108094389Y-170996267D01*
X108006921Y-171436000D01*
X108006921Y-172176000D01*
X106395000Y-172176000D01*
X106104161Y-172233852D01*
X106100893Y-172236035D01*
X105855029Y-172235821D01*
X105474485Y-172393058D01*
X105183081Y-172683954D01*
X105025180Y-173064223D01*
X105024821Y-173475971D01*
X98584438Y-173475971D01*
X100486594Y-163253949D01*
X109017656Y-163253949D01*
X109481990Y-163832524D01*
X111176672Y-164559218D01*
X113020447Y-164582068D01*
X114732619Y-163897598D01*
X114830010Y-163832524D01*
X115294344Y-163253949D01*
X112156000Y-160115605D01*
X109017656Y-163253949D01*
X100486594Y-163253949D01*
X100943152Y-160800447D01*
X107509932Y-160800447D01*
X108194402Y-162512619D01*
X108259476Y-162610010D01*
X108838051Y-163074344D01*
X111976395Y-159936000D01*
X112335605Y-159936000D01*
X115473949Y-163074344D01*
X116052524Y-162610010D01*
X116779218Y-160915328D01*
X116802068Y-159071553D01*
X116117598Y-157359381D01*
X116052524Y-157261990D01*
X115473949Y-156797656D01*
X112335605Y-159936000D01*
X111976395Y-159936000D01*
X108838051Y-156797656D01*
X108259476Y-157261990D01*
X107532782Y-158956672D01*
X107509932Y-160800447D01*
X100943152Y-160800447D01*
X101721429Y-156618051D01*
X109017656Y-156618051D01*
X112156000Y-159756395D01*
X115294344Y-156618051D01*
X114830010Y-156039476D01*
X113135328Y-155312782D01*
X111291553Y-155289932D01*
X109579381Y-155974402D01*
X109481990Y-156039476D01*
X109017656Y-156618051D01*
X101721429Y-156618051D01*
X105394444Y-136879593D01*
X110294469Y-134087106D01*
X110021501Y-134744485D01*
G36*
X110021501Y-85214485D02*
X110020760Y-86063789D01*
X110345090Y-86848727D01*
X110945114Y-87449800D01*
X111729485Y-87775499D01*
X112578789Y-87776240D01*
X113363727Y-87451910D01*
X113964800Y-86851886D01*
X114290499Y-86067515D01*
X114291240Y-85218211D01*
X114020433Y-84562807D01*
X118855774Y-87348384D01*
X126072031Y-125142000D01*
X117236000Y-125142000D01*
X116897325Y-125209367D01*
X116610210Y-125401210D01*
X116418367Y-125688325D01*
X116351000Y-126027000D01*
X116418367Y-126365675D01*
X116526000Y-126526760D01*
X116526000Y-127047000D01*
X113934000Y-127047000D01*
X113595325Y-127114367D01*
X113456808Y-127206921D01*
X113312831Y-127147137D01*
X113000539Y-127146864D01*
X112906124Y-127185875D01*
X112812831Y-127147137D01*
X112500539Y-127146864D01*
X112406124Y-127185875D01*
X112312831Y-127147137D01*
X112000539Y-127146864D01*
X111906124Y-127185875D01*
X111812831Y-127147137D01*
X111500539Y-127146864D01*
X111406124Y-127185875D01*
X111312831Y-127147137D01*
X111000539Y-127146864D01*
X110933665Y-127174496D01*
X110843675Y-127114367D01*
X110505000Y-127047000D01*
X108088000Y-127047000D01*
X108088000Y-126027000D01*
X108020633Y-125688325D01*
X107828790Y-125401210D01*
X107541675Y-125209367D01*
X107203000Y-125142000D01*
X98361876Y-125142000D01*
X98584438Y-123945971D01*
X105024821Y-123945971D01*
X105182058Y-124326515D01*
X105472954Y-124617919D01*
X105853223Y-124775820D01*
X106264971Y-124776179D01*
X106645515Y-124618942D01*
X106936919Y-124328046D01*
X107004206Y-124166000D01*
X108006921Y-124166000D01*
X108006921Y-124906000D01*
X108094389Y-125345733D01*
X108343478Y-125718522D01*
X108716267Y-125967611D01*
X109156000Y-126055079D01*
X115156000Y-126055079D01*
X115595733Y-125967611D01*
X115968522Y-125718522D01*
X116217611Y-125345733D01*
X116305079Y-124906000D01*
X116305079Y-124120000D01*
X119776000Y-124120000D01*
X120066839Y-124062148D01*
X120313401Y-123897401D01*
X121596402Y-122614400D01*
X121761149Y-122367839D01*
X121770747Y-122319585D01*
X121819001Y-122076999D01*
X121819001Y-116961045D01*
X121982223Y-117028820D01*
X122393971Y-117029179D01*
X122774515Y-116871942D01*
X123065919Y-116581046D01*
X123223820Y-116200777D01*
X123224179Y-115789029D01*
X123066942Y-115408485D01*
X122949000Y-115290337D01*
X122949000Y-111883030D01*
X122891148Y-111592191D01*
X122726401Y-111345629D01*
X122485520Y-111104748D01*
X122485664Y-110939544D01*
X122328427Y-110559000D01*
X122037531Y-110267596D01*
X121657262Y-110109695D01*
X121245514Y-110109336D01*
X120864970Y-110266573D01*
X120573566Y-110557469D01*
X120415665Y-110937738D01*
X120415306Y-111349486D01*
X120572543Y-111730030D01*
X120863439Y-112021434D01*
X121243708Y-112179335D01*
X121410649Y-112179481D01*
X121429000Y-112197832D01*
X121429000Y-115290239D01*
X121425018Y-115294214D01*
X118504000Y-112373196D01*
X118504000Y-99944000D01*
X118446148Y-99653161D01*
X118281401Y-99406599D01*
X116105079Y-97230277D01*
X116105079Y-95906000D01*
X116017611Y-95466267D01*
X115768522Y-95093478D01*
X115395733Y-94844389D01*
X114956000Y-94756921D01*
X113276009Y-94756921D01*
X113295919Y-94737046D01*
X113453820Y-94356777D01*
X113454179Y-93945029D01*
X113296942Y-93564485D01*
X113112944Y-93380166D01*
X113326251Y-93337736D01*
X113572813Y-93172989D01*
X115243767Y-91502035D01*
X115408971Y-91502179D01*
X115789515Y-91344942D01*
X116080919Y-91054046D01*
X116238820Y-90673777D01*
X116239179Y-90262029D01*
X116081942Y-89881485D01*
X115791046Y-89590081D01*
X115410777Y-89432180D01*
X114999029Y-89431821D01*
X114660429Y-89571727D01*
X114377268Y-89288072D01*
X113996999Y-89130171D01*
X113585251Y-89129812D01*
X113204707Y-89287049D01*
X112913303Y-89577945D01*
X112755402Y-89958214D01*
X112755256Y-90125155D01*
X112665411Y-90215000D01*
X110065761Y-90215000D01*
X109949046Y-90098081D01*
X109568777Y-89940180D01*
X109157029Y-89939821D01*
X108776485Y-90097058D01*
X108485081Y-90387954D01*
X108327180Y-90768223D01*
X108326821Y-91179971D01*
X108484058Y-91560515D01*
X108662081Y-91738848D01*
X108616587Y-91757646D01*
X108325183Y-92048542D01*
X108167282Y-92428811D01*
X108166923Y-92840559D01*
X108324160Y-93221103D01*
X108615056Y-93512507D01*
X108995325Y-93670408D01*
X109343085Y-93670711D01*
X109342821Y-93973971D01*
X109500058Y-94354515D01*
X109790954Y-94645919D01*
X110058277Y-94756921D01*
X108956000Y-94756921D01*
X108516267Y-94844389D01*
X108143478Y-95093478D01*
X107894389Y-95466267D01*
X107806921Y-95906000D01*
X107806921Y-98906000D01*
X107894389Y-99345733D01*
X108143478Y-99718522D01*
X108516267Y-99967611D01*
X108956000Y-100055079D01*
X114956000Y-100055079D01*
X115395733Y-99967611D01*
X115768522Y-99718522D01*
X116017611Y-99345733D01*
X116026457Y-99301259D01*
X116984000Y-100258802D01*
X116984000Y-112687998D01*
X117041852Y-112978837D01*
X117206599Y-113225399D01*
X120299001Y-116317801D01*
X120299001Y-121762197D01*
X119461198Y-122600000D01*
X116305079Y-122600000D01*
X116305079Y-121906000D01*
X116217611Y-121466267D01*
X115968522Y-121093478D01*
X115595733Y-120844389D01*
X115156000Y-120756921D01*
X113185481Y-120756921D01*
X113203830Y-120712731D01*
X113204189Y-120300983D01*
X113046952Y-119920439D01*
X112756056Y-119629035D01*
X112375787Y-119471134D01*
X111964039Y-119470775D01*
X111583495Y-119628012D01*
X111335747Y-119875328D01*
X110809739Y-119875328D01*
X110693024Y-119758409D01*
X110312755Y-119600508D01*
X109901007Y-119600149D01*
X109520463Y-119757386D01*
X109229059Y-120048282D01*
X109071158Y-120428551D01*
X109070857Y-120773857D01*
X108716267Y-120844389D01*
X108343478Y-121093478D01*
X108094389Y-121466267D01*
X108006921Y-121906000D01*
X108006921Y-122646000D01*
X106395000Y-122646000D01*
X106104161Y-122703852D01*
X106100893Y-122706035D01*
X105855029Y-122705821D01*
X105474485Y-122863058D01*
X105183081Y-123153954D01*
X105025180Y-123534223D01*
X105024821Y-123945971D01*
X98584438Y-123945971D01*
X100486594Y-113723949D01*
X109017656Y-113723949D01*
X109481990Y-114302524D01*
X111176672Y-115029218D01*
X113020447Y-115052068D01*
X114732619Y-114367598D01*
X114830010Y-114302524D01*
X115294344Y-113723949D01*
X112156000Y-110585605D01*
X109017656Y-113723949D01*
X100486594Y-113723949D01*
X100943152Y-111270447D01*
X107509932Y-111270447D01*
X108194402Y-112982619D01*
X108259476Y-113080010D01*
X108838051Y-113544344D01*
X111976395Y-110406000D01*
X112335605Y-110406000D01*
X115473949Y-113544344D01*
X116052524Y-113080010D01*
X116779218Y-111385328D01*
X116802068Y-109541553D01*
X116117598Y-107829381D01*
X116052524Y-107731990D01*
X115473949Y-107267656D01*
X112335605Y-110406000D01*
X111976395Y-110406000D01*
X108838051Y-107267656D01*
X108259476Y-107731990D01*
X107532782Y-109426672D01*
X107509932Y-111270447D01*
X100943152Y-111270447D01*
X101721429Y-107088051D01*
X109017656Y-107088051D01*
X112156000Y-110226395D01*
X115294344Y-107088051D01*
X114830010Y-106509476D01*
X113135328Y-105782782D01*
X111291553Y-105759932D01*
X109579381Y-106444402D01*
X109481990Y-106509476D01*
X109017656Y-107088051D01*
X101721429Y-107088051D01*
X105394444Y-87349593D01*
X110294469Y-84557106D01*
X110021501Y-85214485D01*
X110021501Y-85214485D01*
G37*
X110021501Y-85214485D02*
X110020760Y-86063789D01*
X110345090Y-86848727D01*
X110945114Y-87449800D01*
X111729485Y-87775499D01*
X112578789Y-87776240D01*
X113363727Y-87451910D01*
X113964800Y-86851886D01*
X114290499Y-86067515D01*
X114291240Y-85218211D01*
X114020433Y-84562807D01*
X118855774Y-87348384D01*
X126072031Y-125142000D01*
X117236000Y-125142000D01*
X116897325Y-125209367D01*
X116610210Y-125401210D01*
X116418367Y-125688325D01*
X116351000Y-126027000D01*
X116418367Y-126365675D01*
X116526000Y-126526760D01*
X116526000Y-127047000D01*
X113934000Y-127047000D01*
X113595325Y-127114367D01*
X113456808Y-127206921D01*
X113312831Y-127147137D01*
X113000539Y-127146864D01*
X112906124Y-127185875D01*
X112812831Y-127147137D01*
X112500539Y-127146864D01*
X112406124Y-127185875D01*
X112312831Y-127147137D01*
X112000539Y-127146864D01*
X111906124Y-127185875D01*
X111812831Y-127147137D01*
X111500539Y-127146864D01*
X111406124Y-127185875D01*
X111312831Y-127147137D01*
X111000539Y-127146864D01*
X110933665Y-127174496D01*
X110843675Y-127114367D01*
X110505000Y-127047000D01*
X108088000Y-127047000D01*
X108088000Y-126027000D01*
X108020633Y-125688325D01*
X107828790Y-125401210D01*
X107541675Y-125209367D01*
X107203000Y-125142000D01*
X98361876Y-125142000D01*
X98584438Y-123945971D01*
X105024821Y-123945971D01*
X105182058Y-124326515D01*
X105472954Y-124617919D01*
X105853223Y-124775820D01*
X106264971Y-124776179D01*
X106645515Y-124618942D01*
X106936919Y-124328046D01*
X107004206Y-124166000D01*
X108006921Y-124166000D01*
X108006921Y-124906000D01*
X108094389Y-125345733D01*
X108343478Y-125718522D01*
X108716267Y-125967611D01*
X109156000Y-126055079D01*
X115156000Y-126055079D01*
X115595733Y-125967611D01*
X115968522Y-125718522D01*
X116217611Y-125345733D01*
X116305079Y-124906000D01*
X116305079Y-124120000D01*
X119776000Y-124120000D01*
X120066839Y-124062148D01*
X120313401Y-123897401D01*
X121596402Y-122614400D01*
X121761149Y-122367839D01*
X121770747Y-122319585D01*
X121819001Y-122076999D01*
X121819001Y-116961045D01*
X121982223Y-117028820D01*
X122393971Y-117029179D01*
X122774515Y-116871942D01*
X123065919Y-116581046D01*
X123223820Y-116200777D01*
X123224179Y-115789029D01*
X123066942Y-115408485D01*
X122949000Y-115290337D01*
X122949000Y-111883030D01*
X122891148Y-111592191D01*
X122726401Y-111345629D01*
X122485520Y-111104748D01*
X122485664Y-110939544D01*
X122328427Y-110559000D01*
X122037531Y-110267596D01*
X121657262Y-110109695D01*
X121245514Y-110109336D01*
X120864970Y-110266573D01*
X120573566Y-110557469D01*
X120415665Y-110937738D01*
X120415306Y-111349486D01*
X120572543Y-111730030D01*
X120863439Y-112021434D01*
X121243708Y-112179335D01*
X121410649Y-112179481D01*
X121429000Y-112197832D01*
X121429000Y-115290239D01*
X121425018Y-115294214D01*
X118504000Y-112373196D01*
X118504000Y-99944000D01*
X118446148Y-99653161D01*
X118281401Y-99406599D01*
X116105079Y-97230277D01*
X116105079Y-95906000D01*
X116017611Y-95466267D01*
X115768522Y-95093478D01*
X115395733Y-94844389D01*
X114956000Y-94756921D01*
X113276009Y-94756921D01*
X113295919Y-94737046D01*
X113453820Y-94356777D01*
X113454179Y-93945029D01*
X113296942Y-93564485D01*
X113112944Y-93380166D01*
X113326251Y-93337736D01*
X113572813Y-93172989D01*
X115243767Y-91502035D01*
X115408971Y-91502179D01*
X115789515Y-91344942D01*
X116080919Y-91054046D01*
X116238820Y-90673777D01*
X116239179Y-90262029D01*
X116081942Y-89881485D01*
X115791046Y-89590081D01*
X115410777Y-89432180D01*
X114999029Y-89431821D01*
X114660429Y-89571727D01*
X114377268Y-89288072D01*
X113996999Y-89130171D01*
X113585251Y-89129812D01*
X113204707Y-89287049D01*
X112913303Y-89577945D01*
X112755402Y-89958214D01*
X112755256Y-90125155D01*
X112665411Y-90215000D01*
X110065761Y-90215000D01*
X109949046Y-90098081D01*
X109568777Y-89940180D01*
X109157029Y-89939821D01*
X108776485Y-90097058D01*
X108485081Y-90387954D01*
X108327180Y-90768223D01*
X108326821Y-91179971D01*
X108484058Y-91560515D01*
X108662081Y-91738848D01*
X108616587Y-91757646D01*
X108325183Y-92048542D01*
X108167282Y-92428811D01*
X108166923Y-92840559D01*
X108324160Y-93221103D01*
X108615056Y-93512507D01*
X108995325Y-93670408D01*
X109343085Y-93670711D01*
X109342821Y-93973971D01*
X109500058Y-94354515D01*
X109790954Y-94645919D01*
X110058277Y-94756921D01*
X108956000Y-94756921D01*
X108516267Y-94844389D01*
X108143478Y-95093478D01*
X107894389Y-95466267D01*
X107806921Y-95906000D01*
X107806921Y-98906000D01*
X107894389Y-99345733D01*
X108143478Y-99718522D01*
X108516267Y-99967611D01*
X108956000Y-100055079D01*
X114956000Y-100055079D01*
X115395733Y-99967611D01*
X115768522Y-99718522D01*
X116017611Y-99345733D01*
X116026457Y-99301259D01*
X116984000Y-100258802D01*
X116984000Y-112687998D01*
X117041852Y-112978837D01*
X117206599Y-113225399D01*
X120299001Y-116317801D01*
X120299001Y-121762197D01*
X119461198Y-122600000D01*
X116305079Y-122600000D01*
X116305079Y-121906000D01*
X116217611Y-121466267D01*
X115968522Y-121093478D01*
X115595733Y-120844389D01*
X115156000Y-120756921D01*
X113185481Y-120756921D01*
X113203830Y-120712731D01*
X113204189Y-120300983D01*
X113046952Y-119920439D01*
X112756056Y-119629035D01*
X112375787Y-119471134D01*
X111964039Y-119470775D01*
X111583495Y-119628012D01*
X111335747Y-119875328D01*
X110809739Y-119875328D01*
X110693024Y-119758409D01*
X110312755Y-119600508D01*
X109901007Y-119600149D01*
X109520463Y-119757386D01*
X109229059Y-120048282D01*
X109071158Y-120428551D01*
X109070857Y-120773857D01*
X108716267Y-120844389D01*
X108343478Y-121093478D01*
X108094389Y-121466267D01*
X108006921Y-121906000D01*
X108006921Y-122646000D01*
X106395000Y-122646000D01*
X106104161Y-122703852D01*
X106100893Y-122706035D01*
X105855029Y-122705821D01*
X105474485Y-122863058D01*
X105183081Y-123153954D01*
X105025180Y-123534223D01*
X105024821Y-123945971D01*
X98584438Y-123945971D01*
X100486594Y-113723949D01*
X109017656Y-113723949D01*
X109481990Y-114302524D01*
X111176672Y-115029218D01*
X113020447Y-115052068D01*
X114732619Y-114367598D01*
X114830010Y-114302524D01*
X115294344Y-113723949D01*
X112156000Y-110585605D01*
X109017656Y-113723949D01*
X100486594Y-113723949D01*
X100943152Y-111270447D01*
X107509932Y-111270447D01*
X108194402Y-112982619D01*
X108259476Y-113080010D01*
X108838051Y-113544344D01*
X111976395Y-110406000D01*
X112335605Y-110406000D01*
X115473949Y-113544344D01*
X116052524Y-113080010D01*
X116779218Y-111385328D01*
X116802068Y-109541553D01*
X116117598Y-107829381D01*
X116052524Y-107731990D01*
X115473949Y-107267656D01*
X112335605Y-110406000D01*
X111976395Y-110406000D01*
X108838051Y-107267656D01*
X108259476Y-107731990D01*
X107532782Y-109426672D01*
X107509932Y-111270447D01*
X100943152Y-111270447D01*
X101721429Y-107088051D01*
X109017656Y-107088051D01*
X112156000Y-110226395D01*
X115294344Y-107088051D01*
X114830010Y-106509476D01*
X113135328Y-105782782D01*
X111291553Y-105759932D01*
X109579381Y-106444402D01*
X109481990Y-106509476D01*
X109017656Y-107088051D01*
X101721429Y-107088051D01*
X105394444Y-87349593D01*
X110294469Y-84557106D01*
X110021501Y-85214485D01*
M02*
