G04 #@! TF.GenerationSoftware,KiCad,Pcbnew,no-vcs-found*
G04 #@! TF.CreationDate,2016-12-05T11:41:50+01:00*
G04 #@! TF.ProjectId,x-mas tree-pan,782D6D617320747265652D70616E2E6B,rev?*
G04 #@! TF.FileFunction,Soldermask,Top*
G04 #@! TF.FilePolarity,Negative*
%FSLAX46Y46*%
G04 Gerber Fmt 4.6, Leading zero omitted, Abs format (unit mm)*
G04 Created by KiCad (PCBNEW no-vcs-found) date Mon Dec  5 11:41:50 2016*
%MOMM*%
%LPD*%
G01*
G04 APERTURE LIST*
%ADD10C,0.100000*%
%ADD11R,1.400760X1.299160*%
%ADD12R,2.398980X0.999440*%
%ADD13R,1.299160X1.400760*%
%ADD14R,1.197560X1.197560*%
%ADD15R,1.900000X0.950000*%
%ADD16C,8.400000*%
%ADD17R,6.400000X3.400000*%
G04 APERTURE END LIST*
D10*
D11*
X119522000Y-173705340D03*
X119522000Y-172201660D03*
D12*
X108524000Y-168953000D03*
X108524000Y-170223000D03*
X108524000Y-171493000D03*
X108524000Y-172763000D03*
X114112000Y-172763000D03*
X114112000Y-171493000D03*
X114112000Y-170223000D03*
X114112000Y-168953000D03*
D13*
X120284000Y-162730000D03*
X118780320Y-162730000D03*
D11*
X119268000Y-168699000D03*
X119268000Y-170202680D03*
X116982000Y-168719320D03*
X116982000Y-170223000D03*
D14*
X100345000Y-172890000D03*
X98846400Y-172890000D03*
X100751400Y-162984000D03*
X102250000Y-162984000D03*
X104028000Y-152824000D03*
X102529400Y-152824000D03*
X104434400Y-142791000D03*
X105933000Y-142791000D03*
X107203000Y-137203000D03*
X105704400Y-137203000D03*
X118506000Y-137203000D03*
X117007400Y-137203000D03*
X119776000Y-142791000D03*
X118277400Y-142791000D03*
X120182400Y-152824000D03*
X121681000Y-152824000D03*
X123586000Y-162730000D03*
X122087400Y-162730000D03*
X124119400Y-172890000D03*
X125618000Y-172890000D03*
D11*
X107076000Y-159057160D03*
X107076000Y-160560840D03*
X116982000Y-172255000D03*
X116982000Y-173758680D03*
X105806000Y-171482840D03*
X105806000Y-169979160D03*
D15*
X115204000Y-160698000D03*
X115204000Y-159428000D03*
X115204000Y-158158000D03*
X115204000Y-156888000D03*
X115204000Y-155618000D03*
X115204000Y-154348000D03*
X115204000Y-153078000D03*
X109804000Y-151808000D03*
X109804000Y-153078000D03*
X109804000Y-154348000D03*
X109804000Y-155618000D03*
X109804000Y-156888000D03*
X109804000Y-158158000D03*
X115204000Y-151808000D03*
X109804000Y-159428000D03*
X109804000Y-160698000D03*
X109804000Y-111168000D03*
X109804000Y-109898000D03*
X115204000Y-102278000D03*
X109804000Y-108628000D03*
X109804000Y-107358000D03*
X109804000Y-106088000D03*
X109804000Y-104818000D03*
X109804000Y-103548000D03*
X109804000Y-102278000D03*
X115204000Y-103548000D03*
X115204000Y-104818000D03*
X115204000Y-106088000D03*
X115204000Y-107358000D03*
X115204000Y-108628000D03*
X115204000Y-109898000D03*
X115204000Y-111168000D03*
D11*
X105806000Y-120449160D03*
X105806000Y-121952840D03*
X116982000Y-124228680D03*
X116982000Y-122725000D03*
X107076000Y-111030840D03*
X107076000Y-109527160D03*
D14*
X125618000Y-123360000D03*
X124119400Y-123360000D03*
X122087400Y-113200000D03*
X123586000Y-113200000D03*
X121681000Y-103294000D03*
X120182400Y-103294000D03*
X118277400Y-93261000D03*
X119776000Y-93261000D03*
X117007400Y-87673000D03*
X118506000Y-87673000D03*
X105704400Y-87673000D03*
X107203000Y-87673000D03*
X105933000Y-93261000D03*
X104434400Y-93261000D03*
X102529400Y-103294000D03*
X104028000Y-103294000D03*
X102250000Y-113454000D03*
X100751400Y-113454000D03*
X98846400Y-123360000D03*
X100345000Y-123360000D03*
D11*
X116982000Y-120693000D03*
X116982000Y-119189320D03*
X119268000Y-120672680D03*
X119268000Y-119169000D03*
D13*
X118780320Y-113200000D03*
X120284000Y-113200000D03*
D12*
X114112000Y-119423000D03*
X114112000Y-120693000D03*
X114112000Y-121963000D03*
X114112000Y-123233000D03*
X108524000Y-123233000D03*
X108524000Y-121963000D03*
X108524000Y-120693000D03*
X108524000Y-119423000D03*
D11*
X119522000Y-122671660D03*
X119522000Y-124175340D03*
D16*
X80406000Y-101684000D03*
D17*
X80406000Y-88684000D03*
X80206000Y-114684000D03*
X80206000Y-164214000D03*
X80406000Y-138214000D03*
D16*
X80406000Y-151214000D03*
D11*
X54752000Y-124175340D03*
X54752000Y-122671660D03*
D12*
X43754000Y-119423000D03*
X43754000Y-120693000D03*
X43754000Y-121963000D03*
X43754000Y-123233000D03*
X49342000Y-123233000D03*
X49342000Y-121963000D03*
X49342000Y-120693000D03*
X49342000Y-119423000D03*
D13*
X55514000Y-113200000D03*
X54010320Y-113200000D03*
D11*
X54498000Y-119169000D03*
X54498000Y-120672680D03*
X52212000Y-119189320D03*
X52212000Y-120693000D03*
D14*
X35575000Y-123360000D03*
X34076400Y-123360000D03*
X35981400Y-113454000D03*
X37480000Y-113454000D03*
X39258000Y-103294000D03*
X37759400Y-103294000D03*
X39664400Y-93261000D03*
X41163000Y-93261000D03*
X42433000Y-87673000D03*
X40934400Y-87673000D03*
X53736000Y-87673000D03*
X52237400Y-87673000D03*
X55006000Y-93261000D03*
X53507400Y-93261000D03*
X55412400Y-103294000D03*
X56911000Y-103294000D03*
X58816000Y-113200000D03*
X57317400Y-113200000D03*
X59349400Y-123360000D03*
X60848000Y-123360000D03*
D11*
X42306000Y-109527160D03*
X42306000Y-111030840D03*
X52212000Y-122725000D03*
X52212000Y-124228680D03*
X41036000Y-121952840D03*
X41036000Y-120449160D03*
D15*
X50434000Y-111168000D03*
X50434000Y-109898000D03*
X50434000Y-108628000D03*
X50434000Y-107358000D03*
X50434000Y-106088000D03*
X50434000Y-104818000D03*
X50434000Y-103548000D03*
X45034000Y-102278000D03*
X45034000Y-103548000D03*
X45034000Y-104818000D03*
X45034000Y-106088000D03*
X45034000Y-107358000D03*
X45034000Y-108628000D03*
X50434000Y-102278000D03*
X45034000Y-109898000D03*
X45034000Y-111168000D03*
X45034000Y-160698000D03*
X45034000Y-159428000D03*
X50434000Y-151808000D03*
X45034000Y-158158000D03*
X45034000Y-156888000D03*
X45034000Y-155618000D03*
X45034000Y-154348000D03*
X45034000Y-153078000D03*
X45034000Y-151808000D03*
X50434000Y-153078000D03*
X50434000Y-154348000D03*
X50434000Y-155618000D03*
X50434000Y-156888000D03*
X50434000Y-158158000D03*
X50434000Y-159428000D03*
X50434000Y-160698000D03*
D11*
X41036000Y-169979160D03*
X41036000Y-171482840D03*
X52212000Y-173758680D03*
X52212000Y-172255000D03*
X42306000Y-160560840D03*
X42306000Y-159057160D03*
D14*
X60848000Y-172890000D03*
X59349400Y-172890000D03*
X57317400Y-162730000D03*
X58816000Y-162730000D03*
X56911000Y-152824000D03*
X55412400Y-152824000D03*
X53507400Y-142791000D03*
X55006000Y-142791000D03*
X52237400Y-137203000D03*
X53736000Y-137203000D03*
X40934400Y-137203000D03*
X42433000Y-137203000D03*
X41163000Y-142791000D03*
X39664400Y-142791000D03*
X37759400Y-152824000D03*
X39258000Y-152824000D03*
X37480000Y-162984000D03*
X35981400Y-162984000D03*
X34076400Y-172890000D03*
X35575000Y-172890000D03*
D11*
X52212000Y-170223000D03*
X52212000Y-168719320D03*
X54498000Y-170202680D03*
X54498000Y-168699000D03*
D13*
X54010320Y-162730000D03*
X55514000Y-162730000D03*
D12*
X49342000Y-168953000D03*
X49342000Y-170223000D03*
X49342000Y-171493000D03*
X49342000Y-172763000D03*
X43754000Y-172763000D03*
X43754000Y-171493000D03*
X43754000Y-170223000D03*
X43754000Y-168953000D03*
D11*
X54752000Y-172201660D03*
X54752000Y-173705340D03*
M02*
