M48
;DRILL file {KiCad no-vcs-found} date Mon Dec  5 11:41:54 2016
;FORMAT={-:-/ absolute / metric / decimal}
FMAT,2
METRIC,TZ
T1C0.300
T2C0.400
T3C3.000
T4C0.300
%
G90
G05
M71
T1
X35.067Y-118.026
X35.067Y-167.556
X36.972Y-107.485
X36.972Y-157.015
X37.099Y-110.787
X37.099Y-160.317
X37.607Y-117.772
X37.607Y-167.302
X38.496Y-123.868
X38.496Y-173.398
X38.877Y-97.579
X38.877Y-147.109
X41.163Y-95.293
X41.163Y-144.823
X41.925Y-99.992
X41.925Y-149.522
X42.306Y-90.594
X42.306Y-140.124
X44.719Y-85.26
X44.719Y-134.79
X44.846Y-88.054
X44.846Y-137.584
X49.418Y-92.626
X49.418Y-142.156
X50.053Y-85.133
X50.053Y-134.663
X54.879Y-100.373
X54.879Y-149.903
X55.768Y-97.325
X55.768Y-146.855
X56.149Y-105.453
X56.149Y-154.983
X57.927Y-107.485
X57.927Y-157.015
X58.816Y-120.058
X58.816Y-169.588
X59.578Y-117.772
X59.578Y-167.302
X68.087Y-94.064
X68.087Y-143.594
X69.992Y-104.605
X69.992Y-154.135
X70.119Y-101.303
X70.119Y-150.833
X70.627Y-94.318
X70.627Y-143.848
X71.516Y-88.222
X71.516Y-137.752
X71.897Y-114.511
X71.897Y-164.041
X74.183Y-116.797
X74.183Y-166.327
X74.945Y-112.098
X74.945Y-161.628
X75.326Y-121.496
X75.326Y-171.026
X77.739Y-126.83
X77.739Y-176.36
X77.866Y-124.036
X77.866Y-173.566
X82.438Y-119.464
X82.438Y-168.994
X83.073Y-126.957
X83.073Y-176.487
X87.899Y-111.717
X87.899Y-161.247
X88.788Y-114.765
X88.788Y-164.295
X89.169Y-106.637
X89.169Y-156.167
X90.947Y-104.605
X90.947Y-154.135
X91.836Y-92.032
X91.836Y-141.562
X92.598Y-94.318
X92.598Y-143.848
X99.837Y-118.026
X99.837Y-167.556
X101.742Y-107.485
X101.742Y-157.015
X101.869Y-110.787
X101.869Y-160.317
X102.377Y-117.772
X102.377Y-167.302
X103.266Y-123.868
X103.266Y-173.398
X103.647Y-97.579
X103.647Y-147.109
X105.933Y-95.293
X105.933Y-144.823
X106.695Y-99.992
X106.695Y-149.522
X107.076Y-90.594
X107.076Y-140.124
X109.489Y-85.26
X109.489Y-134.79
X109.616Y-88.054
X109.616Y-137.584
X114.188Y-92.626
X114.188Y-142.156
X114.823Y-85.133
X114.823Y-134.663
X119.649Y-100.373
X119.649Y-149.903
X120.538Y-97.325
X120.538Y-146.855
X120.919Y-105.453
X120.919Y-154.983
X122.697Y-107.485
X122.697Y-157.015
X123.586Y-120.058
X123.586Y-169.588
X124.348Y-117.772
X124.348Y-167.302
T2
X41.163Y-118.28
X41.163Y-167.81
X41.29Y-123.741
X41.29Y-173.271
X44.432Y-92.636
X44.432Y-142.166
X44.592Y-90.975
X44.592Y-140.505
X45.336Y-120.635
X45.336Y-170.165
X45.608Y-93.769
X45.608Y-143.299
X47.399Y-120.506
X47.399Y-170.036
X47.649Y-94.15
X47.649Y-143.68
X49.02Y-90.165
X49.02Y-139.695
X50.434Y-90.467
X50.434Y-139.997
X51.45Y-100.5
X51.45Y-150.03
X55.514Y-116.375
X55.514Y-165.905
X56.68Y-111.145
X56.68Y-160.675
X57.419Y-115.994
X57.419Y-165.524
X74.183Y-93.81
X74.183Y-143.34
X74.31Y-88.349
X74.31Y-137.879
X77.452Y-119.454
X77.452Y-168.984
X77.612Y-121.115
X77.612Y-170.645
X78.356Y-91.455
X78.356Y-140.985
X78.628Y-118.321
X78.628Y-167.851
X80.419Y-91.584
X80.419Y-141.114
X80.669Y-117.94
X80.669Y-167.47
X82.04Y-121.925
X82.04Y-171.455
X83.454Y-121.623
X83.454Y-171.153
X84.47Y-111.59
X84.47Y-161.12
X88.534Y-95.715
X88.534Y-145.245
X89.7Y-100.945
X89.7Y-150.475
X90.439Y-96.096
X90.439Y-145.626
X105.933Y-118.28
X105.933Y-167.81
X106.06Y-123.741
X106.06Y-173.271
X109.202Y-92.636
X109.202Y-142.166
X109.362Y-90.975
X109.362Y-140.505
X110.106Y-120.635
X110.106Y-170.165
X110.378Y-93.769
X110.378Y-143.299
X112.169Y-120.506
X112.169Y-170.036
X112.419Y-94.15
X112.419Y-143.68
X113.79Y-90.165
X113.79Y-139.695
X115.204Y-90.467
X115.204Y-139.997
X116.22Y-100.5
X116.22Y-150.03
X120.284Y-116.375
X120.284Y-165.905
X121.45Y-111.145
X121.45Y-160.675
X122.189Y-115.994
X122.189Y-165.524
T3
X47.386Y-85.641
X47.386Y-135.171
X80.406Y-126.449
X80.406Y-175.979
X112.156Y-85.641
X112.156Y-135.171
T4
X46.386Y-83.355
X46.386Y-127.932
X46.386Y-132.885
X46.386Y-177.462
X46.886Y-83.355
X46.886Y-127.932
X46.886Y-132.885
X46.886Y-177.462
X47.386Y-83.355
X47.386Y-127.932
X47.386Y-132.885
X47.386Y-177.462
X47.886Y-83.355
X47.886Y-127.932
X47.886Y-132.885
X47.886Y-177.462
X48.386Y-83.355
X48.386Y-127.932
X48.386Y-132.885
X48.386Y-177.462
X79.406Y-84.158
X79.406Y-128.735
X79.406Y-133.688
X79.406Y-178.265
X79.906Y-84.158
X79.906Y-128.735
X79.906Y-133.688
X79.906Y-178.265
X80.406Y-84.158
X80.406Y-128.735
X80.406Y-133.688
X80.406Y-178.265
X80.906Y-84.158
X80.906Y-128.735
X80.906Y-133.688
X80.906Y-178.265
X81.406Y-84.158
X81.406Y-128.735
X81.406Y-133.688
X81.406Y-178.265
X111.156Y-83.355
X111.156Y-127.932
X111.156Y-132.885
X111.156Y-177.462
X111.656Y-83.355
X111.656Y-127.932
X111.656Y-132.885
X111.656Y-177.462
X112.156Y-83.355
X112.156Y-127.932
X112.156Y-132.885
X112.156Y-177.462
X112.656Y-83.355
X112.656Y-127.932
X112.656Y-132.885
X112.656Y-177.462
X113.156Y-83.355
X113.156Y-127.932
X113.156Y-132.885
X113.156Y-177.462
T0
M30
