G04 #@! TF.GenerationSoftware,KiCad,Pcbnew,no-vcs-found*
G04 #@! TF.CreationDate,2016-12-05T11:41:50+01:00*
G04 #@! TF.ProjectId,x-mas tree-pan,782D6D617320747265652D70616E2E6B,rev?*
G04 #@! TF.FileFunction,Profile,NP*
%FSLAX46Y46*%
G04 Gerber Fmt 4.6, Leading zero omitted, Abs format (unit mm)*
G04 Created by KiCad (PCBNEW no-vcs-found) date Mon Dec  5 11:41:50 2016*
%MOMM*%
%LPD*%
G01*
G04 APERTURE LIST*
%ADD10C,0.100000*%
%ADD11C,0.500000*%
%ADD12C,0.010000*%
%ADD13C,0.150000*%
G04 APERTURE END LIST*
D10*
D11*
X127142000Y-175557000D02*
X117236000Y-175557000D01*
X107203000Y-175557000D02*
X97297000Y-175557000D01*
X119649000Y-136314000D02*
X127142000Y-175557000D01*
X104599500Y-136314000D02*
X97297000Y-175557000D01*
X104599500Y-136314000D02*
X110505000Y-132948500D01*
D12*
X110505000Y-132948500D02*
X113807000Y-132948500D01*
D11*
X113807000Y-132948500D02*
X119649000Y-136314000D01*
D13*
X117236000Y-175557000D02*
X117236000Y-177462000D01*
D11*
X117236000Y-177462000D02*
X113934000Y-177462000D01*
X107203000Y-175557000D02*
X107203000Y-177462000D01*
X107203000Y-177462000D02*
X110505000Y-177462000D01*
D12*
X110505000Y-177462000D02*
X113934000Y-177462000D01*
X110505000Y-127932000D02*
X113934000Y-127932000D01*
D11*
X107203000Y-127932000D02*
X110505000Y-127932000D01*
X107203000Y-126027000D02*
X107203000Y-127932000D01*
X117236000Y-127932000D02*
X113934000Y-127932000D01*
D13*
X117236000Y-126027000D02*
X117236000Y-127932000D01*
D11*
X113807000Y-83418500D02*
X119649000Y-86784000D01*
D12*
X110505000Y-83418500D02*
X113807000Y-83418500D01*
D11*
X104599500Y-86784000D02*
X110505000Y-83418500D01*
X104599500Y-86784000D02*
X97297000Y-126027000D01*
X119649000Y-86784000D02*
X127142000Y-126027000D01*
X107203000Y-126027000D02*
X97297000Y-126027000D01*
X127142000Y-126027000D02*
X117236000Y-126027000D01*
X95392000Y-86063000D02*
X85486000Y-86063000D01*
X75453000Y-86063000D02*
X65547000Y-86063000D01*
X87899000Y-125306000D02*
X95392000Y-86063000D01*
X72849500Y-125306000D02*
X65547000Y-86063000D01*
X72849500Y-125306000D02*
X78755000Y-128671500D01*
D12*
X78755000Y-128671500D02*
X82057000Y-128671500D01*
D11*
X82057000Y-128671500D02*
X87899000Y-125306000D01*
D13*
X85486000Y-86063000D02*
X85486000Y-84158000D01*
D11*
X85486000Y-84158000D02*
X82184000Y-84158000D01*
X75453000Y-86063000D02*
X75453000Y-84158000D01*
X75453000Y-84158000D02*
X78755000Y-84158000D01*
D12*
X78755000Y-84158000D02*
X82184000Y-84158000D01*
X78755000Y-133688000D02*
X82184000Y-133688000D01*
D11*
X75453000Y-133688000D02*
X78755000Y-133688000D01*
X75453000Y-135593000D02*
X75453000Y-133688000D01*
X85486000Y-133688000D02*
X82184000Y-133688000D01*
D13*
X85486000Y-135593000D02*
X85486000Y-133688000D01*
D11*
X82057000Y-178201500D02*
X87899000Y-174836000D01*
D12*
X78755000Y-178201500D02*
X82057000Y-178201500D01*
D11*
X72849500Y-174836000D02*
X78755000Y-178201500D01*
X72849500Y-174836000D02*
X65547000Y-135593000D01*
X87899000Y-174836000D02*
X95392000Y-135593000D01*
X75453000Y-135593000D02*
X65547000Y-135593000D01*
X95392000Y-135593000D02*
X85486000Y-135593000D01*
X62372000Y-126027000D02*
X52466000Y-126027000D01*
X42433000Y-126027000D02*
X32527000Y-126027000D01*
X54879000Y-86784000D02*
X62372000Y-126027000D01*
X39829500Y-86784000D02*
X32527000Y-126027000D01*
X39829500Y-86784000D02*
X45735000Y-83418500D01*
D12*
X45735000Y-83418500D02*
X49037000Y-83418500D01*
D11*
X49037000Y-83418500D02*
X54879000Y-86784000D01*
D13*
X52466000Y-126027000D02*
X52466000Y-127932000D01*
D11*
X52466000Y-127932000D02*
X49164000Y-127932000D01*
X42433000Y-126027000D02*
X42433000Y-127932000D01*
X42433000Y-127932000D02*
X45735000Y-127932000D01*
D12*
X45735000Y-127932000D02*
X49164000Y-127932000D01*
X45735000Y-177462000D02*
X49164000Y-177462000D01*
D11*
X42433000Y-177462000D02*
X45735000Y-177462000D01*
X42433000Y-175557000D02*
X42433000Y-177462000D01*
X52466000Y-177462000D02*
X49164000Y-177462000D01*
D13*
X52466000Y-175557000D02*
X52466000Y-177462000D01*
D11*
X49037000Y-132948500D02*
X54879000Y-136314000D01*
D12*
X45735000Y-132948500D02*
X49037000Y-132948500D01*
D11*
X39829500Y-136314000D02*
X45735000Y-132948500D01*
X39829500Y-136314000D02*
X32527000Y-175557000D01*
X54879000Y-136314000D02*
X62372000Y-175557000D01*
X42433000Y-175557000D02*
X32527000Y-175557000D01*
X62372000Y-175557000D02*
X52466000Y-175557000D01*
M02*
