G04 #@! TF.FileFunction,Legend,Bot*
%FSLAX46Y46*%
G04 Gerber Fmt 4.6, Leading zero omitted, Abs format (unit mm)*
G04 Created by KiCad (PCBNEW 4.1.0-alpha+201607130321+6976~46~ubuntu16.04.1-product) date Wed Aug  3 15:05:52 2016*
%MOMM*%
%LPD*%
G01*
G04 APERTURE LIST*
%ADD10C,0.100000*%
%ADD11C,0.150000*%
G04 APERTURE END LIST*
D10*
D11*
X138900000Y-76900000D02*
X138900000Y-77300000D01*
X138300000Y-76900000D02*
X138300000Y-77300000D01*
X137700000Y-76900000D02*
X137700000Y-77300000D01*
X137100000Y-76900000D02*
X137100000Y-77300000D01*
X136500000Y-76900000D02*
X136500000Y-77300000D01*
X135900000Y-76900000D02*
X135900000Y-77300000D01*
X135300000Y-76900000D02*
X135300000Y-77300000D01*
X134600000Y-82000000D02*
X139800000Y-82000000D01*
X134600000Y-76800000D02*
X139800000Y-76800000D01*
X135300000Y-81500000D02*
X135300000Y-81900000D01*
X135900000Y-81500000D02*
X135900000Y-81900000D01*
X136500000Y-81500000D02*
X136500000Y-81900000D01*
X137100000Y-81500000D02*
X137100000Y-81900000D01*
X137700000Y-81500000D02*
X137700000Y-81900000D01*
X138300000Y-81500000D02*
X138300000Y-81900000D01*
X138900000Y-81500000D02*
X138900000Y-81900000D01*
X134600000Y-81200000D02*
X135000000Y-81200000D01*
X134600000Y-80600000D02*
X135000000Y-80600000D01*
X134600000Y-80000000D02*
X135000000Y-80000000D01*
X134600000Y-79400000D02*
X135000000Y-79400000D01*
X134600000Y-78800000D02*
X135000000Y-78800000D01*
X134600000Y-78200000D02*
X135000000Y-78200000D01*
X134600000Y-77600000D02*
X135000000Y-77600000D01*
X139400000Y-77600000D02*
X139800000Y-77600000D01*
X139400000Y-78200000D02*
X139800000Y-78200000D01*
X139400000Y-78800000D02*
X139800000Y-78800000D01*
X139400000Y-79400000D02*
X139800000Y-79400000D01*
X139400000Y-80000000D02*
X139800000Y-80000000D01*
X139400000Y-80600000D02*
X139800000Y-80600000D01*
X139400000Y-81200000D02*
X139800000Y-81200000D01*
X139800000Y-82000000D02*
X139800000Y-76800000D01*
X134600000Y-76800000D02*
X134600000Y-82000000D01*
X88700000Y-76900000D02*
X88700000Y-77300000D01*
X88100000Y-76900000D02*
X88100000Y-77300000D01*
X87500000Y-76900000D02*
X87500000Y-77300000D01*
X86900000Y-76900000D02*
X86900000Y-77300000D01*
X86300000Y-76900000D02*
X86300000Y-77300000D01*
X85700000Y-76900000D02*
X85700000Y-77300000D01*
X85100000Y-76900000D02*
X85100000Y-77300000D01*
X84400000Y-82000000D02*
X89600000Y-82000000D01*
X84400000Y-76800000D02*
X89600000Y-76800000D01*
X85100000Y-81500000D02*
X85100000Y-81900000D01*
X85700000Y-81500000D02*
X85700000Y-81900000D01*
X86300000Y-81500000D02*
X86300000Y-81900000D01*
X86900000Y-81500000D02*
X86900000Y-81900000D01*
X87500000Y-81500000D02*
X87500000Y-81900000D01*
X88100000Y-81500000D02*
X88100000Y-81900000D01*
X88700000Y-81500000D02*
X88700000Y-81900000D01*
X84400000Y-81200000D02*
X84800000Y-81200000D01*
X84400000Y-80600000D02*
X84800000Y-80600000D01*
X84400000Y-80000000D02*
X84800000Y-80000000D01*
X84400000Y-79400000D02*
X84800000Y-79400000D01*
X84400000Y-78800000D02*
X84800000Y-78800000D01*
X84400000Y-78200000D02*
X84800000Y-78200000D01*
X84400000Y-77600000D02*
X84800000Y-77600000D01*
X89200000Y-77600000D02*
X89600000Y-77600000D01*
X89200000Y-78200000D02*
X89600000Y-78200000D01*
X89200000Y-78800000D02*
X89600000Y-78800000D01*
X89200000Y-79400000D02*
X89600000Y-79400000D01*
X89200000Y-80000000D02*
X89600000Y-80000000D01*
X89200000Y-80600000D02*
X89600000Y-80600000D01*
X89200000Y-81200000D02*
X89600000Y-81200000D01*
X89600000Y-82000000D02*
X89600000Y-76800000D01*
X84400000Y-76800000D02*
X84400000Y-82000000D01*
X138900000Y-127300000D02*
X138900000Y-127700000D01*
X138300000Y-127300000D02*
X138300000Y-127700000D01*
X137700000Y-127300000D02*
X137700000Y-127700000D01*
X137100000Y-127300000D02*
X137100000Y-127700000D01*
X136500000Y-127300000D02*
X136500000Y-127700000D01*
X135900000Y-127300000D02*
X135900000Y-127700000D01*
X135300000Y-127300000D02*
X135300000Y-127700000D01*
X134600000Y-132400000D02*
X139800000Y-132400000D01*
X134600000Y-127200000D02*
X139800000Y-127200000D01*
X135300000Y-131900000D02*
X135300000Y-132300000D01*
X135900000Y-131900000D02*
X135900000Y-132300000D01*
X136500000Y-131900000D02*
X136500000Y-132300000D01*
X137100000Y-131900000D02*
X137100000Y-132300000D01*
X137700000Y-131900000D02*
X137700000Y-132300000D01*
X138300000Y-131900000D02*
X138300000Y-132300000D01*
X138900000Y-131900000D02*
X138900000Y-132300000D01*
X134600000Y-131600000D02*
X135000000Y-131600000D01*
X134600000Y-131000000D02*
X135000000Y-131000000D01*
X134600000Y-130400000D02*
X135000000Y-130400000D01*
X134600000Y-129800000D02*
X135000000Y-129800000D01*
X134600000Y-129200000D02*
X135000000Y-129200000D01*
X134600000Y-128600000D02*
X135000000Y-128600000D01*
X134600000Y-128000000D02*
X135000000Y-128000000D01*
X139400000Y-128000000D02*
X139800000Y-128000000D01*
X139400000Y-128600000D02*
X139800000Y-128600000D01*
X139400000Y-129200000D02*
X139800000Y-129200000D01*
X139400000Y-129800000D02*
X139800000Y-129800000D01*
X139400000Y-130400000D02*
X139800000Y-130400000D01*
X139400000Y-131000000D02*
X139800000Y-131000000D01*
X139400000Y-131600000D02*
X139800000Y-131600000D01*
X139800000Y-132400000D02*
X139800000Y-127200000D01*
X134600000Y-127200000D02*
X134600000Y-132400000D01*
X88700000Y-127300000D02*
X88700000Y-127700000D01*
X88100000Y-127300000D02*
X88100000Y-127700000D01*
X87500000Y-127300000D02*
X87500000Y-127700000D01*
X86900000Y-127300000D02*
X86900000Y-127700000D01*
X86300000Y-127300000D02*
X86300000Y-127700000D01*
X85700000Y-127300000D02*
X85700000Y-127700000D01*
X85100000Y-127300000D02*
X85100000Y-127700000D01*
X84400000Y-132400000D02*
X89600000Y-132400000D01*
X84400000Y-127200000D02*
X89600000Y-127200000D01*
X85100000Y-131900000D02*
X85100000Y-132300000D01*
X85700000Y-131900000D02*
X85700000Y-132300000D01*
X86300000Y-131900000D02*
X86300000Y-132300000D01*
X86900000Y-131900000D02*
X86900000Y-132300000D01*
X87500000Y-131900000D02*
X87500000Y-132300000D01*
X88100000Y-131900000D02*
X88100000Y-132300000D01*
X88700000Y-131900000D02*
X88700000Y-132300000D01*
X84400000Y-131600000D02*
X84800000Y-131600000D01*
X84400000Y-131000000D02*
X84800000Y-131000000D01*
X84400000Y-130400000D02*
X84800000Y-130400000D01*
X84400000Y-129800000D02*
X84800000Y-129800000D01*
X84400000Y-129200000D02*
X84800000Y-129200000D01*
X84400000Y-128600000D02*
X84800000Y-128600000D01*
X84400000Y-128000000D02*
X84800000Y-128000000D01*
X89200000Y-128000000D02*
X89600000Y-128000000D01*
X89200000Y-128600000D02*
X89600000Y-128600000D01*
X89200000Y-129200000D02*
X89600000Y-129200000D01*
X89200000Y-129800000D02*
X89600000Y-129800000D01*
X89200000Y-130400000D02*
X89600000Y-130400000D01*
X89200000Y-131000000D02*
X89600000Y-131000000D01*
X89200000Y-131600000D02*
X89600000Y-131600000D01*
X89600000Y-132400000D02*
X89600000Y-127200000D01*
X84400000Y-127200000D02*
X84400000Y-132400000D01*
D10*
X138819047Y-79292857D02*
X138819047Y-79792857D01*
X138819047Y-79316666D02*
X138771428Y-79292857D01*
X138676190Y-79292857D01*
X138628571Y-79316666D01*
X138604761Y-79340476D01*
X138580952Y-79388095D01*
X138580952Y-79530952D01*
X138604761Y-79578571D01*
X138628571Y-79602380D01*
X138676190Y-79626190D01*
X138771428Y-79626190D01*
X138819047Y-79602380D01*
X138152380Y-79602380D02*
X138200000Y-79626190D01*
X138295238Y-79626190D01*
X138342857Y-79602380D01*
X138366666Y-79578571D01*
X138390476Y-79530952D01*
X138390476Y-79388095D01*
X138366666Y-79340476D01*
X138342857Y-79316666D01*
X138295238Y-79292857D01*
X138200000Y-79292857D01*
X138152380Y-79316666D01*
X137938095Y-79626190D02*
X137938095Y-79126190D01*
X137938095Y-79316666D02*
X137890476Y-79292857D01*
X137795238Y-79292857D01*
X137747619Y-79316666D01*
X137723809Y-79340476D01*
X137700000Y-79388095D01*
X137700000Y-79530952D01*
X137723809Y-79578571D01*
X137747619Y-79602380D01*
X137795238Y-79626190D01*
X137890476Y-79626190D01*
X137938095Y-79602380D01*
X137485714Y-79626190D02*
X137485714Y-79292857D01*
X137485714Y-79388095D02*
X137461904Y-79340476D01*
X137438095Y-79316666D01*
X137390476Y-79292857D01*
X137342857Y-79292857D01*
X136985714Y-79602380D02*
X137033333Y-79626190D01*
X137128571Y-79626190D01*
X137176190Y-79602380D01*
X137200000Y-79554761D01*
X137200000Y-79364285D01*
X137176190Y-79316666D01*
X137128571Y-79292857D01*
X137033333Y-79292857D01*
X136985714Y-79316666D01*
X136961904Y-79364285D01*
X136961904Y-79411904D01*
X137200000Y-79459523D01*
X136819047Y-79292857D02*
X136628571Y-79292857D01*
X136747619Y-79626190D02*
X136747619Y-79197619D01*
X136723809Y-79150000D01*
X136676190Y-79126190D01*
X136628571Y-79126190D01*
X136390476Y-79626190D02*
X136438095Y-79602380D01*
X136461904Y-79554761D01*
X136461904Y-79126190D01*
X135985714Y-79292857D02*
X135985714Y-79626190D01*
X136200000Y-79292857D02*
X136200000Y-79554761D01*
X136176190Y-79602380D01*
X136128571Y-79626190D01*
X136057142Y-79626190D01*
X136009523Y-79602380D01*
X135985714Y-79578571D01*
X135795238Y-79626190D02*
X135533333Y-79292857D01*
X135795238Y-79292857D02*
X135533333Y-79626190D01*
D11*
X103328571Y-90214285D02*
X103376190Y-90357142D01*
X103423809Y-90404761D01*
X103519047Y-90452380D01*
X103661904Y-90452380D01*
X103757142Y-90404761D01*
X103804761Y-90357142D01*
X103852380Y-90261904D01*
X103852380Y-89880952D01*
X102852380Y-89880952D01*
X102852380Y-90214285D01*
X102900000Y-90309523D01*
X102947619Y-90357142D01*
X103042857Y-90404761D01*
X103138095Y-90404761D01*
X103233333Y-90357142D01*
X103280952Y-90309523D01*
X103328571Y-90214285D01*
X103328571Y-89880952D01*
X102852380Y-90738095D02*
X102852380Y-91309523D01*
X103852380Y-91023809D02*
X102852380Y-91023809D01*
X103852380Y-92166666D02*
X103852380Y-91595238D01*
X103852380Y-91880952D02*
X102852380Y-91880952D01*
X102995238Y-91785714D01*
X103090476Y-91690476D01*
X103138095Y-91595238D01*
X53128571Y-90214285D02*
X53176190Y-90357142D01*
X53223809Y-90404761D01*
X53319047Y-90452380D01*
X53461904Y-90452380D01*
X53557142Y-90404761D01*
X53604761Y-90357142D01*
X53652380Y-90261904D01*
X53652380Y-89880952D01*
X52652380Y-89880952D01*
X52652380Y-90214285D01*
X52700000Y-90309523D01*
X52747619Y-90357142D01*
X52842857Y-90404761D01*
X52938095Y-90404761D01*
X53033333Y-90357142D01*
X53080952Y-90309523D01*
X53128571Y-90214285D01*
X53128571Y-89880952D01*
X52652380Y-90738095D02*
X52652380Y-91309523D01*
X53652380Y-91023809D02*
X52652380Y-91023809D01*
X53652380Y-92166666D02*
X53652380Y-91595238D01*
X53652380Y-91880952D02*
X52652380Y-91880952D01*
X52795238Y-91785714D01*
X52890476Y-91690476D01*
X52938095Y-91595238D01*
D10*
X88619047Y-79292857D02*
X88619047Y-79792857D01*
X88619047Y-79316666D02*
X88571428Y-79292857D01*
X88476190Y-79292857D01*
X88428571Y-79316666D01*
X88404761Y-79340476D01*
X88380952Y-79388095D01*
X88380952Y-79530952D01*
X88404761Y-79578571D01*
X88428571Y-79602380D01*
X88476190Y-79626190D01*
X88571428Y-79626190D01*
X88619047Y-79602380D01*
X87952380Y-79602380D02*
X88000000Y-79626190D01*
X88095238Y-79626190D01*
X88142857Y-79602380D01*
X88166666Y-79578571D01*
X88190476Y-79530952D01*
X88190476Y-79388095D01*
X88166666Y-79340476D01*
X88142857Y-79316666D01*
X88095238Y-79292857D01*
X88000000Y-79292857D01*
X87952380Y-79316666D01*
X87738095Y-79626190D02*
X87738095Y-79126190D01*
X87738095Y-79316666D02*
X87690476Y-79292857D01*
X87595238Y-79292857D01*
X87547619Y-79316666D01*
X87523809Y-79340476D01*
X87500000Y-79388095D01*
X87500000Y-79530952D01*
X87523809Y-79578571D01*
X87547619Y-79602380D01*
X87595238Y-79626190D01*
X87690476Y-79626190D01*
X87738095Y-79602380D01*
X87285714Y-79626190D02*
X87285714Y-79292857D01*
X87285714Y-79388095D02*
X87261904Y-79340476D01*
X87238095Y-79316666D01*
X87190476Y-79292857D01*
X87142857Y-79292857D01*
X86785714Y-79602380D02*
X86833333Y-79626190D01*
X86928571Y-79626190D01*
X86976190Y-79602380D01*
X87000000Y-79554761D01*
X87000000Y-79364285D01*
X86976190Y-79316666D01*
X86928571Y-79292857D01*
X86833333Y-79292857D01*
X86785714Y-79316666D01*
X86761904Y-79364285D01*
X86761904Y-79411904D01*
X87000000Y-79459523D01*
X86619047Y-79292857D02*
X86428571Y-79292857D01*
X86547619Y-79626190D02*
X86547619Y-79197619D01*
X86523809Y-79150000D01*
X86476190Y-79126190D01*
X86428571Y-79126190D01*
X86190476Y-79626190D02*
X86238095Y-79602380D01*
X86261904Y-79554761D01*
X86261904Y-79126190D01*
X85785714Y-79292857D02*
X85785714Y-79626190D01*
X86000000Y-79292857D02*
X86000000Y-79554761D01*
X85976190Y-79602380D01*
X85928571Y-79626190D01*
X85857142Y-79626190D01*
X85809523Y-79602380D01*
X85785714Y-79578571D01*
X85595238Y-79626190D02*
X85333333Y-79292857D01*
X85595238Y-79292857D02*
X85333333Y-79626190D01*
D11*
X103328571Y-140614285D02*
X103376190Y-140757142D01*
X103423809Y-140804761D01*
X103519047Y-140852380D01*
X103661904Y-140852380D01*
X103757142Y-140804761D01*
X103804761Y-140757142D01*
X103852380Y-140661904D01*
X103852380Y-140280952D01*
X102852380Y-140280952D01*
X102852380Y-140614285D01*
X102900000Y-140709523D01*
X102947619Y-140757142D01*
X103042857Y-140804761D01*
X103138095Y-140804761D01*
X103233333Y-140757142D01*
X103280952Y-140709523D01*
X103328571Y-140614285D01*
X103328571Y-140280952D01*
X102852380Y-141138095D02*
X102852380Y-141709523D01*
X103852380Y-141423809D02*
X102852380Y-141423809D01*
X103852380Y-142566666D02*
X103852380Y-141995238D01*
X103852380Y-142280952D02*
X102852380Y-142280952D01*
X102995238Y-142185714D01*
X103090476Y-142090476D01*
X103138095Y-141995238D01*
D10*
X138819047Y-129692857D02*
X138819047Y-130192857D01*
X138819047Y-129716666D02*
X138771428Y-129692857D01*
X138676190Y-129692857D01*
X138628571Y-129716666D01*
X138604761Y-129740476D01*
X138580952Y-129788095D01*
X138580952Y-129930952D01*
X138604761Y-129978571D01*
X138628571Y-130002380D01*
X138676190Y-130026190D01*
X138771428Y-130026190D01*
X138819047Y-130002380D01*
X138152380Y-130002380D02*
X138200000Y-130026190D01*
X138295238Y-130026190D01*
X138342857Y-130002380D01*
X138366666Y-129978571D01*
X138390476Y-129930952D01*
X138390476Y-129788095D01*
X138366666Y-129740476D01*
X138342857Y-129716666D01*
X138295238Y-129692857D01*
X138200000Y-129692857D01*
X138152380Y-129716666D01*
X137938095Y-130026190D02*
X137938095Y-129526190D01*
X137938095Y-129716666D02*
X137890476Y-129692857D01*
X137795238Y-129692857D01*
X137747619Y-129716666D01*
X137723809Y-129740476D01*
X137700000Y-129788095D01*
X137700000Y-129930952D01*
X137723809Y-129978571D01*
X137747619Y-130002380D01*
X137795238Y-130026190D01*
X137890476Y-130026190D01*
X137938095Y-130002380D01*
X137485714Y-130026190D02*
X137485714Y-129692857D01*
X137485714Y-129788095D02*
X137461904Y-129740476D01*
X137438095Y-129716666D01*
X137390476Y-129692857D01*
X137342857Y-129692857D01*
X136985714Y-130002380D02*
X137033333Y-130026190D01*
X137128571Y-130026190D01*
X137176190Y-130002380D01*
X137200000Y-129954761D01*
X137200000Y-129764285D01*
X137176190Y-129716666D01*
X137128571Y-129692857D01*
X137033333Y-129692857D01*
X136985714Y-129716666D01*
X136961904Y-129764285D01*
X136961904Y-129811904D01*
X137200000Y-129859523D01*
X136819047Y-129692857D02*
X136628571Y-129692857D01*
X136747619Y-130026190D02*
X136747619Y-129597619D01*
X136723809Y-129550000D01*
X136676190Y-129526190D01*
X136628571Y-129526190D01*
X136390476Y-130026190D02*
X136438095Y-130002380D01*
X136461904Y-129954761D01*
X136461904Y-129526190D01*
X135985714Y-129692857D02*
X135985714Y-130026190D01*
X136200000Y-129692857D02*
X136200000Y-129954761D01*
X136176190Y-130002380D01*
X136128571Y-130026190D01*
X136057142Y-130026190D01*
X136009523Y-130002380D01*
X135985714Y-129978571D01*
X135795238Y-130026190D02*
X135533333Y-129692857D01*
X135795238Y-129692857D02*
X135533333Y-130026190D01*
X88619047Y-129692857D02*
X88619047Y-130192857D01*
X88619047Y-129716666D02*
X88571428Y-129692857D01*
X88476190Y-129692857D01*
X88428571Y-129716666D01*
X88404761Y-129740476D01*
X88380952Y-129788095D01*
X88380952Y-129930952D01*
X88404761Y-129978571D01*
X88428571Y-130002380D01*
X88476190Y-130026190D01*
X88571428Y-130026190D01*
X88619047Y-130002380D01*
X87952380Y-130002380D02*
X88000000Y-130026190D01*
X88095238Y-130026190D01*
X88142857Y-130002380D01*
X88166666Y-129978571D01*
X88190476Y-129930952D01*
X88190476Y-129788095D01*
X88166666Y-129740476D01*
X88142857Y-129716666D01*
X88095238Y-129692857D01*
X88000000Y-129692857D01*
X87952380Y-129716666D01*
X87738095Y-130026190D02*
X87738095Y-129526190D01*
X87738095Y-129716666D02*
X87690476Y-129692857D01*
X87595238Y-129692857D01*
X87547619Y-129716666D01*
X87523809Y-129740476D01*
X87500000Y-129788095D01*
X87500000Y-129930952D01*
X87523809Y-129978571D01*
X87547619Y-130002380D01*
X87595238Y-130026190D01*
X87690476Y-130026190D01*
X87738095Y-130002380D01*
X87285714Y-130026190D02*
X87285714Y-129692857D01*
X87285714Y-129788095D02*
X87261904Y-129740476D01*
X87238095Y-129716666D01*
X87190476Y-129692857D01*
X87142857Y-129692857D01*
X86785714Y-130002380D02*
X86833333Y-130026190D01*
X86928571Y-130026190D01*
X86976190Y-130002380D01*
X87000000Y-129954761D01*
X87000000Y-129764285D01*
X86976190Y-129716666D01*
X86928571Y-129692857D01*
X86833333Y-129692857D01*
X86785714Y-129716666D01*
X86761904Y-129764285D01*
X86761904Y-129811904D01*
X87000000Y-129859523D01*
X86619047Y-129692857D02*
X86428571Y-129692857D01*
X86547619Y-130026190D02*
X86547619Y-129597619D01*
X86523809Y-129550000D01*
X86476190Y-129526190D01*
X86428571Y-129526190D01*
X86190476Y-130026190D02*
X86238095Y-130002380D01*
X86261904Y-129954761D01*
X86261904Y-129526190D01*
X85785714Y-129692857D02*
X85785714Y-130026190D01*
X86000000Y-129692857D02*
X86000000Y-129954761D01*
X85976190Y-130002380D01*
X85928571Y-130026190D01*
X85857142Y-130026190D01*
X85809523Y-130002380D01*
X85785714Y-129978571D01*
X85595238Y-130026190D02*
X85333333Y-129692857D01*
X85595238Y-129692857D02*
X85333333Y-130026190D01*
D11*
X53128571Y-140614285D02*
X53176190Y-140757142D01*
X53223809Y-140804761D01*
X53319047Y-140852380D01*
X53461904Y-140852380D01*
X53557142Y-140804761D01*
X53604761Y-140757142D01*
X53652380Y-140661904D01*
X53652380Y-140280952D01*
X52652380Y-140280952D01*
X52652380Y-140614285D01*
X52700000Y-140709523D01*
X52747619Y-140757142D01*
X52842857Y-140804761D01*
X52938095Y-140804761D01*
X53033333Y-140757142D01*
X53080952Y-140709523D01*
X53128571Y-140614285D01*
X53128571Y-140280952D01*
X52652380Y-141138095D02*
X52652380Y-141709523D01*
X53652380Y-141423809D02*
X52652380Y-141423809D01*
X53652380Y-142566666D02*
X53652380Y-141995238D01*
X53652380Y-142280952D02*
X52652380Y-142280952D01*
X52795238Y-142185714D01*
X52890476Y-142090476D01*
X52938095Y-141995238D01*
M02*
