G04 #@! TF.FileFunction,Soldermask,Bot*
%FSLAX46Y46*%
G04 Gerber Fmt 4.6, Leading zero omitted, Abs format (unit mm)*
G04 Created by KiCad (PCBNEW 4.1.0-alpha+201608131231+7028~46~ubuntu16.04.1-product) date Sat Aug 27 16:11:23 2016*
%MOMM*%
%LPD*%
G01*
G04 APERTURE LIST*
%ADD10C,0.100000*%
%ADD11R,2.127200X2.432000*%
%ADD12O,2.127200X2.432000*%
G04 APERTURE END LIST*
D10*
D11*
X102110000Y-89100000D03*
D12*
X104650000Y-89100000D03*
X107190000Y-89100000D03*
X109730000Y-89100000D03*
X112270000Y-89100000D03*
X114810000Y-89100000D03*
D11*
X102110000Y-106880000D03*
D12*
X104650000Y-106880000D03*
X107190000Y-106880000D03*
X109730000Y-106880000D03*
X112270000Y-106880000D03*
X114810000Y-106880000D03*
D11*
X102110000Y-64970000D03*
D12*
X104650000Y-64970000D03*
X107190000Y-64970000D03*
X109730000Y-64970000D03*
X112270000Y-64970000D03*
X114810000Y-64970000D03*
D11*
X102110000Y-82750000D03*
D12*
X104650000Y-82750000D03*
X107190000Y-82750000D03*
X109730000Y-82750000D03*
X112270000Y-82750000D03*
X114810000Y-82750000D03*
D11*
X83060000Y-89100000D03*
D12*
X85600000Y-89100000D03*
X88140000Y-89100000D03*
X90680000Y-89100000D03*
X93220000Y-89100000D03*
X95760000Y-89100000D03*
D11*
X83060000Y-106880000D03*
D12*
X85600000Y-106880000D03*
X88140000Y-106880000D03*
X90680000Y-106880000D03*
X93220000Y-106880000D03*
X95760000Y-106880000D03*
D11*
X83060000Y-82750000D03*
D12*
X85600000Y-82750000D03*
X88140000Y-82750000D03*
X90680000Y-82750000D03*
X93220000Y-82750000D03*
X95760000Y-82750000D03*
D11*
X83060000Y-64970000D03*
D12*
X85600000Y-64970000D03*
X88140000Y-64970000D03*
X90680000Y-64970000D03*
X93220000Y-64970000D03*
X95760000Y-64970000D03*
D11*
X25910000Y-64970000D03*
D12*
X28450000Y-64970000D03*
X30990000Y-64970000D03*
X33530000Y-64970000D03*
X36070000Y-64970000D03*
X38610000Y-64970000D03*
D11*
X25910000Y-82750000D03*
D12*
X28450000Y-82750000D03*
X30990000Y-82750000D03*
X33530000Y-82750000D03*
X36070000Y-82750000D03*
X38610000Y-82750000D03*
D11*
X44960000Y-64970000D03*
D12*
X47500000Y-64970000D03*
X50040000Y-64970000D03*
X52580000Y-64970000D03*
X55120000Y-64970000D03*
X57660000Y-64970000D03*
D11*
X44960000Y-106880000D03*
D12*
X47500000Y-106880000D03*
X50040000Y-106880000D03*
X52580000Y-106880000D03*
X55120000Y-106880000D03*
X57660000Y-106880000D03*
D11*
X64010000Y-89100000D03*
D12*
X66550000Y-89100000D03*
X69090000Y-89100000D03*
X71630000Y-89100000D03*
X74170000Y-89100000D03*
X76710000Y-89100000D03*
D11*
X64010000Y-106880000D03*
D12*
X66550000Y-106880000D03*
X69090000Y-106880000D03*
X71630000Y-106880000D03*
X74170000Y-106880000D03*
X76710000Y-106880000D03*
D11*
X64010000Y-82750000D03*
D12*
X66550000Y-82750000D03*
X69090000Y-82750000D03*
X71630000Y-82750000D03*
X74170000Y-82750000D03*
X76710000Y-82750000D03*
D11*
X64010000Y-64970000D03*
D12*
X66550000Y-64970000D03*
X69090000Y-64970000D03*
X71630000Y-64970000D03*
X74170000Y-64970000D03*
X76710000Y-64970000D03*
D11*
X25910000Y-106880000D03*
D12*
X28450000Y-106880000D03*
X30990000Y-106880000D03*
X33530000Y-106880000D03*
X36070000Y-106880000D03*
X38610000Y-106880000D03*
D11*
X25910000Y-89100000D03*
D12*
X28450000Y-89100000D03*
X30990000Y-89100000D03*
X33530000Y-89100000D03*
X36070000Y-89100000D03*
X38610000Y-89100000D03*
D11*
X44960000Y-82750000D03*
D12*
X47500000Y-82750000D03*
X50040000Y-82750000D03*
X52580000Y-82750000D03*
X55120000Y-82750000D03*
X57660000Y-82750000D03*
D11*
X44960000Y-89100000D03*
D12*
X47500000Y-89100000D03*
X50040000Y-89100000D03*
X52580000Y-89100000D03*
X55120000Y-89100000D03*
X57660000Y-89100000D03*
D11*
X102110000Y-131010000D03*
D12*
X104650000Y-131010000D03*
X107190000Y-131010000D03*
X109730000Y-131010000D03*
X112270000Y-131010000D03*
X114810000Y-131010000D03*
D11*
X102110000Y-113230000D03*
D12*
X104650000Y-113230000D03*
X107190000Y-113230000D03*
X109730000Y-113230000D03*
X112270000Y-113230000D03*
X114810000Y-113230000D03*
D11*
X25910000Y-131010000D03*
D12*
X28450000Y-131010000D03*
X30990000Y-131010000D03*
X33530000Y-131010000D03*
X36070000Y-131010000D03*
X38610000Y-131010000D03*
D11*
X25910000Y-113230000D03*
D12*
X28450000Y-113230000D03*
X30990000Y-113230000D03*
X33530000Y-113230000D03*
X36070000Y-113230000D03*
X38610000Y-113230000D03*
D11*
X44960000Y-113230000D03*
D12*
X47500000Y-113230000D03*
X50040000Y-113230000D03*
X52580000Y-113230000D03*
X55120000Y-113230000D03*
X57660000Y-113230000D03*
D11*
X44960000Y-131010000D03*
D12*
X47500000Y-131010000D03*
X50040000Y-131010000D03*
X52580000Y-131010000D03*
X55120000Y-131010000D03*
X57660000Y-131010000D03*
D11*
X64010000Y-113230000D03*
D12*
X66550000Y-113230000D03*
X69090000Y-113230000D03*
X71630000Y-113230000D03*
X74170000Y-113230000D03*
X76710000Y-113230000D03*
D11*
X64010000Y-131010000D03*
D12*
X66550000Y-131010000D03*
X69090000Y-131010000D03*
X71630000Y-131010000D03*
X74170000Y-131010000D03*
X76710000Y-131010000D03*
D11*
X83060000Y-131010000D03*
D12*
X85600000Y-131010000D03*
X88140000Y-131010000D03*
X90680000Y-131010000D03*
X93220000Y-131010000D03*
X95760000Y-131010000D03*
D11*
X83060000Y-113230000D03*
D12*
X85600000Y-113230000D03*
X88140000Y-113230000D03*
X90680000Y-113230000D03*
X93220000Y-113230000D03*
X95760000Y-113230000D03*
D11*
X102110000Y-155140000D03*
D12*
X104650000Y-155140000D03*
X107190000Y-155140000D03*
X109730000Y-155140000D03*
X112270000Y-155140000D03*
X114810000Y-155140000D03*
D11*
X102110000Y-137360000D03*
D12*
X104650000Y-137360000D03*
X107190000Y-137360000D03*
X109730000Y-137360000D03*
X112270000Y-137360000D03*
X114810000Y-137360000D03*
D11*
X64010000Y-137360000D03*
D12*
X66550000Y-137360000D03*
X69090000Y-137360000D03*
X71630000Y-137360000D03*
X74170000Y-137360000D03*
X76710000Y-137360000D03*
D11*
X64010000Y-155140000D03*
D12*
X66550000Y-155140000D03*
X69090000Y-155140000D03*
X71630000Y-155140000D03*
X74170000Y-155140000D03*
X76710000Y-155140000D03*
D11*
X83060000Y-137360000D03*
D12*
X85600000Y-137360000D03*
X88140000Y-137360000D03*
X90680000Y-137360000D03*
X93220000Y-137360000D03*
X95760000Y-137360000D03*
D11*
X83060000Y-155140000D03*
D12*
X85600000Y-155140000D03*
X88140000Y-155140000D03*
X90680000Y-155140000D03*
X93220000Y-155140000D03*
X95760000Y-155140000D03*
D11*
X44960000Y-155140000D03*
D12*
X47500000Y-155140000D03*
X50040000Y-155140000D03*
X52580000Y-155140000D03*
X55120000Y-155140000D03*
X57660000Y-155140000D03*
D11*
X44960000Y-137360000D03*
D12*
X47500000Y-137360000D03*
X50040000Y-137360000D03*
X52580000Y-137360000D03*
X55120000Y-137360000D03*
X57660000Y-137360000D03*
D11*
X25910000Y-155140000D03*
D12*
X28450000Y-155140000D03*
X30990000Y-155140000D03*
X33530000Y-155140000D03*
X36070000Y-155140000D03*
X38610000Y-155140000D03*
D11*
X25910000Y-137360000D03*
D12*
X28450000Y-137360000D03*
X30990000Y-137360000D03*
X33530000Y-137360000D03*
X36070000Y-137360000D03*
X38610000Y-137360000D03*
M02*
