G04 #@! TF.FileFunction,Soldermask,Top*
%FSLAX46Y46*%
G04 Gerber Fmt 4.6, Leading zero omitted, Abs format (unit mm)*
G04 Created by KiCad (PCBNEW 4.1.0-alpha+201608131231+7028~46~ubuntu16.04.1-product) date Sat Aug 27 16:11:23 2016*
%MOMM*%
%LPD*%
G01*
G04 APERTURE LIST*
%ADD10C,0.100000*%
%ADD11R,2.127200X2.432000*%
%ADD12O,2.127200X2.432000*%
%ADD13R,0.900000X1.400000*%
%ADD14R,1.400000X0.900000*%
G04 APERTURE END LIST*
D10*
D11*
X102110000Y-89100000D03*
D12*
X104650000Y-89100000D03*
X107190000Y-89100000D03*
X109730000Y-89100000D03*
X112270000Y-89100000D03*
X114810000Y-89100000D03*
D11*
X102110000Y-106880000D03*
D12*
X104650000Y-106880000D03*
X107190000Y-106880000D03*
X109730000Y-106880000D03*
X112270000Y-106880000D03*
X114810000Y-106880000D03*
D11*
X102110000Y-64970000D03*
D12*
X104650000Y-64970000D03*
X107190000Y-64970000D03*
X109730000Y-64970000D03*
X112270000Y-64970000D03*
X114810000Y-64970000D03*
D11*
X102110000Y-82750000D03*
D12*
X104650000Y-82750000D03*
X107190000Y-82750000D03*
X109730000Y-82750000D03*
X112270000Y-82750000D03*
X114810000Y-82750000D03*
D11*
X83060000Y-89100000D03*
D12*
X85600000Y-89100000D03*
X88140000Y-89100000D03*
X90680000Y-89100000D03*
X93220000Y-89100000D03*
X95760000Y-89100000D03*
D11*
X83060000Y-106880000D03*
D12*
X85600000Y-106880000D03*
X88140000Y-106880000D03*
X90680000Y-106880000D03*
X93220000Y-106880000D03*
X95760000Y-106880000D03*
D11*
X83060000Y-82750000D03*
D12*
X85600000Y-82750000D03*
X88140000Y-82750000D03*
X90680000Y-82750000D03*
X93220000Y-82750000D03*
X95760000Y-82750000D03*
D11*
X83060000Y-64970000D03*
D12*
X85600000Y-64970000D03*
X88140000Y-64970000D03*
X90680000Y-64970000D03*
X93220000Y-64970000D03*
X95760000Y-64970000D03*
D11*
X25910000Y-64970000D03*
D12*
X28450000Y-64970000D03*
X30990000Y-64970000D03*
X33530000Y-64970000D03*
X36070000Y-64970000D03*
X38610000Y-64970000D03*
D11*
X25910000Y-82750000D03*
D12*
X28450000Y-82750000D03*
X30990000Y-82750000D03*
X33530000Y-82750000D03*
X36070000Y-82750000D03*
X38610000Y-82750000D03*
D11*
X44960000Y-64970000D03*
D12*
X47500000Y-64970000D03*
X50040000Y-64970000D03*
X52580000Y-64970000D03*
X55120000Y-64970000D03*
X57660000Y-64970000D03*
D11*
X44960000Y-106880000D03*
D12*
X47500000Y-106880000D03*
X50040000Y-106880000D03*
X52580000Y-106880000D03*
X55120000Y-106880000D03*
X57660000Y-106880000D03*
D11*
X64010000Y-89100000D03*
D12*
X66550000Y-89100000D03*
X69090000Y-89100000D03*
X71630000Y-89100000D03*
X74170000Y-89100000D03*
X76710000Y-89100000D03*
D11*
X64010000Y-106880000D03*
D12*
X66550000Y-106880000D03*
X69090000Y-106880000D03*
X71630000Y-106880000D03*
X74170000Y-106880000D03*
X76710000Y-106880000D03*
D11*
X64010000Y-82750000D03*
D12*
X66550000Y-82750000D03*
X69090000Y-82750000D03*
X71630000Y-82750000D03*
X74170000Y-82750000D03*
X76710000Y-82750000D03*
D11*
X64010000Y-64970000D03*
D12*
X66550000Y-64970000D03*
X69090000Y-64970000D03*
X71630000Y-64970000D03*
X74170000Y-64970000D03*
X76710000Y-64970000D03*
D11*
X25910000Y-106880000D03*
D12*
X28450000Y-106880000D03*
X30990000Y-106880000D03*
X33530000Y-106880000D03*
X36070000Y-106880000D03*
X38610000Y-106880000D03*
D11*
X25910000Y-89100000D03*
D12*
X28450000Y-89100000D03*
X30990000Y-89100000D03*
X33530000Y-89100000D03*
X36070000Y-89100000D03*
X38610000Y-89100000D03*
D11*
X44960000Y-82750000D03*
D12*
X47500000Y-82750000D03*
X50040000Y-82750000D03*
X52580000Y-82750000D03*
X55120000Y-82750000D03*
X57660000Y-82750000D03*
D11*
X44960000Y-89100000D03*
D12*
X47500000Y-89100000D03*
X50040000Y-89100000D03*
X52580000Y-89100000D03*
X55120000Y-89100000D03*
X57660000Y-89100000D03*
D11*
X102110000Y-131010000D03*
D12*
X104650000Y-131010000D03*
X107190000Y-131010000D03*
X109730000Y-131010000D03*
X112270000Y-131010000D03*
X114810000Y-131010000D03*
D11*
X102110000Y-113230000D03*
D12*
X104650000Y-113230000D03*
X107190000Y-113230000D03*
X109730000Y-113230000D03*
X112270000Y-113230000D03*
X114810000Y-113230000D03*
D11*
X25910000Y-131010000D03*
D12*
X28450000Y-131010000D03*
X30990000Y-131010000D03*
X33530000Y-131010000D03*
X36070000Y-131010000D03*
X38610000Y-131010000D03*
D11*
X25910000Y-113230000D03*
D12*
X28450000Y-113230000D03*
X30990000Y-113230000D03*
X33530000Y-113230000D03*
X36070000Y-113230000D03*
X38610000Y-113230000D03*
D11*
X44960000Y-113230000D03*
D12*
X47500000Y-113230000D03*
X50040000Y-113230000D03*
X52580000Y-113230000D03*
X55120000Y-113230000D03*
X57660000Y-113230000D03*
D11*
X44960000Y-131010000D03*
D12*
X47500000Y-131010000D03*
X50040000Y-131010000D03*
X52580000Y-131010000D03*
X55120000Y-131010000D03*
X57660000Y-131010000D03*
D11*
X64010000Y-113230000D03*
D12*
X66550000Y-113230000D03*
X69090000Y-113230000D03*
X71630000Y-113230000D03*
X74170000Y-113230000D03*
X76710000Y-113230000D03*
D11*
X64010000Y-131010000D03*
D12*
X66550000Y-131010000D03*
X69090000Y-131010000D03*
X71630000Y-131010000D03*
X74170000Y-131010000D03*
X76710000Y-131010000D03*
D11*
X83060000Y-131010000D03*
D12*
X85600000Y-131010000D03*
X88140000Y-131010000D03*
X90680000Y-131010000D03*
X93220000Y-131010000D03*
X95760000Y-131010000D03*
D11*
X83060000Y-113230000D03*
D12*
X85600000Y-113230000D03*
X88140000Y-113230000D03*
X90680000Y-113230000D03*
X93220000Y-113230000D03*
X95760000Y-113230000D03*
D11*
X102110000Y-155140000D03*
D12*
X104650000Y-155140000D03*
X107190000Y-155140000D03*
X109730000Y-155140000D03*
X112270000Y-155140000D03*
X114810000Y-155140000D03*
D11*
X102110000Y-137360000D03*
D12*
X104650000Y-137360000D03*
X107190000Y-137360000D03*
X109730000Y-137360000D03*
X112270000Y-137360000D03*
X114810000Y-137360000D03*
D11*
X64010000Y-137360000D03*
D12*
X66550000Y-137360000D03*
X69090000Y-137360000D03*
X71630000Y-137360000D03*
X74170000Y-137360000D03*
X76710000Y-137360000D03*
D11*
X64010000Y-155140000D03*
D12*
X66550000Y-155140000D03*
X69090000Y-155140000D03*
X71630000Y-155140000D03*
X74170000Y-155140000D03*
X76710000Y-155140000D03*
D11*
X83060000Y-137360000D03*
D12*
X85600000Y-137360000D03*
X88140000Y-137360000D03*
X90680000Y-137360000D03*
X93220000Y-137360000D03*
X95760000Y-137360000D03*
D11*
X83060000Y-155140000D03*
D12*
X85600000Y-155140000D03*
X88140000Y-155140000D03*
X90680000Y-155140000D03*
X93220000Y-155140000D03*
X95760000Y-155140000D03*
D11*
X44960000Y-155140000D03*
D12*
X47500000Y-155140000D03*
X50040000Y-155140000D03*
X52580000Y-155140000D03*
X55120000Y-155140000D03*
X57660000Y-155140000D03*
D11*
X44960000Y-137360000D03*
D12*
X47500000Y-137360000D03*
X50040000Y-137360000D03*
X52580000Y-137360000D03*
X55120000Y-137360000D03*
X57660000Y-137360000D03*
D11*
X25910000Y-155140000D03*
D12*
X28450000Y-155140000D03*
X30990000Y-155140000D03*
X33530000Y-155140000D03*
X36070000Y-155140000D03*
X38610000Y-155140000D03*
D11*
X25910000Y-137360000D03*
D12*
X28450000Y-137360000D03*
X30990000Y-137360000D03*
X33530000Y-137360000D03*
X36070000Y-137360000D03*
X38610000Y-137360000D03*
D13*
X116140000Y-150735000D03*
X114990000Y-150735000D03*
X109090000Y-150735000D03*
X108090000Y-150735000D03*
X107090000Y-150735000D03*
X106090000Y-150735000D03*
X105090000Y-150735000D03*
D14*
X102090000Y-147635000D03*
X102090000Y-146635000D03*
X102090000Y-145635000D03*
X102090000Y-144635000D03*
X102090000Y-143635000D03*
X102090000Y-142635000D03*
D13*
X97090000Y-150735000D03*
X95940000Y-150735000D03*
X90040000Y-150735000D03*
X89040000Y-150735000D03*
X88040000Y-150735000D03*
X87040000Y-150735000D03*
X86040000Y-150735000D03*
D14*
X83040000Y-147635000D03*
X83040000Y-146635000D03*
X83040000Y-145635000D03*
X83040000Y-144635000D03*
X83040000Y-143635000D03*
X83040000Y-142635000D03*
D13*
X78040000Y-150735000D03*
X76890000Y-150735000D03*
X70990000Y-150735000D03*
X69990000Y-150735000D03*
X68990000Y-150735000D03*
X67990000Y-150735000D03*
X66990000Y-150735000D03*
D14*
X63990000Y-147635000D03*
X63990000Y-146635000D03*
X63990000Y-145635000D03*
X63990000Y-144635000D03*
X63990000Y-143635000D03*
X63990000Y-142635000D03*
D13*
X58990000Y-150735000D03*
X57840000Y-150735000D03*
X51940000Y-150735000D03*
X50940000Y-150735000D03*
X49940000Y-150735000D03*
X48940000Y-150735000D03*
X47940000Y-150735000D03*
D14*
X44940000Y-147635000D03*
X44940000Y-146635000D03*
X44940000Y-145635000D03*
X44940000Y-144635000D03*
X44940000Y-143635000D03*
X44940000Y-142635000D03*
D13*
X39940000Y-150735000D03*
X38790000Y-150735000D03*
X32890000Y-150735000D03*
X31890000Y-150735000D03*
X30890000Y-150735000D03*
X29890000Y-150735000D03*
X28890000Y-150735000D03*
D14*
X25890000Y-147635000D03*
X25890000Y-146635000D03*
X25890000Y-145635000D03*
X25890000Y-144635000D03*
X25890000Y-143635000D03*
X25890000Y-142635000D03*
D13*
X58990000Y-102475000D03*
X57840000Y-102475000D03*
X51940000Y-102475000D03*
X50940000Y-102475000D03*
X49940000Y-102475000D03*
X48940000Y-102475000D03*
X47940000Y-102475000D03*
D14*
X44940000Y-99375000D03*
X44940000Y-98375000D03*
X44940000Y-97375000D03*
X44940000Y-96375000D03*
X44940000Y-95375000D03*
X44940000Y-94375000D03*
D13*
X39940000Y-102475000D03*
X38790000Y-102475000D03*
X32890000Y-102475000D03*
X31890000Y-102475000D03*
X30890000Y-102475000D03*
X29890000Y-102475000D03*
X28890000Y-102475000D03*
D14*
X25890000Y-99375000D03*
X25890000Y-98375000D03*
X25890000Y-97375000D03*
X25890000Y-96375000D03*
X25890000Y-95375000D03*
X25890000Y-94375000D03*
D13*
X97090000Y-126605000D03*
X95940000Y-126605000D03*
X90040000Y-126605000D03*
X89040000Y-126605000D03*
X88040000Y-126605000D03*
X87040000Y-126605000D03*
X86040000Y-126605000D03*
D14*
X83040000Y-123505000D03*
X83040000Y-122505000D03*
X83040000Y-121505000D03*
X83040000Y-120505000D03*
X83040000Y-119505000D03*
X83040000Y-118505000D03*
D13*
X78040000Y-126605000D03*
X76890000Y-126605000D03*
X70990000Y-126605000D03*
X69990000Y-126605000D03*
X68990000Y-126605000D03*
X67990000Y-126605000D03*
X66990000Y-126605000D03*
D14*
X63990000Y-123505000D03*
X63990000Y-122505000D03*
X63990000Y-121505000D03*
X63990000Y-120505000D03*
X63990000Y-119505000D03*
X63990000Y-118505000D03*
D13*
X58990000Y-126605000D03*
X57840000Y-126605000D03*
X51940000Y-126605000D03*
X50940000Y-126605000D03*
X49940000Y-126605000D03*
X48940000Y-126605000D03*
X47940000Y-126605000D03*
D14*
X44940000Y-123505000D03*
X44940000Y-122505000D03*
X44940000Y-121505000D03*
X44940000Y-120505000D03*
X44940000Y-119505000D03*
X44940000Y-118505000D03*
D13*
X39940000Y-126605000D03*
X38790000Y-126605000D03*
X32890000Y-126605000D03*
X31890000Y-126605000D03*
X30890000Y-126605000D03*
X29890000Y-126605000D03*
X28890000Y-126605000D03*
D14*
X25890000Y-123505000D03*
X25890000Y-122505000D03*
X25890000Y-121505000D03*
X25890000Y-120505000D03*
X25890000Y-119505000D03*
X25890000Y-118505000D03*
D13*
X116140000Y-126605000D03*
X114990000Y-126605000D03*
X109090000Y-126605000D03*
X108090000Y-126605000D03*
X107090000Y-126605000D03*
X106090000Y-126605000D03*
X105090000Y-126605000D03*
D14*
X102090000Y-123505000D03*
X102090000Y-122505000D03*
X102090000Y-121505000D03*
X102090000Y-120505000D03*
X102090000Y-119505000D03*
X102090000Y-118505000D03*
D13*
X78040000Y-78345000D03*
X76890000Y-78345000D03*
X70990000Y-78345000D03*
X69990000Y-78345000D03*
X68990000Y-78345000D03*
X67990000Y-78345000D03*
X66990000Y-78345000D03*
D14*
X63990000Y-75245000D03*
X63990000Y-74245000D03*
X63990000Y-73245000D03*
X63990000Y-72245000D03*
X63990000Y-71245000D03*
X63990000Y-70245000D03*
D13*
X78040000Y-102475000D03*
X76890000Y-102475000D03*
X70990000Y-102475000D03*
X69990000Y-102475000D03*
X68990000Y-102475000D03*
X67990000Y-102475000D03*
X66990000Y-102475000D03*
D14*
X63990000Y-99375000D03*
X63990000Y-98375000D03*
X63990000Y-97375000D03*
X63990000Y-96375000D03*
X63990000Y-95375000D03*
X63990000Y-94375000D03*
D13*
X58990000Y-78345000D03*
X57840000Y-78345000D03*
X51940000Y-78345000D03*
X50940000Y-78345000D03*
X49940000Y-78345000D03*
X48940000Y-78345000D03*
X47940000Y-78345000D03*
D14*
X44940000Y-75245000D03*
X44940000Y-74245000D03*
X44940000Y-73245000D03*
X44940000Y-72245000D03*
X44940000Y-71245000D03*
X44940000Y-70245000D03*
D13*
X97090000Y-78345000D03*
X95940000Y-78345000D03*
X90040000Y-78345000D03*
X89040000Y-78345000D03*
X88040000Y-78345000D03*
X87040000Y-78345000D03*
X86040000Y-78345000D03*
D14*
X83040000Y-75245000D03*
X83040000Y-74245000D03*
X83040000Y-73245000D03*
X83040000Y-72245000D03*
X83040000Y-71245000D03*
X83040000Y-70245000D03*
D13*
X97090000Y-102475000D03*
X95940000Y-102475000D03*
X90040000Y-102475000D03*
X89040000Y-102475000D03*
X88040000Y-102475000D03*
X87040000Y-102475000D03*
X86040000Y-102475000D03*
D14*
X83040000Y-99375000D03*
X83040000Y-98375000D03*
X83040000Y-97375000D03*
X83040000Y-96375000D03*
X83040000Y-95375000D03*
X83040000Y-94375000D03*
D13*
X116140000Y-78345000D03*
X114990000Y-78345000D03*
X109090000Y-78345000D03*
X108090000Y-78345000D03*
X107090000Y-78345000D03*
X106090000Y-78345000D03*
X105090000Y-78345000D03*
D14*
X102090000Y-75245000D03*
X102090000Y-74245000D03*
X102090000Y-73245000D03*
X102090000Y-72245000D03*
X102090000Y-71245000D03*
X102090000Y-70245000D03*
D13*
X116140000Y-102475000D03*
X114990000Y-102475000D03*
X109090000Y-102475000D03*
X108090000Y-102475000D03*
X107090000Y-102475000D03*
X106090000Y-102475000D03*
X105090000Y-102475000D03*
D14*
X102090000Y-99375000D03*
X102090000Y-98375000D03*
X102090000Y-97375000D03*
X102090000Y-96375000D03*
X102090000Y-95375000D03*
X102090000Y-94375000D03*
D13*
X39940000Y-78345000D03*
X38790000Y-78345000D03*
X32890000Y-78345000D03*
X31890000Y-78345000D03*
X30890000Y-78345000D03*
X29890000Y-78345000D03*
X28890000Y-78345000D03*
D14*
X25890000Y-75245000D03*
X25890000Y-74245000D03*
X25890000Y-73245000D03*
X25890000Y-72245000D03*
X25890000Y-71245000D03*
X25890000Y-70245000D03*
M02*
