M48
;DRILL file {KiCad 4.1.0-alpha+201608131231+7028~46~ubuntu16.04.1-product} date Sat Aug 27 16:11:31 2016
;FORMAT={-:-/ absolute / metric / decimal}
FMAT,2
METRIC,TZ
T1C0.300
T2C1.016
T3C0.300
%
G90
G05
M71
T1
X37.955Y-68.82
X37.955Y-70.09
X37.955Y-71.36
X37.955Y-72.63
X37.955Y-73.9
X37.955Y-75.17
X37.955Y-76.44
X37.955Y-77.71
X37.955Y-92.95
X37.955Y-94.22
X37.955Y-95.49
X37.955Y-96.76
X37.955Y-98.03
X37.955Y-99.3
X37.955Y-100.57
X37.955Y-101.84
X37.955Y-117.08
X37.955Y-118.35
X37.955Y-119.62
X37.955Y-120.89
X37.955Y-122.16
X37.955Y-123.43
X37.955Y-124.7
X37.955Y-125.97
X37.955Y-141.21
X37.955Y-142.48
X37.955Y-143.75
X37.955Y-145.02
X37.955Y-146.29
X37.955Y-147.56
X37.955Y-148.83
X37.955Y-150.1
X38.59Y-68.185
X38.59Y-69.455
X38.59Y-70.725
X38.59Y-71.995
X38.59Y-73.265
X38.59Y-74.535
X38.59Y-75.805
X38.59Y-77.075
X38.59Y-92.315
X38.59Y-93.585
X38.59Y-94.855
X38.59Y-96.125
X38.59Y-97.395
X38.59Y-98.665
X38.59Y-99.935
X38.59Y-101.205
X38.59Y-116.445
X38.59Y-117.715
X38.59Y-118.985
X38.59Y-120.255
X38.59Y-121.525
X38.59Y-122.795
X38.59Y-124.065
X38.59Y-125.335
X38.59Y-140.575
X38.59Y-141.845
X38.59Y-143.115
X38.59Y-144.385
X38.59Y-145.655
X38.59Y-146.925
X38.59Y-148.195
X38.59Y-149.465
X39.225Y-68.82
X39.225Y-79.615
X39.225Y-92.95
X39.225Y-103.745
X39.225Y-117.08
X39.225Y-127.875
X39.225Y-141.21
X39.225Y-152.005
X39.86Y-68.185
X39.86Y-92.315
X39.86Y-116.445
X39.86Y-140.575
X57.005Y-68.82
X57.005Y-70.09
X57.005Y-71.36
X57.005Y-72.63
X57.005Y-73.9
X57.005Y-75.17
X57.005Y-76.44
X57.005Y-77.71
X57.005Y-92.95
X57.005Y-94.22
X57.005Y-95.49
X57.005Y-96.76
X57.005Y-98.03
X57.005Y-99.3
X57.005Y-100.57
X57.005Y-101.84
X57.005Y-117.08
X57.005Y-118.35
X57.005Y-119.62
X57.005Y-120.89
X57.005Y-122.16
X57.005Y-123.43
X57.005Y-124.7
X57.005Y-125.97
X57.005Y-141.21
X57.005Y-142.48
X57.005Y-143.75
X57.005Y-145.02
X57.005Y-146.29
X57.005Y-147.56
X57.005Y-148.83
X57.005Y-150.1
X57.64Y-68.185
X57.64Y-69.455
X57.64Y-70.725
X57.64Y-71.995
X57.64Y-73.265
X57.64Y-74.535
X57.64Y-75.805
X57.64Y-77.075
X57.64Y-92.315
X57.64Y-93.585
X57.64Y-94.855
X57.64Y-96.125
X57.64Y-97.395
X57.64Y-98.665
X57.64Y-99.935
X57.64Y-101.205
X57.64Y-116.445
X57.64Y-117.715
X57.64Y-118.985
X57.64Y-120.255
X57.64Y-121.525
X57.64Y-122.795
X57.64Y-124.065
X57.64Y-125.335
X57.64Y-140.575
X57.64Y-141.845
X57.64Y-143.115
X57.64Y-144.385
X57.64Y-145.655
X57.64Y-146.925
X57.64Y-148.195
X57.64Y-149.465
X58.275Y-68.82
X58.275Y-79.615
X58.275Y-92.95
X58.275Y-103.745
X58.275Y-117.08
X58.275Y-127.875
X58.275Y-141.21
X58.275Y-152.005
X58.91Y-68.185
X58.91Y-92.315
X58.91Y-116.445
X58.91Y-140.575
X76.055Y-68.82
X76.055Y-70.09
X76.055Y-71.36
X76.055Y-72.63
X76.055Y-73.9
X76.055Y-75.17
X76.055Y-76.44
X76.055Y-77.71
X76.055Y-92.95
X76.055Y-94.22
X76.055Y-95.49
X76.055Y-96.76
X76.055Y-98.03
X76.055Y-99.3
X76.055Y-100.57
X76.055Y-101.84
X76.055Y-117.08
X76.055Y-118.35
X76.055Y-119.62
X76.055Y-120.89
X76.055Y-122.16
X76.055Y-123.43
X76.055Y-124.7
X76.055Y-125.97
X76.055Y-141.21
X76.055Y-142.48
X76.055Y-143.75
X76.055Y-145.02
X76.055Y-146.29
X76.055Y-147.56
X76.055Y-148.83
X76.055Y-150.1
X76.69Y-68.185
X76.69Y-69.455
X76.69Y-70.725
X76.69Y-71.995
X76.69Y-73.265
X76.69Y-74.535
X76.69Y-75.805
X76.69Y-77.075
X76.69Y-92.315
X76.69Y-93.585
X76.69Y-94.855
X76.69Y-96.125
X76.69Y-97.395
X76.69Y-98.665
X76.69Y-99.935
X76.69Y-101.205
X76.69Y-116.445
X76.69Y-117.715
X76.69Y-118.985
X76.69Y-120.255
X76.69Y-121.525
X76.69Y-122.795
X76.69Y-124.065
X76.69Y-125.335
X76.69Y-140.575
X76.69Y-141.845
X76.69Y-143.115
X76.69Y-144.385
X76.69Y-145.655
X76.69Y-146.925
X76.69Y-148.195
X76.69Y-149.465
X77.325Y-68.82
X77.325Y-79.615
X77.325Y-92.95
X77.325Y-103.745
X77.325Y-117.08
X77.325Y-127.875
X77.325Y-141.21
X77.325Y-152.005
X77.96Y-68.185
X77.96Y-92.315
X77.96Y-116.445
X77.96Y-140.575
X95.105Y-68.82
X95.105Y-70.09
X95.105Y-71.36
X95.105Y-72.63
X95.105Y-73.9
X95.105Y-75.17
X95.105Y-76.44
X95.105Y-77.71
X95.105Y-92.95
X95.105Y-94.22
X95.105Y-95.49
X95.105Y-96.76
X95.105Y-98.03
X95.105Y-99.3
X95.105Y-100.57
X95.105Y-101.84
X95.105Y-117.08
X95.105Y-118.35
X95.105Y-119.62
X95.105Y-120.89
X95.105Y-122.16
X95.105Y-123.43
X95.105Y-124.7
X95.105Y-125.97
X95.105Y-141.21
X95.105Y-142.48
X95.105Y-143.75
X95.105Y-145.02
X95.105Y-146.29
X95.105Y-147.56
X95.105Y-148.83
X95.105Y-150.1
X95.74Y-68.185
X95.74Y-69.455
X95.74Y-70.725
X95.74Y-71.995
X95.74Y-73.265
X95.74Y-74.535
X95.74Y-75.805
X95.74Y-77.075
X95.74Y-92.315
X95.74Y-93.585
X95.74Y-94.855
X95.74Y-96.125
X95.74Y-97.395
X95.74Y-98.665
X95.74Y-99.935
X95.74Y-101.205
X95.74Y-116.445
X95.74Y-117.715
X95.74Y-118.985
X95.74Y-120.255
X95.74Y-121.525
X95.74Y-122.795
X95.74Y-124.065
X95.74Y-125.335
X95.74Y-140.575
X95.74Y-141.845
X95.74Y-143.115
X95.74Y-144.385
X95.74Y-145.655
X95.74Y-146.925
X95.74Y-148.195
X95.74Y-149.465
X96.375Y-68.82
X96.375Y-79.615
X96.375Y-92.95
X96.375Y-103.745
X96.375Y-117.08
X96.375Y-127.875
X96.375Y-141.21
X96.375Y-152.005
X97.01Y-68.185
X97.01Y-92.315
X97.01Y-116.445
X97.01Y-140.575
X114.155Y-68.82
X114.155Y-70.09
X114.155Y-71.36
X114.155Y-72.63
X114.155Y-73.9
X114.155Y-75.17
X114.155Y-76.44
X114.155Y-77.71
X114.155Y-92.95
X114.155Y-94.22
X114.155Y-95.49
X114.155Y-96.76
X114.155Y-98.03
X114.155Y-99.3
X114.155Y-100.57
X114.155Y-101.84
X114.155Y-117.08
X114.155Y-118.35
X114.155Y-119.62
X114.155Y-120.89
X114.155Y-122.16
X114.155Y-123.43
X114.155Y-124.7
X114.155Y-125.97
X114.155Y-141.21
X114.155Y-142.48
X114.155Y-143.75
X114.155Y-145.02
X114.155Y-146.29
X114.155Y-147.56
X114.155Y-148.83
X114.155Y-150.1
X114.79Y-68.185
X114.79Y-69.455
X114.79Y-70.725
X114.79Y-71.995
X114.79Y-73.265
X114.79Y-74.535
X114.79Y-75.805
X114.79Y-77.075
X114.79Y-92.315
X114.79Y-93.585
X114.79Y-94.855
X114.79Y-96.125
X114.79Y-97.395
X114.79Y-98.665
X114.79Y-99.935
X114.79Y-101.205
X114.79Y-116.445
X114.79Y-117.715
X114.79Y-118.985
X114.79Y-120.255
X114.79Y-121.525
X114.79Y-122.795
X114.79Y-124.065
X114.79Y-125.335
X114.79Y-140.575
X114.79Y-141.845
X114.79Y-143.115
X114.79Y-144.385
X114.79Y-145.655
X114.79Y-146.925
X114.79Y-148.195
X114.79Y-149.465
X115.425Y-68.82
X115.425Y-79.615
X115.425Y-92.95
X115.425Y-103.745
X115.425Y-117.08
X115.425Y-127.875
X115.425Y-141.21
X115.425Y-152.005
X116.06Y-68.185
X116.06Y-92.315
X116.06Y-116.445
X116.06Y-140.575
T2
X25.91Y-64.97
X25.91Y-82.75
X25.91Y-89.1
X25.91Y-106.88
X25.91Y-113.23
X25.91Y-131.01
X25.91Y-137.36
X25.91Y-155.14
X28.45Y-64.97
X28.45Y-82.75
X28.45Y-89.1
X28.45Y-106.88
X28.45Y-113.23
X28.45Y-131.01
X28.45Y-137.36
X28.45Y-155.14
X30.99Y-64.97
X30.99Y-82.75
X30.99Y-89.1
X30.99Y-106.88
X30.99Y-113.23
X30.99Y-131.01
X30.99Y-137.36
X30.99Y-155.14
X33.53Y-64.97
X33.53Y-82.75
X33.53Y-89.1
X33.53Y-106.88
X33.53Y-113.23
X33.53Y-131.01
X33.53Y-137.36
X33.53Y-155.14
X36.07Y-64.97
X36.07Y-82.75
X36.07Y-89.1
X36.07Y-106.88
X36.07Y-113.23
X36.07Y-131.01
X36.07Y-137.36
X36.07Y-155.14
X38.61Y-64.97
X38.61Y-82.75
X38.61Y-89.1
X38.61Y-106.88
X38.61Y-113.23
X38.61Y-131.01
X38.61Y-137.36
X38.61Y-155.14
X44.96Y-64.97
X44.96Y-82.75
X44.96Y-89.1
X44.96Y-106.88
X44.96Y-113.23
X44.96Y-131.01
X44.96Y-137.36
X44.96Y-155.14
X47.5Y-64.97
X47.5Y-82.75
X47.5Y-89.1
X47.5Y-106.88
X47.5Y-113.23
X47.5Y-131.01
X47.5Y-137.36
X47.5Y-155.14
X50.04Y-64.97
X50.04Y-82.75
X50.04Y-89.1
X50.04Y-106.88
X50.04Y-113.23
X50.04Y-131.01
X50.04Y-137.36
X50.04Y-155.14
X52.58Y-64.97
X52.58Y-82.75
X52.58Y-89.1
X52.58Y-106.88
X52.58Y-113.23
X52.58Y-131.01
X52.58Y-137.36
X52.58Y-155.14
X55.12Y-64.97
X55.12Y-82.75
X55.12Y-89.1
X55.12Y-106.88
X55.12Y-113.23
X55.12Y-131.01
X55.12Y-137.36
X55.12Y-155.14
X57.66Y-64.97
X57.66Y-82.75
X57.66Y-89.1
X57.66Y-106.88
X57.66Y-113.23
X57.66Y-131.01
X57.66Y-137.36
X57.66Y-155.14
X64.01Y-64.97
X64.01Y-82.75
X64.01Y-89.1
X64.01Y-106.88
X64.01Y-113.23
X64.01Y-131.01
X64.01Y-137.36
X64.01Y-155.14
X66.55Y-64.97
X66.55Y-82.75
X66.55Y-89.1
X66.55Y-106.88
X66.55Y-113.23
X66.55Y-131.01
X66.55Y-137.36
X66.55Y-155.14
X69.09Y-64.97
X69.09Y-82.75
X69.09Y-89.1
X69.09Y-106.88
X69.09Y-113.23
X69.09Y-131.01
X69.09Y-137.36
X69.09Y-155.14
X71.63Y-64.97
X71.63Y-82.75
X71.63Y-89.1
X71.63Y-106.88
X71.63Y-113.23
X71.63Y-131.01
X71.63Y-137.36
X71.63Y-155.14
X74.17Y-64.97
X74.17Y-82.75
X74.17Y-89.1
X74.17Y-106.88
X74.17Y-113.23
X74.17Y-131.01
X74.17Y-137.36
X74.17Y-155.14
X76.71Y-64.97
X76.71Y-82.75
X76.71Y-89.1
X76.71Y-106.88
X76.71Y-113.23
X76.71Y-131.01
X76.71Y-137.36
X76.71Y-155.14
X83.06Y-64.97
X83.06Y-82.75
X83.06Y-89.1
X83.06Y-106.88
X83.06Y-113.23
X83.06Y-131.01
X83.06Y-137.36
X83.06Y-155.14
X85.6Y-64.97
X85.6Y-82.75
X85.6Y-89.1
X85.6Y-106.88
X85.6Y-113.23
X85.6Y-131.01
X85.6Y-137.36
X85.6Y-155.14
X88.14Y-64.97
X88.14Y-82.75
X88.14Y-89.1
X88.14Y-106.88
X88.14Y-113.23
X88.14Y-131.01
X88.14Y-137.36
X88.14Y-155.14
X90.68Y-64.97
X90.68Y-82.75
X90.68Y-89.1
X90.68Y-106.88
X90.68Y-113.23
X90.68Y-131.01
X90.68Y-137.36
X90.68Y-155.14
X93.22Y-64.97
X93.22Y-82.75
X93.22Y-89.1
X93.22Y-106.88
X93.22Y-113.23
X93.22Y-131.01
X93.22Y-137.36
X93.22Y-155.14
X95.76Y-64.97
X95.76Y-82.75
X95.76Y-89.1
X95.76Y-106.88
X95.76Y-113.23
X95.76Y-131.01
X95.76Y-137.36
X95.76Y-155.14
X102.11Y-64.97
X102.11Y-82.75
X102.11Y-89.1
X102.11Y-106.88
X102.11Y-113.23
X102.11Y-131.01
X102.11Y-137.36
X102.11Y-155.14
X104.65Y-64.97
X104.65Y-82.75
X104.65Y-89.1
X104.65Y-106.88
X104.65Y-113.23
X104.65Y-131.01
X104.65Y-137.36
X104.65Y-155.14
X107.19Y-64.97
X107.19Y-82.75
X107.19Y-89.1
X107.19Y-106.88
X107.19Y-113.23
X107.19Y-131.01
X107.19Y-137.36
X107.19Y-155.14
X109.73Y-64.97
X109.73Y-82.75
X109.73Y-89.1
X109.73Y-106.88
X109.73Y-113.23
X109.73Y-131.01
X109.73Y-137.36
X109.73Y-155.14
X112.27Y-64.97
X112.27Y-82.75
X112.27Y-89.1
X112.27Y-106.88
X112.27Y-113.23
X112.27Y-131.01
X112.27Y-137.36
X112.27Y-155.14
X114.81Y-64.97
X114.81Y-82.75
X114.81Y-89.1
X114.81Y-106.88
X114.81Y-113.23
X114.81Y-131.01
X114.81Y-137.36
X114.81Y-155.14
T3
X23.35Y-72.86
X23.35Y-73.36
X23.35Y-73.86
X23.35Y-74.36
X23.35Y-74.86
X23.35Y-96.99
X23.35Y-97.49
X23.35Y-97.99
X23.35Y-98.49
X23.35Y-98.99
X23.35Y-121.12
X23.35Y-121.62
X23.35Y-122.12
X23.35Y-122.62
X23.35Y-123.12
X23.35Y-145.25
X23.35Y-145.75
X23.35Y-146.25
X23.35Y-146.75
X23.35Y-147.25
X31.24Y-62.47
X31.24Y-86.6
X31.24Y-110.73
X31.24Y-134.86
X31.26Y-85.33
X31.26Y-109.46
X31.26Y-133.59
X31.26Y-157.72
X31.74Y-62.47
X31.74Y-86.6
X31.74Y-110.73
X31.74Y-134.86
X31.76Y-85.33
X31.76Y-109.46
X31.76Y-133.59
X31.76Y-157.72
X32.24Y-62.47
X32.24Y-86.6
X32.24Y-110.73
X32.24Y-134.86
X32.26Y-85.33
X32.26Y-109.46
X32.26Y-133.59
X32.26Y-157.72
X32.74Y-62.47
X32.74Y-86.6
X32.74Y-110.73
X32.74Y-134.86
X32.76Y-85.33
X32.76Y-109.46
X32.76Y-133.59
X32.76Y-157.72
X33.24Y-62.47
X33.24Y-86.6
X33.24Y-110.73
X33.24Y-134.86
X33.26Y-85.33
X33.26Y-109.46
X33.26Y-133.59
X33.26Y-157.72
X41.13Y-72.86
X41.13Y-73.36
X41.13Y-73.86
X41.13Y-74.36
X41.13Y-74.86
X41.13Y-96.99
X41.13Y-97.49
X41.13Y-97.99
X41.13Y-98.49
X41.13Y-98.99
X41.13Y-121.12
X41.13Y-121.62
X41.13Y-122.12
X41.13Y-122.62
X41.13Y-123.12
X41.13Y-145.25
X41.13Y-145.75
X41.13Y-146.25
X41.13Y-146.75
X41.13Y-147.25
X42.4Y-72.86
X42.4Y-73.36
X42.4Y-73.86
X42.4Y-74.36
X42.4Y-74.86
X42.4Y-96.99
X42.4Y-97.49
X42.4Y-97.99
X42.4Y-98.49
X42.4Y-98.99
X42.4Y-121.12
X42.4Y-121.62
X42.4Y-122.12
X42.4Y-122.62
X42.4Y-123.12
X42.4Y-145.25
X42.4Y-145.75
X42.4Y-146.25
X42.4Y-146.75
X42.4Y-147.25
X50.29Y-62.47
X50.29Y-86.6
X50.29Y-110.73
X50.29Y-134.86
X50.31Y-85.33
X50.31Y-109.46
X50.31Y-133.59
X50.31Y-157.72
X50.79Y-62.47
X50.79Y-86.6
X50.79Y-110.73
X50.79Y-134.86
X50.81Y-85.33
X50.81Y-109.46
X50.81Y-133.59
X50.81Y-157.72
X51.29Y-62.47
X51.29Y-86.6
X51.29Y-110.73
X51.29Y-134.86
X51.31Y-85.33
X51.31Y-109.46
X51.31Y-133.59
X51.31Y-157.72
X51.79Y-62.47
X51.79Y-86.6
X51.79Y-110.73
X51.79Y-134.86
X51.81Y-85.33
X51.81Y-109.46
X51.81Y-133.59
X51.81Y-157.72
X52.29Y-62.47
X52.29Y-86.6
X52.29Y-110.73
X52.29Y-134.86
X52.31Y-85.33
X52.31Y-109.46
X52.31Y-133.59
X52.31Y-157.72
X60.18Y-72.86
X60.18Y-73.36
X60.18Y-73.86
X60.18Y-74.36
X60.18Y-74.86
X60.18Y-96.99
X60.18Y-97.49
X60.18Y-97.99
X60.18Y-98.49
X60.18Y-98.99
X60.18Y-121.12
X60.18Y-121.62
X60.18Y-122.12
X60.18Y-122.62
X60.18Y-123.12
X60.18Y-145.25
X60.18Y-145.75
X60.18Y-146.25
X60.18Y-146.75
X60.18Y-147.25
X61.45Y-72.86
X61.45Y-73.36
X61.45Y-73.86
X61.45Y-74.36
X61.45Y-74.86
X61.45Y-96.99
X61.45Y-97.49
X61.45Y-97.99
X61.45Y-98.49
X61.45Y-98.99
X61.45Y-121.12
X61.45Y-121.62
X61.45Y-122.12
X61.45Y-122.62
X61.45Y-123.12
X61.45Y-145.25
X61.45Y-145.75
X61.45Y-146.25
X61.45Y-146.75
X61.45Y-147.25
X69.34Y-62.47
X69.34Y-86.6
X69.34Y-110.73
X69.34Y-134.86
X69.36Y-85.33
X69.36Y-109.46
X69.36Y-133.59
X69.36Y-157.72
X69.84Y-62.47
X69.84Y-86.6
X69.84Y-110.73
X69.84Y-134.86
X69.86Y-85.33
X69.86Y-109.46
X69.86Y-133.59
X69.86Y-157.72
X70.34Y-62.47
X70.34Y-86.6
X70.34Y-110.73
X70.34Y-134.86
X70.36Y-85.33
X70.36Y-109.46
X70.36Y-133.59
X70.36Y-157.72
X70.84Y-62.47
X70.84Y-86.6
X70.84Y-110.73
X70.84Y-134.86
X70.86Y-85.33
X70.86Y-109.46
X70.86Y-133.59
X70.86Y-157.72
X71.34Y-62.47
X71.34Y-86.6
X71.34Y-110.73
X71.34Y-134.86
X71.36Y-85.33
X71.36Y-109.46
X71.36Y-133.59
X71.36Y-157.72
X79.23Y-72.86
X79.23Y-73.36
X79.23Y-73.86
X79.23Y-74.36
X79.23Y-74.86
X79.23Y-96.99
X79.23Y-97.49
X79.23Y-97.99
X79.23Y-98.49
X79.23Y-98.99
X79.23Y-121.12
X79.23Y-121.62
X79.23Y-122.12
X79.23Y-122.62
X79.23Y-123.12
X79.23Y-145.25
X79.23Y-145.75
X79.23Y-146.25
X79.23Y-146.75
X79.23Y-147.25
X80.5Y-72.86
X80.5Y-73.36
X80.5Y-73.86
X80.5Y-74.36
X80.5Y-74.86
X80.5Y-96.99
X80.5Y-97.49
X80.5Y-97.99
X80.5Y-98.49
X80.5Y-98.99
X80.5Y-121.12
X80.5Y-121.62
X80.5Y-122.12
X80.5Y-122.62
X80.5Y-123.12
X80.5Y-145.25
X80.5Y-145.75
X80.5Y-146.25
X80.5Y-146.75
X80.5Y-147.25
X88.39Y-62.47
X88.39Y-86.6
X88.39Y-110.73
X88.39Y-134.86
X88.41Y-85.33
X88.41Y-109.46
X88.41Y-133.59
X88.41Y-157.72
X88.89Y-62.47
X88.89Y-86.6
X88.89Y-110.73
X88.89Y-134.86
X88.91Y-85.33
X88.91Y-109.46
X88.91Y-133.59
X88.91Y-157.72
X89.39Y-62.47
X89.39Y-86.6
X89.39Y-110.73
X89.39Y-134.86
X89.41Y-85.33
X89.41Y-109.46
X89.41Y-133.59
X89.41Y-157.72
X89.89Y-62.47
X89.89Y-86.6
X89.89Y-110.73
X89.89Y-134.86
X89.91Y-85.33
X89.91Y-109.46
X89.91Y-133.59
X89.91Y-157.72
X90.39Y-62.47
X90.39Y-86.6
X90.39Y-110.73
X90.39Y-134.86
X90.41Y-85.33
X90.41Y-109.46
X90.41Y-133.59
X90.41Y-157.72
X98.28Y-72.86
X98.28Y-73.36
X98.28Y-73.86
X98.28Y-74.36
X98.28Y-74.86
X98.28Y-96.99
X98.28Y-97.49
X98.28Y-97.99
X98.28Y-98.49
X98.28Y-98.99
X98.28Y-121.12
X98.28Y-121.62
X98.28Y-122.12
X98.28Y-122.62
X98.28Y-123.12
X98.28Y-145.25
X98.28Y-145.75
X98.28Y-146.25
X98.28Y-146.75
X98.28Y-147.25
X99.55Y-72.86
X99.55Y-73.36
X99.55Y-73.86
X99.55Y-74.36
X99.55Y-74.86
X99.55Y-96.99
X99.55Y-97.49
X99.55Y-97.99
X99.55Y-98.49
X99.55Y-98.99
X99.55Y-121.12
X99.55Y-121.62
X99.55Y-122.12
X99.55Y-122.62
X99.55Y-123.12
X99.55Y-145.25
X99.55Y-145.75
X99.55Y-146.25
X99.55Y-146.75
X99.55Y-147.25
X107.44Y-62.47
X107.44Y-86.6
X107.44Y-110.73
X107.44Y-134.86
X107.46Y-85.33
X107.46Y-109.46
X107.46Y-133.59
X107.46Y-157.72
X107.94Y-62.47
X107.94Y-86.6
X107.94Y-110.73
X107.94Y-134.86
X107.96Y-85.33
X107.96Y-109.46
X107.96Y-133.59
X107.96Y-157.72
X108.44Y-62.47
X108.44Y-86.6
X108.44Y-110.73
X108.44Y-134.86
X108.46Y-85.33
X108.46Y-109.46
X108.46Y-133.59
X108.46Y-157.72
X108.94Y-62.47
X108.94Y-86.6
X108.94Y-110.73
X108.94Y-134.86
X108.96Y-85.33
X108.96Y-109.46
X108.96Y-133.59
X108.96Y-157.72
X109.44Y-62.47
X109.44Y-86.6
X109.44Y-110.73
X109.44Y-134.86
X109.46Y-85.33
X109.46Y-109.46
X109.46Y-133.59
X109.46Y-157.72
X117.33Y-72.86
X117.33Y-73.36
X117.33Y-73.86
X117.33Y-74.36
X117.33Y-74.86
X117.33Y-96.99
X117.33Y-97.49
X117.33Y-97.99
X117.33Y-98.49
X117.33Y-98.99
X117.33Y-121.12
X117.33Y-121.62
X117.33Y-122.12
X117.33Y-122.62
X117.33Y-123.12
X117.33Y-145.25
X117.33Y-145.75
X117.33Y-146.25
X117.33Y-146.75
X117.33Y-147.25
T0
M30
