M48
;DRILL file {KiCad 4.1.0-alpha+201607130321+6976~46~ubuntu16.04.1-product} date Sun Jul 24 19:45:21 2016
;FORMAT={-:-/ absolute / metric / decimal}
FMAT,2
METRIC,TZ
T1C0.400
T2C1.016
T3C0.300
%
G90
G05
M71
T1
X67.38Y-77.665
X67.38Y-103.7
X67.38Y-128.065
X67.38Y-154.1
X117.58Y-77.665
X117.58Y-103.7
X117.58Y-128.065
X117.58Y-154.1
T2
X71.18Y-112.6
X71.18Y-163.
X73.72Y-112.6
X73.72Y-163.
X76.26Y-112.6
X76.26Y-163.
X78.8Y-112.6
X78.8Y-163.
X121.38Y-112.6
X121.38Y-163.
X123.92Y-112.6
X123.92Y-163.
X126.46Y-112.6
X126.46Y-163.
X129.Y-112.6
X129.Y-163.
T3
X51.6Y-91.4
X51.6Y-91.7
X51.6Y-92.
X51.6Y-92.3
X51.6Y-92.6
X51.6Y-141.8
X51.6Y-142.1
X51.6Y-142.4
X51.6Y-142.7
X51.6Y-143.
X73.4Y-67.6
X73.4Y-118.
X73.7Y-67.6
X73.7Y-118.
X74.Y-67.6
X74.Y-118.
X74.3Y-67.6
X74.3Y-118.
X74.6Y-67.6
X74.6Y-118.
X75.4Y-114.4
X75.4Y-164.8
X75.7Y-114.4
X75.7Y-164.8
X76.Y-114.4
X76.Y-164.8
X76.3Y-114.4
X76.3Y-164.8
X76.6Y-114.4
X76.6Y-164.8
X98.4Y-89.4
X98.4Y-89.7
X98.4Y-90.
X98.4Y-90.3
X98.4Y-90.6
X98.4Y-139.8
X98.4Y-140.1
X98.4Y-140.4
X98.4Y-140.7
X98.4Y-141.
X101.8Y-91.4
X101.8Y-91.7
X101.8Y-92.
X101.8Y-92.3
X101.8Y-92.6
X101.8Y-141.8
X101.8Y-142.1
X101.8Y-142.4
X101.8Y-142.7
X101.8Y-143.
X123.6Y-67.6
X123.6Y-118.
X123.9Y-67.6
X123.9Y-118.
X124.2Y-67.6
X124.2Y-118.
X124.5Y-67.6
X124.5Y-118.
X124.8Y-67.6
X124.8Y-118.
X125.6Y-114.4
X125.6Y-164.8
X125.9Y-114.4
X125.9Y-164.8
X126.2Y-114.4
X126.2Y-164.8
X126.5Y-114.4
X126.5Y-164.8
X126.8Y-114.4
X126.8Y-164.8
X148.6Y-89.4
X148.6Y-89.7
X148.6Y-90.
X148.6Y-90.3
X148.6Y-90.6
X148.6Y-139.8
X148.6Y-140.1
X148.6Y-140.4
X148.6Y-140.7
X148.6Y-141.
T0
M30
