G04 #@! TF.FileFunction,Soldermask,Top*
%FSLAX46Y46*%
G04 Gerber Fmt 4.6, Leading zero omitted, Abs format (unit mm)*
G04 Created by KiCad (PCBNEW 4.1.0-alpha+201607130321+6976~46~ubuntu16.04.1-product) date Sun Jul 24 19:45:18 2016*
%MOMM*%
%LPD*%
G01*
G04 APERTURE LIST*
%ADD10C,0.100000*%
%ADD11R,0.900000X1.400000*%
%ADD12R,1.400000X0.900000*%
%ADD13R,2.127200X2.432000*%
%ADD14O,2.127200X2.432000*%
%ADD15R,2.400000X2.900000*%
%ADD16R,2.900000X2.400000*%
%ADD17C,0.700000*%
G04 APERTURE END LIST*
D10*
D11*
X142900000Y-95400000D03*
X144050000Y-95400000D03*
X137000000Y-95400000D03*
X136000000Y-95400000D03*
X135000000Y-95400000D03*
X134000000Y-95400000D03*
X133000000Y-95400000D03*
D12*
X130000000Y-92300000D03*
X130000000Y-91300000D03*
X130000000Y-90300000D03*
X130000000Y-89300000D03*
X130000000Y-88300000D03*
X130000000Y-87300000D03*
D13*
X129000000Y-112600000D03*
D14*
X126460000Y-112600000D03*
X123920000Y-112600000D03*
X121380000Y-112600000D03*
D15*
X125200000Y-95275000D03*
X125200000Y-86725000D03*
D16*
X134325000Y-101200000D03*
X142875000Y-101200000D03*
D17*
X148600000Y-89400000D03*
X148600000Y-90600000D03*
X148600000Y-90300000D03*
X148600000Y-90000000D03*
X148600000Y-89700000D03*
X123600000Y-67600000D03*
X124800000Y-67600000D03*
X124500000Y-67600000D03*
X124200000Y-67600000D03*
X123900000Y-67600000D03*
X101800000Y-91400000D03*
X101800000Y-92600000D03*
X101800000Y-92300000D03*
X101800000Y-92000000D03*
X101800000Y-91700000D03*
X126800000Y-114400000D03*
X125600000Y-114400000D03*
X125900000Y-114400000D03*
X126200000Y-114400000D03*
X126500000Y-114400000D03*
X76600000Y-114400000D03*
X75400000Y-114400000D03*
X75700000Y-114400000D03*
X76000000Y-114400000D03*
X76300000Y-114400000D03*
X51600000Y-91400000D03*
X51600000Y-92600000D03*
X51600000Y-92300000D03*
X51600000Y-92000000D03*
X51600000Y-91700000D03*
X73400000Y-67600000D03*
X74600000Y-67600000D03*
X74300000Y-67600000D03*
X74000000Y-67600000D03*
X73700000Y-67600000D03*
X98400000Y-89400000D03*
X98400000Y-90600000D03*
X98400000Y-90300000D03*
X98400000Y-90000000D03*
X98400000Y-89700000D03*
D16*
X84125000Y-101200000D03*
X92675000Y-101200000D03*
D15*
X75000000Y-95275000D03*
X75000000Y-86725000D03*
D13*
X78800000Y-112600000D03*
D14*
X76260000Y-112600000D03*
X73720000Y-112600000D03*
X71180000Y-112600000D03*
D11*
X92700000Y-95400000D03*
X93850000Y-95400000D03*
X86800000Y-95400000D03*
X85800000Y-95400000D03*
X84800000Y-95400000D03*
X83800000Y-95400000D03*
X82800000Y-95400000D03*
D12*
X79800000Y-92300000D03*
X79800000Y-91300000D03*
X79800000Y-90300000D03*
X79800000Y-89300000D03*
X79800000Y-88300000D03*
X79800000Y-87300000D03*
D17*
X126800000Y-164800000D03*
X125600000Y-164800000D03*
X125900000Y-164800000D03*
X126200000Y-164800000D03*
X126500000Y-164800000D03*
X101800000Y-141800000D03*
X101800000Y-143000000D03*
X101800000Y-142700000D03*
X101800000Y-142400000D03*
X101800000Y-142100000D03*
X123600000Y-118000000D03*
X124800000Y-118000000D03*
X124500000Y-118000000D03*
X124200000Y-118000000D03*
X123900000Y-118000000D03*
X148600000Y-139800000D03*
X148600000Y-141000000D03*
X148600000Y-140700000D03*
X148600000Y-140400000D03*
X148600000Y-140100000D03*
D16*
X134325000Y-151600000D03*
X142875000Y-151600000D03*
D15*
X125200000Y-145675000D03*
X125200000Y-137125000D03*
D13*
X129000000Y-163000000D03*
D14*
X126460000Y-163000000D03*
X123920000Y-163000000D03*
X121380000Y-163000000D03*
D11*
X142900000Y-145800000D03*
X144050000Y-145800000D03*
X137000000Y-145800000D03*
X136000000Y-145800000D03*
X135000000Y-145800000D03*
X134000000Y-145800000D03*
X133000000Y-145800000D03*
D12*
X130000000Y-142700000D03*
X130000000Y-141700000D03*
X130000000Y-140700000D03*
X130000000Y-139700000D03*
X130000000Y-138700000D03*
X130000000Y-137700000D03*
D11*
X92700000Y-145800000D03*
X93850000Y-145800000D03*
X86800000Y-145800000D03*
X85800000Y-145800000D03*
X84800000Y-145800000D03*
X83800000Y-145800000D03*
X82800000Y-145800000D03*
D12*
X79800000Y-142700000D03*
X79800000Y-141700000D03*
X79800000Y-140700000D03*
X79800000Y-139700000D03*
X79800000Y-138700000D03*
X79800000Y-137700000D03*
D13*
X78800000Y-163000000D03*
D14*
X76260000Y-163000000D03*
X73720000Y-163000000D03*
X71180000Y-163000000D03*
D15*
X75000000Y-145675000D03*
X75000000Y-137125000D03*
D16*
X84125000Y-151600000D03*
X92675000Y-151600000D03*
D17*
X98400000Y-139800000D03*
X98400000Y-141000000D03*
X98400000Y-140700000D03*
X98400000Y-140400000D03*
X98400000Y-140100000D03*
X73400000Y-118000000D03*
X74600000Y-118000000D03*
X74300000Y-118000000D03*
X74000000Y-118000000D03*
X73700000Y-118000000D03*
X51600000Y-141800000D03*
X51600000Y-143000000D03*
X51600000Y-142700000D03*
X51600000Y-142400000D03*
X51600000Y-142100000D03*
X76600000Y-164800000D03*
X75400000Y-164800000D03*
X75700000Y-164800000D03*
X76000000Y-164800000D03*
X76300000Y-164800000D03*
M02*
