G04 #@! TF.FileFunction,Copper,L2,Bot,Signal*
%FSLAX46Y46*%
G04 Gerber Fmt 4.6, Leading zero omitted, Abs format (unit mm)*
G04 Created by KiCad (PCBNEW 4.1.0-alpha+201607130321+6976~46~ubuntu16.04.1-product) date Sun Jul 24 19:45:18 2016*
%MOMM*%
%LPD*%
G01*
G04 APERTURE LIST*
%ADD10C,0.100000*%
%ADD11R,1.727200X2.032000*%
%ADD12O,1.727200X2.032000*%
%ADD13R,6.000000X3.000000*%
%ADD14C,17.800000*%
%ADD15C,0.800000*%
%ADD16C,0.500000*%
%ADD17C,0.254000*%
G04 APERTURE END LIST*
D10*
D11*
X129000000Y-112600000D03*
D12*
X126460000Y-112600000D03*
X123920000Y-112600000D03*
X121380000Y-112600000D03*
D13*
X113000000Y-78000000D03*
X113200000Y-104000000D03*
D14*
X113200000Y-91000000D03*
D13*
X62800000Y-78000000D03*
X63000000Y-104000000D03*
D14*
X63000000Y-91000000D03*
D11*
X78800000Y-112600000D03*
D12*
X76260000Y-112600000D03*
X73720000Y-112600000D03*
X71180000Y-112600000D03*
D13*
X113000000Y-128400000D03*
X113200000Y-154400000D03*
D14*
X113200000Y-141400000D03*
D11*
X129000000Y-163000000D03*
D12*
X126460000Y-163000000D03*
X123920000Y-163000000D03*
X121380000Y-163000000D03*
D11*
X78800000Y-163000000D03*
D12*
X76260000Y-163000000D03*
X73720000Y-163000000D03*
X71180000Y-163000000D03*
D13*
X62800000Y-128400000D03*
X63000000Y-154400000D03*
D14*
X63000000Y-141400000D03*
D15*
X117580000Y-103700000D03*
X117580000Y-77665000D03*
X67380000Y-77665000D03*
X67380000Y-103700000D03*
X117580000Y-128065000D03*
X117580000Y-154100000D03*
X67380000Y-154100000D03*
X67380000Y-128065000D03*
D16*
X117280000Y-104000000D02*
X113200000Y-104000000D01*
X117580000Y-103700000D02*
X117280000Y-104000000D01*
X113000000Y-78000000D02*
X117245000Y-78000000D01*
X117245000Y-78000000D02*
X117580000Y-77665000D01*
X67045000Y-78000000D02*
X67380000Y-77665000D01*
X62800000Y-78000000D02*
X67045000Y-78000000D01*
X67380000Y-103700000D02*
X67080000Y-104000000D01*
X67080000Y-104000000D02*
X63000000Y-104000000D01*
X117245000Y-128400000D02*
X117580000Y-128065000D01*
X113000000Y-128400000D02*
X117245000Y-128400000D01*
X117580000Y-154100000D02*
X117280000Y-154400000D01*
X117280000Y-154400000D02*
X113200000Y-154400000D01*
X67080000Y-154400000D02*
X63000000Y-154400000D01*
X67380000Y-154100000D02*
X67080000Y-154400000D01*
X62800000Y-128400000D02*
X67045000Y-128400000D01*
X67045000Y-128400000D02*
X67380000Y-128065000D01*
D17*
G36*
X83839840Y-119958732D02*
X91333897Y-124966100D01*
X96351117Y-132474898D01*
X97280506Y-136273000D01*
X94200000Y-136273000D01*
X94151399Y-136282667D01*
X94110197Y-136310197D01*
X94082667Y-136351399D01*
X94073000Y-136400000D01*
X94073000Y-146200000D01*
X94082667Y-146248601D01*
X94110197Y-146289803D01*
X94151399Y-146317333D01*
X94200000Y-146327000D01*
X97219580Y-146327000D01*
X96433656Y-150278108D01*
X91404609Y-157804609D01*
X83863368Y-162843505D01*
X80311040Y-163712754D01*
X80311040Y-161984000D01*
X80261757Y-161736235D01*
X80121409Y-161526191D01*
X79911365Y-161385843D01*
X79663600Y-161336560D01*
X77936400Y-161336560D01*
X77688635Y-161385843D01*
X77478591Y-161526191D01*
X77338243Y-161736235D01*
X77331016Y-161772566D01*
X77319670Y-161755585D01*
X76833489Y-161430729D01*
X76260000Y-161316655D01*
X75686511Y-161430729D01*
X75200330Y-161755585D01*
X74993539Y-162065069D01*
X74622036Y-161649268D01*
X74094791Y-161395291D01*
X74079026Y-161392642D01*
X73847000Y-161513783D01*
X73847000Y-162873000D01*
X73867000Y-162873000D01*
X73867000Y-163127000D01*
X73847000Y-163127000D01*
X73847000Y-163147000D01*
X73593000Y-163147000D01*
X73593000Y-163127000D01*
X73573000Y-163127000D01*
X73573000Y-162873000D01*
X73593000Y-162873000D01*
X73593000Y-161513783D01*
X73360974Y-161392642D01*
X73345209Y-161395291D01*
X72817964Y-161649268D01*
X72446461Y-162065069D01*
X72239670Y-161755585D01*
X71753489Y-161430729D01*
X71180000Y-161316655D01*
X70606511Y-161430729D01*
X70120330Y-161755585D01*
X69795474Y-162241766D01*
X69681400Y-162815255D01*
X69681400Y-163184745D01*
X69755325Y-163556391D01*
X66121892Y-162833656D01*
X58595391Y-157804609D01*
X55318237Y-152900000D01*
X58850921Y-152900000D01*
X58850921Y-155900000D01*
X58938389Y-156339733D01*
X59187478Y-156712522D01*
X59560267Y-156961611D01*
X60000000Y-157049079D01*
X66000000Y-157049079D01*
X66439733Y-156961611D01*
X66812522Y-156712522D01*
X67061611Y-156339733D01*
X67149079Y-155900000D01*
X67149079Y-155271260D01*
X67362484Y-155228810D01*
X67418675Y-155217633D01*
X67542133Y-155135142D01*
X67584971Y-155135179D01*
X67965515Y-154977942D01*
X68256919Y-154687046D01*
X68414820Y-154306777D01*
X68415179Y-153895029D01*
X68257942Y-153514485D01*
X67967046Y-153223081D01*
X67586777Y-153065180D01*
X67175029Y-153064821D01*
X67149079Y-153075543D01*
X67149079Y-152900000D01*
X67061611Y-152460267D01*
X66812522Y-152087478D01*
X66439733Y-151838389D01*
X66000000Y-151750921D01*
X60000000Y-151750921D01*
X59560267Y-151838389D01*
X59187478Y-152087478D01*
X58938389Y-152460267D01*
X58850921Y-152900000D01*
X55318237Y-152900000D01*
X53556887Y-150263954D01*
X53068117Y-148251305D01*
X56328300Y-148251305D01*
X57388901Y-149339080D01*
X60854175Y-150882028D01*
X64646131Y-150981423D01*
X68187479Y-149622134D01*
X68611099Y-149339080D01*
X69671700Y-148251305D01*
X63000000Y-141579605D01*
X56328300Y-148251305D01*
X53068117Y-148251305D01*
X52018794Y-143930430D01*
X52072372Y-143908292D01*
X52307466Y-143673607D01*
X52434855Y-143366821D01*
X52435134Y-143046131D01*
X53418577Y-143046131D01*
X54777866Y-146587479D01*
X55060920Y-147011099D01*
X56148695Y-148071700D01*
X62820395Y-141400000D01*
X63179605Y-141400000D01*
X69851305Y-148071700D01*
X70939080Y-147011099D01*
X72482028Y-143545825D01*
X72581423Y-139753869D01*
X71222134Y-136212521D01*
X70939080Y-135788901D01*
X69851305Y-134728300D01*
X63179605Y-141400000D01*
X62820395Y-141400000D01*
X56148695Y-134728300D01*
X55060920Y-135788901D01*
X53517972Y-139254175D01*
X53418577Y-143046131D01*
X52435134Y-143046131D01*
X52435145Y-143034637D01*
X52420955Y-143000295D01*
X52434855Y-142966821D01*
X52435145Y-142634637D01*
X52420955Y-142600295D01*
X52434855Y-142566821D01*
X52435145Y-142234637D01*
X52420955Y-142200295D01*
X52434855Y-142166821D01*
X52435145Y-141834637D01*
X52420955Y-141800295D01*
X52434855Y-141766821D01*
X52435145Y-141434637D01*
X52308292Y-141127628D01*
X52073607Y-140892534D01*
X51927000Y-140831657D01*
X51927000Y-140800000D01*
X51923363Y-140781715D01*
X53163187Y-134548695D01*
X56328300Y-134548695D01*
X63000000Y-141220395D01*
X69671700Y-134548695D01*
X68611099Y-133460920D01*
X65145825Y-131917972D01*
X61353869Y-131818577D01*
X57812521Y-133177866D01*
X57388901Y-133460920D01*
X56328300Y-134548695D01*
X53163187Y-134548695D01*
X53566344Y-132521892D01*
X57322771Y-126900000D01*
X58650921Y-126900000D01*
X58650921Y-129900000D01*
X58738389Y-130339733D01*
X58987478Y-130712522D01*
X59360267Y-130961611D01*
X59800000Y-131049079D01*
X65800000Y-131049079D01*
X66239733Y-130961611D01*
X66612522Y-130712522D01*
X66861611Y-130339733D01*
X66949079Y-129900000D01*
X66949079Y-129285000D01*
X67044995Y-129285000D01*
X67045000Y-129285001D01*
X67327484Y-129228810D01*
X67383675Y-129217633D01*
X67559492Y-129100157D01*
X67584971Y-129100179D01*
X67965515Y-128942942D01*
X68256919Y-128652046D01*
X68414820Y-128271777D01*
X68415179Y-127860029D01*
X68257942Y-127479485D01*
X67967046Y-127188081D01*
X67586777Y-127030180D01*
X67175029Y-127029821D01*
X66949079Y-127123181D01*
X66949079Y-126900000D01*
X66861611Y-126460267D01*
X66612522Y-126087478D01*
X66239733Y-125838389D01*
X65800000Y-125750921D01*
X59800000Y-125750921D01*
X59360267Y-125838389D01*
X58987478Y-126087478D01*
X58738389Y-126460267D01*
X58650921Y-126900000D01*
X57322771Y-126900000D01*
X58595391Y-124995391D01*
X66136632Y-119956495D01*
X72465082Y-118407933D01*
X72491708Y-118472372D01*
X72726393Y-118707466D01*
X73033179Y-118834855D01*
X73365363Y-118835145D01*
X73399705Y-118820955D01*
X73433179Y-118834855D01*
X73765363Y-118835145D01*
X73799705Y-118820955D01*
X73833179Y-118834855D01*
X74165363Y-118835145D01*
X74199705Y-118820955D01*
X74233179Y-118834855D01*
X74565363Y-118835145D01*
X74599705Y-118820955D01*
X74633179Y-118834855D01*
X74965363Y-118835145D01*
X75272372Y-118708292D01*
X75507466Y-118473607D01*
X75573548Y-118314464D01*
X83839840Y-119958732D01*
X83839840Y-119958732D01*
G37*
X83839840Y-119958732D02*
X91333897Y-124966100D01*
X96351117Y-132474898D01*
X97280506Y-136273000D01*
X94200000Y-136273000D01*
X94151399Y-136282667D01*
X94110197Y-136310197D01*
X94082667Y-136351399D01*
X94073000Y-136400000D01*
X94073000Y-146200000D01*
X94082667Y-146248601D01*
X94110197Y-146289803D01*
X94151399Y-146317333D01*
X94200000Y-146327000D01*
X97219580Y-146327000D01*
X96433656Y-150278108D01*
X91404609Y-157804609D01*
X83863368Y-162843505D01*
X80311040Y-163712754D01*
X80311040Y-161984000D01*
X80261757Y-161736235D01*
X80121409Y-161526191D01*
X79911365Y-161385843D01*
X79663600Y-161336560D01*
X77936400Y-161336560D01*
X77688635Y-161385843D01*
X77478591Y-161526191D01*
X77338243Y-161736235D01*
X77331016Y-161772566D01*
X77319670Y-161755585D01*
X76833489Y-161430729D01*
X76260000Y-161316655D01*
X75686511Y-161430729D01*
X75200330Y-161755585D01*
X74993539Y-162065069D01*
X74622036Y-161649268D01*
X74094791Y-161395291D01*
X74079026Y-161392642D01*
X73847000Y-161513783D01*
X73847000Y-162873000D01*
X73867000Y-162873000D01*
X73867000Y-163127000D01*
X73847000Y-163127000D01*
X73847000Y-163147000D01*
X73593000Y-163147000D01*
X73593000Y-163127000D01*
X73573000Y-163127000D01*
X73573000Y-162873000D01*
X73593000Y-162873000D01*
X73593000Y-161513783D01*
X73360974Y-161392642D01*
X73345209Y-161395291D01*
X72817964Y-161649268D01*
X72446461Y-162065069D01*
X72239670Y-161755585D01*
X71753489Y-161430729D01*
X71180000Y-161316655D01*
X70606511Y-161430729D01*
X70120330Y-161755585D01*
X69795474Y-162241766D01*
X69681400Y-162815255D01*
X69681400Y-163184745D01*
X69755325Y-163556391D01*
X66121892Y-162833656D01*
X58595391Y-157804609D01*
X55318237Y-152900000D01*
X58850921Y-152900000D01*
X58850921Y-155900000D01*
X58938389Y-156339733D01*
X59187478Y-156712522D01*
X59560267Y-156961611D01*
X60000000Y-157049079D01*
X66000000Y-157049079D01*
X66439733Y-156961611D01*
X66812522Y-156712522D01*
X67061611Y-156339733D01*
X67149079Y-155900000D01*
X67149079Y-155271260D01*
X67362484Y-155228810D01*
X67418675Y-155217633D01*
X67542133Y-155135142D01*
X67584971Y-155135179D01*
X67965515Y-154977942D01*
X68256919Y-154687046D01*
X68414820Y-154306777D01*
X68415179Y-153895029D01*
X68257942Y-153514485D01*
X67967046Y-153223081D01*
X67586777Y-153065180D01*
X67175029Y-153064821D01*
X67149079Y-153075543D01*
X67149079Y-152900000D01*
X67061611Y-152460267D01*
X66812522Y-152087478D01*
X66439733Y-151838389D01*
X66000000Y-151750921D01*
X60000000Y-151750921D01*
X59560267Y-151838389D01*
X59187478Y-152087478D01*
X58938389Y-152460267D01*
X58850921Y-152900000D01*
X55318237Y-152900000D01*
X53556887Y-150263954D01*
X53068117Y-148251305D01*
X56328300Y-148251305D01*
X57388901Y-149339080D01*
X60854175Y-150882028D01*
X64646131Y-150981423D01*
X68187479Y-149622134D01*
X68611099Y-149339080D01*
X69671700Y-148251305D01*
X63000000Y-141579605D01*
X56328300Y-148251305D01*
X53068117Y-148251305D01*
X52018794Y-143930430D01*
X52072372Y-143908292D01*
X52307466Y-143673607D01*
X52434855Y-143366821D01*
X52435134Y-143046131D01*
X53418577Y-143046131D01*
X54777866Y-146587479D01*
X55060920Y-147011099D01*
X56148695Y-148071700D01*
X62820395Y-141400000D01*
X63179605Y-141400000D01*
X69851305Y-148071700D01*
X70939080Y-147011099D01*
X72482028Y-143545825D01*
X72581423Y-139753869D01*
X71222134Y-136212521D01*
X70939080Y-135788901D01*
X69851305Y-134728300D01*
X63179605Y-141400000D01*
X62820395Y-141400000D01*
X56148695Y-134728300D01*
X55060920Y-135788901D01*
X53517972Y-139254175D01*
X53418577Y-143046131D01*
X52435134Y-143046131D01*
X52435145Y-143034637D01*
X52420955Y-143000295D01*
X52434855Y-142966821D01*
X52435145Y-142634637D01*
X52420955Y-142600295D01*
X52434855Y-142566821D01*
X52435145Y-142234637D01*
X52420955Y-142200295D01*
X52434855Y-142166821D01*
X52435145Y-141834637D01*
X52420955Y-141800295D01*
X52434855Y-141766821D01*
X52435145Y-141434637D01*
X52308292Y-141127628D01*
X52073607Y-140892534D01*
X51927000Y-140831657D01*
X51927000Y-140800000D01*
X51923363Y-140781715D01*
X53163187Y-134548695D01*
X56328300Y-134548695D01*
X63000000Y-141220395D01*
X69671700Y-134548695D01*
X68611099Y-133460920D01*
X65145825Y-131917972D01*
X61353869Y-131818577D01*
X57812521Y-133177866D01*
X57388901Y-133460920D01*
X56328300Y-134548695D01*
X53163187Y-134548695D01*
X53566344Y-132521892D01*
X57322771Y-126900000D01*
X58650921Y-126900000D01*
X58650921Y-129900000D01*
X58738389Y-130339733D01*
X58987478Y-130712522D01*
X59360267Y-130961611D01*
X59800000Y-131049079D01*
X65800000Y-131049079D01*
X66239733Y-130961611D01*
X66612522Y-130712522D01*
X66861611Y-130339733D01*
X66949079Y-129900000D01*
X66949079Y-129285000D01*
X67044995Y-129285000D01*
X67045000Y-129285001D01*
X67327484Y-129228810D01*
X67383675Y-129217633D01*
X67559492Y-129100157D01*
X67584971Y-129100179D01*
X67965515Y-128942942D01*
X68256919Y-128652046D01*
X68414820Y-128271777D01*
X68415179Y-127860029D01*
X68257942Y-127479485D01*
X67967046Y-127188081D01*
X67586777Y-127030180D01*
X67175029Y-127029821D01*
X66949079Y-127123181D01*
X66949079Y-126900000D01*
X66861611Y-126460267D01*
X66612522Y-126087478D01*
X66239733Y-125838389D01*
X65800000Y-125750921D01*
X59800000Y-125750921D01*
X59360267Y-125838389D01*
X58987478Y-126087478D01*
X58738389Y-126460267D01*
X58650921Y-126900000D01*
X57322771Y-126900000D01*
X58595391Y-124995391D01*
X66136632Y-119956495D01*
X72465082Y-118407933D01*
X72491708Y-118472372D01*
X72726393Y-118707466D01*
X73033179Y-118834855D01*
X73365363Y-118835145D01*
X73399705Y-118820955D01*
X73433179Y-118834855D01*
X73765363Y-118835145D01*
X73799705Y-118820955D01*
X73833179Y-118834855D01*
X74165363Y-118835145D01*
X74199705Y-118820955D01*
X74233179Y-118834855D01*
X74565363Y-118835145D01*
X74599705Y-118820955D01*
X74633179Y-118834855D01*
X74965363Y-118835145D01*
X75272372Y-118708292D01*
X75507466Y-118473607D01*
X75573548Y-118314464D01*
X83839840Y-119958732D01*
G36*
X134039840Y-119958732D02*
X141533897Y-124966100D01*
X146551117Y-132474898D01*
X147480506Y-136273000D01*
X144400000Y-136273000D01*
X144351399Y-136282667D01*
X144310197Y-136310197D01*
X144282667Y-136351399D01*
X144273000Y-136400000D01*
X144273000Y-146200000D01*
X144282667Y-146248601D01*
X144310197Y-146289803D01*
X144351399Y-146317333D01*
X144400000Y-146327000D01*
X147419580Y-146327000D01*
X146633656Y-150278108D01*
X141604609Y-157804609D01*
X134063368Y-162843505D01*
X130511040Y-163712754D01*
X130511040Y-161984000D01*
X130461757Y-161736235D01*
X130321409Y-161526191D01*
X130111365Y-161385843D01*
X129863600Y-161336560D01*
X128136400Y-161336560D01*
X127888635Y-161385843D01*
X127678591Y-161526191D01*
X127538243Y-161736235D01*
X127531016Y-161772566D01*
X127519670Y-161755585D01*
X127033489Y-161430729D01*
X126460000Y-161316655D01*
X125886511Y-161430729D01*
X125400330Y-161755585D01*
X125193539Y-162065069D01*
X124822036Y-161649268D01*
X124294791Y-161395291D01*
X124279026Y-161392642D01*
X124047000Y-161513783D01*
X124047000Y-162873000D01*
X124067000Y-162873000D01*
X124067000Y-163127000D01*
X124047000Y-163127000D01*
X124047000Y-163147000D01*
X123793000Y-163147000D01*
X123793000Y-163127000D01*
X123773000Y-163127000D01*
X123773000Y-162873000D01*
X123793000Y-162873000D01*
X123793000Y-161513783D01*
X123560974Y-161392642D01*
X123545209Y-161395291D01*
X123017964Y-161649268D01*
X122646461Y-162065069D01*
X122439670Y-161755585D01*
X121953489Y-161430729D01*
X121380000Y-161316655D01*
X120806511Y-161430729D01*
X120320330Y-161755585D01*
X119995474Y-162241766D01*
X119881400Y-162815255D01*
X119881400Y-163184745D01*
X119955325Y-163556391D01*
X116321892Y-162833656D01*
X108795391Y-157804609D01*
X105518237Y-152900000D01*
X109050921Y-152900000D01*
X109050921Y-155900000D01*
X109138389Y-156339733D01*
X109387478Y-156712522D01*
X109760267Y-156961611D01*
X110200000Y-157049079D01*
X116200000Y-157049079D01*
X116639733Y-156961611D01*
X117012522Y-156712522D01*
X117261611Y-156339733D01*
X117349079Y-155900000D01*
X117349079Y-155271260D01*
X117562484Y-155228810D01*
X117618675Y-155217633D01*
X117742133Y-155135142D01*
X117784971Y-155135179D01*
X118165515Y-154977942D01*
X118456919Y-154687046D01*
X118614820Y-154306777D01*
X118615179Y-153895029D01*
X118457942Y-153514485D01*
X118167046Y-153223081D01*
X117786777Y-153065180D01*
X117375029Y-153064821D01*
X117349079Y-153075543D01*
X117349079Y-152900000D01*
X117261611Y-152460267D01*
X117012522Y-152087478D01*
X116639733Y-151838389D01*
X116200000Y-151750921D01*
X110200000Y-151750921D01*
X109760267Y-151838389D01*
X109387478Y-152087478D01*
X109138389Y-152460267D01*
X109050921Y-152900000D01*
X105518237Y-152900000D01*
X103756887Y-150263954D01*
X103268117Y-148251305D01*
X106528300Y-148251305D01*
X107588901Y-149339080D01*
X111054175Y-150882028D01*
X114846131Y-150981423D01*
X118387479Y-149622134D01*
X118811099Y-149339080D01*
X119871700Y-148251305D01*
X113200000Y-141579605D01*
X106528300Y-148251305D01*
X103268117Y-148251305D01*
X102218794Y-143930430D01*
X102272372Y-143908292D01*
X102507466Y-143673607D01*
X102634855Y-143366821D01*
X102635134Y-143046131D01*
X103618577Y-143046131D01*
X104977866Y-146587479D01*
X105260920Y-147011099D01*
X106348695Y-148071700D01*
X113020395Y-141400000D01*
X113379605Y-141400000D01*
X120051305Y-148071700D01*
X121139080Y-147011099D01*
X122682028Y-143545825D01*
X122781423Y-139753869D01*
X121422134Y-136212521D01*
X121139080Y-135788901D01*
X120051305Y-134728300D01*
X113379605Y-141400000D01*
X113020395Y-141400000D01*
X106348695Y-134728300D01*
X105260920Y-135788901D01*
X103717972Y-139254175D01*
X103618577Y-143046131D01*
X102635134Y-143046131D01*
X102635145Y-143034637D01*
X102620955Y-143000295D01*
X102634855Y-142966821D01*
X102635145Y-142634637D01*
X102620955Y-142600295D01*
X102634855Y-142566821D01*
X102635145Y-142234637D01*
X102620955Y-142200295D01*
X102634855Y-142166821D01*
X102635145Y-141834637D01*
X102620955Y-141800295D01*
X102634855Y-141766821D01*
X102635145Y-141434637D01*
X102508292Y-141127628D01*
X102273607Y-140892534D01*
X102127000Y-140831657D01*
X102127000Y-140800000D01*
X102123363Y-140781715D01*
X103363187Y-134548695D01*
X106528300Y-134548695D01*
X113200000Y-141220395D01*
X119871700Y-134548695D01*
X118811099Y-133460920D01*
X115345825Y-131917972D01*
X111553869Y-131818577D01*
X108012521Y-133177866D01*
X107588901Y-133460920D01*
X106528300Y-134548695D01*
X103363187Y-134548695D01*
X103766344Y-132521892D01*
X107522771Y-126900000D01*
X108850921Y-126900000D01*
X108850921Y-129900000D01*
X108938389Y-130339733D01*
X109187478Y-130712522D01*
X109560267Y-130961611D01*
X110000000Y-131049079D01*
X116000000Y-131049079D01*
X116439733Y-130961611D01*
X116812522Y-130712522D01*
X117061611Y-130339733D01*
X117149079Y-129900000D01*
X117149079Y-129285000D01*
X117244995Y-129285000D01*
X117245000Y-129285001D01*
X117527484Y-129228810D01*
X117583675Y-129217633D01*
X117759492Y-129100157D01*
X117784971Y-129100179D01*
X118165515Y-128942942D01*
X118456919Y-128652046D01*
X118614820Y-128271777D01*
X118615179Y-127860029D01*
X118457942Y-127479485D01*
X118167046Y-127188081D01*
X117786777Y-127030180D01*
X117375029Y-127029821D01*
X117149079Y-127123181D01*
X117149079Y-126900000D01*
X117061611Y-126460267D01*
X116812522Y-126087478D01*
X116439733Y-125838389D01*
X116000000Y-125750921D01*
X110000000Y-125750921D01*
X109560267Y-125838389D01*
X109187478Y-126087478D01*
X108938389Y-126460267D01*
X108850921Y-126900000D01*
X107522771Y-126900000D01*
X108795391Y-124995391D01*
X116336632Y-119956495D01*
X122665082Y-118407933D01*
X122691708Y-118472372D01*
X122926393Y-118707466D01*
X123233179Y-118834855D01*
X123565363Y-118835145D01*
X123599705Y-118820955D01*
X123633179Y-118834855D01*
X123965363Y-118835145D01*
X123999705Y-118820955D01*
X124033179Y-118834855D01*
X124365363Y-118835145D01*
X124399705Y-118820955D01*
X124433179Y-118834855D01*
X124765363Y-118835145D01*
X124799705Y-118820955D01*
X124833179Y-118834855D01*
X125165363Y-118835145D01*
X125472372Y-118708292D01*
X125707466Y-118473607D01*
X125773548Y-118314464D01*
X134039840Y-119958732D01*
X134039840Y-119958732D01*
G37*
X134039840Y-119958732D02*
X141533897Y-124966100D01*
X146551117Y-132474898D01*
X147480506Y-136273000D01*
X144400000Y-136273000D01*
X144351399Y-136282667D01*
X144310197Y-136310197D01*
X144282667Y-136351399D01*
X144273000Y-136400000D01*
X144273000Y-146200000D01*
X144282667Y-146248601D01*
X144310197Y-146289803D01*
X144351399Y-146317333D01*
X144400000Y-146327000D01*
X147419580Y-146327000D01*
X146633656Y-150278108D01*
X141604609Y-157804609D01*
X134063368Y-162843505D01*
X130511040Y-163712754D01*
X130511040Y-161984000D01*
X130461757Y-161736235D01*
X130321409Y-161526191D01*
X130111365Y-161385843D01*
X129863600Y-161336560D01*
X128136400Y-161336560D01*
X127888635Y-161385843D01*
X127678591Y-161526191D01*
X127538243Y-161736235D01*
X127531016Y-161772566D01*
X127519670Y-161755585D01*
X127033489Y-161430729D01*
X126460000Y-161316655D01*
X125886511Y-161430729D01*
X125400330Y-161755585D01*
X125193539Y-162065069D01*
X124822036Y-161649268D01*
X124294791Y-161395291D01*
X124279026Y-161392642D01*
X124047000Y-161513783D01*
X124047000Y-162873000D01*
X124067000Y-162873000D01*
X124067000Y-163127000D01*
X124047000Y-163127000D01*
X124047000Y-163147000D01*
X123793000Y-163147000D01*
X123793000Y-163127000D01*
X123773000Y-163127000D01*
X123773000Y-162873000D01*
X123793000Y-162873000D01*
X123793000Y-161513783D01*
X123560974Y-161392642D01*
X123545209Y-161395291D01*
X123017964Y-161649268D01*
X122646461Y-162065069D01*
X122439670Y-161755585D01*
X121953489Y-161430729D01*
X121380000Y-161316655D01*
X120806511Y-161430729D01*
X120320330Y-161755585D01*
X119995474Y-162241766D01*
X119881400Y-162815255D01*
X119881400Y-163184745D01*
X119955325Y-163556391D01*
X116321892Y-162833656D01*
X108795391Y-157804609D01*
X105518237Y-152900000D01*
X109050921Y-152900000D01*
X109050921Y-155900000D01*
X109138389Y-156339733D01*
X109387478Y-156712522D01*
X109760267Y-156961611D01*
X110200000Y-157049079D01*
X116200000Y-157049079D01*
X116639733Y-156961611D01*
X117012522Y-156712522D01*
X117261611Y-156339733D01*
X117349079Y-155900000D01*
X117349079Y-155271260D01*
X117562484Y-155228810D01*
X117618675Y-155217633D01*
X117742133Y-155135142D01*
X117784971Y-155135179D01*
X118165515Y-154977942D01*
X118456919Y-154687046D01*
X118614820Y-154306777D01*
X118615179Y-153895029D01*
X118457942Y-153514485D01*
X118167046Y-153223081D01*
X117786777Y-153065180D01*
X117375029Y-153064821D01*
X117349079Y-153075543D01*
X117349079Y-152900000D01*
X117261611Y-152460267D01*
X117012522Y-152087478D01*
X116639733Y-151838389D01*
X116200000Y-151750921D01*
X110200000Y-151750921D01*
X109760267Y-151838389D01*
X109387478Y-152087478D01*
X109138389Y-152460267D01*
X109050921Y-152900000D01*
X105518237Y-152900000D01*
X103756887Y-150263954D01*
X103268117Y-148251305D01*
X106528300Y-148251305D01*
X107588901Y-149339080D01*
X111054175Y-150882028D01*
X114846131Y-150981423D01*
X118387479Y-149622134D01*
X118811099Y-149339080D01*
X119871700Y-148251305D01*
X113200000Y-141579605D01*
X106528300Y-148251305D01*
X103268117Y-148251305D01*
X102218794Y-143930430D01*
X102272372Y-143908292D01*
X102507466Y-143673607D01*
X102634855Y-143366821D01*
X102635134Y-143046131D01*
X103618577Y-143046131D01*
X104977866Y-146587479D01*
X105260920Y-147011099D01*
X106348695Y-148071700D01*
X113020395Y-141400000D01*
X113379605Y-141400000D01*
X120051305Y-148071700D01*
X121139080Y-147011099D01*
X122682028Y-143545825D01*
X122781423Y-139753869D01*
X121422134Y-136212521D01*
X121139080Y-135788901D01*
X120051305Y-134728300D01*
X113379605Y-141400000D01*
X113020395Y-141400000D01*
X106348695Y-134728300D01*
X105260920Y-135788901D01*
X103717972Y-139254175D01*
X103618577Y-143046131D01*
X102635134Y-143046131D01*
X102635145Y-143034637D01*
X102620955Y-143000295D01*
X102634855Y-142966821D01*
X102635145Y-142634637D01*
X102620955Y-142600295D01*
X102634855Y-142566821D01*
X102635145Y-142234637D01*
X102620955Y-142200295D01*
X102634855Y-142166821D01*
X102635145Y-141834637D01*
X102620955Y-141800295D01*
X102634855Y-141766821D01*
X102635145Y-141434637D01*
X102508292Y-141127628D01*
X102273607Y-140892534D01*
X102127000Y-140831657D01*
X102127000Y-140800000D01*
X102123363Y-140781715D01*
X103363187Y-134548695D01*
X106528300Y-134548695D01*
X113200000Y-141220395D01*
X119871700Y-134548695D01*
X118811099Y-133460920D01*
X115345825Y-131917972D01*
X111553869Y-131818577D01*
X108012521Y-133177866D01*
X107588901Y-133460920D01*
X106528300Y-134548695D01*
X103363187Y-134548695D01*
X103766344Y-132521892D01*
X107522771Y-126900000D01*
X108850921Y-126900000D01*
X108850921Y-129900000D01*
X108938389Y-130339733D01*
X109187478Y-130712522D01*
X109560267Y-130961611D01*
X110000000Y-131049079D01*
X116000000Y-131049079D01*
X116439733Y-130961611D01*
X116812522Y-130712522D01*
X117061611Y-130339733D01*
X117149079Y-129900000D01*
X117149079Y-129285000D01*
X117244995Y-129285000D01*
X117245000Y-129285001D01*
X117527484Y-129228810D01*
X117583675Y-129217633D01*
X117759492Y-129100157D01*
X117784971Y-129100179D01*
X118165515Y-128942942D01*
X118456919Y-128652046D01*
X118614820Y-128271777D01*
X118615179Y-127860029D01*
X118457942Y-127479485D01*
X118167046Y-127188081D01*
X117786777Y-127030180D01*
X117375029Y-127029821D01*
X117149079Y-127123181D01*
X117149079Y-126900000D01*
X117061611Y-126460267D01*
X116812522Y-126087478D01*
X116439733Y-125838389D01*
X116000000Y-125750921D01*
X110000000Y-125750921D01*
X109560267Y-125838389D01*
X109187478Y-126087478D01*
X108938389Y-126460267D01*
X108850921Y-126900000D01*
X107522771Y-126900000D01*
X108795391Y-124995391D01*
X116336632Y-119956495D01*
X122665082Y-118407933D01*
X122691708Y-118472372D01*
X122926393Y-118707466D01*
X123233179Y-118834855D01*
X123565363Y-118835145D01*
X123599705Y-118820955D01*
X123633179Y-118834855D01*
X123965363Y-118835145D01*
X123999705Y-118820955D01*
X124033179Y-118834855D01*
X124365363Y-118835145D01*
X124399705Y-118820955D01*
X124433179Y-118834855D01*
X124765363Y-118835145D01*
X124799705Y-118820955D01*
X124833179Y-118834855D01*
X125165363Y-118835145D01*
X125472372Y-118708292D01*
X125707466Y-118473607D01*
X125773548Y-118314464D01*
X134039840Y-119958732D01*
G36*
X83839840Y-69558732D02*
X91333897Y-74566100D01*
X96351117Y-82074898D01*
X97280506Y-85873000D01*
X94200000Y-85873000D01*
X94151399Y-85882667D01*
X94110197Y-85910197D01*
X94082667Y-85951399D01*
X94073000Y-86000000D01*
X94073000Y-95800000D01*
X94082667Y-95848601D01*
X94110197Y-95889803D01*
X94151399Y-95917333D01*
X94200000Y-95927000D01*
X97219580Y-95927000D01*
X96433656Y-99878108D01*
X91404609Y-107404609D01*
X83863368Y-112443505D01*
X80311040Y-113312754D01*
X80311040Y-111584000D01*
X80261757Y-111336235D01*
X80121409Y-111126191D01*
X79911365Y-110985843D01*
X79663600Y-110936560D01*
X77936400Y-110936560D01*
X77688635Y-110985843D01*
X77478591Y-111126191D01*
X77338243Y-111336235D01*
X77331016Y-111372566D01*
X77319670Y-111355585D01*
X76833489Y-111030729D01*
X76260000Y-110916655D01*
X75686511Y-111030729D01*
X75200330Y-111355585D01*
X74993539Y-111665069D01*
X74622036Y-111249268D01*
X74094791Y-110995291D01*
X74079026Y-110992642D01*
X73847000Y-111113783D01*
X73847000Y-112473000D01*
X73867000Y-112473000D01*
X73867000Y-112727000D01*
X73847000Y-112727000D01*
X73847000Y-112747000D01*
X73593000Y-112747000D01*
X73593000Y-112727000D01*
X73573000Y-112727000D01*
X73573000Y-112473000D01*
X73593000Y-112473000D01*
X73593000Y-111113783D01*
X73360974Y-110992642D01*
X73345209Y-110995291D01*
X72817964Y-111249268D01*
X72446461Y-111665069D01*
X72239670Y-111355585D01*
X71753489Y-111030729D01*
X71180000Y-110916655D01*
X70606511Y-111030729D01*
X70120330Y-111355585D01*
X69795474Y-111841766D01*
X69681400Y-112415255D01*
X69681400Y-112784745D01*
X69755325Y-113156391D01*
X66121892Y-112433656D01*
X58595391Y-107404609D01*
X55318237Y-102500000D01*
X58850921Y-102500000D01*
X58850921Y-105500000D01*
X58938389Y-105939733D01*
X59187478Y-106312522D01*
X59560267Y-106561611D01*
X60000000Y-106649079D01*
X66000000Y-106649079D01*
X66439733Y-106561611D01*
X66812522Y-106312522D01*
X67061611Y-105939733D01*
X67149079Y-105500000D01*
X67149079Y-104871260D01*
X67362484Y-104828810D01*
X67418675Y-104817633D01*
X67542133Y-104735142D01*
X67584971Y-104735179D01*
X67965515Y-104577942D01*
X68256919Y-104287046D01*
X68414820Y-103906777D01*
X68415179Y-103495029D01*
X68257942Y-103114485D01*
X67967046Y-102823081D01*
X67586777Y-102665180D01*
X67175029Y-102664821D01*
X67149079Y-102675543D01*
X67149079Y-102500000D01*
X67061611Y-102060267D01*
X66812522Y-101687478D01*
X66439733Y-101438389D01*
X66000000Y-101350921D01*
X60000000Y-101350921D01*
X59560267Y-101438389D01*
X59187478Y-101687478D01*
X58938389Y-102060267D01*
X58850921Y-102500000D01*
X55318237Y-102500000D01*
X53556887Y-99863954D01*
X53068117Y-97851305D01*
X56328300Y-97851305D01*
X57388901Y-98939080D01*
X60854175Y-100482028D01*
X64646131Y-100581423D01*
X68187479Y-99222134D01*
X68611099Y-98939080D01*
X69671700Y-97851305D01*
X63000000Y-91179605D01*
X56328300Y-97851305D01*
X53068117Y-97851305D01*
X52018794Y-93530430D01*
X52072372Y-93508292D01*
X52307466Y-93273607D01*
X52434855Y-92966821D01*
X52435134Y-92646131D01*
X53418577Y-92646131D01*
X54777866Y-96187479D01*
X55060920Y-96611099D01*
X56148695Y-97671700D01*
X62820395Y-91000000D01*
X63179605Y-91000000D01*
X69851305Y-97671700D01*
X70939080Y-96611099D01*
X72482028Y-93145825D01*
X72581423Y-89353869D01*
X71222134Y-85812521D01*
X70939080Y-85388901D01*
X69851305Y-84328300D01*
X63179605Y-91000000D01*
X62820395Y-91000000D01*
X56148695Y-84328300D01*
X55060920Y-85388901D01*
X53517972Y-88854175D01*
X53418577Y-92646131D01*
X52435134Y-92646131D01*
X52435145Y-92634637D01*
X52420955Y-92600295D01*
X52434855Y-92566821D01*
X52435145Y-92234637D01*
X52420955Y-92200295D01*
X52434855Y-92166821D01*
X52435145Y-91834637D01*
X52420955Y-91800295D01*
X52434855Y-91766821D01*
X52435145Y-91434637D01*
X52420955Y-91400295D01*
X52434855Y-91366821D01*
X52435145Y-91034637D01*
X52308292Y-90727628D01*
X52073607Y-90492534D01*
X51927000Y-90431657D01*
X51927000Y-90400000D01*
X51923363Y-90381715D01*
X53163187Y-84148695D01*
X56328300Y-84148695D01*
X63000000Y-90820395D01*
X69671700Y-84148695D01*
X68611099Y-83060920D01*
X65145825Y-81517972D01*
X61353869Y-81418577D01*
X57812521Y-82777866D01*
X57388901Y-83060920D01*
X56328300Y-84148695D01*
X53163187Y-84148695D01*
X53566344Y-82121892D01*
X57322771Y-76500000D01*
X58650921Y-76500000D01*
X58650921Y-79500000D01*
X58738389Y-79939733D01*
X58987478Y-80312522D01*
X59360267Y-80561611D01*
X59800000Y-80649079D01*
X65800000Y-80649079D01*
X66239733Y-80561611D01*
X66612522Y-80312522D01*
X66861611Y-79939733D01*
X66949079Y-79500000D01*
X66949079Y-78885000D01*
X67044995Y-78885000D01*
X67045000Y-78885001D01*
X67327484Y-78828810D01*
X67383675Y-78817633D01*
X67559492Y-78700157D01*
X67584971Y-78700179D01*
X67965515Y-78542942D01*
X68256919Y-78252046D01*
X68414820Y-77871777D01*
X68415179Y-77460029D01*
X68257942Y-77079485D01*
X67967046Y-76788081D01*
X67586777Y-76630180D01*
X67175029Y-76629821D01*
X66949079Y-76723181D01*
X66949079Y-76500000D01*
X66861611Y-76060267D01*
X66612522Y-75687478D01*
X66239733Y-75438389D01*
X65800000Y-75350921D01*
X59800000Y-75350921D01*
X59360267Y-75438389D01*
X58987478Y-75687478D01*
X58738389Y-76060267D01*
X58650921Y-76500000D01*
X57322771Y-76500000D01*
X58595391Y-74595391D01*
X66136632Y-69556495D01*
X72465082Y-68007933D01*
X72491708Y-68072372D01*
X72726393Y-68307466D01*
X73033179Y-68434855D01*
X73365363Y-68435145D01*
X73399705Y-68420955D01*
X73433179Y-68434855D01*
X73765363Y-68435145D01*
X73799705Y-68420955D01*
X73833179Y-68434855D01*
X74165363Y-68435145D01*
X74199705Y-68420955D01*
X74233179Y-68434855D01*
X74565363Y-68435145D01*
X74599705Y-68420955D01*
X74633179Y-68434855D01*
X74965363Y-68435145D01*
X75272372Y-68308292D01*
X75507466Y-68073607D01*
X75573548Y-67914464D01*
X83839840Y-69558732D01*
X83839840Y-69558732D01*
G37*
X83839840Y-69558732D02*
X91333897Y-74566100D01*
X96351117Y-82074898D01*
X97280506Y-85873000D01*
X94200000Y-85873000D01*
X94151399Y-85882667D01*
X94110197Y-85910197D01*
X94082667Y-85951399D01*
X94073000Y-86000000D01*
X94073000Y-95800000D01*
X94082667Y-95848601D01*
X94110197Y-95889803D01*
X94151399Y-95917333D01*
X94200000Y-95927000D01*
X97219580Y-95927000D01*
X96433656Y-99878108D01*
X91404609Y-107404609D01*
X83863368Y-112443505D01*
X80311040Y-113312754D01*
X80311040Y-111584000D01*
X80261757Y-111336235D01*
X80121409Y-111126191D01*
X79911365Y-110985843D01*
X79663600Y-110936560D01*
X77936400Y-110936560D01*
X77688635Y-110985843D01*
X77478591Y-111126191D01*
X77338243Y-111336235D01*
X77331016Y-111372566D01*
X77319670Y-111355585D01*
X76833489Y-111030729D01*
X76260000Y-110916655D01*
X75686511Y-111030729D01*
X75200330Y-111355585D01*
X74993539Y-111665069D01*
X74622036Y-111249268D01*
X74094791Y-110995291D01*
X74079026Y-110992642D01*
X73847000Y-111113783D01*
X73847000Y-112473000D01*
X73867000Y-112473000D01*
X73867000Y-112727000D01*
X73847000Y-112727000D01*
X73847000Y-112747000D01*
X73593000Y-112747000D01*
X73593000Y-112727000D01*
X73573000Y-112727000D01*
X73573000Y-112473000D01*
X73593000Y-112473000D01*
X73593000Y-111113783D01*
X73360974Y-110992642D01*
X73345209Y-110995291D01*
X72817964Y-111249268D01*
X72446461Y-111665069D01*
X72239670Y-111355585D01*
X71753489Y-111030729D01*
X71180000Y-110916655D01*
X70606511Y-111030729D01*
X70120330Y-111355585D01*
X69795474Y-111841766D01*
X69681400Y-112415255D01*
X69681400Y-112784745D01*
X69755325Y-113156391D01*
X66121892Y-112433656D01*
X58595391Y-107404609D01*
X55318237Y-102500000D01*
X58850921Y-102500000D01*
X58850921Y-105500000D01*
X58938389Y-105939733D01*
X59187478Y-106312522D01*
X59560267Y-106561611D01*
X60000000Y-106649079D01*
X66000000Y-106649079D01*
X66439733Y-106561611D01*
X66812522Y-106312522D01*
X67061611Y-105939733D01*
X67149079Y-105500000D01*
X67149079Y-104871260D01*
X67362484Y-104828810D01*
X67418675Y-104817633D01*
X67542133Y-104735142D01*
X67584971Y-104735179D01*
X67965515Y-104577942D01*
X68256919Y-104287046D01*
X68414820Y-103906777D01*
X68415179Y-103495029D01*
X68257942Y-103114485D01*
X67967046Y-102823081D01*
X67586777Y-102665180D01*
X67175029Y-102664821D01*
X67149079Y-102675543D01*
X67149079Y-102500000D01*
X67061611Y-102060267D01*
X66812522Y-101687478D01*
X66439733Y-101438389D01*
X66000000Y-101350921D01*
X60000000Y-101350921D01*
X59560267Y-101438389D01*
X59187478Y-101687478D01*
X58938389Y-102060267D01*
X58850921Y-102500000D01*
X55318237Y-102500000D01*
X53556887Y-99863954D01*
X53068117Y-97851305D01*
X56328300Y-97851305D01*
X57388901Y-98939080D01*
X60854175Y-100482028D01*
X64646131Y-100581423D01*
X68187479Y-99222134D01*
X68611099Y-98939080D01*
X69671700Y-97851305D01*
X63000000Y-91179605D01*
X56328300Y-97851305D01*
X53068117Y-97851305D01*
X52018794Y-93530430D01*
X52072372Y-93508292D01*
X52307466Y-93273607D01*
X52434855Y-92966821D01*
X52435134Y-92646131D01*
X53418577Y-92646131D01*
X54777866Y-96187479D01*
X55060920Y-96611099D01*
X56148695Y-97671700D01*
X62820395Y-91000000D01*
X63179605Y-91000000D01*
X69851305Y-97671700D01*
X70939080Y-96611099D01*
X72482028Y-93145825D01*
X72581423Y-89353869D01*
X71222134Y-85812521D01*
X70939080Y-85388901D01*
X69851305Y-84328300D01*
X63179605Y-91000000D01*
X62820395Y-91000000D01*
X56148695Y-84328300D01*
X55060920Y-85388901D01*
X53517972Y-88854175D01*
X53418577Y-92646131D01*
X52435134Y-92646131D01*
X52435145Y-92634637D01*
X52420955Y-92600295D01*
X52434855Y-92566821D01*
X52435145Y-92234637D01*
X52420955Y-92200295D01*
X52434855Y-92166821D01*
X52435145Y-91834637D01*
X52420955Y-91800295D01*
X52434855Y-91766821D01*
X52435145Y-91434637D01*
X52420955Y-91400295D01*
X52434855Y-91366821D01*
X52435145Y-91034637D01*
X52308292Y-90727628D01*
X52073607Y-90492534D01*
X51927000Y-90431657D01*
X51927000Y-90400000D01*
X51923363Y-90381715D01*
X53163187Y-84148695D01*
X56328300Y-84148695D01*
X63000000Y-90820395D01*
X69671700Y-84148695D01*
X68611099Y-83060920D01*
X65145825Y-81517972D01*
X61353869Y-81418577D01*
X57812521Y-82777866D01*
X57388901Y-83060920D01*
X56328300Y-84148695D01*
X53163187Y-84148695D01*
X53566344Y-82121892D01*
X57322771Y-76500000D01*
X58650921Y-76500000D01*
X58650921Y-79500000D01*
X58738389Y-79939733D01*
X58987478Y-80312522D01*
X59360267Y-80561611D01*
X59800000Y-80649079D01*
X65800000Y-80649079D01*
X66239733Y-80561611D01*
X66612522Y-80312522D01*
X66861611Y-79939733D01*
X66949079Y-79500000D01*
X66949079Y-78885000D01*
X67044995Y-78885000D01*
X67045000Y-78885001D01*
X67327484Y-78828810D01*
X67383675Y-78817633D01*
X67559492Y-78700157D01*
X67584971Y-78700179D01*
X67965515Y-78542942D01*
X68256919Y-78252046D01*
X68414820Y-77871777D01*
X68415179Y-77460029D01*
X68257942Y-77079485D01*
X67967046Y-76788081D01*
X67586777Y-76630180D01*
X67175029Y-76629821D01*
X66949079Y-76723181D01*
X66949079Y-76500000D01*
X66861611Y-76060267D01*
X66612522Y-75687478D01*
X66239733Y-75438389D01*
X65800000Y-75350921D01*
X59800000Y-75350921D01*
X59360267Y-75438389D01*
X58987478Y-75687478D01*
X58738389Y-76060267D01*
X58650921Y-76500000D01*
X57322771Y-76500000D01*
X58595391Y-74595391D01*
X66136632Y-69556495D01*
X72465082Y-68007933D01*
X72491708Y-68072372D01*
X72726393Y-68307466D01*
X73033179Y-68434855D01*
X73365363Y-68435145D01*
X73399705Y-68420955D01*
X73433179Y-68434855D01*
X73765363Y-68435145D01*
X73799705Y-68420955D01*
X73833179Y-68434855D01*
X74165363Y-68435145D01*
X74199705Y-68420955D01*
X74233179Y-68434855D01*
X74565363Y-68435145D01*
X74599705Y-68420955D01*
X74633179Y-68434855D01*
X74965363Y-68435145D01*
X75272372Y-68308292D01*
X75507466Y-68073607D01*
X75573548Y-67914464D01*
X83839840Y-69558732D01*
G36*
X134039840Y-69558732D02*
X141533897Y-74566100D01*
X146551117Y-82074898D01*
X147480506Y-85873000D01*
X144400000Y-85873000D01*
X144351399Y-85882667D01*
X144310197Y-85910197D01*
X144282667Y-85951399D01*
X144273000Y-86000000D01*
X144273000Y-95800000D01*
X144282667Y-95848601D01*
X144310197Y-95889803D01*
X144351399Y-95917333D01*
X144400000Y-95927000D01*
X147419580Y-95927000D01*
X146633656Y-99878108D01*
X141604609Y-107404609D01*
X134063368Y-112443505D01*
X130511040Y-113312754D01*
X130511040Y-111584000D01*
X130461757Y-111336235D01*
X130321409Y-111126191D01*
X130111365Y-110985843D01*
X129863600Y-110936560D01*
X128136400Y-110936560D01*
X127888635Y-110985843D01*
X127678591Y-111126191D01*
X127538243Y-111336235D01*
X127531016Y-111372566D01*
X127519670Y-111355585D01*
X127033489Y-111030729D01*
X126460000Y-110916655D01*
X125886511Y-111030729D01*
X125400330Y-111355585D01*
X125193539Y-111665069D01*
X124822036Y-111249268D01*
X124294791Y-110995291D01*
X124279026Y-110992642D01*
X124047000Y-111113783D01*
X124047000Y-112473000D01*
X124067000Y-112473000D01*
X124067000Y-112727000D01*
X124047000Y-112727000D01*
X124047000Y-112747000D01*
X123793000Y-112747000D01*
X123793000Y-112727000D01*
X123773000Y-112727000D01*
X123773000Y-112473000D01*
X123793000Y-112473000D01*
X123793000Y-111113783D01*
X123560974Y-110992642D01*
X123545209Y-110995291D01*
X123017964Y-111249268D01*
X122646461Y-111665069D01*
X122439670Y-111355585D01*
X121953489Y-111030729D01*
X121380000Y-110916655D01*
X120806511Y-111030729D01*
X120320330Y-111355585D01*
X119995474Y-111841766D01*
X119881400Y-112415255D01*
X119881400Y-112784745D01*
X119955325Y-113156391D01*
X116321892Y-112433656D01*
X108795391Y-107404609D01*
X105518237Y-102500000D01*
X109050921Y-102500000D01*
X109050921Y-105500000D01*
X109138389Y-105939733D01*
X109387478Y-106312522D01*
X109760267Y-106561611D01*
X110200000Y-106649079D01*
X116200000Y-106649079D01*
X116639733Y-106561611D01*
X117012522Y-106312522D01*
X117261611Y-105939733D01*
X117349079Y-105500000D01*
X117349079Y-104871260D01*
X117562484Y-104828810D01*
X117618675Y-104817633D01*
X117742133Y-104735142D01*
X117784971Y-104735179D01*
X118165515Y-104577942D01*
X118456919Y-104287046D01*
X118614820Y-103906777D01*
X118615179Y-103495029D01*
X118457942Y-103114485D01*
X118167046Y-102823081D01*
X117786777Y-102665180D01*
X117375029Y-102664821D01*
X117349079Y-102675543D01*
X117349079Y-102500000D01*
X117261611Y-102060267D01*
X117012522Y-101687478D01*
X116639733Y-101438389D01*
X116200000Y-101350921D01*
X110200000Y-101350921D01*
X109760267Y-101438389D01*
X109387478Y-101687478D01*
X109138389Y-102060267D01*
X109050921Y-102500000D01*
X105518237Y-102500000D01*
X103756887Y-99863954D01*
X103268117Y-97851305D01*
X106528300Y-97851305D01*
X107588901Y-98939080D01*
X111054175Y-100482028D01*
X114846131Y-100581423D01*
X118387479Y-99222134D01*
X118811099Y-98939080D01*
X119871700Y-97851305D01*
X113200000Y-91179605D01*
X106528300Y-97851305D01*
X103268117Y-97851305D01*
X102218794Y-93530430D01*
X102272372Y-93508292D01*
X102507466Y-93273607D01*
X102634855Y-92966821D01*
X102635134Y-92646131D01*
X103618577Y-92646131D01*
X104977866Y-96187479D01*
X105260920Y-96611099D01*
X106348695Y-97671700D01*
X113020395Y-91000000D01*
X113379605Y-91000000D01*
X120051305Y-97671700D01*
X121139080Y-96611099D01*
X122682028Y-93145825D01*
X122781423Y-89353869D01*
X121422134Y-85812521D01*
X121139080Y-85388901D01*
X120051305Y-84328300D01*
X113379605Y-91000000D01*
X113020395Y-91000000D01*
X106348695Y-84328300D01*
X105260920Y-85388901D01*
X103717972Y-88854175D01*
X103618577Y-92646131D01*
X102635134Y-92646131D01*
X102635145Y-92634637D01*
X102620955Y-92600295D01*
X102634855Y-92566821D01*
X102635145Y-92234637D01*
X102620955Y-92200295D01*
X102634855Y-92166821D01*
X102635145Y-91834637D01*
X102620955Y-91800295D01*
X102634855Y-91766821D01*
X102635145Y-91434637D01*
X102620955Y-91400295D01*
X102634855Y-91366821D01*
X102635145Y-91034637D01*
X102508292Y-90727628D01*
X102273607Y-90492534D01*
X102127000Y-90431657D01*
X102127000Y-90400000D01*
X102123363Y-90381715D01*
X103363187Y-84148695D01*
X106528300Y-84148695D01*
X113200000Y-90820395D01*
X119871700Y-84148695D01*
X118811099Y-83060920D01*
X115345825Y-81517972D01*
X111553869Y-81418577D01*
X108012521Y-82777866D01*
X107588901Y-83060920D01*
X106528300Y-84148695D01*
X103363187Y-84148695D01*
X103766344Y-82121892D01*
X107522771Y-76500000D01*
X108850921Y-76500000D01*
X108850921Y-79500000D01*
X108938389Y-79939733D01*
X109187478Y-80312522D01*
X109560267Y-80561611D01*
X110000000Y-80649079D01*
X116000000Y-80649079D01*
X116439733Y-80561611D01*
X116812522Y-80312522D01*
X117061611Y-79939733D01*
X117149079Y-79500000D01*
X117149079Y-78885000D01*
X117244995Y-78885000D01*
X117245000Y-78885001D01*
X117527484Y-78828810D01*
X117583675Y-78817633D01*
X117759492Y-78700157D01*
X117784971Y-78700179D01*
X118165515Y-78542942D01*
X118456919Y-78252046D01*
X118614820Y-77871777D01*
X118615179Y-77460029D01*
X118457942Y-77079485D01*
X118167046Y-76788081D01*
X117786777Y-76630180D01*
X117375029Y-76629821D01*
X117149079Y-76723181D01*
X117149079Y-76500000D01*
X117061611Y-76060267D01*
X116812522Y-75687478D01*
X116439733Y-75438389D01*
X116000000Y-75350921D01*
X110000000Y-75350921D01*
X109560267Y-75438389D01*
X109187478Y-75687478D01*
X108938389Y-76060267D01*
X108850921Y-76500000D01*
X107522771Y-76500000D01*
X108795391Y-74595391D01*
X116336632Y-69556495D01*
X122665082Y-68007933D01*
X122691708Y-68072372D01*
X122926393Y-68307466D01*
X123233179Y-68434855D01*
X123565363Y-68435145D01*
X123599705Y-68420955D01*
X123633179Y-68434855D01*
X123965363Y-68435145D01*
X123999705Y-68420955D01*
X124033179Y-68434855D01*
X124365363Y-68435145D01*
X124399705Y-68420955D01*
X124433179Y-68434855D01*
X124765363Y-68435145D01*
X124799705Y-68420955D01*
X124833179Y-68434855D01*
X125165363Y-68435145D01*
X125472372Y-68308292D01*
X125707466Y-68073607D01*
X125773548Y-67914464D01*
X134039840Y-69558732D01*
X134039840Y-69558732D01*
G37*
X134039840Y-69558732D02*
X141533897Y-74566100D01*
X146551117Y-82074898D01*
X147480506Y-85873000D01*
X144400000Y-85873000D01*
X144351399Y-85882667D01*
X144310197Y-85910197D01*
X144282667Y-85951399D01*
X144273000Y-86000000D01*
X144273000Y-95800000D01*
X144282667Y-95848601D01*
X144310197Y-95889803D01*
X144351399Y-95917333D01*
X144400000Y-95927000D01*
X147419580Y-95927000D01*
X146633656Y-99878108D01*
X141604609Y-107404609D01*
X134063368Y-112443505D01*
X130511040Y-113312754D01*
X130511040Y-111584000D01*
X130461757Y-111336235D01*
X130321409Y-111126191D01*
X130111365Y-110985843D01*
X129863600Y-110936560D01*
X128136400Y-110936560D01*
X127888635Y-110985843D01*
X127678591Y-111126191D01*
X127538243Y-111336235D01*
X127531016Y-111372566D01*
X127519670Y-111355585D01*
X127033489Y-111030729D01*
X126460000Y-110916655D01*
X125886511Y-111030729D01*
X125400330Y-111355585D01*
X125193539Y-111665069D01*
X124822036Y-111249268D01*
X124294791Y-110995291D01*
X124279026Y-110992642D01*
X124047000Y-111113783D01*
X124047000Y-112473000D01*
X124067000Y-112473000D01*
X124067000Y-112727000D01*
X124047000Y-112727000D01*
X124047000Y-112747000D01*
X123793000Y-112747000D01*
X123793000Y-112727000D01*
X123773000Y-112727000D01*
X123773000Y-112473000D01*
X123793000Y-112473000D01*
X123793000Y-111113783D01*
X123560974Y-110992642D01*
X123545209Y-110995291D01*
X123017964Y-111249268D01*
X122646461Y-111665069D01*
X122439670Y-111355585D01*
X121953489Y-111030729D01*
X121380000Y-110916655D01*
X120806511Y-111030729D01*
X120320330Y-111355585D01*
X119995474Y-111841766D01*
X119881400Y-112415255D01*
X119881400Y-112784745D01*
X119955325Y-113156391D01*
X116321892Y-112433656D01*
X108795391Y-107404609D01*
X105518237Y-102500000D01*
X109050921Y-102500000D01*
X109050921Y-105500000D01*
X109138389Y-105939733D01*
X109387478Y-106312522D01*
X109760267Y-106561611D01*
X110200000Y-106649079D01*
X116200000Y-106649079D01*
X116639733Y-106561611D01*
X117012522Y-106312522D01*
X117261611Y-105939733D01*
X117349079Y-105500000D01*
X117349079Y-104871260D01*
X117562484Y-104828810D01*
X117618675Y-104817633D01*
X117742133Y-104735142D01*
X117784971Y-104735179D01*
X118165515Y-104577942D01*
X118456919Y-104287046D01*
X118614820Y-103906777D01*
X118615179Y-103495029D01*
X118457942Y-103114485D01*
X118167046Y-102823081D01*
X117786777Y-102665180D01*
X117375029Y-102664821D01*
X117349079Y-102675543D01*
X117349079Y-102500000D01*
X117261611Y-102060267D01*
X117012522Y-101687478D01*
X116639733Y-101438389D01*
X116200000Y-101350921D01*
X110200000Y-101350921D01*
X109760267Y-101438389D01*
X109387478Y-101687478D01*
X109138389Y-102060267D01*
X109050921Y-102500000D01*
X105518237Y-102500000D01*
X103756887Y-99863954D01*
X103268117Y-97851305D01*
X106528300Y-97851305D01*
X107588901Y-98939080D01*
X111054175Y-100482028D01*
X114846131Y-100581423D01*
X118387479Y-99222134D01*
X118811099Y-98939080D01*
X119871700Y-97851305D01*
X113200000Y-91179605D01*
X106528300Y-97851305D01*
X103268117Y-97851305D01*
X102218794Y-93530430D01*
X102272372Y-93508292D01*
X102507466Y-93273607D01*
X102634855Y-92966821D01*
X102635134Y-92646131D01*
X103618577Y-92646131D01*
X104977866Y-96187479D01*
X105260920Y-96611099D01*
X106348695Y-97671700D01*
X113020395Y-91000000D01*
X113379605Y-91000000D01*
X120051305Y-97671700D01*
X121139080Y-96611099D01*
X122682028Y-93145825D01*
X122781423Y-89353869D01*
X121422134Y-85812521D01*
X121139080Y-85388901D01*
X120051305Y-84328300D01*
X113379605Y-91000000D01*
X113020395Y-91000000D01*
X106348695Y-84328300D01*
X105260920Y-85388901D01*
X103717972Y-88854175D01*
X103618577Y-92646131D01*
X102635134Y-92646131D01*
X102635145Y-92634637D01*
X102620955Y-92600295D01*
X102634855Y-92566821D01*
X102635145Y-92234637D01*
X102620955Y-92200295D01*
X102634855Y-92166821D01*
X102635145Y-91834637D01*
X102620955Y-91800295D01*
X102634855Y-91766821D01*
X102635145Y-91434637D01*
X102620955Y-91400295D01*
X102634855Y-91366821D01*
X102635145Y-91034637D01*
X102508292Y-90727628D01*
X102273607Y-90492534D01*
X102127000Y-90431657D01*
X102127000Y-90400000D01*
X102123363Y-90381715D01*
X103363187Y-84148695D01*
X106528300Y-84148695D01*
X113200000Y-90820395D01*
X119871700Y-84148695D01*
X118811099Y-83060920D01*
X115345825Y-81517972D01*
X111553869Y-81418577D01*
X108012521Y-82777866D01*
X107588901Y-83060920D01*
X106528300Y-84148695D01*
X103363187Y-84148695D01*
X103766344Y-82121892D01*
X107522771Y-76500000D01*
X108850921Y-76500000D01*
X108850921Y-79500000D01*
X108938389Y-79939733D01*
X109187478Y-80312522D01*
X109560267Y-80561611D01*
X110000000Y-80649079D01*
X116000000Y-80649079D01*
X116439733Y-80561611D01*
X116812522Y-80312522D01*
X117061611Y-79939733D01*
X117149079Y-79500000D01*
X117149079Y-78885000D01*
X117244995Y-78885000D01*
X117245000Y-78885001D01*
X117527484Y-78828810D01*
X117583675Y-78817633D01*
X117759492Y-78700157D01*
X117784971Y-78700179D01*
X118165515Y-78542942D01*
X118456919Y-78252046D01*
X118614820Y-77871777D01*
X118615179Y-77460029D01*
X118457942Y-77079485D01*
X118167046Y-76788081D01*
X117786777Y-76630180D01*
X117375029Y-76629821D01*
X117149079Y-76723181D01*
X117149079Y-76500000D01*
X117061611Y-76060267D01*
X116812522Y-75687478D01*
X116439733Y-75438389D01*
X116000000Y-75350921D01*
X110000000Y-75350921D01*
X109560267Y-75438389D01*
X109187478Y-75687478D01*
X108938389Y-76060267D01*
X108850921Y-76500000D01*
X107522771Y-76500000D01*
X108795391Y-74595391D01*
X116336632Y-69556495D01*
X122665082Y-68007933D01*
X122691708Y-68072372D01*
X122926393Y-68307466D01*
X123233179Y-68434855D01*
X123565363Y-68435145D01*
X123599705Y-68420955D01*
X123633179Y-68434855D01*
X123965363Y-68435145D01*
X123999705Y-68420955D01*
X124033179Y-68434855D01*
X124365363Y-68435145D01*
X124399705Y-68420955D01*
X124433179Y-68434855D01*
X124765363Y-68435145D01*
X124799705Y-68420955D01*
X124833179Y-68434855D01*
X125165363Y-68435145D01*
X125472372Y-68308292D01*
X125707466Y-68073607D01*
X125773548Y-67914464D01*
X134039840Y-69558732D01*
M02*
