G04 #@! TF.FileFunction,Soldermask,Bot*
%FSLAX46Y46*%
G04 Gerber Fmt 4.6, Leading zero omitted, Abs format (unit mm)*
G04 Created by KiCad (PCBNEW 4.1.0-alpha+201607130321+6976~46~ubuntu16.04.1-product) date Sun Jul 24 19:45:18 2016*
%MOMM*%
%LPD*%
G01*
G04 APERTURE LIST*
%ADD10C,0.100000*%
%ADD11R,2.127200X2.432000*%
%ADD12O,2.127200X2.432000*%
%ADD13R,6.400000X3.400000*%
%ADD14C,18.200000*%
%ADD15C,0.700000*%
G04 APERTURE END LIST*
D10*
D11*
X129000000Y-112600000D03*
D12*
X126460000Y-112600000D03*
X123920000Y-112600000D03*
X121380000Y-112600000D03*
D13*
X113000000Y-78000000D03*
X113200000Y-104000000D03*
D14*
X113200000Y-91000000D03*
D15*
X148600000Y-89400000D03*
X148600000Y-90600000D03*
X148600000Y-90300000D03*
X148600000Y-90000000D03*
X148600000Y-89700000D03*
X123600000Y-67600000D03*
X124800000Y-67600000D03*
X124500000Y-67600000D03*
X124200000Y-67600000D03*
X123900000Y-67600000D03*
X101800000Y-91400000D03*
X101800000Y-92600000D03*
X101800000Y-92300000D03*
X101800000Y-92000000D03*
X101800000Y-91700000D03*
X126800000Y-114400000D03*
X125600000Y-114400000D03*
X125900000Y-114400000D03*
X126200000Y-114400000D03*
X126500000Y-114400000D03*
X76600000Y-114400000D03*
X75400000Y-114400000D03*
X75700000Y-114400000D03*
X76000000Y-114400000D03*
X76300000Y-114400000D03*
X51600000Y-91400000D03*
X51600000Y-92600000D03*
X51600000Y-92300000D03*
X51600000Y-92000000D03*
X51600000Y-91700000D03*
X73400000Y-67600000D03*
X74600000Y-67600000D03*
X74300000Y-67600000D03*
X74000000Y-67600000D03*
X73700000Y-67600000D03*
X98400000Y-89400000D03*
X98400000Y-90600000D03*
X98400000Y-90300000D03*
X98400000Y-90000000D03*
X98400000Y-89700000D03*
D13*
X62800000Y-78000000D03*
X63000000Y-104000000D03*
D14*
X63000000Y-91000000D03*
D11*
X78800000Y-112600000D03*
D12*
X76260000Y-112600000D03*
X73720000Y-112600000D03*
X71180000Y-112600000D03*
D15*
X126800000Y-164800000D03*
X125600000Y-164800000D03*
X125900000Y-164800000D03*
X126200000Y-164800000D03*
X126500000Y-164800000D03*
X101800000Y-141800000D03*
X101800000Y-143000000D03*
X101800000Y-142700000D03*
X101800000Y-142400000D03*
X101800000Y-142100000D03*
X123600000Y-118000000D03*
X124800000Y-118000000D03*
X124500000Y-118000000D03*
X124200000Y-118000000D03*
X123900000Y-118000000D03*
X148600000Y-139800000D03*
X148600000Y-141000000D03*
X148600000Y-140700000D03*
X148600000Y-140400000D03*
X148600000Y-140100000D03*
D13*
X113000000Y-128400000D03*
X113200000Y-154400000D03*
D14*
X113200000Y-141400000D03*
D11*
X129000000Y-163000000D03*
D12*
X126460000Y-163000000D03*
X123920000Y-163000000D03*
X121380000Y-163000000D03*
D11*
X78800000Y-163000000D03*
D12*
X76260000Y-163000000D03*
X73720000Y-163000000D03*
X71180000Y-163000000D03*
D13*
X62800000Y-128400000D03*
X63000000Y-154400000D03*
D14*
X63000000Y-141400000D03*
D15*
X98400000Y-139800000D03*
X98400000Y-141000000D03*
X98400000Y-140700000D03*
X98400000Y-140400000D03*
X98400000Y-140100000D03*
X73400000Y-118000000D03*
X74600000Y-118000000D03*
X74300000Y-118000000D03*
X74000000Y-118000000D03*
X73700000Y-118000000D03*
X51600000Y-141800000D03*
X51600000Y-143000000D03*
X51600000Y-142700000D03*
X51600000Y-142400000D03*
X51600000Y-142100000D03*
X76600000Y-164800000D03*
X75400000Y-164800000D03*
X75700000Y-164800000D03*
X76000000Y-164800000D03*
X76300000Y-164800000D03*
M02*
