G04 #@! TF.GenerationSoftware,KiCad,Pcbnew,no-vcs-found-91ed3e2~59~ubuntu16.04.1*
G04 #@! TF.CreationDate,2018-05-08T10:21:34+02:00*
G04 #@! TF.ProjectId,Attiny24_3led,417474696E7932345F336C65642E6B69,rev?*
G04 #@! TF.SameCoordinates,Original*
G04 #@! TF.FileFunction,Copper,L1,Top,Signal*
G04 #@! TF.FilePolarity,Positive*
%FSLAX46Y46*%
G04 Gerber Fmt 4.6, Leading zero omitted, Abs format (unit mm)*
G04 Created by KiCad (PCBNEW no-vcs-found-91ed3e2~59~ubuntu16.04.1) date Tue May  8 10:21:34 2018*
%MOMM*%
%LPD*%
G01*
G04 APERTURE LIST*
%ADD10R,0.600000X0.700000*%
%ADD11R,0.800100X0.698500*%
%ADD12R,0.500000X1.000000*%
%ADD13R,1.000000X0.500000*%
%ADD14C,0.500000*%
%ADD15C,0.200000*%
%ADD16C,0.250000*%
G04 APERTURE END LIST*
D10*
X79968000Y-61341000D03*
X81068000Y-61341000D03*
X81050000Y-63246000D03*
X79950000Y-63246000D03*
X79950000Y-62300000D03*
X81050000Y-62300000D03*
D11*
X81851360Y-61341000D03*
X82948640Y-61341000D03*
X82948640Y-63246000D03*
X81851360Y-63246000D03*
X81851360Y-62300000D03*
X82948640Y-62300000D03*
D12*
X84328000Y-63119000D03*
D13*
X80600000Y-59944000D03*
X83600000Y-59944000D03*
D11*
X82648640Y-60071000D03*
X81551360Y-60071000D03*
D14*
X80391000Y-60579000D03*
X79756000Y-60071000D03*
X80400000Y-64516000D03*
X84328000Y-64643000D03*
X84074000Y-64008000D03*
X84400000Y-60198000D03*
D15*
X83600000Y-59944000D02*
X82775640Y-59944000D01*
X82775640Y-59944000D02*
X82648640Y-60071000D01*
X83600000Y-59944000D02*
X84146000Y-59944000D01*
X84146000Y-59944000D02*
X84400000Y-60198000D01*
X82775640Y-60071000D02*
X82648640Y-60198000D01*
X82650640Y-60200000D02*
X82648640Y-60198000D01*
X82748640Y-60200000D02*
X82648640Y-60300000D01*
D16*
X79756000Y-60071000D02*
X79728000Y-60071000D01*
X79728000Y-60071000D02*
X79418000Y-60381000D01*
X79418000Y-60381000D02*
X79418000Y-61175000D01*
X79418000Y-61175000D02*
X79584000Y-61341000D01*
X79584000Y-61341000D02*
X79968000Y-61341000D01*
X79968000Y-61341000D02*
X79784000Y-61341000D01*
X80600000Y-59944000D02*
X81424360Y-59944000D01*
X81424360Y-59944000D02*
X81551360Y-60071000D01*
X80600000Y-59944000D02*
X79883000Y-59944000D01*
X79883000Y-59944000D02*
X79756000Y-60071000D01*
X79800000Y-61173000D02*
X79968000Y-61341000D01*
X79950000Y-62300000D02*
X79950000Y-61359000D01*
X79950000Y-61359000D02*
X79968000Y-61341000D01*
X79950000Y-63246000D02*
X79950000Y-62300000D01*
D15*
X81851360Y-61341000D02*
X81068000Y-61341000D01*
X81851360Y-63246000D02*
X81050000Y-63246000D01*
X81851360Y-62300000D02*
X81050000Y-62300000D01*
X84328000Y-63119000D02*
X84328000Y-63754000D01*
X84328000Y-63754000D02*
X84074000Y-64008000D01*
X80391000Y-60579000D02*
X80518000Y-60579000D01*
X80518000Y-60579000D02*
X80645000Y-60706000D01*
X80645000Y-60706000D02*
X82677000Y-60706000D01*
X82948640Y-60977640D02*
X82948640Y-61341000D01*
X82677000Y-60706000D02*
X82948640Y-60977640D01*
X82948640Y-61104640D02*
X82948640Y-61341000D01*
X82423000Y-64516000D02*
X82948640Y-63990360D01*
X82948640Y-63990360D02*
X82948640Y-63246000D01*
X80400000Y-64516000D02*
X82423000Y-64516000D01*
X84328000Y-64643000D02*
X83916001Y-64643000D01*
X83916001Y-64643000D02*
X83566000Y-64292999D01*
X83566000Y-64292999D02*
X83566000Y-62611000D01*
X83566000Y-62611000D02*
X83255000Y-62300000D01*
X83255000Y-62300000D02*
X82948640Y-62300000D01*
M02*
