G04 #@! TF.GenerationSoftware,KiCad,Pcbnew,no-vcs-found-91ed3e2~59~ubuntu16.04.1*
G04 #@! TF.CreationDate,2018-05-08T10:21:34+02:00*
G04 #@! TF.ProjectId,Attiny24_3led,417474696E7932345F336C65642E6B69,rev?*
G04 #@! TF.SameCoordinates,Original*
G04 #@! TF.FileFunction,Copper,L2,Bot,Signal*
G04 #@! TF.FilePolarity,Positive*
%FSLAX46Y46*%
G04 Gerber Fmt 4.6, Leading zero omitted, Abs format (unit mm)*
G04 Created by KiCad (PCBNEW no-vcs-found-91ed3e2~59~ubuntu16.04.1) date Tue May  8 10:21:34 2018*
%MOMM*%
%LPD*%
G01*
G04 APERTURE LIST*
%ADD10R,1.250000X1.250000*%
%ADD11R,0.300000X0.730000*%
%ADD12R,0.730000X0.300000*%
%ADD13C,0.500000*%
%ADD14C,0.200000*%
%ADD15C,0.250000*%
G04 APERTURE END LIST*
D10*
X81375000Y-63025000D03*
X81375000Y-61775000D03*
X82625000Y-63025000D03*
X82625000Y-61775000D03*
D11*
X81000000Y-64365000D03*
X81500000Y-64365000D03*
X82000000Y-64365000D03*
X82500000Y-64365000D03*
X83000000Y-64365000D03*
D12*
X83965000Y-63400000D03*
X83965000Y-62900000D03*
X83965000Y-62400000D03*
X83965000Y-61900000D03*
X83965000Y-61400000D03*
D11*
X83000000Y-60435000D03*
X82500000Y-60435000D03*
X82000000Y-60435000D03*
X81500000Y-60435000D03*
X81000000Y-60435000D03*
D12*
X80035000Y-61400000D03*
X80035000Y-61900000D03*
X80035000Y-62400000D03*
X80035000Y-62900000D03*
X80035000Y-63400000D03*
D13*
X80391000Y-60579000D03*
X79756000Y-60071000D03*
X80400000Y-64516000D03*
X84328000Y-64643000D03*
X84074000Y-64008000D03*
X84400000Y-60198000D03*
D14*
X84019000Y-59817000D02*
X84400000Y-60198000D01*
X82500000Y-60435000D02*
X82500000Y-60059998D01*
X82500000Y-60059998D02*
X82742998Y-59817000D01*
X82742998Y-59817000D02*
X84019000Y-59817000D01*
X82500000Y-60650000D02*
X82500000Y-60435000D01*
D15*
X81763002Y-59778000D02*
X80049000Y-59778000D01*
X80049000Y-59778000D02*
X79756000Y-60071000D01*
X82000000Y-60435000D02*
X82000000Y-60014998D01*
X82000000Y-60014998D02*
X81763002Y-59778000D01*
X81375000Y-63025000D02*
X82625000Y-63025000D01*
X82625000Y-61775000D02*
X82625000Y-63025000D01*
X81375000Y-61775000D02*
X81375000Y-63025000D01*
X81375000Y-61775000D02*
X81375000Y-61773000D01*
X82000000Y-60435000D02*
X82000000Y-61150000D01*
X82000000Y-61150000D02*
X81375000Y-61775000D01*
D14*
X83965000Y-62400000D02*
X84530000Y-62400000D01*
X84530000Y-62400000D02*
X84582000Y-62452000D01*
X84582000Y-62452000D02*
X84582000Y-63754000D01*
X84582000Y-63754000D02*
X84328000Y-64008000D01*
X84328000Y-64008000D02*
X84074000Y-64008000D01*
X80035000Y-63400000D02*
X79470000Y-63400000D01*
X79470000Y-63400000D02*
X79375000Y-63305000D01*
X79375000Y-60706000D02*
X79502000Y-60579000D01*
X79375000Y-63305000D02*
X79375000Y-60706000D01*
X79502000Y-60579000D02*
X80037447Y-60579000D01*
X80037447Y-60579000D02*
X80391000Y-60579000D01*
X80010000Y-63425000D02*
X80035000Y-63400000D01*
X80400000Y-64516000D02*
X80849000Y-64516000D01*
X80849000Y-64516000D02*
X81000000Y-64365000D01*
X83034000Y-64365000D02*
X83312000Y-64643000D01*
X83312000Y-64643000D02*
X83974447Y-64643000D01*
X83000000Y-64365000D02*
X83034000Y-64365000D01*
X84328000Y-64643000D02*
X83974447Y-64643000D01*
X83151000Y-64516000D02*
X83000000Y-64365000D01*
M02*
