G04 #@! TF.GenerationSoftware,KiCad,Pcbnew,no-vcs-found-91ed3e2~59~ubuntu16.04.1*
G04 #@! TF.CreationDate,2018-05-08T10:21:34+02:00*
G04 #@! TF.ProjectId,Attiny24_3led,417474696E7932345F336C65642E6B69,rev?*
G04 #@! TF.SameCoordinates,Original*
G04 #@! TF.FileFunction,Legend,Top*
G04 #@! TF.FilePolarity,Positive*
%FSLAX46Y46*%
G04 Gerber Fmt 4.6, Leading zero omitted, Abs format (unit mm)*
G04 Created by KiCad (PCBNEW no-vcs-found-91ed3e2~59~ubuntu16.04.1) date Tue May  8 10:21:34 2018*
%MOMM*%
%LPD*%
G01*
G04 APERTURE LIST*
%ADD10C,0.100000*%
%ADD11C,0.120000*%
%ADD12C,0.127000*%
G04 APERTURE END LIST*
D10*
X79554333Y-60428000D02*
X80087666Y-60428000D01*
X83454333Y-60628000D02*
X83987666Y-60628000D01*
X83721000Y-60894666D02*
X83721000Y-60361333D01*
D11*
X79568000Y-60891000D02*
X81018000Y-60891000D01*
X79568000Y-61791000D02*
X81018000Y-61791000D01*
X79568000Y-60891000D02*
X79568000Y-61791000D01*
X79550000Y-62796000D02*
X79550000Y-63696000D01*
X79550000Y-63696000D02*
X81000000Y-63696000D01*
X79550000Y-62796000D02*
X81000000Y-62796000D01*
X79550000Y-61850000D02*
X81000000Y-61850000D01*
X79550000Y-62750000D02*
X81000000Y-62750000D01*
X79550000Y-61850000D02*
X79550000Y-62750000D01*
D12*
X82069800Y-61620400D02*
X82069800Y-61061600D01*
X82730200Y-61620400D02*
X82730200Y-61061600D01*
X82933400Y-61620400D02*
X82933400Y-61061600D01*
X82933400Y-61061600D02*
X81866600Y-61061600D01*
X81866600Y-61061600D02*
X81866600Y-61620400D01*
X81866600Y-61620400D02*
X82933400Y-61620400D01*
X81866600Y-63525400D02*
X82933400Y-63525400D01*
X81866600Y-62966600D02*
X81866600Y-63525400D01*
X82933400Y-62966600D02*
X81866600Y-62966600D01*
X82933400Y-63525400D02*
X82933400Y-62966600D01*
X82730200Y-63525400D02*
X82730200Y-62966600D01*
X82069800Y-63525400D02*
X82069800Y-62966600D01*
X82069800Y-62579400D02*
X82069800Y-62020600D01*
X82730200Y-62579400D02*
X82730200Y-62020600D01*
X82933400Y-62579400D02*
X82933400Y-62020600D01*
X82933400Y-62020600D02*
X81866600Y-62020600D01*
X81866600Y-62020600D02*
X81866600Y-62579400D01*
X81866600Y-62579400D02*
X82933400Y-62579400D01*
X82430200Y-59791600D02*
X82430200Y-60350400D01*
X81769800Y-59791600D02*
X81769800Y-60350400D01*
X81566600Y-59791600D02*
X81566600Y-60350400D01*
X81566600Y-60350400D02*
X82633400Y-60350400D01*
X82633400Y-60350400D02*
X82633400Y-59791600D01*
X82633400Y-59791600D02*
X81566600Y-59791600D01*
M02*
